M48
; DRILL file {KiCad 8.0.2} date 2024-05-11T12:05:59+1000
; FORMAT={-:-/ absolute / metric / decimal}
; #@! TF.CreationDate,2024-05-11T12:05:59+10:00
; #@! TF.GenerationSoftware,Kicad,Pcbnew,8.0.2
; #@! TF.FileFunction,Plated,1,2,PTH
FMAT,2
METRIC
; #@! TA.AperFunction,Plated,PTH,ViaDrill
T1C0.300
; #@! TA.AperFunction,Plated,PTH,ViaDrill
T2C0.400
; #@! TA.AperFunction,Plated,PTH,ComponentDrill
T3C0.700
; #@! TA.AperFunction,Plated,PTH,ComponentDrill
T4C0.800
; #@! TA.AperFunction,Plated,PTH,ComponentDrill
T5C1.000
%
G90
G05
T1
X130.556Y-107.315
X132.08Y-94.996
X135.763Y-107.188
X142.494Y-105.207
X142.545Y-102.87
X145.923Y-105.791
X146.737Y-103.506
X147.162Y-102.215
X147.168Y-105.054
X147.777Y-101.843
X150.266Y-110.998
X150.49Y-106.28
X150.622Y-102.901
X150.927Y-107.629
X151.179Y-111.008
X151.232Y-106.121
X151.638Y-106.885
X152.248Y-105.156
X153.553Y-101.927
X153.67Y-90.678
X154.94Y-107.188
X155.321Y-105.029
X155.448Y-102.87
X158.547Y-105.258
X158.894Y-103.517
X159.006Y-95.91
X159.639Y-99.365
X161.29Y-105.791
X161.849Y-107.95
T2
X129.545Y-108.707
X129.545Y-110.739
X129.555Y-109.728
X130.434Y-108.707
X130.434Y-110.739
X130.444Y-109.728
X131.323Y-108.707
X131.323Y-110.739
X131.333Y-109.728
X132.082Y-101.557
X132.082Y-106.878
X132.212Y-108.707
X132.212Y-110.739
X132.222Y-109.728
X133.7Y-101.557
X133.7Y-106.878
X133.731Y-98.07
X134.97Y-108.542
X134.97Y-110.267
X135.382Y-98.07
X135.839Y-84.176
X135.89Y-82.702
X136.621Y-108.542
X136.621Y-110.267
X137.162Y-103.756
X137.162Y-104.772
X138.178Y-103.756
X138.178Y-104.772
X140.005Y-82.702
X140.005Y-84.176
X140.155Y-98.07
X140.587Y-106.934
X140.659Y-110.273
X142.369Y-106.804
X144.121Y-106.804
X145.29Y-111.376
X145.29Y-112.265
X145.29Y-113.154
X145.29Y-114.043
X145.29Y-114.932
X146.179Y-112.265
X146.179Y-113.154
X146.179Y-114.043
X146.179Y-114.932
X147.069Y-113.154
X147.069Y-114.043
X147.069Y-114.932
X148.252Y-98.776
X148.252Y-100.501
X150.777Y-98.61
X152.502Y-98.61
X152.527Y-113.538
X154.686Y-98.679
X156.548Y-96.977
X156.618Y-98.61
X157.023Y-110.888
X157.099Y-109.982
X162.712Y-102.921
X162.799Y-111.181
T4
X138.603Y-113.182
X141.203Y-113.182
T5
X162.306Y-98.049
X162.306Y-100.589
X165.989Y-97.536
X165.989Y-100.076
X165.989Y-102.616
X165.989Y-105.156
X165.989Y-107.696
T3
G00X145.95Y-92.262
M15
G01X145.95Y-91.438
M16
G05
G00X146.4Y-85.762
M15
G01X146.4Y-84.938
M16
G05
G00X146.75Y-94.412
M15
G01X146.75Y-93.588
M16
G05
G00X151.1Y-88.412
M15
G01X151.1Y-87.588
M16
G05
G00X151.1Y-93.412
M15
G01X151.1Y-92.588
M16
G05
G00X151.45Y-85.812
M15
G01X151.45Y-84.988
M16
G05
M30
