G04 #@! TF.GenerationSoftware,KiCad,Pcbnew,8.0.1*
G04 #@! TF.CreationDate,2024-04-27T09:51:47+09:30*
G04 #@! TF.ProjectId,hawk,6861776b-2e6b-4696-9361-645f70636258,1*
G04 #@! TF.SameCoordinates,Original*
G04 #@! TF.FileFunction,Legend,Bot*
G04 #@! TF.FilePolarity,Positive*
%FSLAX46Y46*%
G04 Gerber Fmt 4.6, Leading zero omitted, Abs format (unit mm)*
G04 Created by KiCad (PCBNEW 8.0.1) date 2024-04-27 09:51:47*
%MOMM*%
%LPD*%
G01*
G04 APERTURE LIST*
%ADD10C,0.150000*%
%ADD11C,0.200000*%
%ADD12C,0.000000*%
%ADD13C,0.120000*%
%ADD14C,0.152400*%
%ADD15C,3.200000*%
%ADD16R,1.700000X1.700000*%
%ADD17O,1.700000X1.700000*%
%ADD18R,1.244600X0.660400*%
%ADD19C,1.397000*%
%ADD20O,1.371600X2.006600*%
%ADD21O,1.100000X2.000000*%
G04 APERTURE END LIST*
D10*
X167779819Y-100825493D02*
X168494104Y-100825493D01*
X168494104Y-100825493D02*
X168636961Y-100777874D01*
X168636961Y-100777874D02*
X168732200Y-100682636D01*
X168732200Y-100682636D02*
X168779819Y-100539779D01*
X168779819Y-100539779D02*
X168779819Y-100444541D01*
X168779819Y-101777874D02*
X168779819Y-101301684D01*
X168779819Y-101301684D02*
X167779819Y-101301684D01*
X168684580Y-102682636D02*
X168732200Y-102635017D01*
X168732200Y-102635017D02*
X168779819Y-102492160D01*
X168779819Y-102492160D02*
X168779819Y-102396922D01*
X168779819Y-102396922D02*
X168732200Y-102254065D01*
X168732200Y-102254065D02*
X168636961Y-102158827D01*
X168636961Y-102158827D02*
X168541723Y-102111208D01*
X168541723Y-102111208D02*
X168351247Y-102063589D01*
X168351247Y-102063589D02*
X168208390Y-102063589D01*
X168208390Y-102063589D02*
X168017914Y-102111208D01*
X168017914Y-102111208D02*
X167922676Y-102158827D01*
X167922676Y-102158827D02*
X167827438Y-102254065D01*
X167827438Y-102254065D02*
X167779819Y-102396922D01*
X167779819Y-102396922D02*
X167779819Y-102492160D01*
X167779819Y-102492160D02*
X167827438Y-102635017D01*
X167827438Y-102635017D02*
X167875057Y-102682636D01*
X167779819Y-103396922D02*
X168494104Y-103396922D01*
X168494104Y-103396922D02*
X168636961Y-103349303D01*
X168636961Y-103349303D02*
X168732200Y-103254065D01*
X168732200Y-103254065D02*
X168779819Y-103111208D01*
X168779819Y-103111208D02*
X168779819Y-103015970D01*
X168779819Y-104349303D02*
X168779819Y-103873113D01*
X168779819Y-103873113D02*
X167779819Y-103873113D01*
X168684580Y-105254065D02*
X168732200Y-105206446D01*
X168732200Y-105206446D02*
X168779819Y-105063589D01*
X168779819Y-105063589D02*
X168779819Y-104968351D01*
X168779819Y-104968351D02*
X168732200Y-104825494D01*
X168732200Y-104825494D02*
X168636961Y-104730256D01*
X168636961Y-104730256D02*
X168541723Y-104682637D01*
X168541723Y-104682637D02*
X168351247Y-104635018D01*
X168351247Y-104635018D02*
X168208390Y-104635018D01*
X168208390Y-104635018D02*
X168017914Y-104682637D01*
X168017914Y-104682637D02*
X167922676Y-104730256D01*
X167922676Y-104730256D02*
X167827438Y-104825494D01*
X167827438Y-104825494D02*
X167779819Y-104968351D01*
X167779819Y-104968351D02*
X167779819Y-105063589D01*
X167779819Y-105063589D02*
X167827438Y-105206446D01*
X167827438Y-105206446D02*
X167875057Y-105254065D01*
X167779819Y-105968351D02*
X168494104Y-105968351D01*
X168494104Y-105968351D02*
X168636961Y-105920732D01*
X168636961Y-105920732D02*
X168732200Y-105825494D01*
X168732200Y-105825494D02*
X168779819Y-105682637D01*
X168779819Y-105682637D02*
X168779819Y-105587399D01*
X168779819Y-106920732D02*
X168779819Y-106444542D01*
X168779819Y-106444542D02*
X167779819Y-106444542D01*
X168684580Y-107825494D02*
X168732200Y-107777875D01*
X168732200Y-107777875D02*
X168779819Y-107635018D01*
X168779819Y-107635018D02*
X168779819Y-107539780D01*
X168779819Y-107539780D02*
X168732200Y-107396923D01*
X168732200Y-107396923D02*
X168636961Y-107301685D01*
X168636961Y-107301685D02*
X168541723Y-107254066D01*
X168541723Y-107254066D02*
X168351247Y-107206447D01*
X168351247Y-107206447D02*
X168208390Y-107206447D01*
X168208390Y-107206447D02*
X168017914Y-107254066D01*
X168017914Y-107254066D02*
X167922676Y-107301685D01*
X167922676Y-107301685D02*
X167827438Y-107396923D01*
X167827438Y-107396923D02*
X167779819Y-107539780D01*
X167779819Y-107539780D02*
X167779819Y-107635018D01*
X167779819Y-107635018D02*
X167827438Y-107777875D01*
X167827438Y-107777875D02*
X167875057Y-107825494D01*
X167779819Y-108539780D02*
X168494104Y-108539780D01*
X168494104Y-108539780D02*
X168636961Y-108492161D01*
X168636961Y-108492161D02*
X168732200Y-108396923D01*
X168732200Y-108396923D02*
X168779819Y-108254066D01*
X168779819Y-108254066D02*
X168779819Y-108158828D01*
X168779819Y-109492161D02*
X168779819Y-109015971D01*
X168779819Y-109015971D02*
X167779819Y-109015971D01*
X168684580Y-110396923D02*
X168732200Y-110349304D01*
X168732200Y-110349304D02*
X168779819Y-110206447D01*
X168779819Y-110206447D02*
X168779819Y-110111209D01*
X168779819Y-110111209D02*
X168732200Y-109968352D01*
X168732200Y-109968352D02*
X168636961Y-109873114D01*
X168636961Y-109873114D02*
X168541723Y-109825495D01*
X168541723Y-109825495D02*
X168351247Y-109777876D01*
X168351247Y-109777876D02*
X168208390Y-109777876D01*
X168208390Y-109777876D02*
X168017914Y-109825495D01*
X168017914Y-109825495D02*
X167922676Y-109873114D01*
X167922676Y-109873114D02*
X167827438Y-109968352D01*
X167827438Y-109968352D02*
X167779819Y-110111209D01*
X167779819Y-110111209D02*
X167779819Y-110206447D01*
X167779819Y-110206447D02*
X167827438Y-110349304D01*
X167827438Y-110349304D02*
X167875057Y-110396923D01*
X155875720Y-96428375D02*
X155875720Y-95428375D01*
X155875720Y-95904565D02*
X155304292Y-95904565D01*
X155304292Y-96428375D02*
X155304292Y-95428375D01*
X154399530Y-96428375D02*
X154399530Y-95904565D01*
X154399530Y-95904565D02*
X154447149Y-95809327D01*
X154447149Y-95809327D02*
X154542387Y-95761708D01*
X154542387Y-95761708D02*
X154732863Y-95761708D01*
X154732863Y-95761708D02*
X154828101Y-95809327D01*
X154399530Y-96380756D02*
X154494768Y-96428375D01*
X154494768Y-96428375D02*
X154732863Y-96428375D01*
X154732863Y-96428375D02*
X154828101Y-96380756D01*
X154828101Y-96380756D02*
X154875720Y-96285517D01*
X154875720Y-96285517D02*
X154875720Y-96190279D01*
X154875720Y-96190279D02*
X154828101Y-96095041D01*
X154828101Y-96095041D02*
X154732863Y-96047422D01*
X154732863Y-96047422D02*
X154494768Y-96047422D01*
X154494768Y-96047422D02*
X154399530Y-95999803D01*
X154018577Y-95761708D02*
X153828101Y-96428375D01*
X153828101Y-96428375D02*
X153637625Y-95952184D01*
X153637625Y-95952184D02*
X153447149Y-96428375D01*
X153447149Y-96428375D02*
X153256673Y-95761708D01*
X152875720Y-96428375D02*
X152875720Y-95428375D01*
X152780482Y-96047422D02*
X152494768Y-96428375D01*
X152494768Y-95761708D02*
X152875720Y-96142660D01*
X155542387Y-97514509D02*
X155399530Y-97562128D01*
X155399530Y-97562128D02*
X155351911Y-97609747D01*
X155351911Y-97609747D02*
X155304292Y-97704985D01*
X155304292Y-97704985D02*
X155304292Y-97847842D01*
X155304292Y-97847842D02*
X155351911Y-97943080D01*
X155351911Y-97943080D02*
X155399530Y-97990700D01*
X155399530Y-97990700D02*
X155494768Y-98038319D01*
X155494768Y-98038319D02*
X155875720Y-98038319D01*
X155875720Y-98038319D02*
X155875720Y-97038319D01*
X155875720Y-97038319D02*
X155542387Y-97038319D01*
X155542387Y-97038319D02*
X155447149Y-97085938D01*
X155447149Y-97085938D02*
X155399530Y-97133557D01*
X155399530Y-97133557D02*
X155351911Y-97228795D01*
X155351911Y-97228795D02*
X155351911Y-97324033D01*
X155351911Y-97324033D02*
X155399530Y-97419271D01*
X155399530Y-97419271D02*
X155447149Y-97466890D01*
X155447149Y-97466890D02*
X155542387Y-97514509D01*
X155542387Y-97514509D02*
X155875720Y-97514509D01*
X154970958Y-97371652D02*
X154732863Y-98038319D01*
X154494768Y-97371652D02*
X154732863Y-98038319D01*
X154732863Y-98038319D02*
X154828101Y-98276414D01*
X154828101Y-98276414D02*
X154875720Y-98324033D01*
X154875720Y-98324033D02*
X154970958Y-98371652D01*
X152780482Y-98038319D02*
X153113815Y-97562128D01*
X153351910Y-98038319D02*
X153351910Y-97038319D01*
X153351910Y-97038319D02*
X152970958Y-97038319D01*
X152970958Y-97038319D02*
X152875720Y-97085938D01*
X152875720Y-97085938D02*
X152828101Y-97133557D01*
X152828101Y-97133557D02*
X152780482Y-97228795D01*
X152780482Y-97228795D02*
X152780482Y-97371652D01*
X152780482Y-97371652D02*
X152828101Y-97466890D01*
X152828101Y-97466890D02*
X152875720Y-97514509D01*
X152875720Y-97514509D02*
X152970958Y-97562128D01*
X152970958Y-97562128D02*
X153351910Y-97562128D01*
X152447148Y-97371652D02*
X152209053Y-98038319D01*
X151970958Y-97371652D02*
X152209053Y-98038319D01*
X152209053Y-98038319D02*
X152304291Y-98276414D01*
X152304291Y-98276414D02*
X152351910Y-98324033D01*
X152351910Y-98324033D02*
X152447148Y-98371652D01*
X151685243Y-97371652D02*
X151161434Y-97371652D01*
X151161434Y-97371652D02*
X151685243Y-98038319D01*
X151685243Y-98038319D02*
X151161434Y-98038319D01*
X150399529Y-97990700D02*
X150494767Y-98038319D01*
X150494767Y-98038319D02*
X150685243Y-98038319D01*
X150685243Y-98038319D02*
X150780481Y-97990700D01*
X150780481Y-97990700D02*
X150828100Y-97895461D01*
X150828100Y-97895461D02*
X150828100Y-97514509D01*
X150828100Y-97514509D02*
X150780481Y-97419271D01*
X150780481Y-97419271D02*
X150685243Y-97371652D01*
X150685243Y-97371652D02*
X150494767Y-97371652D01*
X150494767Y-97371652D02*
X150399529Y-97419271D01*
X150399529Y-97419271D02*
X150351910Y-97514509D01*
X150351910Y-97514509D02*
X150351910Y-97609747D01*
X150351910Y-97609747D02*
X150828100Y-97704985D01*
X149542386Y-97990700D02*
X149637624Y-98038319D01*
X149637624Y-98038319D02*
X149828100Y-98038319D01*
X149828100Y-98038319D02*
X149923338Y-97990700D01*
X149923338Y-97990700D02*
X149970957Y-97895461D01*
X149970957Y-97895461D02*
X149970957Y-97514509D01*
X149970957Y-97514509D02*
X149923338Y-97419271D01*
X149923338Y-97419271D02*
X149828100Y-97371652D01*
X149828100Y-97371652D02*
X149637624Y-97371652D01*
X149637624Y-97371652D02*
X149542386Y-97419271D01*
X149542386Y-97419271D02*
X149494767Y-97514509D01*
X149494767Y-97514509D02*
X149494767Y-97609747D01*
X149494767Y-97609747D02*
X149970957Y-97704985D01*
X148542386Y-98038319D02*
X149113814Y-98038319D01*
X148828100Y-98038319D02*
X148828100Y-97038319D01*
X148828100Y-97038319D02*
X148923338Y-97181176D01*
X148923338Y-97181176D02*
X149018576Y-97276414D01*
X149018576Y-97276414D02*
X149113814Y-97324033D01*
X147590005Y-98038319D02*
X148161433Y-98038319D01*
X147875719Y-98038319D02*
X147875719Y-97038319D01*
X147875719Y-97038319D02*
X147970957Y-97181176D01*
X147970957Y-97181176D02*
X148066195Y-97276414D01*
X148066195Y-97276414D02*
X148161433Y-97324033D01*
X147113814Y-98038319D02*
X146923338Y-98038319D01*
X146923338Y-98038319D02*
X146828100Y-97990700D01*
X146828100Y-97990700D02*
X146780481Y-97943080D01*
X146780481Y-97943080D02*
X146685243Y-97800223D01*
X146685243Y-97800223D02*
X146637624Y-97609747D01*
X146637624Y-97609747D02*
X146637624Y-97228795D01*
X146637624Y-97228795D02*
X146685243Y-97133557D01*
X146685243Y-97133557D02*
X146732862Y-97085938D01*
X146732862Y-97085938D02*
X146828100Y-97038319D01*
X146828100Y-97038319D02*
X147018576Y-97038319D01*
X147018576Y-97038319D02*
X147113814Y-97085938D01*
X147113814Y-97085938D02*
X147161433Y-97133557D01*
X147161433Y-97133557D02*
X147209052Y-97228795D01*
X147209052Y-97228795D02*
X147209052Y-97466890D01*
X147209052Y-97466890D02*
X147161433Y-97562128D01*
X147161433Y-97562128D02*
X147113814Y-97609747D01*
X147113814Y-97609747D02*
X147018576Y-97657366D01*
X147018576Y-97657366D02*
X146828100Y-97657366D01*
X146828100Y-97657366D02*
X146732862Y-97609747D01*
X146732862Y-97609747D02*
X146685243Y-97562128D01*
X146685243Y-97562128D02*
X146637624Y-97466890D01*
D11*
X141189850Y-85787219D02*
X141094612Y-85787219D01*
X141094612Y-85787219D02*
X140999374Y-85834838D01*
X140999374Y-85834838D02*
X140951755Y-85882457D01*
X140951755Y-85882457D02*
X140904136Y-85977695D01*
X140904136Y-85977695D02*
X140856517Y-86168171D01*
X140856517Y-86168171D02*
X140856517Y-86406266D01*
X140856517Y-86406266D02*
X140904136Y-86596742D01*
X140904136Y-86596742D02*
X140951755Y-86691980D01*
X140951755Y-86691980D02*
X140999374Y-86739600D01*
X140999374Y-86739600D02*
X141094612Y-86787219D01*
X141094612Y-86787219D02*
X141189850Y-86787219D01*
X141189850Y-86787219D02*
X141285088Y-86739600D01*
X141285088Y-86739600D02*
X141332707Y-86691980D01*
X141332707Y-86691980D02*
X141380326Y-86596742D01*
X141380326Y-86596742D02*
X141427945Y-86406266D01*
X141427945Y-86406266D02*
X141427945Y-86168171D01*
X141427945Y-86168171D02*
X141380326Y-85977695D01*
X141380326Y-85977695D02*
X141332707Y-85882457D01*
X141332707Y-85882457D02*
X141285088Y-85834838D01*
X141285088Y-85834838D02*
X141189850Y-85787219D01*
X140475564Y-86739600D02*
X140380326Y-86787219D01*
X140380326Y-86787219D02*
X140189850Y-86787219D01*
X140189850Y-86787219D02*
X140094612Y-86739600D01*
X140094612Y-86739600D02*
X140046993Y-86644361D01*
X140046993Y-86644361D02*
X140046993Y-86596742D01*
X140046993Y-86596742D02*
X140094612Y-86501504D01*
X140094612Y-86501504D02*
X140189850Y-86453885D01*
X140189850Y-86453885D02*
X140332707Y-86453885D01*
X140332707Y-86453885D02*
X140427945Y-86406266D01*
X140427945Y-86406266D02*
X140475564Y-86311028D01*
X140475564Y-86311028D02*
X140475564Y-86263409D01*
X140475564Y-86263409D02*
X140427945Y-86168171D01*
X140427945Y-86168171D02*
X140332707Y-86120552D01*
X140332707Y-86120552D02*
X140189850Y-86120552D01*
X140189850Y-86120552D02*
X140094612Y-86168171D01*
X139618421Y-86691980D02*
X139570802Y-86739600D01*
X139570802Y-86739600D02*
X139618421Y-86787219D01*
X139618421Y-86787219D02*
X139666040Y-86739600D01*
X139666040Y-86739600D02*
X139618421Y-86691980D01*
X139618421Y-86691980D02*
X139618421Y-86787219D01*
X139618421Y-86168171D02*
X139570802Y-86215790D01*
X139570802Y-86215790D02*
X139618421Y-86263409D01*
X139618421Y-86263409D02*
X139666040Y-86215790D01*
X139666040Y-86215790D02*
X139618421Y-86168171D01*
X139618421Y-86168171D02*
X139618421Y-86263409D01*
X138523183Y-85787219D02*
X138189850Y-86787219D01*
X138189850Y-86787219D02*
X137856517Y-85787219D01*
X137332707Y-85787219D02*
X137142231Y-85787219D01*
X137142231Y-85787219D02*
X137046993Y-85834838D01*
X137046993Y-85834838D02*
X136951755Y-85930076D01*
X136951755Y-85930076D02*
X136904136Y-86120552D01*
X136904136Y-86120552D02*
X136904136Y-86453885D01*
X136904136Y-86453885D02*
X136951755Y-86644361D01*
X136951755Y-86644361D02*
X137046993Y-86739600D01*
X137046993Y-86739600D02*
X137142231Y-86787219D01*
X137142231Y-86787219D02*
X137332707Y-86787219D01*
X137332707Y-86787219D02*
X137427945Y-86739600D01*
X137427945Y-86739600D02*
X137523183Y-86644361D01*
X137523183Y-86644361D02*
X137570802Y-86453885D01*
X137570802Y-86453885D02*
X137570802Y-86120552D01*
X137570802Y-86120552D02*
X137523183Y-85930076D01*
X137523183Y-85930076D02*
X137427945Y-85834838D01*
X137427945Y-85834838D02*
X137332707Y-85787219D01*
X135999374Y-86787219D02*
X136475564Y-86787219D01*
X136475564Y-86787219D02*
X136475564Y-85787219D01*
X140856517Y-88397163D02*
X141427945Y-88397163D01*
X141142231Y-88397163D02*
X141142231Y-87397163D01*
X141142231Y-87397163D02*
X141237469Y-87540020D01*
X141237469Y-87540020D02*
X141332707Y-87635258D01*
X141332707Y-87635258D02*
X141427945Y-87682877D01*
X140475564Y-88349544D02*
X140380326Y-88397163D01*
X140380326Y-88397163D02*
X140189850Y-88397163D01*
X140189850Y-88397163D02*
X140094612Y-88349544D01*
X140094612Y-88349544D02*
X140046993Y-88254305D01*
X140046993Y-88254305D02*
X140046993Y-88206686D01*
X140046993Y-88206686D02*
X140094612Y-88111448D01*
X140094612Y-88111448D02*
X140189850Y-88063829D01*
X140189850Y-88063829D02*
X140332707Y-88063829D01*
X140332707Y-88063829D02*
X140427945Y-88016210D01*
X140427945Y-88016210D02*
X140475564Y-87920972D01*
X140475564Y-87920972D02*
X140475564Y-87873353D01*
X140475564Y-87873353D02*
X140427945Y-87778115D01*
X140427945Y-87778115D02*
X140332707Y-87730496D01*
X140332707Y-87730496D02*
X140189850Y-87730496D01*
X140189850Y-87730496D02*
X140094612Y-87778115D01*
X139618421Y-88301924D02*
X139570802Y-88349544D01*
X139570802Y-88349544D02*
X139618421Y-88397163D01*
X139618421Y-88397163D02*
X139666040Y-88349544D01*
X139666040Y-88349544D02*
X139618421Y-88301924D01*
X139618421Y-88301924D02*
X139618421Y-88397163D01*
X139618421Y-87778115D02*
X139570802Y-87825734D01*
X139570802Y-87825734D02*
X139618421Y-87873353D01*
X139618421Y-87873353D02*
X139666040Y-87825734D01*
X139666040Y-87825734D02*
X139618421Y-87778115D01*
X139618421Y-87778115D02*
X139618421Y-87873353D01*
X138380326Y-88397163D02*
X138380326Y-87397163D01*
X138380326Y-87397163D02*
X138046993Y-88111448D01*
X138046993Y-88111448D02*
X137713660Y-87397163D01*
X137713660Y-87397163D02*
X137713660Y-88397163D01*
X137237469Y-87397163D02*
X137237469Y-88206686D01*
X137237469Y-88206686D02*
X137189850Y-88301924D01*
X137189850Y-88301924D02*
X137142231Y-88349544D01*
X137142231Y-88349544D02*
X137046993Y-88397163D01*
X137046993Y-88397163D02*
X136856517Y-88397163D01*
X136856517Y-88397163D02*
X136761279Y-88349544D01*
X136761279Y-88349544D02*
X136713660Y-88301924D01*
X136713660Y-88301924D02*
X136666041Y-88206686D01*
X136666041Y-88206686D02*
X136666041Y-87397163D01*
X136332707Y-87397163D02*
X135761279Y-87397163D01*
X136046993Y-88397163D02*
X136046993Y-87397163D01*
X135427945Y-87873353D02*
X135094612Y-87873353D01*
X134951755Y-88397163D02*
X135427945Y-88397163D01*
X135427945Y-88397163D02*
X135427945Y-87397163D01*
X135427945Y-87397163D02*
X134951755Y-87397163D01*
X141427945Y-89102345D02*
X141380326Y-89054726D01*
X141380326Y-89054726D02*
X141285088Y-89007107D01*
X141285088Y-89007107D02*
X141046993Y-89007107D01*
X141046993Y-89007107D02*
X140951755Y-89054726D01*
X140951755Y-89054726D02*
X140904136Y-89102345D01*
X140904136Y-89102345D02*
X140856517Y-89197583D01*
X140856517Y-89197583D02*
X140856517Y-89292821D01*
X140856517Y-89292821D02*
X140904136Y-89435678D01*
X140904136Y-89435678D02*
X141475564Y-90007107D01*
X141475564Y-90007107D02*
X140856517Y-90007107D01*
X140475564Y-89959488D02*
X140380326Y-90007107D01*
X140380326Y-90007107D02*
X140189850Y-90007107D01*
X140189850Y-90007107D02*
X140094612Y-89959488D01*
X140094612Y-89959488D02*
X140046993Y-89864249D01*
X140046993Y-89864249D02*
X140046993Y-89816630D01*
X140046993Y-89816630D02*
X140094612Y-89721392D01*
X140094612Y-89721392D02*
X140189850Y-89673773D01*
X140189850Y-89673773D02*
X140332707Y-89673773D01*
X140332707Y-89673773D02*
X140427945Y-89626154D01*
X140427945Y-89626154D02*
X140475564Y-89530916D01*
X140475564Y-89530916D02*
X140475564Y-89483297D01*
X140475564Y-89483297D02*
X140427945Y-89388059D01*
X140427945Y-89388059D02*
X140332707Y-89340440D01*
X140332707Y-89340440D02*
X140189850Y-89340440D01*
X140189850Y-89340440D02*
X140094612Y-89388059D01*
X139618421Y-89911868D02*
X139570802Y-89959488D01*
X139570802Y-89959488D02*
X139618421Y-90007107D01*
X139618421Y-90007107D02*
X139666040Y-89959488D01*
X139666040Y-89959488D02*
X139618421Y-89911868D01*
X139618421Y-89911868D02*
X139618421Y-90007107D01*
X139618421Y-89388059D02*
X139570802Y-89435678D01*
X139570802Y-89435678D02*
X139618421Y-89483297D01*
X139618421Y-89483297D02*
X139666040Y-89435678D01*
X139666040Y-89435678D02*
X139618421Y-89388059D01*
X139618421Y-89388059D02*
X139618421Y-89483297D01*
X138380326Y-90007107D02*
X138380326Y-89007107D01*
X138380326Y-89007107D02*
X138046993Y-89721392D01*
X138046993Y-89721392D02*
X137713660Y-89007107D01*
X137713660Y-89007107D02*
X137713660Y-90007107D01*
X137237469Y-90007107D02*
X137237469Y-89007107D01*
X136189851Y-89911868D02*
X136237470Y-89959488D01*
X136237470Y-89959488D02*
X136380327Y-90007107D01*
X136380327Y-90007107D02*
X136475565Y-90007107D01*
X136475565Y-90007107D02*
X136618422Y-89959488D01*
X136618422Y-89959488D02*
X136713660Y-89864249D01*
X136713660Y-89864249D02*
X136761279Y-89769011D01*
X136761279Y-89769011D02*
X136808898Y-89578535D01*
X136808898Y-89578535D02*
X136808898Y-89435678D01*
X136808898Y-89435678D02*
X136761279Y-89245202D01*
X136761279Y-89245202D02*
X136713660Y-89149964D01*
X136713660Y-89149964D02*
X136618422Y-89054726D01*
X136618422Y-89054726D02*
X136475565Y-89007107D01*
X136475565Y-89007107D02*
X136380327Y-89007107D01*
X136380327Y-89007107D02*
X136237470Y-89054726D01*
X136237470Y-89054726D02*
X136189851Y-89102345D01*
X134475565Y-89054726D02*
X134570803Y-89007107D01*
X134570803Y-89007107D02*
X134713660Y-89007107D01*
X134713660Y-89007107D02*
X134856517Y-89054726D01*
X134856517Y-89054726D02*
X134951755Y-89149964D01*
X134951755Y-89149964D02*
X134999374Y-89245202D01*
X134999374Y-89245202D02*
X135046993Y-89435678D01*
X135046993Y-89435678D02*
X135046993Y-89578535D01*
X135046993Y-89578535D02*
X134999374Y-89769011D01*
X134999374Y-89769011D02*
X134951755Y-89864249D01*
X134951755Y-89864249D02*
X134856517Y-89959488D01*
X134856517Y-89959488D02*
X134713660Y-90007107D01*
X134713660Y-90007107D02*
X134618422Y-90007107D01*
X134618422Y-90007107D02*
X134475565Y-89959488D01*
X134475565Y-89959488D02*
X134427946Y-89911868D01*
X134427946Y-89911868D02*
X134427946Y-89578535D01*
X134427946Y-89578535D02*
X134618422Y-89578535D01*
X134046993Y-89721392D02*
X133570803Y-89721392D01*
X134142231Y-90007107D02*
X133808898Y-89007107D01*
X133808898Y-89007107D02*
X133475565Y-90007107D01*
X133142231Y-90007107D02*
X133142231Y-89007107D01*
X132666041Y-90007107D02*
X132666041Y-89007107D01*
X132666041Y-89007107D02*
X132094613Y-90007107D01*
X132094613Y-90007107D02*
X132094613Y-89007107D01*
X141237469Y-91045622D02*
X141332707Y-90998003D01*
X141332707Y-90998003D02*
X141380326Y-90950384D01*
X141380326Y-90950384D02*
X141427945Y-90855146D01*
X141427945Y-90855146D02*
X141427945Y-90807527D01*
X141427945Y-90807527D02*
X141380326Y-90712289D01*
X141380326Y-90712289D02*
X141332707Y-90664670D01*
X141332707Y-90664670D02*
X141237469Y-90617051D01*
X141237469Y-90617051D02*
X141046993Y-90617051D01*
X141046993Y-90617051D02*
X140951755Y-90664670D01*
X140951755Y-90664670D02*
X140904136Y-90712289D01*
X140904136Y-90712289D02*
X140856517Y-90807527D01*
X140856517Y-90807527D02*
X140856517Y-90855146D01*
X140856517Y-90855146D02*
X140904136Y-90950384D01*
X140904136Y-90950384D02*
X140951755Y-90998003D01*
X140951755Y-90998003D02*
X141046993Y-91045622D01*
X141046993Y-91045622D02*
X141237469Y-91045622D01*
X141237469Y-91045622D02*
X141332707Y-91093241D01*
X141332707Y-91093241D02*
X141380326Y-91140860D01*
X141380326Y-91140860D02*
X141427945Y-91236098D01*
X141427945Y-91236098D02*
X141427945Y-91426574D01*
X141427945Y-91426574D02*
X141380326Y-91521812D01*
X141380326Y-91521812D02*
X141332707Y-91569432D01*
X141332707Y-91569432D02*
X141237469Y-91617051D01*
X141237469Y-91617051D02*
X141046993Y-91617051D01*
X141046993Y-91617051D02*
X140951755Y-91569432D01*
X140951755Y-91569432D02*
X140904136Y-91521812D01*
X140904136Y-91521812D02*
X140856517Y-91426574D01*
X140856517Y-91426574D02*
X140856517Y-91236098D01*
X140856517Y-91236098D02*
X140904136Y-91140860D01*
X140904136Y-91140860D02*
X140951755Y-91093241D01*
X140951755Y-91093241D02*
X141046993Y-91045622D01*
X140475564Y-91569432D02*
X140380326Y-91617051D01*
X140380326Y-91617051D02*
X140189850Y-91617051D01*
X140189850Y-91617051D02*
X140094612Y-91569432D01*
X140094612Y-91569432D02*
X140046993Y-91474193D01*
X140046993Y-91474193D02*
X140046993Y-91426574D01*
X140046993Y-91426574D02*
X140094612Y-91331336D01*
X140094612Y-91331336D02*
X140189850Y-91283717D01*
X140189850Y-91283717D02*
X140332707Y-91283717D01*
X140332707Y-91283717D02*
X140427945Y-91236098D01*
X140427945Y-91236098D02*
X140475564Y-91140860D01*
X140475564Y-91140860D02*
X140475564Y-91093241D01*
X140475564Y-91093241D02*
X140427945Y-90998003D01*
X140427945Y-90998003D02*
X140332707Y-90950384D01*
X140332707Y-90950384D02*
X140189850Y-90950384D01*
X140189850Y-90950384D02*
X140094612Y-90998003D01*
X139618421Y-91521812D02*
X139570802Y-91569432D01*
X139570802Y-91569432D02*
X139618421Y-91617051D01*
X139618421Y-91617051D02*
X139666040Y-91569432D01*
X139666040Y-91569432D02*
X139618421Y-91521812D01*
X139618421Y-91521812D02*
X139618421Y-91617051D01*
X139618421Y-90998003D02*
X139570802Y-91045622D01*
X139570802Y-91045622D02*
X139618421Y-91093241D01*
X139618421Y-91093241D02*
X139666040Y-91045622D01*
X139666040Y-91045622D02*
X139618421Y-90998003D01*
X139618421Y-90998003D02*
X139618421Y-91093241D01*
X137808898Y-91617051D02*
X138142231Y-91140860D01*
X138380326Y-91617051D02*
X138380326Y-90617051D01*
X138380326Y-90617051D02*
X137999374Y-90617051D01*
X137999374Y-90617051D02*
X137904136Y-90664670D01*
X137904136Y-90664670D02*
X137856517Y-90712289D01*
X137856517Y-90712289D02*
X137808898Y-90807527D01*
X137808898Y-90807527D02*
X137808898Y-90950384D01*
X137808898Y-90950384D02*
X137856517Y-91045622D01*
X137856517Y-91045622D02*
X137904136Y-91093241D01*
X137904136Y-91093241D02*
X137999374Y-91140860D01*
X137999374Y-91140860D02*
X138380326Y-91140860D01*
X137380326Y-91093241D02*
X137046993Y-91093241D01*
X136904136Y-91617051D02*
X137380326Y-91617051D01*
X137380326Y-91617051D02*
X137380326Y-90617051D01*
X137380326Y-90617051D02*
X136904136Y-90617051D01*
X136523183Y-91569432D02*
X136380326Y-91617051D01*
X136380326Y-91617051D02*
X136142231Y-91617051D01*
X136142231Y-91617051D02*
X136046993Y-91569432D01*
X136046993Y-91569432D02*
X135999374Y-91521812D01*
X135999374Y-91521812D02*
X135951755Y-91426574D01*
X135951755Y-91426574D02*
X135951755Y-91331336D01*
X135951755Y-91331336D02*
X135999374Y-91236098D01*
X135999374Y-91236098D02*
X136046993Y-91188479D01*
X136046993Y-91188479D02*
X136142231Y-91140860D01*
X136142231Y-91140860D02*
X136332707Y-91093241D01*
X136332707Y-91093241D02*
X136427945Y-91045622D01*
X136427945Y-91045622D02*
X136475564Y-90998003D01*
X136475564Y-90998003D02*
X136523183Y-90902765D01*
X136523183Y-90902765D02*
X136523183Y-90807527D01*
X136523183Y-90807527D02*
X136475564Y-90712289D01*
X136475564Y-90712289D02*
X136427945Y-90664670D01*
X136427945Y-90664670D02*
X136332707Y-90617051D01*
X136332707Y-90617051D02*
X136094612Y-90617051D01*
X136094612Y-90617051D02*
X135951755Y-90664670D01*
X135523183Y-91093241D02*
X135189850Y-91093241D01*
X135046993Y-91617051D02*
X135523183Y-91617051D01*
X135523183Y-91617051D02*
X135523183Y-90617051D01*
X135523183Y-90617051D02*
X135046993Y-90617051D01*
X134761278Y-90617051D02*
X134189850Y-90617051D01*
X134475564Y-91617051D02*
X134475564Y-90617051D01*
D12*
G36*
X143938323Y-110723311D02*
G01*
X143938323Y-110950677D01*
X143256226Y-110950677D01*
X142574129Y-110950677D01*
X142574129Y-110723311D01*
X142574129Y-110495945D01*
X143256226Y-110495945D01*
X143938323Y-110495945D01*
X143938323Y-110723311D01*
G37*
G36*
X143028860Y-111632774D02*
G01*
X143028860Y-111860140D01*
X142801494Y-111860140D01*
X142574129Y-111860140D01*
X142574129Y-111632774D01*
X142574129Y-111405408D01*
X142801494Y-111405408D01*
X143028860Y-111405408D01*
X143028860Y-111632774D01*
G37*
G36*
X143938323Y-104811802D02*
G01*
X143938323Y-105039168D01*
X143710957Y-105039168D01*
X143483592Y-105039168D01*
X143483592Y-104811802D01*
X143483592Y-104584436D01*
X143710957Y-104584436D01*
X143938323Y-104584436D01*
X143938323Y-104811802D01*
G37*
G36*
X145302518Y-108222288D02*
G01*
X145302518Y-108677020D01*
X145075152Y-108677020D01*
X144847786Y-108677020D01*
X144847786Y-108222288D01*
X144847786Y-107767557D01*
X145075152Y-107767557D01*
X145302518Y-107767557D01*
X145302518Y-108222288D01*
G37*
G36*
X145757249Y-103902339D02*
G01*
X145757249Y-104129705D01*
X145529883Y-104129705D01*
X145302518Y-104129705D01*
X145302518Y-103902339D01*
X145302518Y-103674974D01*
X145529883Y-103674974D01*
X145757249Y-103674974D01*
X145757249Y-103902339D01*
G37*
G36*
X145757249Y-106175997D02*
G01*
X145757249Y-106403362D01*
X145529883Y-106403362D01*
X145302518Y-106403362D01*
X145302518Y-106175997D01*
X145302518Y-105948631D01*
X145529883Y-105948631D01*
X145757249Y-105948631D01*
X145757249Y-106175997D01*
G37*
G36*
X146666712Y-103902339D02*
G01*
X146666712Y-104129705D01*
X146439346Y-104129705D01*
X146211980Y-104129705D01*
X146211980Y-103902339D01*
X146211980Y-103674974D01*
X146439346Y-103674974D01*
X146666712Y-103674974D01*
X146666712Y-103902339D01*
G37*
G36*
X147576175Y-110268580D02*
G01*
X147576175Y-110495945D01*
X147348809Y-110495945D01*
X147121443Y-110495945D01*
X147121443Y-110268580D01*
X147121443Y-110041214D01*
X147348809Y-110041214D01*
X147576175Y-110041214D01*
X147576175Y-110268580D01*
G37*
G36*
X148030906Y-105721265D02*
G01*
X148030906Y-105948631D01*
X147803541Y-105948631D01*
X147576175Y-105948631D01*
X147576175Y-105721265D01*
X147576175Y-105493899D01*
X147803541Y-105493899D01*
X148030906Y-105493899D01*
X148030906Y-105721265D01*
G37*
G36*
X148485638Y-106630728D02*
G01*
X148485638Y-106858094D01*
X148258272Y-106858094D01*
X148030906Y-106858094D01*
X148030906Y-106630728D01*
X148030906Y-106403362D01*
X148258272Y-106403362D01*
X148485638Y-106403362D01*
X148485638Y-106630728D01*
G37*
G36*
X149849832Y-100946585D02*
G01*
X149849832Y-101401316D01*
X149622466Y-101401316D01*
X149395101Y-101401316D01*
X149395101Y-100946585D01*
X149395101Y-100491853D01*
X149622466Y-100491853D01*
X149849832Y-100491853D01*
X149849832Y-100946585D01*
G37*
G36*
X152123489Y-107085459D02*
G01*
X152123489Y-107312825D01*
X151896124Y-107312825D01*
X151668758Y-107312825D01*
X151668758Y-107085459D01*
X151668758Y-106858094D01*
X151896124Y-106858094D01*
X152123489Y-106858094D01*
X152123489Y-107085459D01*
G37*
G36*
X152578221Y-103902339D02*
G01*
X152578221Y-104129705D01*
X152350855Y-104129705D01*
X152123489Y-104129705D01*
X152123489Y-103902339D01*
X152123489Y-103674974D01*
X152350855Y-103674974D01*
X152578221Y-103674974D01*
X152578221Y-103902339D01*
G37*
G36*
X152578221Y-105721265D02*
G01*
X152578221Y-105948631D01*
X152350855Y-105948631D01*
X152123489Y-105948631D01*
X152123489Y-105721265D01*
X152123489Y-105493899D01*
X152350855Y-105493899D01*
X152578221Y-105493899D01*
X152578221Y-105721265D01*
G37*
G36*
X152578221Y-106630728D02*
G01*
X152578221Y-106858094D01*
X152350855Y-106858094D01*
X152123489Y-106858094D01*
X152123489Y-106630728D01*
X152123489Y-106403362D01*
X152350855Y-106403362D01*
X152578221Y-106403362D01*
X152578221Y-106630728D01*
G37*
G36*
X153487684Y-104357071D02*
G01*
X153487684Y-104584436D01*
X153260318Y-104584436D01*
X153032952Y-104584436D01*
X153032952Y-104357071D01*
X153032952Y-104129705D01*
X153260318Y-104129705D01*
X153487684Y-104129705D01*
X153487684Y-104357071D01*
G37*
G36*
X153942415Y-103902339D02*
G01*
X153942415Y-104129705D01*
X153715049Y-104129705D01*
X153487684Y-104129705D01*
X153487684Y-103902339D01*
X153487684Y-103674974D01*
X153715049Y-103674974D01*
X153942415Y-103674974D01*
X153942415Y-103902339D01*
G37*
G36*
X145757249Y-111405408D02*
G01*
X145757249Y-111860140D01*
X145529883Y-111860140D01*
X145302518Y-111860140D01*
X145302518Y-112087506D01*
X145302518Y-112314871D01*
X144847786Y-112314871D01*
X144393055Y-112314871D01*
X144393055Y-111860140D01*
X144393055Y-111405408D01*
X144847786Y-111405408D01*
X145302518Y-111405408D01*
X145302518Y-111178043D01*
X145302518Y-110950677D01*
X145529883Y-110950677D01*
X145757249Y-110950677D01*
X145757249Y-111405408D01*
G37*
G36*
X144821801Y-101173951D02*
G01*
X144821801Y-102284795D01*
X143710957Y-102284795D01*
X142600113Y-102284795D01*
X142600113Y-101856048D01*
X143028860Y-101856048D01*
X143710957Y-101856048D01*
X144393055Y-101856048D01*
X144393055Y-101173951D01*
X144393055Y-100491853D01*
X143710957Y-100491853D01*
X143028860Y-100491853D01*
X143028860Y-101173951D01*
X143028860Y-101856048D01*
X142600113Y-101856048D01*
X142600113Y-101173951D01*
X142600113Y-100063107D01*
X143710957Y-100063107D01*
X144821801Y-100063107D01*
X144821801Y-100491853D01*
X144821801Y-101173951D01*
G37*
G36*
X145757249Y-109813848D02*
G01*
X145757249Y-110495945D01*
X145075152Y-110495945D01*
X144393055Y-110495945D01*
X144393055Y-110041214D01*
X144847786Y-110041214D01*
X145075152Y-110041214D01*
X145302518Y-110041214D01*
X145302518Y-109813848D01*
X145302518Y-109586482D01*
X145075152Y-109586482D01*
X144847786Y-109586482D01*
X144847786Y-109813848D01*
X144847786Y-110041214D01*
X144393055Y-110041214D01*
X144393055Y-109813848D01*
X144393055Y-109131751D01*
X145075152Y-109131751D01*
X145757249Y-109131751D01*
X145757249Y-109586482D01*
X145757249Y-109813848D01*
G37*
G36*
X154825893Y-101173951D02*
G01*
X154825893Y-102284795D01*
X153715049Y-102284795D01*
X152604205Y-102284795D01*
X152604205Y-101856048D01*
X153032952Y-101856048D01*
X153715049Y-101856048D01*
X154397147Y-101856048D01*
X154397147Y-101173951D01*
X154397147Y-100491853D01*
X153715049Y-100491853D01*
X153032952Y-100491853D01*
X153032952Y-101173951D01*
X153032952Y-101856048D01*
X152604205Y-101856048D01*
X152604205Y-101173951D01*
X152604205Y-100063107D01*
X153715049Y-100063107D01*
X154825893Y-100063107D01*
X154825893Y-100491853D01*
X154825893Y-101173951D01*
G37*
G36*
X154825893Y-111178043D02*
G01*
X154825893Y-112288887D01*
X153715049Y-112288887D01*
X152604205Y-112288887D01*
X152604205Y-111860140D01*
X153032952Y-111860140D01*
X153715049Y-111860140D01*
X154397147Y-111860140D01*
X154397147Y-111178043D01*
X154397147Y-110495945D01*
X153715049Y-110495945D01*
X153032952Y-110495945D01*
X153032952Y-111178043D01*
X153032952Y-111860140D01*
X152604205Y-111860140D01*
X152604205Y-111178043D01*
X152604205Y-110067199D01*
X153715049Y-110067199D01*
X154825893Y-110067199D01*
X154825893Y-110495945D01*
X154825893Y-111178043D01*
G37*
G36*
X146666712Y-106630728D02*
G01*
X146666712Y-108677020D01*
X146439346Y-108677020D01*
X146211980Y-108677020D01*
X146211980Y-108449654D01*
X146211980Y-108222288D01*
X145984615Y-108222288D01*
X145757249Y-108222288D01*
X145757249Y-107994922D01*
X145757249Y-107767557D01*
X145984615Y-107767557D01*
X146211980Y-107767557D01*
X146211980Y-106630728D01*
X146211980Y-105493899D01*
X145984615Y-105493899D01*
X145757249Y-105493899D01*
X145757249Y-105266534D01*
X145757249Y-105039168D01*
X145984615Y-105039168D01*
X146211980Y-105039168D01*
X146211980Y-104811802D01*
X146211980Y-104584436D01*
X146439346Y-104584436D01*
X146666712Y-104584436D01*
X146666712Y-106630728D01*
G37*
G36*
X150986661Y-108222288D02*
G01*
X151214026Y-108222288D01*
X151214026Y-108449654D01*
X151214026Y-108677020D01*
X150986661Y-108677020D01*
X150759295Y-108677020D01*
X150759295Y-108449654D01*
X150759295Y-108222288D01*
X150986661Y-108222288D01*
G37*
G36*
X150531929Y-107312825D02*
G01*
X150759295Y-107312825D01*
X150759295Y-107767557D01*
X150759295Y-108222288D01*
X150531929Y-108222288D01*
X150304564Y-108222288D01*
X150304564Y-107767557D01*
X150304564Y-107312825D01*
X150531929Y-107312825D01*
G37*
G36*
X150304564Y-107085459D02*
G01*
X150304564Y-107312825D01*
X150077198Y-107312825D01*
X149849832Y-107312825D01*
X149849832Y-107085459D01*
X149849832Y-106858094D01*
X150077198Y-106858094D01*
X150304564Y-106858094D01*
X150304564Y-107085459D01*
G37*
G36*
X149395101Y-108677020D02*
G01*
X149849832Y-108677020D01*
X149849832Y-108904385D01*
X149849832Y-109131751D01*
X150531929Y-109131751D01*
X151214026Y-109131751D01*
X151214026Y-108904385D01*
X151214026Y-108677020D01*
X151441392Y-108677020D01*
X151668758Y-108677020D01*
X151668758Y-108904385D01*
X151668758Y-109131751D01*
X151441392Y-109131751D01*
X151214026Y-109131751D01*
X151214026Y-109359117D01*
X151214026Y-109586482D01*
X150304564Y-109586482D01*
X149395101Y-109586482D01*
X149395101Y-109359117D01*
X149395101Y-109131751D01*
X149167735Y-109131751D01*
X148940369Y-109131751D01*
X148940369Y-108904385D01*
X148940369Y-108677020D01*
X149395101Y-108677020D01*
G37*
G36*
X148030906Y-107312825D02*
G01*
X148030906Y-107767557D01*
X148258272Y-107767557D01*
X148485638Y-107767557D01*
X148485638Y-107540191D01*
X148485638Y-107312825D01*
X149167735Y-107312825D01*
X149849832Y-107312825D01*
X149849832Y-107540191D01*
X149849832Y-107767557D01*
X149395101Y-107767557D01*
X148940369Y-107767557D01*
X148940369Y-108222288D01*
X148940369Y-108677020D01*
X148485638Y-108677020D01*
X148030906Y-108677020D01*
X148030906Y-108449654D01*
X148030906Y-108222288D01*
X147576175Y-108222288D01*
X147121443Y-108222288D01*
X147121443Y-107994922D01*
X147121443Y-107767557D01*
X147348809Y-107767557D01*
X147576175Y-107767557D01*
X147576175Y-107312825D01*
X147576175Y-106858094D01*
X147803541Y-106858094D01*
X148030906Y-106858094D01*
X148030906Y-107312825D01*
G37*
G36*
X144393055Y-107767557D02*
G01*
X144165689Y-107767557D01*
X143938323Y-107767557D01*
X143938323Y-108904385D01*
X143938323Y-110041214D01*
X143483592Y-110041214D01*
X143028860Y-110041214D01*
X143028860Y-109813848D01*
X143028860Y-109586482D01*
X143256226Y-109586482D01*
X143483592Y-109586482D01*
X143483592Y-109131751D01*
X143483592Y-108677020D01*
X143256226Y-108677020D01*
X143028860Y-108677020D01*
X143028860Y-108222288D01*
X143028860Y-107767557D01*
X143483592Y-107767557D01*
X143710957Y-107767557D01*
X143938323Y-107767557D01*
X143938323Y-107540191D01*
X143938323Y-107312825D01*
X143710957Y-107312825D01*
X143483592Y-107312825D01*
X143483592Y-107540191D01*
X143483592Y-107767557D01*
X143028860Y-107767557D01*
X142801494Y-107767557D01*
X142574129Y-107767557D01*
X142574129Y-107540191D01*
X142574129Y-107312825D01*
X142801494Y-107312825D01*
X143028860Y-107312825D01*
X143028860Y-106858094D01*
X143028860Y-106403362D01*
X143256226Y-106403362D01*
X143483592Y-106403362D01*
X143483592Y-106630728D01*
X143483592Y-106858094D01*
X143710957Y-106858094D01*
X143938323Y-106858094D01*
X143938323Y-106630728D01*
X143938323Y-106403362D01*
X144393055Y-106403362D01*
X144847786Y-106403362D01*
X144847786Y-106630728D01*
X144847786Y-106858094D01*
X144620420Y-106858094D01*
X144393055Y-106858094D01*
X144393055Y-107312825D01*
X144393055Y-107767557D01*
G37*
G36*
X145302518Y-106858094D02*
G01*
X145757249Y-106858094D01*
X145757249Y-107085459D01*
X145757249Y-107312825D01*
X145302518Y-107312825D01*
X144847786Y-107312825D01*
X144847786Y-107085459D01*
X144847786Y-106858094D01*
X145302518Y-106858094D01*
G37*
G36*
X153942415Y-105948631D02*
G01*
X154397147Y-105948631D01*
X154397147Y-106175997D01*
X154397147Y-106403362D01*
X154624512Y-106403362D01*
X154851878Y-106403362D01*
X154851878Y-106858094D01*
X154851878Y-107312825D01*
X154624512Y-107312825D01*
X154397147Y-107312825D01*
X154397147Y-107540191D01*
X154397147Y-107767557D01*
X154169781Y-107767557D01*
X153942415Y-107767557D01*
X153942415Y-107994922D01*
X153942415Y-108222288D01*
X153487684Y-108222288D01*
X153032952Y-108222288D01*
X153032952Y-108449654D01*
X153032952Y-108677020D01*
X152350855Y-108677020D01*
X151668758Y-108677020D01*
X151668758Y-108449654D01*
X151668758Y-108222288D01*
X151441392Y-108222288D01*
X151214026Y-108222288D01*
X151214026Y-107994922D01*
X151214026Y-107767557D01*
X151668758Y-107767557D01*
X152123489Y-107767557D01*
X152123489Y-107994922D01*
X152123489Y-108222288D01*
X152350855Y-108222288D01*
X152578221Y-108222288D01*
X152578221Y-107994922D01*
X152578221Y-107767557D01*
X152350855Y-107767557D01*
X152123489Y-107767557D01*
X152123489Y-107540191D01*
X152123489Y-107312825D01*
X152350855Y-107312825D01*
X152578221Y-107312825D01*
X152578221Y-107085459D01*
X152578221Y-106858094D01*
X152805587Y-106858094D01*
X153032952Y-106858094D01*
X153032952Y-107312825D01*
X153032952Y-107767557D01*
X153260318Y-107767557D01*
X153487684Y-107767557D01*
X153487684Y-107312825D01*
X153487684Y-106858094D01*
X153715049Y-106858094D01*
X153942415Y-106858094D01*
X153942415Y-107085459D01*
X153942415Y-107312825D01*
X154169781Y-107312825D01*
X154397147Y-107312825D01*
X154397147Y-107085459D01*
X154397147Y-106858094D01*
X154169781Y-106858094D01*
X153942415Y-106858094D01*
X153942415Y-106630728D01*
X153942415Y-106403362D01*
X153715049Y-106403362D01*
X153487684Y-106403362D01*
X153487684Y-106175997D01*
X153487684Y-105948631D01*
X153942415Y-105948631D01*
G37*
G36*
X148485638Y-103220242D02*
G01*
X148713003Y-103220242D01*
X148940369Y-103220242D01*
X148940369Y-102765511D01*
X148940369Y-102310779D01*
X149167735Y-102310779D01*
X149395101Y-102310779D01*
X149395101Y-102538145D01*
X149395101Y-102765511D01*
X149622466Y-102765511D01*
X149849832Y-102765511D01*
X149849832Y-102538145D01*
X149849832Y-102310779D01*
X149622466Y-102310779D01*
X149395101Y-102310779D01*
X149395101Y-102083413D01*
X149395101Y-101856048D01*
X150077198Y-101856048D01*
X150759295Y-101856048D01*
X150759295Y-102083413D01*
X150759295Y-102310779D01*
X150531929Y-102310779D01*
X150304564Y-102310779D01*
X150304564Y-102538145D01*
X150304564Y-102765511D01*
X150531929Y-102765511D01*
X150759295Y-102765511D01*
X150759295Y-102538145D01*
X150759295Y-102310779D01*
X150986661Y-102310779D01*
X151214026Y-102310779D01*
X151214026Y-102538145D01*
X151214026Y-102765511D01*
X150986661Y-102765511D01*
X150759295Y-102765511D01*
X150759295Y-102992876D01*
X150759295Y-103220242D01*
X150531929Y-103220242D01*
X150304564Y-103220242D01*
X150304564Y-103674974D01*
X150304564Y-104129705D01*
X150077198Y-104129705D01*
X149849832Y-104129705D01*
X149849832Y-104357071D01*
X149849832Y-104584436D01*
X149622466Y-104584436D01*
X149395101Y-104584436D01*
X149395101Y-104811802D01*
X149395101Y-105039168D01*
X149622466Y-105039168D01*
X149849832Y-105039168D01*
X149849832Y-105266534D01*
X149849832Y-105493899D01*
X150077198Y-105493899D01*
X150304564Y-105493899D01*
X150304564Y-105266534D01*
X150304564Y-105039168D01*
X150531929Y-105039168D01*
X150759295Y-105039168D01*
X150759295Y-104811802D01*
X150759295Y-104584436D01*
X150986661Y-104584436D01*
X151214026Y-104584436D01*
X151214026Y-104357071D01*
X151214026Y-104129705D01*
X151441392Y-104129705D01*
X151668758Y-104129705D01*
X151668758Y-104584436D01*
X151668758Y-105039168D01*
X151896124Y-105039168D01*
X152123489Y-105039168D01*
X152123489Y-104811802D01*
X152123489Y-104584436D01*
X152578221Y-104584436D01*
X153032952Y-104584436D01*
X153032952Y-105039168D01*
X153032952Y-105493899D01*
X152805587Y-105493899D01*
X152578221Y-105493899D01*
X152578221Y-105266534D01*
X152578221Y-105039168D01*
X152350855Y-105039168D01*
X152123489Y-105039168D01*
X152123489Y-105266534D01*
X152123489Y-105493899D01*
X151214026Y-105493899D01*
X150304564Y-105493899D01*
X150304564Y-105721265D01*
X150304564Y-105948631D01*
X151214026Y-105948631D01*
X152123489Y-105948631D01*
X152123489Y-106175997D01*
X152123489Y-106403362D01*
X151896124Y-106403362D01*
X151668758Y-106403362D01*
X151668758Y-106630728D01*
X151668758Y-106858094D01*
X151441392Y-106858094D01*
X151214026Y-106858094D01*
X151214026Y-106630728D01*
X151214026Y-106403362D01*
X150986661Y-106403362D01*
X150759295Y-106403362D01*
X150759295Y-106630728D01*
X150759295Y-106858094D01*
X150531929Y-106858094D01*
X150304564Y-106858094D01*
X150304564Y-106630728D01*
X150304564Y-106403362D01*
X149395101Y-106403362D01*
X148485638Y-106403362D01*
X148485638Y-105948631D01*
X148485638Y-105493899D01*
X148258272Y-105493899D01*
X148030906Y-105493899D01*
X148030906Y-105266534D01*
X148030906Y-105039168D01*
X147576175Y-105039168D01*
X147121443Y-105039168D01*
X147121443Y-104584436D01*
X147121443Y-104129705D01*
X147348809Y-104129705D01*
X147576175Y-104129705D01*
X147576175Y-104357071D01*
X147576175Y-104584436D01*
X147803541Y-104584436D01*
X148030906Y-104584436D01*
X148030906Y-104811802D01*
X148030906Y-105039168D01*
X148485638Y-105039168D01*
X148940369Y-105039168D01*
X148940369Y-104811802D01*
X148940369Y-104584436D01*
X148485638Y-104584436D01*
X148030906Y-104584436D01*
X148030906Y-104357071D01*
X148030906Y-104129705D01*
X147803541Y-104129705D01*
X147576175Y-104129705D01*
X147576175Y-103902339D01*
X147576175Y-103674974D01*
X147348809Y-103674974D01*
X147121443Y-103674974D01*
X147121443Y-103447608D01*
X147121443Y-103220242D01*
X147348809Y-103220242D01*
X147576175Y-103220242D01*
X148030906Y-103220242D01*
X148030906Y-103674974D01*
X148030906Y-104129705D01*
X148485638Y-104129705D01*
X148940369Y-104129705D01*
X149395101Y-104129705D01*
X149622466Y-104129705D01*
X149849832Y-104129705D01*
X149849832Y-103674974D01*
X149849832Y-103220242D01*
X149622466Y-103220242D01*
X149395101Y-103220242D01*
X149395101Y-103674974D01*
X149395101Y-104129705D01*
X148940369Y-104129705D01*
X148940369Y-103902339D01*
X148940369Y-103674974D01*
X148713003Y-103674974D01*
X148485638Y-103674974D01*
X148485638Y-103447608D01*
X148485638Y-103220242D01*
X148258272Y-103220242D01*
X148030906Y-103220242D01*
X147576175Y-103220242D01*
X147576175Y-102992876D01*
X147576175Y-102765511D01*
X147803541Y-102765511D01*
X148030906Y-102765511D01*
X148030906Y-102538145D01*
X148030906Y-102310779D01*
X147803541Y-102310779D01*
X147576175Y-102310779D01*
X147576175Y-102538145D01*
X147576175Y-102765511D01*
X147348809Y-102765511D01*
X147121443Y-102765511D01*
X147121443Y-101856048D01*
X147121443Y-100946585D01*
X146894078Y-100946585D01*
X146666712Y-100946585D01*
X146666712Y-100719219D01*
X146666712Y-100491853D01*
X146894078Y-100491853D01*
X147121443Y-100491853D01*
X147121443Y-100719219D01*
X147121443Y-100946585D01*
X147576175Y-100946585D01*
X148030906Y-100946585D01*
X148030906Y-100719219D01*
X148030906Y-100491853D01*
X148485638Y-100491853D01*
X148940369Y-100491853D01*
X148940369Y-100719219D01*
X148940369Y-100946585D01*
X148485638Y-100946585D01*
X148030906Y-100946585D01*
X148030906Y-101173951D01*
X148030906Y-101401316D01*
X147803541Y-101401316D01*
X147576175Y-101401316D01*
X147576175Y-101628682D01*
X147576175Y-101856048D01*
X147803541Y-101856048D01*
X148030906Y-101856048D01*
X148030906Y-101628682D01*
X148030906Y-101401316D01*
X148258272Y-101401316D01*
X148485638Y-101401316D01*
X148485638Y-102310779D01*
X148485638Y-103220242D01*
G37*
G36*
X153260318Y-105493899D02*
G01*
X153487684Y-105493899D01*
X153487684Y-105721265D01*
X153487684Y-105948631D01*
X153260318Y-105948631D01*
X153032952Y-105948631D01*
X153032952Y-105721265D01*
X153032952Y-105493899D01*
X153260318Y-105493899D01*
G37*
G36*
X151214026Y-103902339D02*
G01*
X151214026Y-104129705D01*
X150986661Y-104129705D01*
X150759295Y-104129705D01*
X150759295Y-103902339D01*
X150759295Y-103674974D01*
X150986661Y-103674974D01*
X151214026Y-103674974D01*
X151214026Y-103902339D01*
G37*
G36*
X148030906Y-100264488D02*
G01*
X148030906Y-100491853D01*
X147803541Y-100491853D01*
X147576175Y-100491853D01*
X147576175Y-100264488D01*
X147576175Y-100037122D01*
X147803541Y-100037122D01*
X148030906Y-100037122D01*
X148030906Y-100264488D01*
G37*
G36*
X156216072Y-103220242D02*
G01*
X156216072Y-104129705D01*
X156216072Y-105039168D01*
X156216072Y-106175997D01*
X156216072Y-108222288D01*
X156216072Y-108677020D01*
X156216072Y-109586482D01*
X156216072Y-113679066D01*
X148713003Y-113679066D01*
X141209934Y-113679066D01*
X141209934Y-111860140D01*
X142119397Y-111860140D01*
X142346763Y-111860140D01*
X142574129Y-111860140D01*
X142574129Y-112314871D01*
X142574129Y-112769603D01*
X142801494Y-112769603D01*
X143028860Y-112769603D01*
X143028860Y-112314871D01*
X143028860Y-111860140D01*
X143483592Y-111860140D01*
X143938323Y-111860140D01*
X143938323Y-112087506D01*
X143938323Y-112314871D01*
X143710957Y-112314871D01*
X143483592Y-112314871D01*
X143483592Y-112542237D01*
X143483592Y-112769603D01*
X144847786Y-112769603D01*
X146211980Y-112769603D01*
X146211980Y-112542237D01*
X146211980Y-112314871D01*
X146439346Y-112314871D01*
X146666712Y-112314871D01*
X146666712Y-112087506D01*
X146666712Y-111860140D01*
X146894078Y-111860140D01*
X147121443Y-111860140D01*
X147121443Y-112314871D01*
X147121443Y-112769603D01*
X147348809Y-112769603D01*
X147576175Y-112769603D01*
X147576175Y-112314871D01*
X148030906Y-112314871D01*
X148258272Y-112314871D01*
X148485638Y-112314871D01*
X148485638Y-112542237D01*
X148485638Y-112769603D01*
X148940369Y-112769603D01*
X149395101Y-112769603D01*
X149395101Y-112542237D01*
X149395101Y-112314871D01*
X149622466Y-112314871D01*
X149849832Y-112314871D01*
X150304564Y-112314871D01*
X150304564Y-112769603D01*
X150986661Y-112769603D01*
X151668758Y-112769603D01*
X151668758Y-112542237D01*
X151668758Y-112314871D01*
X151214026Y-112314871D01*
X150759295Y-112314871D01*
X150759295Y-112087506D01*
X150759295Y-111860140D01*
X150531929Y-111860140D01*
X150304564Y-111860140D01*
X150304564Y-112314871D01*
X149849832Y-112314871D01*
X149849832Y-112087506D01*
X149849832Y-111860140D01*
X150077198Y-111860140D01*
X150304564Y-111860140D01*
X150304564Y-111632774D01*
X150304564Y-111405408D01*
X150531929Y-111405408D01*
X150759295Y-111405408D01*
X151214026Y-111405408D01*
X151441392Y-111405408D01*
X151668758Y-111405408D01*
X151668758Y-111178043D01*
X151668758Y-110950677D01*
X152123489Y-110950677D01*
X152123489Y-111178043D01*
X152123489Y-112769603D01*
X153715049Y-112769603D01*
X155306610Y-112769603D01*
X155306610Y-111178043D01*
X155306610Y-109586482D01*
X153715049Y-109586482D01*
X152123489Y-109586482D01*
X152123489Y-110950677D01*
X151668758Y-110950677D01*
X151441392Y-110950677D01*
X151214026Y-110950677D01*
X151214026Y-111178043D01*
X151214026Y-111405408D01*
X150759295Y-111405408D01*
X150759295Y-111178043D01*
X150759295Y-110950677D01*
X150304564Y-110950677D01*
X149849832Y-110950677D01*
X149849832Y-111405408D01*
X149849832Y-111860140D01*
X149622466Y-111860140D01*
X149395101Y-111860140D01*
X149395101Y-112087506D01*
X149395101Y-112314871D01*
X149167735Y-112314871D01*
X148940369Y-112314871D01*
X148940369Y-111405408D01*
X148940369Y-110495945D01*
X148713003Y-110495945D01*
X148485638Y-110495945D01*
X148485638Y-111178043D01*
X148485638Y-111860140D01*
X148258272Y-111860140D01*
X148030906Y-111860140D01*
X148030906Y-112087506D01*
X148030906Y-112314871D01*
X147576175Y-112314871D01*
X147576175Y-112087506D01*
X147576175Y-111405408D01*
X147121443Y-111405408D01*
X146666712Y-111405408D01*
X146666712Y-111178043D01*
X146666712Y-110950677D01*
X146439346Y-110950677D01*
X146211980Y-110950677D01*
X146211980Y-110268580D01*
X146211980Y-109586482D01*
X146439346Y-109586482D01*
X146666712Y-109586482D01*
X146666712Y-109359117D01*
X146666712Y-109131751D01*
X146894078Y-109131751D01*
X147121443Y-109131751D01*
X147121443Y-108904385D01*
X147121443Y-108677020D01*
X147348809Y-108677020D01*
X147576175Y-108677020D01*
X147576175Y-109131751D01*
X147576175Y-109586482D01*
X147348809Y-109586482D01*
X147121443Y-109586482D01*
X147121443Y-109813848D01*
X147121443Y-110041214D01*
X146894078Y-110041214D01*
X146666712Y-110041214D01*
X146666712Y-110268580D01*
X146666712Y-110495945D01*
X146894078Y-110495945D01*
X147121443Y-110495945D01*
X147121443Y-110723311D01*
X147121443Y-110950677D01*
X147348809Y-110950677D01*
X147576175Y-110950677D01*
X147576175Y-110723311D01*
X147576175Y-110495945D01*
X147803541Y-110495945D01*
X148030906Y-110495945D01*
X148030906Y-109813848D01*
X148030906Y-109131751D01*
X148485638Y-109131751D01*
X148940369Y-109131751D01*
X148940369Y-109359117D01*
X148940369Y-109586482D01*
X148713003Y-109586482D01*
X148485638Y-109586482D01*
X148485638Y-109813848D01*
X148485638Y-110041214D01*
X148713003Y-110041214D01*
X148940369Y-110041214D01*
X148940369Y-110268580D01*
X148940369Y-110495945D01*
X149622466Y-110495945D01*
X150304564Y-110495945D01*
X150304564Y-110268580D01*
X150304564Y-110041214D01*
X150531929Y-110041214D01*
X150759295Y-110041214D01*
X150759295Y-110268580D01*
X150759295Y-110495945D01*
X151214026Y-110495945D01*
X151668758Y-110495945D01*
X151668758Y-110268580D01*
X151668758Y-110041214D01*
X151441392Y-110041214D01*
X151214026Y-110041214D01*
X151214026Y-109813848D01*
X151214026Y-109586482D01*
X151441392Y-109586482D01*
X151668758Y-109586482D01*
X151668758Y-109359117D01*
X151668758Y-109131751D01*
X152578221Y-109131751D01*
X153487684Y-109131751D01*
X154851878Y-109131751D01*
X155079244Y-109131751D01*
X155306610Y-109131751D01*
X155306610Y-108904385D01*
X155306610Y-108677020D01*
X155079244Y-108677020D01*
X154851878Y-108677020D01*
X154851878Y-108904385D01*
X154851878Y-109131751D01*
X153487684Y-109131751D01*
X153487684Y-108904385D01*
X153487684Y-108677020D01*
X153942415Y-108677020D01*
X154397147Y-108677020D01*
X154397147Y-108222288D01*
X154397147Y-107767557D01*
X154624512Y-107767557D01*
X154851878Y-107767557D01*
X154851878Y-107994922D01*
X154851878Y-108222288D01*
X155079244Y-108222288D01*
X155306610Y-108222288D01*
X155306610Y-107994922D01*
X155306610Y-107767557D01*
X155079244Y-107767557D01*
X154851878Y-107767557D01*
X154851878Y-107540191D01*
X154851878Y-107312825D01*
X155079244Y-107312825D01*
X155306610Y-107312825D01*
X155306610Y-106630728D01*
X155306610Y-105948631D01*
X154851878Y-105948631D01*
X154397147Y-105948631D01*
X154397147Y-105721265D01*
X154397147Y-105493899D01*
X154851878Y-105493899D01*
X155079244Y-105493899D01*
X155306610Y-105493899D01*
X155306610Y-105266534D01*
X155306610Y-105039168D01*
X155079244Y-105039168D01*
X154851878Y-105039168D01*
X154851878Y-105266534D01*
X154851878Y-105493899D01*
X154397147Y-105493899D01*
X154169781Y-105493899D01*
X153942415Y-105493899D01*
X153942415Y-105266534D01*
X153942415Y-105039168D01*
X153715049Y-105039168D01*
X153487684Y-105039168D01*
X153487684Y-104811802D01*
X153487684Y-104584436D01*
X153942415Y-104584436D01*
X154397147Y-104584436D01*
X154851878Y-104584436D01*
X155079244Y-104584436D01*
X155306610Y-104584436D01*
X155306610Y-104357071D01*
X155306610Y-104129705D01*
X155079244Y-104129705D01*
X154851878Y-104129705D01*
X154851878Y-104357071D01*
X154851878Y-104584436D01*
X154397147Y-104584436D01*
X154397147Y-104129705D01*
X154397147Y-103674974D01*
X154851878Y-103674974D01*
X155079244Y-103674974D01*
X155306610Y-103674974D01*
X155306610Y-103447608D01*
X155306610Y-103220242D01*
X155079244Y-103220242D01*
X154851878Y-103220242D01*
X154851878Y-103447608D01*
X154851878Y-103674974D01*
X154397147Y-103674974D01*
X154169781Y-103674974D01*
X153942415Y-103674974D01*
X153942415Y-103447608D01*
X153942415Y-103220242D01*
X153715049Y-103220242D01*
X153487684Y-103220242D01*
X153487684Y-103447608D01*
X153487684Y-103674974D01*
X153260318Y-103674974D01*
X153032952Y-103674974D01*
X153032952Y-103447608D01*
X153032952Y-103220242D01*
X152578221Y-103220242D01*
X152123489Y-103220242D01*
X152123489Y-103447608D01*
X152123489Y-103674974D01*
X151896124Y-103674974D01*
X151668758Y-103674974D01*
X151668758Y-103447608D01*
X151668758Y-103220242D01*
X151441392Y-103220242D01*
X151214026Y-103220242D01*
X151214026Y-102992876D01*
X151214026Y-102765511D01*
X151441392Y-102765511D01*
X151668758Y-102765511D01*
X152123489Y-102765511D01*
X153715049Y-102765511D01*
X155306610Y-102765511D01*
X155306610Y-101173951D01*
X155306610Y-99582390D01*
X153715049Y-99582390D01*
X152123489Y-99582390D01*
X152123489Y-101173951D01*
X152123489Y-102765511D01*
X151668758Y-102765511D01*
X151668758Y-102310779D01*
X151668758Y-101856048D01*
X151214026Y-101856048D01*
X150759295Y-101856048D01*
X150759295Y-101628682D01*
X150759295Y-101401316D01*
X150986661Y-101401316D01*
X151214026Y-101401316D01*
X151214026Y-100719219D01*
X151214026Y-100037122D01*
X150986661Y-100037122D01*
X150759295Y-100037122D01*
X150759295Y-100719219D01*
X150759295Y-101401316D01*
X150531929Y-101401316D01*
X150304564Y-101401316D01*
X150304564Y-100946585D01*
X150304564Y-100491853D01*
X150077198Y-100491853D01*
X149849832Y-100491853D01*
X149849832Y-100037122D01*
X149849832Y-99582390D01*
X150304564Y-99582390D01*
X150304564Y-99809756D01*
X150304564Y-100037122D01*
X150531929Y-100037122D01*
X150759295Y-100037122D01*
X150759295Y-99809756D01*
X150759295Y-99582390D01*
X150531929Y-99582390D01*
X150304564Y-99582390D01*
X149849832Y-99582390D01*
X149395101Y-99582390D01*
X148940369Y-99582390D01*
X148940369Y-99809756D01*
X148940369Y-100037122D01*
X148485638Y-100037122D01*
X148030906Y-100037122D01*
X148030906Y-99809756D01*
X148030906Y-99582390D01*
X147803541Y-99582390D01*
X147576175Y-99582390D01*
X147576175Y-99809756D01*
X147576175Y-100037122D01*
X147348809Y-100037122D01*
X147121443Y-100037122D01*
X147121443Y-99809756D01*
X147121443Y-99582390D01*
X146666712Y-99582390D01*
X146211980Y-99582390D01*
X146211980Y-99809756D01*
X146211980Y-100037122D01*
X146439346Y-100037122D01*
X146666712Y-100037122D01*
X146666712Y-100264488D01*
X146666712Y-100491853D01*
X146439346Y-100491853D01*
X146211980Y-100491853D01*
X146211980Y-100719219D01*
X146211980Y-100946585D01*
X145984615Y-100946585D01*
X145757249Y-100946585D01*
X145757249Y-101173951D01*
X145757249Y-101401316D01*
X145984615Y-101401316D01*
X146211980Y-101401316D01*
X146211980Y-101173951D01*
X146211980Y-100946585D01*
X146439346Y-100946585D01*
X146666712Y-100946585D01*
X146666712Y-101401316D01*
X146666712Y-101856048D01*
X146439346Y-101856048D01*
X146211980Y-101856048D01*
X146211980Y-102083413D01*
X146211980Y-102310779D01*
X145984615Y-102310779D01*
X145757249Y-102310779D01*
X145757249Y-102538145D01*
X145757249Y-102765511D01*
X145984615Y-102765511D01*
X146211980Y-102765511D01*
X146211980Y-102538145D01*
X146211980Y-102310779D01*
X146439346Y-102310779D01*
X146666712Y-102310779D01*
X146666712Y-102765511D01*
X146666712Y-103220242D01*
X145984615Y-103220242D01*
X145302518Y-103220242D01*
X145302518Y-103447608D01*
X145302518Y-103674974D01*
X145075152Y-103674974D01*
X144847786Y-103674974D01*
X144847786Y-103447608D01*
X144847786Y-103220242D01*
X144620420Y-103220242D01*
X144393055Y-103220242D01*
X144393055Y-103447608D01*
X144393055Y-103674974D01*
X144620420Y-103674974D01*
X144847786Y-103674974D01*
X144847786Y-103902339D01*
X144847786Y-104129705D01*
X145075152Y-104129705D01*
X145302518Y-104129705D01*
X145302518Y-104357071D01*
X145302518Y-104584436D01*
X145529883Y-104584436D01*
X145757249Y-104584436D01*
X145757249Y-104811802D01*
X145757249Y-105039168D01*
X145302518Y-105039168D01*
X144847786Y-105039168D01*
X144847786Y-105266534D01*
X144847786Y-105493899D01*
X145075152Y-105493899D01*
X145302518Y-105493899D01*
X145302518Y-105721265D01*
X145302518Y-105948631D01*
X143710957Y-105948631D01*
X142119397Y-105948631D01*
X142119397Y-106175997D01*
X142119397Y-106403362D01*
X142346763Y-106403362D01*
X142574129Y-106403362D01*
X142574129Y-106858094D01*
X142574129Y-107312825D01*
X142346763Y-107312825D01*
X142119397Y-107312825D01*
X142119397Y-107994922D01*
X142119397Y-108677020D01*
X142574129Y-108677020D01*
X143028860Y-108677020D01*
X143028860Y-108904385D01*
X143028860Y-109131751D01*
X142574129Y-109131751D01*
X142119397Y-109131751D01*
X142119397Y-109359117D01*
X142119397Y-109586482D01*
X142346763Y-109586482D01*
X142574129Y-109586482D01*
X142574129Y-110041214D01*
X142574129Y-110495945D01*
X142346763Y-110495945D01*
X142119397Y-110495945D01*
X142119397Y-110723311D01*
X142119397Y-110950677D01*
X142346763Y-110950677D01*
X142574129Y-110950677D01*
X142574129Y-111178043D01*
X142574129Y-111405408D01*
X142346763Y-111405408D01*
X142119397Y-111405408D01*
X142119397Y-111632774D01*
X142119397Y-111860140D01*
X141209934Y-111860140D01*
X141209934Y-106175997D01*
X141209934Y-105493899D01*
X142119397Y-105493899D01*
X142574129Y-105493899D01*
X143028860Y-105493899D01*
X143028860Y-105266534D01*
X143028860Y-105039168D01*
X143256226Y-105039168D01*
X143483592Y-105039168D01*
X143483592Y-105266534D01*
X143483592Y-105493899D01*
X143710957Y-105493899D01*
X143938323Y-105493899D01*
X143938323Y-105266534D01*
X143938323Y-105039168D01*
X144165689Y-105039168D01*
X144393055Y-105039168D01*
X144393055Y-104584436D01*
X144393055Y-104129705D01*
X144165689Y-104129705D01*
X143938323Y-104129705D01*
X143938323Y-103902339D01*
X143938323Y-103674974D01*
X143710957Y-103674974D01*
X143483592Y-103674974D01*
X143483592Y-103902339D01*
X143483592Y-104129705D01*
X143028860Y-104129705D01*
X142574129Y-104129705D01*
X142574129Y-103902339D01*
X142574129Y-103674974D01*
X142346763Y-103674974D01*
X142119397Y-103674974D01*
X142119397Y-103902339D01*
X142119397Y-104129705D01*
X142346763Y-104129705D01*
X142574129Y-104129705D01*
X142574129Y-104584436D01*
X142574129Y-105039168D01*
X142346763Y-105039168D01*
X142119397Y-105039168D01*
X142119397Y-105266534D01*
X142119397Y-105493899D01*
X141209934Y-105493899D01*
X141209934Y-99582390D01*
X142119397Y-99582390D01*
X142119397Y-101173951D01*
X142119397Y-102765511D01*
X143710957Y-102765511D01*
X145302518Y-102765511D01*
X145302518Y-101173951D01*
X145302518Y-99582390D01*
X143710957Y-99582390D01*
X142119397Y-99582390D01*
X141209934Y-99582390D01*
X141209934Y-98672928D01*
X148713003Y-98672928D01*
X156216072Y-98672928D01*
X156216072Y-99582390D01*
X156216072Y-103220242D01*
G37*
D13*
X160976000Y-96719000D02*
X163636000Y-96719000D01*
X160976000Y-99319000D02*
X160976000Y-96719000D01*
X160976000Y-99319000D02*
X163636000Y-99319000D01*
X160976000Y-100589000D02*
X160976000Y-101919000D01*
X160976000Y-101919000D02*
X162306000Y-101919000D01*
X163636000Y-99319000D02*
X163636000Y-96719000D01*
D14*
X136042400Y-81534000D02*
X139801600Y-81534000D01*
X136042400Y-82036059D02*
X136042400Y-81534000D01*
X136042400Y-83516061D02*
X136042400Y-83361939D01*
X136042400Y-85344000D02*
X136042400Y-84841941D01*
X139801600Y-81534000D02*
X139801600Y-82036059D01*
X139801600Y-83361939D02*
X139801600Y-83516061D01*
X139801600Y-84841941D02*
X139801600Y-85344000D01*
X139801600Y-85344000D02*
X136042400Y-85344000D01*
X133838500Y-84179000D02*
G75*
G02*
X133635300Y-84179000I-101600J0D01*
G01*
X133635300Y-84179000D02*
G75*
G02*
X133838500Y-84179000I101600J0D01*
G01*
D13*
X164659000Y-96206000D02*
X167319000Y-96206000D01*
X164659000Y-106426000D02*
X164659000Y-96206000D01*
X164659000Y-106426000D02*
X167319000Y-106426000D01*
X164659000Y-107696000D02*
X164659000Y-109026000D01*
X164659000Y-109026000D02*
X165989000Y-109026000D01*
X167319000Y-106426000D02*
X167319000Y-96206000D01*
D14*
X145366700Y-82359901D02*
X146307899Y-82359901D01*
X145366700Y-90708062D02*
X145366700Y-82359901D01*
X145366700Y-94602701D02*
X145366700Y-92865739D01*
X145869421Y-94602701D02*
X145366700Y-94602701D01*
X146578699Y-82359901D02*
X151919900Y-82359901D01*
X146712900Y-80353301D02*
X150573700Y-80353301D01*
X146712900Y-82387190D02*
X146712900Y-80353301D01*
X150573700Y-80353301D02*
X150573700Y-82613901D01*
X150573700Y-82613901D02*
X147126412Y-82613901D01*
X151919900Y-82359901D02*
X151919900Y-82523042D01*
X151919900Y-85050760D02*
X151919900Y-86908062D01*
X151919900Y-89065739D02*
X151919900Y-91908062D01*
X151919900Y-94065739D02*
X151919900Y-94602701D01*
X151919900Y-94602701D02*
X147817180Y-94602701D01*
%LPC*%
D15*
X133500000Y-114500000D03*
X164500000Y-91500000D03*
D16*
X162306000Y-100589000D03*
D17*
X162306000Y-98049000D03*
D18*
X135890000Y-84179001D03*
X139954000Y-84179001D03*
X135890000Y-82698999D03*
X139954000Y-82698999D03*
D16*
X165989000Y-107696000D03*
D17*
X165989000Y-105156000D03*
X165989000Y-102616000D03*
X165989000Y-100076000D03*
X165989000Y-97536000D03*
D19*
X148643300Y-92986900D03*
D20*
X151543299Y-85365251D03*
D21*
X146343299Y-85365251D03*
D20*
X151243300Y-87986900D03*
X146043300Y-91786900D03*
X146843301Y-93986901D03*
X151243300Y-92986900D03*
%LPD*%
M02*
