G04 #@! TF.GenerationSoftware,KiCad,Pcbnew,7.0.7*
G04 #@! TF.CreationDate,2024-03-29T16:46:10+10:30*
G04 #@! TF.ProjectId,hawk,6861776b-2e6b-4696-9361-645f70636258,1*
G04 #@! TF.SameCoordinates,Original*
G04 #@! TF.FileFunction,Legend,Bot*
G04 #@! TF.FilePolarity,Positive*
%FSLAX46Y46*%
G04 Gerber Fmt 4.6, Leading zero omitted, Abs format (unit mm)*
G04 Created by KiCad (PCBNEW 7.0.7) date 2024-03-29 16:46:10*
%MOMM*%
%LPD*%
G01*
G04 APERTURE LIST*
%ADD10C,0.150000*%
%ADD11C,0.152400*%
%ADD12C,0.120000*%
%ADD13R,1.244600X0.660400*%
%ADD14O,1.700000X1.700000*%
%ADD15R,1.700000X1.700000*%
%ADD16O,1.371600X2.006600*%
%ADD17O,1.100000X2.000000*%
%ADD18C,1.397000*%
G04 APERTURE END LIST*
D10*
X168036006Y-112659319D02*
X168036006Y-113373604D01*
X168036006Y-113373604D02*
X168083625Y-113516461D01*
X168083625Y-113516461D02*
X168178863Y-113611700D01*
X168178863Y-113611700D02*
X168321720Y-113659319D01*
X168321720Y-113659319D02*
X168416958Y-113659319D01*
X167083625Y-113659319D02*
X167559815Y-113659319D01*
X167559815Y-113659319D02*
X167559815Y-112659319D01*
X166178863Y-113564080D02*
X166226482Y-113611700D01*
X166226482Y-113611700D02*
X166369339Y-113659319D01*
X166369339Y-113659319D02*
X166464577Y-113659319D01*
X166464577Y-113659319D02*
X166607434Y-113611700D01*
X166607434Y-113611700D02*
X166702672Y-113516461D01*
X166702672Y-113516461D02*
X166750291Y-113421223D01*
X166750291Y-113421223D02*
X166797910Y-113230747D01*
X166797910Y-113230747D02*
X166797910Y-113087890D01*
X166797910Y-113087890D02*
X166750291Y-112897414D01*
X166750291Y-112897414D02*
X166702672Y-112802176D01*
X166702672Y-112802176D02*
X166607434Y-112706938D01*
X166607434Y-112706938D02*
X166464577Y-112659319D01*
X166464577Y-112659319D02*
X166369339Y-112659319D01*
X166369339Y-112659319D02*
X166226482Y-112706938D01*
X166226482Y-112706938D02*
X166178863Y-112754557D01*
X165464577Y-112659319D02*
X165464577Y-113373604D01*
X165464577Y-113373604D02*
X165512196Y-113516461D01*
X165512196Y-113516461D02*
X165607434Y-113611700D01*
X165607434Y-113611700D02*
X165750291Y-113659319D01*
X165750291Y-113659319D02*
X165845529Y-113659319D01*
X164512196Y-113659319D02*
X164988386Y-113659319D01*
X164988386Y-113659319D02*
X164988386Y-112659319D01*
X163607434Y-113564080D02*
X163655053Y-113611700D01*
X163655053Y-113611700D02*
X163797910Y-113659319D01*
X163797910Y-113659319D02*
X163893148Y-113659319D01*
X163893148Y-113659319D02*
X164036005Y-113611700D01*
X164036005Y-113611700D02*
X164131243Y-113516461D01*
X164131243Y-113516461D02*
X164178862Y-113421223D01*
X164178862Y-113421223D02*
X164226481Y-113230747D01*
X164226481Y-113230747D02*
X164226481Y-113087890D01*
X164226481Y-113087890D02*
X164178862Y-112897414D01*
X164178862Y-112897414D02*
X164131243Y-112802176D01*
X164131243Y-112802176D02*
X164036005Y-112706938D01*
X164036005Y-112706938D02*
X163893148Y-112659319D01*
X163893148Y-112659319D02*
X163797910Y-112659319D01*
X163797910Y-112659319D02*
X163655053Y-112706938D01*
X163655053Y-112706938D02*
X163607434Y-112754557D01*
X162893148Y-112659319D02*
X162893148Y-113373604D01*
X162893148Y-113373604D02*
X162940767Y-113516461D01*
X162940767Y-113516461D02*
X163036005Y-113611700D01*
X163036005Y-113611700D02*
X163178862Y-113659319D01*
X163178862Y-113659319D02*
X163274100Y-113659319D01*
X161940767Y-113659319D02*
X162416957Y-113659319D01*
X162416957Y-113659319D02*
X162416957Y-112659319D01*
X161036005Y-113564080D02*
X161083624Y-113611700D01*
X161083624Y-113611700D02*
X161226481Y-113659319D01*
X161226481Y-113659319D02*
X161321719Y-113659319D01*
X161321719Y-113659319D02*
X161464576Y-113611700D01*
X161464576Y-113611700D02*
X161559814Y-113516461D01*
X161559814Y-113516461D02*
X161607433Y-113421223D01*
X161607433Y-113421223D02*
X161655052Y-113230747D01*
X161655052Y-113230747D02*
X161655052Y-113087890D01*
X161655052Y-113087890D02*
X161607433Y-112897414D01*
X161607433Y-112897414D02*
X161559814Y-112802176D01*
X161559814Y-112802176D02*
X161464576Y-112706938D01*
X161464576Y-112706938D02*
X161321719Y-112659319D01*
X161321719Y-112659319D02*
X161226481Y-112659319D01*
X161226481Y-112659319D02*
X161083624Y-112706938D01*
X161083624Y-112706938D02*
X161036005Y-112754557D01*
X160321719Y-112659319D02*
X160321719Y-113373604D01*
X160321719Y-113373604D02*
X160369338Y-113516461D01*
X160369338Y-113516461D02*
X160464576Y-113611700D01*
X160464576Y-113611700D02*
X160607433Y-113659319D01*
X160607433Y-113659319D02*
X160702671Y-113659319D01*
X159369338Y-113659319D02*
X159845528Y-113659319D01*
X159845528Y-113659319D02*
X159845528Y-112659319D01*
X158464576Y-113564080D02*
X158512195Y-113611700D01*
X158512195Y-113611700D02*
X158655052Y-113659319D01*
X158655052Y-113659319D02*
X158750290Y-113659319D01*
X158750290Y-113659319D02*
X158893147Y-113611700D01*
X158893147Y-113611700D02*
X158988385Y-113516461D01*
X158988385Y-113516461D02*
X159036004Y-113421223D01*
X159036004Y-113421223D02*
X159083623Y-113230747D01*
X159083623Y-113230747D02*
X159083623Y-113087890D01*
X159083623Y-113087890D02*
X159036004Y-112897414D01*
X159036004Y-112897414D02*
X158988385Y-112802176D01*
X158988385Y-112802176D02*
X158893147Y-112706938D01*
X158893147Y-112706938D02*
X158750290Y-112659319D01*
X158750290Y-112659319D02*
X158655052Y-112659319D01*
X158655052Y-112659319D02*
X158512195Y-112706938D01*
X158512195Y-112706938D02*
X158464576Y-112754557D01*
X155542387Y-95904509D02*
X155399530Y-95952128D01*
X155399530Y-95952128D02*
X155351911Y-95999747D01*
X155351911Y-95999747D02*
X155304292Y-96094985D01*
X155304292Y-96094985D02*
X155304292Y-96237842D01*
X155304292Y-96237842D02*
X155351911Y-96333080D01*
X155351911Y-96333080D02*
X155399530Y-96380700D01*
X155399530Y-96380700D02*
X155494768Y-96428319D01*
X155494768Y-96428319D02*
X155875720Y-96428319D01*
X155875720Y-96428319D02*
X155875720Y-95428319D01*
X155875720Y-95428319D02*
X155542387Y-95428319D01*
X155542387Y-95428319D02*
X155447149Y-95475938D01*
X155447149Y-95475938D02*
X155399530Y-95523557D01*
X155399530Y-95523557D02*
X155351911Y-95618795D01*
X155351911Y-95618795D02*
X155351911Y-95714033D01*
X155351911Y-95714033D02*
X155399530Y-95809271D01*
X155399530Y-95809271D02*
X155447149Y-95856890D01*
X155447149Y-95856890D02*
X155542387Y-95904509D01*
X155542387Y-95904509D02*
X155875720Y-95904509D01*
X154970958Y-95761652D02*
X154732863Y-96428319D01*
X154494768Y-95761652D02*
X154732863Y-96428319D01*
X154732863Y-96428319D02*
X154828101Y-96666414D01*
X154828101Y-96666414D02*
X154875720Y-96714033D01*
X154875720Y-96714033D02*
X154970958Y-96761652D01*
X152780482Y-96428319D02*
X153113815Y-95952128D01*
X153351910Y-96428319D02*
X153351910Y-95428319D01*
X153351910Y-95428319D02*
X152970958Y-95428319D01*
X152970958Y-95428319D02*
X152875720Y-95475938D01*
X152875720Y-95475938D02*
X152828101Y-95523557D01*
X152828101Y-95523557D02*
X152780482Y-95618795D01*
X152780482Y-95618795D02*
X152780482Y-95761652D01*
X152780482Y-95761652D02*
X152828101Y-95856890D01*
X152828101Y-95856890D02*
X152875720Y-95904509D01*
X152875720Y-95904509D02*
X152970958Y-95952128D01*
X152970958Y-95952128D02*
X153351910Y-95952128D01*
X152447148Y-95761652D02*
X152209053Y-96428319D01*
X151970958Y-95761652D02*
X152209053Y-96428319D01*
X152209053Y-96428319D02*
X152304291Y-96666414D01*
X152304291Y-96666414D02*
X152351910Y-96714033D01*
X152351910Y-96714033D02*
X152447148Y-96761652D01*
X151685243Y-95761652D02*
X151161434Y-95761652D01*
X151161434Y-95761652D02*
X151685243Y-96428319D01*
X151685243Y-96428319D02*
X151161434Y-96428319D01*
X150399529Y-96380700D02*
X150494767Y-96428319D01*
X150494767Y-96428319D02*
X150685243Y-96428319D01*
X150685243Y-96428319D02*
X150780481Y-96380700D01*
X150780481Y-96380700D02*
X150828100Y-96285461D01*
X150828100Y-96285461D02*
X150828100Y-95904509D01*
X150828100Y-95904509D02*
X150780481Y-95809271D01*
X150780481Y-95809271D02*
X150685243Y-95761652D01*
X150685243Y-95761652D02*
X150494767Y-95761652D01*
X150494767Y-95761652D02*
X150399529Y-95809271D01*
X150399529Y-95809271D02*
X150351910Y-95904509D01*
X150351910Y-95904509D02*
X150351910Y-95999747D01*
X150351910Y-95999747D02*
X150828100Y-96094985D01*
X149542386Y-96380700D02*
X149637624Y-96428319D01*
X149637624Y-96428319D02*
X149828100Y-96428319D01*
X149828100Y-96428319D02*
X149923338Y-96380700D01*
X149923338Y-96380700D02*
X149970957Y-96285461D01*
X149970957Y-96285461D02*
X149970957Y-95904509D01*
X149970957Y-95904509D02*
X149923338Y-95809271D01*
X149923338Y-95809271D02*
X149828100Y-95761652D01*
X149828100Y-95761652D02*
X149637624Y-95761652D01*
X149637624Y-95761652D02*
X149542386Y-95809271D01*
X149542386Y-95809271D02*
X149494767Y-95904509D01*
X149494767Y-95904509D02*
X149494767Y-95999747D01*
X149494767Y-95999747D02*
X149970957Y-96094985D01*
X148542386Y-96428319D02*
X149113814Y-96428319D01*
X148828100Y-96428319D02*
X148828100Y-95428319D01*
X148828100Y-95428319D02*
X148923338Y-95571176D01*
X148923338Y-95571176D02*
X149018576Y-95666414D01*
X149018576Y-95666414D02*
X149113814Y-95714033D01*
X147590005Y-96428319D02*
X148161433Y-96428319D01*
X147875719Y-96428319D02*
X147875719Y-95428319D01*
X147875719Y-95428319D02*
X147970957Y-95571176D01*
X147970957Y-95571176D02*
X148066195Y-95666414D01*
X148066195Y-95666414D02*
X148161433Y-95714033D01*
X147113814Y-96428319D02*
X146923338Y-96428319D01*
X146923338Y-96428319D02*
X146828100Y-96380700D01*
X146828100Y-96380700D02*
X146780481Y-96333080D01*
X146780481Y-96333080D02*
X146685243Y-96190223D01*
X146685243Y-96190223D02*
X146637624Y-95999747D01*
X146637624Y-95999747D02*
X146637624Y-95618795D01*
X146637624Y-95618795D02*
X146685243Y-95523557D01*
X146685243Y-95523557D02*
X146732862Y-95475938D01*
X146732862Y-95475938D02*
X146828100Y-95428319D01*
X146828100Y-95428319D02*
X147018576Y-95428319D01*
X147018576Y-95428319D02*
X147113814Y-95475938D01*
X147113814Y-95475938D02*
X147161433Y-95523557D01*
X147161433Y-95523557D02*
X147209052Y-95618795D01*
X147209052Y-95618795D02*
X147209052Y-95856890D01*
X147209052Y-95856890D02*
X147161433Y-95952128D01*
X147161433Y-95952128D02*
X147113814Y-95999747D01*
X147113814Y-95999747D02*
X147018576Y-96047366D01*
X147018576Y-96047366D02*
X146828100Y-96047366D01*
X146828100Y-96047366D02*
X146732862Y-95999747D01*
X146732862Y-95999747D02*
X146685243Y-95952128D01*
X146685243Y-95952128D02*
X146637624Y-95856890D01*
X155875720Y-98038319D02*
X155875720Y-97038319D01*
X155875720Y-97514509D02*
X155304292Y-97514509D01*
X155304292Y-98038319D02*
X155304292Y-97038319D01*
X154399530Y-98038319D02*
X154399530Y-97514509D01*
X154399530Y-97514509D02*
X154447149Y-97419271D01*
X154447149Y-97419271D02*
X154542387Y-97371652D01*
X154542387Y-97371652D02*
X154732863Y-97371652D01*
X154732863Y-97371652D02*
X154828101Y-97419271D01*
X154399530Y-97990700D02*
X154494768Y-98038319D01*
X154494768Y-98038319D02*
X154732863Y-98038319D01*
X154732863Y-98038319D02*
X154828101Y-97990700D01*
X154828101Y-97990700D02*
X154875720Y-97895461D01*
X154875720Y-97895461D02*
X154875720Y-97800223D01*
X154875720Y-97800223D02*
X154828101Y-97704985D01*
X154828101Y-97704985D02*
X154732863Y-97657366D01*
X154732863Y-97657366D02*
X154494768Y-97657366D01*
X154494768Y-97657366D02*
X154399530Y-97609747D01*
X154018577Y-97371652D02*
X153828101Y-98038319D01*
X153828101Y-98038319D02*
X153637625Y-97562128D01*
X153637625Y-97562128D02*
X153447149Y-98038319D01*
X153447149Y-98038319D02*
X153256673Y-97371652D01*
X152875720Y-98038319D02*
X152875720Y-97038319D01*
X152780482Y-97657366D02*
X152494768Y-98038319D01*
X152494768Y-97371652D02*
X152875720Y-97752604D01*
X136591167Y-83134301D02*
X136734024Y-83086681D01*
X136734024Y-83086681D02*
X136972119Y-83086681D01*
X136972119Y-83086681D02*
X137067357Y-83134301D01*
X137067357Y-83134301D02*
X137114976Y-83181920D01*
X137114976Y-83181920D02*
X137162595Y-83277158D01*
X137162595Y-83277158D02*
X137162595Y-83372396D01*
X137162595Y-83372396D02*
X137114976Y-83467634D01*
X137114976Y-83467634D02*
X137067357Y-83515253D01*
X137067357Y-83515253D02*
X136972119Y-83562872D01*
X136972119Y-83562872D02*
X136781643Y-83610491D01*
X136781643Y-83610491D02*
X136686405Y-83658110D01*
X136686405Y-83658110D02*
X136638786Y-83705729D01*
X136638786Y-83705729D02*
X136591167Y-83800967D01*
X136591167Y-83800967D02*
X136591167Y-83896205D01*
X136591167Y-83896205D02*
X136638786Y-83991443D01*
X136638786Y-83991443D02*
X136686405Y-84039062D01*
X136686405Y-84039062D02*
X136781643Y-84086681D01*
X136781643Y-84086681D02*
X137019738Y-84086681D01*
X137019738Y-84086681D02*
X137162595Y-84039062D01*
X137495929Y-84086681D02*
X137734024Y-83086681D01*
X137734024Y-83086681D02*
X137924500Y-83800967D01*
X137924500Y-83800967D02*
X138114976Y-83086681D01*
X138114976Y-83086681D02*
X138353072Y-84086681D01*
X139257833Y-83086681D02*
X138686405Y-83086681D01*
X138972119Y-83086681D02*
X138972119Y-84086681D01*
X138972119Y-84086681D02*
X138876881Y-83943824D01*
X138876881Y-83943824D02*
X138781643Y-83848586D01*
X138781643Y-83848586D02*
X138686405Y-83800967D01*
X162354033Y-104336819D02*
X162354033Y-105051104D01*
X162354033Y-105051104D02*
X162401652Y-105193961D01*
X162401652Y-105193961D02*
X162496890Y-105289200D01*
X162496890Y-105289200D02*
X162639747Y-105336819D01*
X162639747Y-105336819D02*
X162734985Y-105336819D01*
X161354033Y-105336819D02*
X161925461Y-105336819D01*
X161639747Y-105336819D02*
X161639747Y-104336819D01*
X161639747Y-104336819D02*
X161734985Y-104479676D01*
X161734985Y-104479676D02*
X161830223Y-104574914D01*
X161830223Y-104574914D02*
X161925461Y-104622533D01*
X163657833Y-110450319D02*
X163657833Y-111164604D01*
X163657833Y-111164604D02*
X163705452Y-111307461D01*
X163705452Y-111307461D02*
X163800690Y-111402700D01*
X163800690Y-111402700D02*
X163943547Y-111450319D01*
X163943547Y-111450319D02*
X164038785Y-111450319D01*
X163229261Y-110545557D02*
X163181642Y-110497938D01*
X163181642Y-110497938D02*
X163086404Y-110450319D01*
X163086404Y-110450319D02*
X162848309Y-110450319D01*
X162848309Y-110450319D02*
X162753071Y-110497938D01*
X162753071Y-110497938D02*
X162705452Y-110545557D01*
X162705452Y-110545557D02*
X162657833Y-110640795D01*
X162657833Y-110640795D02*
X162657833Y-110736033D01*
X162657833Y-110736033D02*
X162705452Y-110878890D01*
X162705452Y-110878890D02*
X163276880Y-111450319D01*
X163276880Y-111450319D02*
X162657833Y-111450319D01*
D11*
X136044900Y-81636501D02*
X139804100Y-81636501D01*
X136044900Y-82138560D02*
X136044900Y-81636501D01*
X136044900Y-83618562D02*
X136044900Y-83464440D01*
X136044900Y-85446501D02*
X136044900Y-84944442D01*
X139804100Y-81636501D02*
X139804100Y-82138560D01*
X139804100Y-83464440D02*
X139804100Y-83618562D01*
X139804100Y-84944442D02*
X139804100Y-85446501D01*
X139804100Y-85446501D02*
X136044900Y-85446501D01*
X133841000Y-84281501D02*
G75*
G03*
X133841000Y-84281501I-101600J0D01*
G01*
G36*
X153942415Y-103902339D02*
G01*
X153942415Y-104129705D01*
X153715049Y-104129705D01*
X153487684Y-104129705D01*
X153487684Y-103902339D01*
X153487684Y-103674974D01*
X153715049Y-103674974D01*
X153942415Y-103674974D01*
X153942415Y-103902339D01*
G37*
G36*
X153487684Y-104357071D02*
G01*
X153487684Y-104584436D01*
X153260318Y-104584436D01*
X153032952Y-104584436D01*
X153032952Y-104357071D01*
X153032952Y-104129705D01*
X153260318Y-104129705D01*
X153487684Y-104129705D01*
X153487684Y-104357071D01*
G37*
G36*
X152578221Y-106630728D02*
G01*
X152578221Y-106858094D01*
X152350855Y-106858094D01*
X152123489Y-106858094D01*
X152123489Y-106630728D01*
X152123489Y-106403362D01*
X152350855Y-106403362D01*
X152578221Y-106403362D01*
X152578221Y-106630728D01*
G37*
G36*
X152578221Y-105721265D02*
G01*
X152578221Y-105948631D01*
X152350855Y-105948631D01*
X152123489Y-105948631D01*
X152123489Y-105721265D01*
X152123489Y-105493899D01*
X152350855Y-105493899D01*
X152578221Y-105493899D01*
X152578221Y-105721265D01*
G37*
G36*
X152578221Y-103902339D02*
G01*
X152578221Y-104129705D01*
X152350855Y-104129705D01*
X152123489Y-104129705D01*
X152123489Y-103902339D01*
X152123489Y-103674974D01*
X152350855Y-103674974D01*
X152578221Y-103674974D01*
X152578221Y-103902339D01*
G37*
G36*
X152123489Y-107085459D02*
G01*
X152123489Y-107312825D01*
X151896124Y-107312825D01*
X151668758Y-107312825D01*
X151668758Y-107085459D01*
X151668758Y-106858094D01*
X151896124Y-106858094D01*
X152123489Y-106858094D01*
X152123489Y-107085459D01*
G37*
G36*
X149849832Y-100946585D02*
G01*
X149849832Y-101401316D01*
X149622466Y-101401316D01*
X149395101Y-101401316D01*
X149395101Y-100946585D01*
X149395101Y-100491853D01*
X149622466Y-100491853D01*
X149849832Y-100491853D01*
X149849832Y-100946585D01*
G37*
G36*
X148485638Y-106630728D02*
G01*
X148485638Y-106858094D01*
X148258272Y-106858094D01*
X148030906Y-106858094D01*
X148030906Y-106630728D01*
X148030906Y-106403362D01*
X148258272Y-106403362D01*
X148485638Y-106403362D01*
X148485638Y-106630728D01*
G37*
G36*
X148030906Y-105721265D02*
G01*
X148030906Y-105948631D01*
X147803541Y-105948631D01*
X147576175Y-105948631D01*
X147576175Y-105721265D01*
X147576175Y-105493899D01*
X147803541Y-105493899D01*
X148030906Y-105493899D01*
X148030906Y-105721265D01*
G37*
G36*
X147576175Y-110268580D02*
G01*
X147576175Y-110495945D01*
X147348809Y-110495945D01*
X147121443Y-110495945D01*
X147121443Y-110268580D01*
X147121443Y-110041214D01*
X147348809Y-110041214D01*
X147576175Y-110041214D01*
X147576175Y-110268580D01*
G37*
G36*
X146666712Y-103902339D02*
G01*
X146666712Y-104129705D01*
X146439346Y-104129705D01*
X146211980Y-104129705D01*
X146211980Y-103902339D01*
X146211980Y-103674974D01*
X146439346Y-103674974D01*
X146666712Y-103674974D01*
X146666712Y-103902339D01*
G37*
G36*
X145757249Y-106175997D02*
G01*
X145757249Y-106403362D01*
X145529883Y-106403362D01*
X145302518Y-106403362D01*
X145302518Y-106175997D01*
X145302518Y-105948631D01*
X145529883Y-105948631D01*
X145757249Y-105948631D01*
X145757249Y-106175997D01*
G37*
G36*
X145757249Y-103902339D02*
G01*
X145757249Y-104129705D01*
X145529883Y-104129705D01*
X145302518Y-104129705D01*
X145302518Y-103902339D01*
X145302518Y-103674974D01*
X145529883Y-103674974D01*
X145757249Y-103674974D01*
X145757249Y-103902339D01*
G37*
G36*
X145302518Y-108222288D02*
G01*
X145302518Y-108677020D01*
X145075152Y-108677020D01*
X144847786Y-108677020D01*
X144847786Y-108222288D01*
X144847786Y-107767557D01*
X145075152Y-107767557D01*
X145302518Y-107767557D01*
X145302518Y-108222288D01*
G37*
G36*
X143938323Y-104811802D02*
G01*
X143938323Y-105039168D01*
X143710957Y-105039168D01*
X143483592Y-105039168D01*
X143483592Y-104811802D01*
X143483592Y-104584436D01*
X143710957Y-104584436D01*
X143938323Y-104584436D01*
X143938323Y-104811802D01*
G37*
G36*
X143028860Y-111632774D02*
G01*
X143028860Y-111860140D01*
X142801494Y-111860140D01*
X142574129Y-111860140D01*
X142574129Y-111632774D01*
X142574129Y-111405408D01*
X142801494Y-111405408D01*
X143028860Y-111405408D01*
X143028860Y-111632774D01*
G37*
G36*
X143938323Y-110723311D02*
G01*
X143938323Y-110950677D01*
X143256226Y-110950677D01*
X142574129Y-110950677D01*
X142574129Y-110723311D01*
X142574129Y-110495945D01*
X143256226Y-110495945D01*
X143938323Y-110495945D01*
X143938323Y-110723311D01*
G37*
G36*
X145757249Y-111405408D02*
G01*
X145757249Y-111860140D01*
X145529883Y-111860140D01*
X145302518Y-111860140D01*
X145302518Y-112087506D01*
X145302518Y-112314871D01*
X144847786Y-112314871D01*
X144393055Y-112314871D01*
X144393055Y-111860140D01*
X144393055Y-111405408D01*
X144847786Y-111405408D01*
X145302518Y-111405408D01*
X145302518Y-111178043D01*
X145302518Y-110950677D01*
X145529883Y-110950677D01*
X145757249Y-110950677D01*
X145757249Y-111405408D01*
G37*
G36*
X154825893Y-111178043D02*
G01*
X154825893Y-112288887D01*
X153715049Y-112288887D01*
X152604205Y-112288887D01*
X152604205Y-111860140D01*
X153032952Y-111860140D01*
X153715049Y-111860140D01*
X154397147Y-111860140D01*
X154397147Y-111178043D01*
X154397147Y-110495945D01*
X153715049Y-110495945D01*
X153032952Y-110495945D01*
X153032952Y-111178043D01*
X153032952Y-111860140D01*
X152604205Y-111860140D01*
X152604205Y-111178043D01*
X152604205Y-110067199D01*
X153715049Y-110067199D01*
X154825893Y-110067199D01*
X154825893Y-110495945D01*
X154825893Y-111178043D01*
G37*
G36*
X154825893Y-101173951D02*
G01*
X154825893Y-102284795D01*
X153715049Y-102284795D01*
X152604205Y-102284795D01*
X152604205Y-101856048D01*
X153032952Y-101856048D01*
X153715049Y-101856048D01*
X154397147Y-101856048D01*
X154397147Y-101173951D01*
X154397147Y-100491853D01*
X153715049Y-100491853D01*
X153032952Y-100491853D01*
X153032952Y-101173951D01*
X153032952Y-101856048D01*
X152604205Y-101856048D01*
X152604205Y-101173951D01*
X152604205Y-100063107D01*
X153715049Y-100063107D01*
X154825893Y-100063107D01*
X154825893Y-100491853D01*
X154825893Y-101173951D01*
G37*
G36*
X145757249Y-109813848D02*
G01*
X145757249Y-110495945D01*
X145075152Y-110495945D01*
X144393055Y-110495945D01*
X144393055Y-110041214D01*
X144847786Y-110041214D01*
X145075152Y-110041214D01*
X145302518Y-110041214D01*
X145302518Y-109813848D01*
X145302518Y-109586482D01*
X145075152Y-109586482D01*
X144847786Y-109586482D01*
X144847786Y-109813848D01*
X144847786Y-110041214D01*
X144393055Y-110041214D01*
X144393055Y-109813848D01*
X144393055Y-109131751D01*
X145075152Y-109131751D01*
X145757249Y-109131751D01*
X145757249Y-109586482D01*
X145757249Y-109813848D01*
G37*
G36*
X144821801Y-101173951D02*
G01*
X144821801Y-102284795D01*
X143710957Y-102284795D01*
X142600113Y-102284795D01*
X142600113Y-101856048D01*
X143028860Y-101856048D01*
X143710957Y-101856048D01*
X144393055Y-101856048D01*
X144393055Y-101173951D01*
X144393055Y-100491853D01*
X143710957Y-100491853D01*
X143028860Y-100491853D01*
X143028860Y-101173951D01*
X143028860Y-101856048D01*
X142600113Y-101856048D01*
X142600113Y-101173951D01*
X142600113Y-100063107D01*
X143710957Y-100063107D01*
X144821801Y-100063107D01*
X144821801Y-100491853D01*
X144821801Y-101173951D01*
G37*
G36*
X150986661Y-108222288D02*
G01*
X151214026Y-108222288D01*
X151214026Y-108449654D01*
X151214026Y-108677020D01*
X150986661Y-108677020D01*
X150759295Y-108677020D01*
X150759295Y-108449654D01*
X150759295Y-108222288D01*
X150986661Y-108222288D01*
G37*
G36*
X150531929Y-107312825D02*
G01*
X150759295Y-107312825D01*
X150759295Y-107767557D01*
X150759295Y-108222288D01*
X150531929Y-108222288D01*
X150304564Y-108222288D01*
X150304564Y-107767557D01*
X150304564Y-107312825D01*
X150531929Y-107312825D01*
G37*
G36*
X150304564Y-107085459D02*
G01*
X150304564Y-107312825D01*
X150077198Y-107312825D01*
X149849832Y-107312825D01*
X149849832Y-107085459D01*
X149849832Y-106858094D01*
X150077198Y-106858094D01*
X150304564Y-106858094D01*
X150304564Y-107085459D01*
G37*
G36*
X146666712Y-106630728D02*
G01*
X146666712Y-108677020D01*
X146439346Y-108677020D01*
X146211980Y-108677020D01*
X146211980Y-108449654D01*
X146211980Y-108222288D01*
X145984615Y-108222288D01*
X145757249Y-108222288D01*
X145757249Y-107994922D01*
X145757249Y-107767557D01*
X145984615Y-107767557D01*
X146211980Y-107767557D01*
X146211980Y-106630728D01*
X146211980Y-105493899D01*
X145984615Y-105493899D01*
X145757249Y-105493899D01*
X145757249Y-105266534D01*
X145757249Y-105039168D01*
X145984615Y-105039168D01*
X146211980Y-105039168D01*
X146211980Y-104811802D01*
X146211980Y-104584436D01*
X146439346Y-104584436D01*
X146666712Y-104584436D01*
X146666712Y-106630728D01*
G37*
G36*
X149395101Y-108677020D02*
G01*
X149849832Y-108677020D01*
X149849832Y-108904385D01*
X149849832Y-109131751D01*
X150531929Y-109131751D01*
X151214026Y-109131751D01*
X151214026Y-108904385D01*
X151214026Y-108677020D01*
X151441392Y-108677020D01*
X151668758Y-108677020D01*
X151668758Y-108904385D01*
X151668758Y-109131751D01*
X151441392Y-109131751D01*
X151214026Y-109131751D01*
X151214026Y-109359117D01*
X151214026Y-109586482D01*
X150304564Y-109586482D01*
X149395101Y-109586482D01*
X149395101Y-109359117D01*
X149395101Y-109131751D01*
X149167735Y-109131751D01*
X148940369Y-109131751D01*
X148940369Y-108904385D01*
X148940369Y-108677020D01*
X149395101Y-108677020D01*
G37*
G36*
X148030906Y-107312825D02*
G01*
X148030906Y-107767557D01*
X148258272Y-107767557D01*
X148485638Y-107767557D01*
X148485638Y-107540191D01*
X148485638Y-107312825D01*
X149167735Y-107312825D01*
X149849832Y-107312825D01*
X149849832Y-107540191D01*
X149849832Y-107767557D01*
X149395101Y-107767557D01*
X148940369Y-107767557D01*
X148940369Y-108222288D01*
X148940369Y-108677020D01*
X148485638Y-108677020D01*
X148030906Y-108677020D01*
X148030906Y-108449654D01*
X148030906Y-108222288D01*
X147576175Y-108222288D01*
X147121443Y-108222288D01*
X147121443Y-107994922D01*
X147121443Y-107767557D01*
X147348809Y-107767557D01*
X147576175Y-107767557D01*
X147576175Y-107312825D01*
X147576175Y-106858094D01*
X147803541Y-106858094D01*
X148030906Y-106858094D01*
X148030906Y-107312825D01*
G37*
G36*
X144393055Y-107767557D02*
G01*
X144165689Y-107767557D01*
X143938323Y-107767557D01*
X143938323Y-108904385D01*
X143938323Y-110041214D01*
X143483592Y-110041214D01*
X143028860Y-110041214D01*
X143028860Y-109813848D01*
X143028860Y-109586482D01*
X143256226Y-109586482D01*
X143483592Y-109586482D01*
X143483592Y-109131751D01*
X143483592Y-108677020D01*
X143256226Y-108677020D01*
X143028860Y-108677020D01*
X143028860Y-108222288D01*
X143028860Y-107767557D01*
X143483592Y-107767557D01*
X143710957Y-107767557D01*
X143938323Y-107767557D01*
X143938323Y-107540191D01*
X143938323Y-107312825D01*
X143710957Y-107312825D01*
X143483592Y-107312825D01*
X143483592Y-107540191D01*
X143483592Y-107767557D01*
X143028860Y-107767557D01*
X142801494Y-107767557D01*
X142574129Y-107767557D01*
X142574129Y-107540191D01*
X142574129Y-107312825D01*
X142801494Y-107312825D01*
X143028860Y-107312825D01*
X143028860Y-106858094D01*
X143028860Y-106403362D01*
X143256226Y-106403362D01*
X143483592Y-106403362D01*
X143483592Y-106630728D01*
X143483592Y-106858094D01*
X143710957Y-106858094D01*
X143938323Y-106858094D01*
X143938323Y-106630728D01*
X143938323Y-106403362D01*
X144393055Y-106403362D01*
X144847786Y-106403362D01*
X144847786Y-106630728D01*
X144847786Y-106858094D01*
X144620420Y-106858094D01*
X144393055Y-106858094D01*
X144393055Y-107312825D01*
X144393055Y-107767557D01*
G37*
G36*
X145302518Y-106858094D02*
G01*
X145757249Y-106858094D01*
X145757249Y-107085459D01*
X145757249Y-107312825D01*
X145302518Y-107312825D01*
X144847786Y-107312825D01*
X144847786Y-107085459D01*
X144847786Y-106858094D01*
X145302518Y-106858094D01*
G37*
G36*
X153942415Y-105948631D02*
G01*
X154397147Y-105948631D01*
X154397147Y-106175997D01*
X154397147Y-106403362D01*
X154624512Y-106403362D01*
X154851878Y-106403362D01*
X154851878Y-106858094D01*
X154851878Y-107312825D01*
X154624512Y-107312825D01*
X154397147Y-107312825D01*
X154397147Y-107540191D01*
X154397147Y-107767557D01*
X154169781Y-107767557D01*
X153942415Y-107767557D01*
X153942415Y-107994922D01*
X153942415Y-108222288D01*
X153487684Y-108222288D01*
X153032952Y-108222288D01*
X153032952Y-108449654D01*
X153032952Y-108677020D01*
X152350855Y-108677020D01*
X151668758Y-108677020D01*
X151668758Y-108449654D01*
X151668758Y-108222288D01*
X151441392Y-108222288D01*
X151214026Y-108222288D01*
X151214026Y-107994922D01*
X151214026Y-107767557D01*
X151668758Y-107767557D01*
X152123489Y-107767557D01*
X152123489Y-107994922D01*
X152123489Y-108222288D01*
X152350855Y-108222288D01*
X152578221Y-108222288D01*
X152578221Y-107994922D01*
X152578221Y-107767557D01*
X152350855Y-107767557D01*
X152123489Y-107767557D01*
X152123489Y-107540191D01*
X152123489Y-107312825D01*
X152350855Y-107312825D01*
X152578221Y-107312825D01*
X152578221Y-107085459D01*
X152578221Y-106858094D01*
X152805587Y-106858094D01*
X153032952Y-106858094D01*
X153032952Y-107312825D01*
X153032952Y-107767557D01*
X153260318Y-107767557D01*
X153487684Y-107767557D01*
X153487684Y-107312825D01*
X153487684Y-106858094D01*
X153715049Y-106858094D01*
X153942415Y-106858094D01*
X153942415Y-107085459D01*
X153942415Y-107312825D01*
X154169781Y-107312825D01*
X154397147Y-107312825D01*
X154397147Y-107085459D01*
X154397147Y-106858094D01*
X154169781Y-106858094D01*
X153942415Y-106858094D01*
X153942415Y-106630728D01*
X153942415Y-106403362D01*
X153715049Y-106403362D01*
X153487684Y-106403362D01*
X153487684Y-106175997D01*
X153487684Y-105948631D01*
X153942415Y-105948631D01*
G37*
G36*
X148485638Y-103220242D02*
G01*
X148713003Y-103220242D01*
X148940369Y-103220242D01*
X148940369Y-102765511D01*
X148940369Y-102310779D01*
X149167735Y-102310779D01*
X149395101Y-102310779D01*
X149395101Y-102538145D01*
X149395101Y-102765511D01*
X149622466Y-102765511D01*
X149849832Y-102765511D01*
X149849832Y-102538145D01*
X149849832Y-102310779D01*
X149622466Y-102310779D01*
X149395101Y-102310779D01*
X149395101Y-102083413D01*
X149395101Y-101856048D01*
X150077198Y-101856048D01*
X150759295Y-101856048D01*
X150759295Y-102083413D01*
X150759295Y-102310779D01*
X150531929Y-102310779D01*
X150304564Y-102310779D01*
X150304564Y-102538145D01*
X150304564Y-102765511D01*
X150531929Y-102765511D01*
X150759295Y-102765511D01*
X150759295Y-102538145D01*
X150759295Y-102310779D01*
X150986661Y-102310779D01*
X151214026Y-102310779D01*
X151214026Y-102538145D01*
X151214026Y-102765511D01*
X150986661Y-102765511D01*
X150759295Y-102765511D01*
X150759295Y-102992876D01*
X150759295Y-103220242D01*
X150531929Y-103220242D01*
X150304564Y-103220242D01*
X150304564Y-103674974D01*
X150304564Y-104129705D01*
X150077198Y-104129705D01*
X149849832Y-104129705D01*
X149849832Y-104357071D01*
X149849832Y-104584436D01*
X149622466Y-104584436D01*
X149395101Y-104584436D01*
X149395101Y-104811802D01*
X149395101Y-105039168D01*
X149622466Y-105039168D01*
X149849832Y-105039168D01*
X149849832Y-105266534D01*
X149849832Y-105493899D01*
X150077198Y-105493899D01*
X150304564Y-105493899D01*
X150304564Y-105266534D01*
X150304564Y-105039168D01*
X150531929Y-105039168D01*
X150759295Y-105039168D01*
X150759295Y-104811802D01*
X150759295Y-104584436D01*
X150986661Y-104584436D01*
X151214026Y-104584436D01*
X151214026Y-104357071D01*
X151214026Y-104129705D01*
X151441392Y-104129705D01*
X151668758Y-104129705D01*
X151668758Y-104584436D01*
X151668758Y-105039168D01*
X151896124Y-105039168D01*
X152123489Y-105039168D01*
X152123489Y-104811802D01*
X152123489Y-104584436D01*
X152578221Y-104584436D01*
X153032952Y-104584436D01*
X153032952Y-105039168D01*
X153032952Y-105493899D01*
X152805587Y-105493899D01*
X152578221Y-105493899D01*
X152578221Y-105266534D01*
X152578221Y-105039168D01*
X152350855Y-105039168D01*
X152123489Y-105039168D01*
X152123489Y-105266534D01*
X152123489Y-105493899D01*
X151214026Y-105493899D01*
X150304564Y-105493899D01*
X150304564Y-105721265D01*
X150304564Y-105948631D01*
X151214026Y-105948631D01*
X152123489Y-105948631D01*
X152123489Y-106175997D01*
X152123489Y-106403362D01*
X151896124Y-106403362D01*
X151668758Y-106403362D01*
X151668758Y-106630728D01*
X151668758Y-106858094D01*
X151441392Y-106858094D01*
X151214026Y-106858094D01*
X151214026Y-106630728D01*
X151214026Y-106403362D01*
X150986661Y-106403362D01*
X150759295Y-106403362D01*
X150759295Y-106630728D01*
X150759295Y-106858094D01*
X150531929Y-106858094D01*
X150304564Y-106858094D01*
X150304564Y-106630728D01*
X150304564Y-106403362D01*
X149395101Y-106403362D01*
X148485638Y-106403362D01*
X148485638Y-105948631D01*
X148485638Y-105493899D01*
X148258272Y-105493899D01*
X148030906Y-105493899D01*
X148030906Y-105266534D01*
X148030906Y-105039168D01*
X147576175Y-105039168D01*
X147121443Y-105039168D01*
X147121443Y-104584436D01*
X147121443Y-104129705D01*
X147348809Y-104129705D01*
X147576175Y-104129705D01*
X147576175Y-104357071D01*
X147576175Y-104584436D01*
X147803541Y-104584436D01*
X148030906Y-104584436D01*
X148030906Y-104811802D01*
X148030906Y-105039168D01*
X148485638Y-105039168D01*
X148940369Y-105039168D01*
X148940369Y-104811802D01*
X148940369Y-104584436D01*
X148485638Y-104584436D01*
X148030906Y-104584436D01*
X148030906Y-104357071D01*
X148030906Y-104129705D01*
X147803541Y-104129705D01*
X147576175Y-104129705D01*
X147576175Y-103902339D01*
X147576175Y-103674974D01*
X147348809Y-103674974D01*
X147121443Y-103674974D01*
X147121443Y-103447608D01*
X147121443Y-103220242D01*
X147348809Y-103220242D01*
X147576175Y-103220242D01*
X148030906Y-103220242D01*
X148030906Y-103674974D01*
X148030906Y-104129705D01*
X148485638Y-104129705D01*
X148940369Y-104129705D01*
X149395101Y-104129705D01*
X149622466Y-104129705D01*
X149849832Y-104129705D01*
X149849832Y-103674974D01*
X149849832Y-103220242D01*
X149622466Y-103220242D01*
X149395101Y-103220242D01*
X149395101Y-103674974D01*
X149395101Y-104129705D01*
X148940369Y-104129705D01*
X148940369Y-103902339D01*
X148940369Y-103674974D01*
X148713003Y-103674974D01*
X148485638Y-103674974D01*
X148485638Y-103447608D01*
X148485638Y-103220242D01*
X148258272Y-103220242D01*
X148030906Y-103220242D01*
X147576175Y-103220242D01*
X147576175Y-102992876D01*
X147576175Y-102765511D01*
X147803541Y-102765511D01*
X148030906Y-102765511D01*
X148030906Y-102538145D01*
X148030906Y-102310779D01*
X147803541Y-102310779D01*
X147576175Y-102310779D01*
X147576175Y-102538145D01*
X147576175Y-102765511D01*
X147348809Y-102765511D01*
X147121443Y-102765511D01*
X147121443Y-101856048D01*
X147121443Y-100946585D01*
X146894078Y-100946585D01*
X146666712Y-100946585D01*
X146666712Y-100719219D01*
X146666712Y-100491853D01*
X146894078Y-100491853D01*
X147121443Y-100491853D01*
X147121443Y-100719219D01*
X147121443Y-100946585D01*
X147576175Y-100946585D01*
X148030906Y-100946585D01*
X148030906Y-100719219D01*
X148030906Y-100491853D01*
X148485638Y-100491853D01*
X148940369Y-100491853D01*
X148940369Y-100719219D01*
X148940369Y-100946585D01*
X148485638Y-100946585D01*
X148030906Y-100946585D01*
X148030906Y-101173951D01*
X148030906Y-101401316D01*
X147803541Y-101401316D01*
X147576175Y-101401316D01*
X147576175Y-101628682D01*
X147576175Y-101856048D01*
X147803541Y-101856048D01*
X148030906Y-101856048D01*
X148030906Y-101628682D01*
X148030906Y-101401316D01*
X148258272Y-101401316D01*
X148485638Y-101401316D01*
X148485638Y-102310779D01*
X148485638Y-103220242D01*
G37*
G36*
X153260318Y-105493899D02*
G01*
X153487684Y-105493899D01*
X153487684Y-105721265D01*
X153487684Y-105948631D01*
X153260318Y-105948631D01*
X153032952Y-105948631D01*
X153032952Y-105721265D01*
X153032952Y-105493899D01*
X153260318Y-105493899D01*
G37*
G36*
X151214026Y-103902339D02*
G01*
X151214026Y-104129705D01*
X150986661Y-104129705D01*
X150759295Y-104129705D01*
X150759295Y-103902339D01*
X150759295Y-103674974D01*
X150986661Y-103674974D01*
X151214026Y-103674974D01*
X151214026Y-103902339D01*
G37*
G36*
X148030906Y-100264488D02*
G01*
X148030906Y-100491853D01*
X147803541Y-100491853D01*
X147576175Y-100491853D01*
X147576175Y-100264488D01*
X147576175Y-100037122D01*
X147803541Y-100037122D01*
X148030906Y-100037122D01*
X148030906Y-100264488D01*
G37*
G36*
X156216072Y-103220242D02*
G01*
X156216072Y-104129705D01*
X156216072Y-105039168D01*
X156216072Y-106175997D01*
X156216072Y-108222288D01*
X156216072Y-108677020D01*
X156216072Y-109586482D01*
X156216072Y-113679066D01*
X148713003Y-113679066D01*
X141209934Y-113679066D01*
X141209934Y-111860140D01*
X142119397Y-111860140D01*
X142346763Y-111860140D01*
X142574129Y-111860140D01*
X142574129Y-112314871D01*
X142574129Y-112769603D01*
X142801494Y-112769603D01*
X143028860Y-112769603D01*
X143028860Y-112314871D01*
X143028860Y-111860140D01*
X143483592Y-111860140D01*
X143938323Y-111860140D01*
X143938323Y-112087506D01*
X143938323Y-112314871D01*
X143710957Y-112314871D01*
X143483592Y-112314871D01*
X143483592Y-112542237D01*
X143483592Y-112769603D01*
X144847786Y-112769603D01*
X146211980Y-112769603D01*
X146211980Y-112542237D01*
X146211980Y-112314871D01*
X146439346Y-112314871D01*
X146666712Y-112314871D01*
X146666712Y-112087506D01*
X146666712Y-111860140D01*
X146894078Y-111860140D01*
X147121443Y-111860140D01*
X147121443Y-112314871D01*
X147121443Y-112769603D01*
X147348809Y-112769603D01*
X147576175Y-112769603D01*
X147576175Y-112314871D01*
X148030906Y-112314871D01*
X148258272Y-112314871D01*
X148485638Y-112314871D01*
X148485638Y-112542237D01*
X148485638Y-112769603D01*
X148940369Y-112769603D01*
X149395101Y-112769603D01*
X149395101Y-112542237D01*
X149395101Y-112314871D01*
X149622466Y-112314871D01*
X149849832Y-112314871D01*
X150304564Y-112314871D01*
X150304564Y-112769603D01*
X150986661Y-112769603D01*
X151668758Y-112769603D01*
X151668758Y-112542237D01*
X151668758Y-112314871D01*
X151214026Y-112314871D01*
X150759295Y-112314871D01*
X150759295Y-112087506D01*
X150759295Y-111860140D01*
X150531929Y-111860140D01*
X150304564Y-111860140D01*
X150304564Y-112314871D01*
X149849832Y-112314871D01*
X149849832Y-112087506D01*
X149849832Y-111860140D01*
X150077198Y-111860140D01*
X150304564Y-111860140D01*
X150304564Y-111632774D01*
X150304564Y-111405408D01*
X150531929Y-111405408D01*
X150759295Y-111405408D01*
X151214026Y-111405408D01*
X151441392Y-111405408D01*
X151668758Y-111405408D01*
X151668758Y-111178043D01*
X151668758Y-110950677D01*
X152123489Y-110950677D01*
X152123489Y-111178043D01*
X152123489Y-112769603D01*
X153715049Y-112769603D01*
X155306610Y-112769603D01*
X155306610Y-111178043D01*
X155306610Y-109586482D01*
X153715049Y-109586482D01*
X152123489Y-109586482D01*
X152123489Y-110950677D01*
X151668758Y-110950677D01*
X151441392Y-110950677D01*
X151214026Y-110950677D01*
X151214026Y-111178043D01*
X151214026Y-111405408D01*
X150759295Y-111405408D01*
X150759295Y-111178043D01*
X150759295Y-110950677D01*
X150304564Y-110950677D01*
X149849832Y-110950677D01*
X149849832Y-111405408D01*
X149849832Y-111860140D01*
X149622466Y-111860140D01*
X149395101Y-111860140D01*
X149395101Y-112087506D01*
X149395101Y-112314871D01*
X149167735Y-112314871D01*
X148940369Y-112314871D01*
X148940369Y-111405408D01*
X148940369Y-110495945D01*
X148713003Y-110495945D01*
X148485638Y-110495945D01*
X148485638Y-111178043D01*
X148485638Y-111860140D01*
X148258272Y-111860140D01*
X148030906Y-111860140D01*
X148030906Y-112087506D01*
X148030906Y-112314871D01*
X147576175Y-112314871D01*
X147576175Y-112087506D01*
X147576175Y-111405408D01*
X147121443Y-111405408D01*
X146666712Y-111405408D01*
X146666712Y-111178043D01*
X146666712Y-110950677D01*
X146439346Y-110950677D01*
X146211980Y-110950677D01*
X146211980Y-110268580D01*
X146211980Y-109586482D01*
X146439346Y-109586482D01*
X146666712Y-109586482D01*
X146666712Y-109359117D01*
X146666712Y-109131751D01*
X146894078Y-109131751D01*
X147121443Y-109131751D01*
X147121443Y-108904385D01*
X147121443Y-108677020D01*
X147348809Y-108677020D01*
X147576175Y-108677020D01*
X147576175Y-109131751D01*
X147576175Y-109586482D01*
X147348809Y-109586482D01*
X147121443Y-109586482D01*
X147121443Y-109813848D01*
X147121443Y-110041214D01*
X146894078Y-110041214D01*
X146666712Y-110041214D01*
X146666712Y-110268580D01*
X146666712Y-110495945D01*
X146894078Y-110495945D01*
X147121443Y-110495945D01*
X147121443Y-110723311D01*
X147121443Y-110950677D01*
X147348809Y-110950677D01*
X147576175Y-110950677D01*
X147576175Y-110723311D01*
X147576175Y-110495945D01*
X147803541Y-110495945D01*
X148030906Y-110495945D01*
X148030906Y-109813848D01*
X148030906Y-109131751D01*
X148485638Y-109131751D01*
X148940369Y-109131751D01*
X148940369Y-109359117D01*
X148940369Y-109586482D01*
X148713003Y-109586482D01*
X148485638Y-109586482D01*
X148485638Y-109813848D01*
X148485638Y-110041214D01*
X148713003Y-110041214D01*
X148940369Y-110041214D01*
X148940369Y-110268580D01*
X148940369Y-110495945D01*
X149622466Y-110495945D01*
X150304564Y-110495945D01*
X150304564Y-110268580D01*
X150304564Y-110041214D01*
X150531929Y-110041214D01*
X150759295Y-110041214D01*
X150759295Y-110268580D01*
X150759295Y-110495945D01*
X151214026Y-110495945D01*
X151668758Y-110495945D01*
X151668758Y-110268580D01*
X151668758Y-110041214D01*
X151441392Y-110041214D01*
X151214026Y-110041214D01*
X151214026Y-109813848D01*
X151214026Y-109586482D01*
X151441392Y-109586482D01*
X151668758Y-109586482D01*
X151668758Y-109359117D01*
X151668758Y-109131751D01*
X152578221Y-109131751D01*
X153487684Y-109131751D01*
X154851878Y-109131751D01*
X155079244Y-109131751D01*
X155306610Y-109131751D01*
X155306610Y-108904385D01*
X155306610Y-108677020D01*
X155079244Y-108677020D01*
X154851878Y-108677020D01*
X154851878Y-108904385D01*
X154851878Y-109131751D01*
X153487684Y-109131751D01*
X153487684Y-108904385D01*
X153487684Y-108677020D01*
X153942415Y-108677020D01*
X154397147Y-108677020D01*
X154397147Y-108222288D01*
X154397147Y-107767557D01*
X154624512Y-107767557D01*
X154851878Y-107767557D01*
X154851878Y-107994922D01*
X154851878Y-108222288D01*
X155079244Y-108222288D01*
X155306610Y-108222288D01*
X155306610Y-107994922D01*
X155306610Y-107767557D01*
X155079244Y-107767557D01*
X154851878Y-107767557D01*
X154851878Y-107540191D01*
X154851878Y-107312825D01*
X155079244Y-107312825D01*
X155306610Y-107312825D01*
X155306610Y-106630728D01*
X155306610Y-105948631D01*
X154851878Y-105948631D01*
X154397147Y-105948631D01*
X154397147Y-105721265D01*
X154397147Y-105493899D01*
X154851878Y-105493899D01*
X155079244Y-105493899D01*
X155306610Y-105493899D01*
X155306610Y-105266534D01*
X155306610Y-105039168D01*
X155079244Y-105039168D01*
X154851878Y-105039168D01*
X154851878Y-105266534D01*
X154851878Y-105493899D01*
X154397147Y-105493899D01*
X154169781Y-105493899D01*
X153942415Y-105493899D01*
X153942415Y-105266534D01*
X153942415Y-105039168D01*
X153715049Y-105039168D01*
X153487684Y-105039168D01*
X153487684Y-104811802D01*
X153487684Y-104584436D01*
X153942415Y-104584436D01*
X154397147Y-104584436D01*
X154851878Y-104584436D01*
X155079244Y-104584436D01*
X155306610Y-104584436D01*
X155306610Y-104357071D01*
X155306610Y-104129705D01*
X155079244Y-104129705D01*
X154851878Y-104129705D01*
X154851878Y-104357071D01*
X154851878Y-104584436D01*
X154397147Y-104584436D01*
X154397147Y-104129705D01*
X154397147Y-103674974D01*
X154851878Y-103674974D01*
X155079244Y-103674974D01*
X155306610Y-103674974D01*
X155306610Y-103447608D01*
X155306610Y-103220242D01*
X155079244Y-103220242D01*
X154851878Y-103220242D01*
X154851878Y-103447608D01*
X154851878Y-103674974D01*
X154397147Y-103674974D01*
X154169781Y-103674974D01*
X153942415Y-103674974D01*
X153942415Y-103447608D01*
X153942415Y-103220242D01*
X153715049Y-103220242D01*
X153487684Y-103220242D01*
X153487684Y-103447608D01*
X153487684Y-103674974D01*
X153260318Y-103674974D01*
X153032952Y-103674974D01*
X153032952Y-103447608D01*
X153032952Y-103220242D01*
X152578221Y-103220242D01*
X152123489Y-103220242D01*
X152123489Y-103447608D01*
X152123489Y-103674974D01*
X151896124Y-103674974D01*
X151668758Y-103674974D01*
X151668758Y-103447608D01*
X151668758Y-103220242D01*
X151441392Y-103220242D01*
X151214026Y-103220242D01*
X151214026Y-102992876D01*
X151214026Y-102765511D01*
X151441392Y-102765511D01*
X151668758Y-102765511D01*
X152123489Y-102765511D01*
X153715049Y-102765511D01*
X155306610Y-102765511D01*
X155306610Y-101173951D01*
X155306610Y-99582390D01*
X153715049Y-99582390D01*
X152123489Y-99582390D01*
X152123489Y-101173951D01*
X152123489Y-102765511D01*
X151668758Y-102765511D01*
X151668758Y-102310779D01*
X151668758Y-101856048D01*
X151214026Y-101856048D01*
X150759295Y-101856048D01*
X150759295Y-101628682D01*
X150759295Y-101401316D01*
X150986661Y-101401316D01*
X151214026Y-101401316D01*
X151214026Y-100719219D01*
X151214026Y-100037122D01*
X150986661Y-100037122D01*
X150759295Y-100037122D01*
X150759295Y-100719219D01*
X150759295Y-101401316D01*
X150531929Y-101401316D01*
X150304564Y-101401316D01*
X150304564Y-100946585D01*
X150304564Y-100491853D01*
X150077198Y-100491853D01*
X149849832Y-100491853D01*
X149849832Y-100037122D01*
X149849832Y-99582390D01*
X150304564Y-99582390D01*
X150304564Y-99809756D01*
X150304564Y-100037122D01*
X150531929Y-100037122D01*
X150759295Y-100037122D01*
X150759295Y-99809756D01*
X150759295Y-99582390D01*
X150531929Y-99582390D01*
X150304564Y-99582390D01*
X149849832Y-99582390D01*
X149395101Y-99582390D01*
X148940369Y-99582390D01*
X148940369Y-99809756D01*
X148940369Y-100037122D01*
X148485638Y-100037122D01*
X148030906Y-100037122D01*
X148030906Y-99809756D01*
X148030906Y-99582390D01*
X147803541Y-99582390D01*
X147576175Y-99582390D01*
X147576175Y-99809756D01*
X147576175Y-100037122D01*
X147348809Y-100037122D01*
X147121443Y-100037122D01*
X147121443Y-99809756D01*
X147121443Y-99582390D01*
X146666712Y-99582390D01*
X146211980Y-99582390D01*
X146211980Y-99809756D01*
X146211980Y-100037122D01*
X146439346Y-100037122D01*
X146666712Y-100037122D01*
X146666712Y-100264488D01*
X146666712Y-100491853D01*
X146439346Y-100491853D01*
X146211980Y-100491853D01*
X146211980Y-100719219D01*
X146211980Y-100946585D01*
X145984615Y-100946585D01*
X145757249Y-100946585D01*
X145757249Y-101173951D01*
X145757249Y-101401316D01*
X145984615Y-101401316D01*
X146211980Y-101401316D01*
X146211980Y-101173951D01*
X146211980Y-100946585D01*
X146439346Y-100946585D01*
X146666712Y-100946585D01*
X146666712Y-101401316D01*
X146666712Y-101856048D01*
X146439346Y-101856048D01*
X146211980Y-101856048D01*
X146211980Y-102083413D01*
X146211980Y-102310779D01*
X145984615Y-102310779D01*
X145757249Y-102310779D01*
X145757249Y-102538145D01*
X145757249Y-102765511D01*
X145984615Y-102765511D01*
X146211980Y-102765511D01*
X146211980Y-102538145D01*
X146211980Y-102310779D01*
X146439346Y-102310779D01*
X146666712Y-102310779D01*
X146666712Y-102765511D01*
X146666712Y-103220242D01*
X145984615Y-103220242D01*
X145302518Y-103220242D01*
X145302518Y-103447608D01*
X145302518Y-103674974D01*
X145075152Y-103674974D01*
X144847786Y-103674974D01*
X144847786Y-103447608D01*
X144847786Y-103220242D01*
X144620420Y-103220242D01*
X144393055Y-103220242D01*
X144393055Y-103447608D01*
X144393055Y-103674974D01*
X144620420Y-103674974D01*
X144847786Y-103674974D01*
X144847786Y-103902339D01*
X144847786Y-104129705D01*
X145075152Y-104129705D01*
X145302518Y-104129705D01*
X145302518Y-104357071D01*
X145302518Y-104584436D01*
X145529883Y-104584436D01*
X145757249Y-104584436D01*
X145757249Y-104811802D01*
X145757249Y-105039168D01*
X145302518Y-105039168D01*
X144847786Y-105039168D01*
X144847786Y-105266534D01*
X144847786Y-105493899D01*
X145075152Y-105493899D01*
X145302518Y-105493899D01*
X145302518Y-105721265D01*
X145302518Y-105948631D01*
X143710957Y-105948631D01*
X142119397Y-105948631D01*
X142119397Y-106175997D01*
X142119397Y-106403362D01*
X142346763Y-106403362D01*
X142574129Y-106403362D01*
X142574129Y-106858094D01*
X142574129Y-107312825D01*
X142346763Y-107312825D01*
X142119397Y-107312825D01*
X142119397Y-107994922D01*
X142119397Y-108677020D01*
X142574129Y-108677020D01*
X143028860Y-108677020D01*
X143028860Y-108904385D01*
X143028860Y-109131751D01*
X142574129Y-109131751D01*
X142119397Y-109131751D01*
X142119397Y-109359117D01*
X142119397Y-109586482D01*
X142346763Y-109586482D01*
X142574129Y-109586482D01*
X142574129Y-110041214D01*
X142574129Y-110495945D01*
X142346763Y-110495945D01*
X142119397Y-110495945D01*
X142119397Y-110723311D01*
X142119397Y-110950677D01*
X142346763Y-110950677D01*
X142574129Y-110950677D01*
X142574129Y-111178043D01*
X142574129Y-111405408D01*
X142346763Y-111405408D01*
X142119397Y-111405408D01*
X142119397Y-111632774D01*
X142119397Y-111860140D01*
X141209934Y-111860140D01*
X141209934Y-106175997D01*
X141209934Y-105493899D01*
X142119397Y-105493899D01*
X142574129Y-105493899D01*
X143028860Y-105493899D01*
X143028860Y-105266534D01*
X143028860Y-105039168D01*
X143256226Y-105039168D01*
X143483592Y-105039168D01*
X143483592Y-105266534D01*
X143483592Y-105493899D01*
X143710957Y-105493899D01*
X143938323Y-105493899D01*
X143938323Y-105266534D01*
X143938323Y-105039168D01*
X144165689Y-105039168D01*
X144393055Y-105039168D01*
X144393055Y-104584436D01*
X144393055Y-104129705D01*
X144165689Y-104129705D01*
X143938323Y-104129705D01*
X143938323Y-103902339D01*
X143938323Y-103674974D01*
X143710957Y-103674974D01*
X143483592Y-103674974D01*
X143483592Y-103902339D01*
X143483592Y-104129705D01*
X143028860Y-104129705D01*
X142574129Y-104129705D01*
X142574129Y-103902339D01*
X142574129Y-103674974D01*
X142346763Y-103674974D01*
X142119397Y-103674974D01*
X142119397Y-103902339D01*
X142119397Y-104129705D01*
X142346763Y-104129705D01*
X142574129Y-104129705D01*
X142574129Y-104584436D01*
X142574129Y-105039168D01*
X142346763Y-105039168D01*
X142119397Y-105039168D01*
X142119397Y-105266534D01*
X142119397Y-105493899D01*
X141209934Y-105493899D01*
X141209934Y-99582390D01*
X142119397Y-99582390D01*
X142119397Y-101173951D01*
X142119397Y-102765511D01*
X143710957Y-102765511D01*
X145302518Y-102765511D01*
X145302518Y-101173951D01*
X145302518Y-99582390D01*
X143710957Y-99582390D01*
X142119397Y-99582390D01*
X141209934Y-99582390D01*
X141209934Y-98672928D01*
X148713003Y-98672928D01*
X156216072Y-98672928D01*
X156216072Y-99582390D01*
X156216072Y-103220242D01*
G37*
D12*
X163350700Y-101282000D02*
X163350700Y-98682000D01*
X160690700Y-103882000D02*
X162020700Y-103882000D01*
X160690700Y-102552000D02*
X160690700Y-103882000D01*
X160690700Y-101282000D02*
X163350700Y-101282000D01*
X160690700Y-101282000D02*
X160690700Y-98682000D01*
X160690700Y-98682000D02*
X163350700Y-98682000D01*
X167321500Y-108958500D02*
X167321500Y-98738500D01*
X164661500Y-111558500D02*
X165991500Y-111558500D01*
X164661500Y-110228500D02*
X164661500Y-111558500D01*
X164661500Y-108958500D02*
X167321500Y-108958500D01*
X164661500Y-108958500D02*
X164661500Y-98738500D01*
X164661500Y-98738500D02*
X167321500Y-98738500D01*
D11*
X145366700Y-82359901D02*
X146307899Y-82359901D01*
X145366700Y-90708062D02*
X145366700Y-82359901D01*
X145366700Y-94602701D02*
X145366700Y-92865739D01*
X145869421Y-94602701D02*
X145366700Y-94602701D01*
X146578699Y-82359901D02*
X151919900Y-82359901D01*
X146712900Y-80353301D02*
X150573700Y-80353301D01*
X146712900Y-82387190D02*
X146712900Y-80353301D01*
X150573700Y-80353301D02*
X150573700Y-82613901D01*
X150573700Y-82613901D02*
X147126412Y-82613901D01*
X151919900Y-82359901D02*
X151919900Y-82523042D01*
X151919900Y-85050760D02*
X151919900Y-86908062D01*
X151919900Y-89065739D02*
X151919900Y-91908062D01*
X151919900Y-94065739D02*
X151919900Y-94602701D01*
X151919900Y-94602701D02*
X147817180Y-94602701D01*
%LPC*%
D13*
X135892500Y-84281502D03*
X139956500Y-84281502D03*
X135892500Y-82801500D03*
X139956500Y-82801500D03*
D14*
X162020700Y-100012000D03*
D15*
X162020700Y-102552000D03*
D14*
X165991500Y-100068500D03*
X165991500Y-102608500D03*
X165991500Y-105148500D03*
X165991500Y-107688500D03*
D15*
X165991500Y-110228500D03*
D16*
X151243300Y-92986900D03*
X146843301Y-93986901D03*
X146043300Y-91786900D03*
X151243300Y-87986900D03*
D17*
X146343299Y-85365251D03*
D16*
X151543299Y-85365251D03*
D18*
X148643300Y-92986900D03*
%LPD*%
M02*
