%TF.GenerationSoftware,KiCad,Pcbnew,7.0.7*%
%TF.CreationDate,2024-03-29T16:46:14+10:30*%
%TF.ProjectId,hawk,6861776b-2e6b-4696-9361-645f70636258,1*%
%TF.SameCoordinates,Original*%
%TF.FileFunction,Drillmap*%
%TF.FilePolarity,Positive*%
%FSLAX45Y45*%
G04 Gerber Fmt 4.5, Leading zero omitted, Abs format (unit mm)*
G04 Created by KiCad (PCBNEW 7.0.7) date 2024-03-29 16:46:14*
%MOMM*%
%LPD*%
G01*
G04 APERTURE LIST*
%ADD10C,0.254000*%
%ADD11C,0.100000*%
%ADD12C,0.200000*%
%ADD13C,0.139700*%
G04 APERTURE END LIST*
D10*
X14697630Y-8187650D02*
X12914550Y-8187650D01*
X15943130Y-11832890D02*
X15967050Y-11837650D01*
X12821250Y-11812650D02*
X12839550Y-11830950D01*
X13819790Y-11799070D02*
X13824550Y-11775150D01*
D11*
X15027630Y-8187650D02*
X15027630Y-8324900D01*
D10*
X16914550Y-11447650D02*
X16824550Y-11447650D01*
X16864550Y-11837650D02*
X16889550Y-11830950D01*
X12843840Y-8216940D02*
X12827950Y-8237650D01*
X16907850Y-11812650D02*
X16914550Y-11787650D01*
X16911140Y-8261770D02*
X16901150Y-8237650D01*
X16864550Y-11837650D02*
X15967050Y-11837650D01*
X12827950Y-8237650D02*
X12817960Y-8261770D01*
X13785970Y-11832890D02*
X13806240Y-11819340D01*
X12817960Y-8261770D02*
X12814550Y-8287650D01*
X15922860Y-11819340D02*
X15943130Y-11832890D01*
X12839550Y-11830950D02*
X12864550Y-11837650D01*
X13806240Y-11819340D02*
X13819790Y-11799070D01*
X14053550Y-11462650D02*
X13825800Y-11462650D01*
X14071860Y-12269340D02*
X14092130Y-12282890D01*
X16864550Y-8201050D02*
X16840430Y-8191060D01*
X14092130Y-12282890D02*
X14116050Y-12287650D01*
X16824550Y-11447650D02*
X16824550Y-11647650D01*
X15657240Y-12269340D02*
X15670790Y-12249070D01*
X15613050Y-12287650D02*
X14116050Y-12287650D01*
X16889550Y-11830950D02*
X16907850Y-11812650D01*
X15670790Y-12249070D02*
X15675550Y-12225150D01*
X13762050Y-11837650D02*
X13785970Y-11832890D01*
X13762050Y-11837650D02*
X12864550Y-11837650D01*
X14058310Y-12249070D02*
X14071860Y-12269340D01*
X15904550Y-11462650D02*
X15904550Y-11775150D01*
X12864550Y-8201050D02*
X12843840Y-8216940D01*
X12914550Y-8187650D02*
X12888670Y-8191060D01*
X12904550Y-11647650D02*
X12814550Y-11647650D01*
X16914550Y-11647650D02*
X16824550Y-11647650D01*
X16814550Y-8187650D02*
X15027630Y-8187650D01*
X15613050Y-12287650D02*
X15636970Y-12282890D01*
X14053550Y-12225150D02*
X14058310Y-12249070D01*
X12904550Y-11447650D02*
X12904550Y-11647650D01*
X16840430Y-8191060D02*
X16814550Y-8187650D01*
X16885260Y-8216940D02*
X16864550Y-8201050D01*
X12888670Y-8191060D02*
X12864550Y-8201050D01*
X12814550Y-8287650D02*
X12814550Y-11447650D01*
D11*
X15027630Y-8324900D02*
X14697630Y-8324900D01*
D10*
X12814550Y-11787650D02*
X12821250Y-11812650D01*
D11*
X14697630Y-8324900D02*
X14697630Y-8187650D01*
D10*
X15636970Y-12282890D02*
X15657240Y-12269340D01*
X13825800Y-11462650D02*
X13824550Y-11775150D01*
X15904550Y-11462650D02*
X15675550Y-11462650D01*
X12904550Y-11447650D02*
X12814550Y-11447650D01*
X12814550Y-11647650D02*
X12814550Y-11787650D01*
X15675550Y-11462650D02*
X15675550Y-12225150D01*
X14053550Y-11462650D02*
X14053550Y-12225150D01*
X16914550Y-8287650D02*
X16911140Y-8261770D01*
X15909310Y-11799070D02*
X15922860Y-11819340D01*
X16914550Y-8287650D02*
X16914550Y-11447650D01*
X16914550Y-11647650D02*
X16914550Y-11787650D01*
X16901150Y-8237650D02*
X16885260Y-8216940D01*
X15904550Y-11775150D02*
X15909310Y-11799070D01*
D12*
D13*
X14794480Y-9228840D02*
X14934180Y-9368540D01*
X14934180Y-9228840D02*
X14794480Y-9368540D01*
D12*
X13062627Y-12611834D02*
X13062627Y-12411834D01*
X13062627Y-12411834D02*
X13110246Y-12411834D01*
X13110246Y-12411834D02*
X13138817Y-12421358D01*
X13138817Y-12421358D02*
X13157865Y-12440405D01*
X13157865Y-12440405D02*
X13167389Y-12459453D01*
X13167389Y-12459453D02*
X13176912Y-12497548D01*
X13176912Y-12497548D02*
X13176912Y-12526119D01*
X13176912Y-12526119D02*
X13167389Y-12564215D01*
X13167389Y-12564215D02*
X13157865Y-12583262D01*
X13157865Y-12583262D02*
X13138817Y-12602310D01*
X13138817Y-12602310D02*
X13110246Y-12611834D01*
X13110246Y-12611834D02*
X13062627Y-12611834D01*
X13262627Y-12611834D02*
X13262627Y-12478500D01*
X13262627Y-12516596D02*
X13272151Y-12497548D01*
X13272151Y-12497548D02*
X13281674Y-12488024D01*
X13281674Y-12488024D02*
X13300722Y-12478500D01*
X13300722Y-12478500D02*
X13319770Y-12478500D01*
X13386436Y-12611834D02*
X13386436Y-12478500D01*
X13386436Y-12411834D02*
X13376912Y-12421358D01*
X13376912Y-12421358D02*
X13386436Y-12430881D01*
X13386436Y-12430881D02*
X13395960Y-12421358D01*
X13395960Y-12421358D02*
X13386436Y-12411834D01*
X13386436Y-12411834D02*
X13386436Y-12430881D01*
X13510246Y-12611834D02*
X13491198Y-12602310D01*
X13491198Y-12602310D02*
X13481674Y-12583262D01*
X13481674Y-12583262D02*
X13481674Y-12411834D01*
X13615008Y-12611834D02*
X13595960Y-12602310D01*
X13595960Y-12602310D02*
X13586436Y-12583262D01*
X13586436Y-12583262D02*
X13586436Y-12411834D01*
X13843579Y-12611834D02*
X13843579Y-12411834D01*
X13843579Y-12411834D02*
X13910246Y-12554691D01*
X13910246Y-12554691D02*
X13976912Y-12411834D01*
X13976912Y-12411834D02*
X13976912Y-12611834D01*
X14157865Y-12611834D02*
X14157865Y-12507072D01*
X14157865Y-12507072D02*
X14148341Y-12488024D01*
X14148341Y-12488024D02*
X14129293Y-12478500D01*
X14129293Y-12478500D02*
X14091198Y-12478500D01*
X14091198Y-12478500D02*
X14072151Y-12488024D01*
X14157865Y-12602310D02*
X14138817Y-12611834D01*
X14138817Y-12611834D02*
X14091198Y-12611834D01*
X14091198Y-12611834D02*
X14072151Y-12602310D01*
X14072151Y-12602310D02*
X14062627Y-12583262D01*
X14062627Y-12583262D02*
X14062627Y-12564215D01*
X14062627Y-12564215D02*
X14072151Y-12545167D01*
X14072151Y-12545167D02*
X14091198Y-12535643D01*
X14091198Y-12535643D02*
X14138817Y-12535643D01*
X14138817Y-12535643D02*
X14157865Y-12526119D01*
X14253103Y-12478500D02*
X14253103Y-12678500D01*
X14253103Y-12488024D02*
X14272151Y-12478500D01*
X14272151Y-12478500D02*
X14310246Y-12478500D01*
X14310246Y-12478500D02*
X14329293Y-12488024D01*
X14329293Y-12488024D02*
X14338817Y-12497548D01*
X14338817Y-12497548D02*
X14348341Y-12516596D01*
X14348341Y-12516596D02*
X14348341Y-12573738D01*
X14348341Y-12573738D02*
X14338817Y-12592786D01*
X14338817Y-12592786D02*
X14329293Y-12602310D01*
X14329293Y-12602310D02*
X14310246Y-12611834D01*
X14310246Y-12611834D02*
X14272151Y-12611834D01*
X14272151Y-12611834D02*
X14253103Y-12602310D01*
X14434055Y-12592786D02*
X14443579Y-12602310D01*
X14443579Y-12602310D02*
X14434055Y-12611834D01*
X14434055Y-12611834D02*
X14424532Y-12602310D01*
X14424532Y-12602310D02*
X14434055Y-12592786D01*
X14434055Y-12592786D02*
X14434055Y-12611834D01*
X14434055Y-12488024D02*
X14443579Y-12497548D01*
X14443579Y-12497548D02*
X14434055Y-12507072D01*
X14434055Y-12507072D02*
X14424532Y-12497548D01*
X14424532Y-12497548D02*
X14434055Y-12488024D01*
X14434055Y-12488024D02*
X14434055Y-12507072D01*
D13*
X12662150Y-12870500D02*
X12801850Y-13010200D01*
X12801850Y-12870500D02*
X12662150Y-13010200D01*
D12*
X13167389Y-13031834D02*
X13053103Y-13031834D01*
X13110246Y-13031834D02*
X13110246Y-12831834D01*
X13110246Y-12831834D02*
X13091198Y-12860405D01*
X13091198Y-12860405D02*
X13072151Y-12879453D01*
X13072151Y-12879453D02*
X13053103Y-12888977D01*
X13253103Y-13012786D02*
X13262627Y-13022310D01*
X13262627Y-13022310D02*
X13253103Y-13031834D01*
X13253103Y-13031834D02*
X13243579Y-13022310D01*
X13243579Y-13022310D02*
X13253103Y-13012786D01*
X13253103Y-13012786D02*
X13253103Y-13031834D01*
X13329293Y-12831834D02*
X13453103Y-12831834D01*
X13453103Y-12831834D02*
X13386436Y-12908024D01*
X13386436Y-12908024D02*
X13415008Y-12908024D01*
X13415008Y-12908024D02*
X13434055Y-12917548D01*
X13434055Y-12917548D02*
X13443579Y-12927072D01*
X13443579Y-12927072D02*
X13453103Y-12946119D01*
X13453103Y-12946119D02*
X13453103Y-12993738D01*
X13453103Y-12993738D02*
X13443579Y-13012786D01*
X13443579Y-13012786D02*
X13434055Y-13022310D01*
X13434055Y-13022310D02*
X13415008Y-13031834D01*
X13415008Y-13031834D02*
X13357865Y-13031834D01*
X13357865Y-13031834D02*
X13338817Y-13022310D01*
X13338817Y-13022310D02*
X13329293Y-13012786D01*
X13548341Y-13031834D02*
X13586436Y-13031834D01*
X13586436Y-13031834D02*
X13605484Y-13022310D01*
X13605484Y-13022310D02*
X13615008Y-13012786D01*
X13615008Y-13012786D02*
X13634055Y-12984215D01*
X13634055Y-12984215D02*
X13643579Y-12946119D01*
X13643579Y-12946119D02*
X13643579Y-12869929D01*
X13643579Y-12869929D02*
X13634055Y-12850881D01*
X13634055Y-12850881D02*
X13624532Y-12841358D01*
X13624532Y-12841358D02*
X13605484Y-12831834D01*
X13605484Y-12831834D02*
X13567389Y-12831834D01*
X13567389Y-12831834D02*
X13548341Y-12841358D01*
X13548341Y-12841358D02*
X13538817Y-12850881D01*
X13538817Y-12850881D02*
X13529293Y-12869929D01*
X13529293Y-12869929D02*
X13529293Y-12917548D01*
X13529293Y-12917548D02*
X13538817Y-12936596D01*
X13538817Y-12936596D02*
X13548341Y-12946119D01*
X13548341Y-12946119D02*
X13567389Y-12955643D01*
X13567389Y-12955643D02*
X13605484Y-12955643D01*
X13605484Y-12955643D02*
X13624532Y-12946119D01*
X13624532Y-12946119D02*
X13634055Y-12936596D01*
X13634055Y-12936596D02*
X13643579Y-12917548D01*
X13710246Y-12831834D02*
X13843579Y-12831834D01*
X13843579Y-12831834D02*
X13757865Y-13031834D01*
X13919770Y-13031834D02*
X13919770Y-12898500D01*
X13919770Y-12917548D02*
X13929293Y-12908024D01*
X13929293Y-12908024D02*
X13948341Y-12898500D01*
X13948341Y-12898500D02*
X13976913Y-12898500D01*
X13976913Y-12898500D02*
X13995960Y-12908024D01*
X13995960Y-12908024D02*
X14005484Y-12927072D01*
X14005484Y-12927072D02*
X14005484Y-13031834D01*
X14005484Y-12927072D02*
X14015008Y-12908024D01*
X14015008Y-12908024D02*
X14034055Y-12898500D01*
X14034055Y-12898500D02*
X14062627Y-12898500D01*
X14062627Y-12898500D02*
X14081674Y-12908024D01*
X14081674Y-12908024D02*
X14091198Y-12927072D01*
X14091198Y-12927072D02*
X14091198Y-13031834D01*
X14186436Y-13031834D02*
X14186436Y-12898500D01*
X14186436Y-12917548D02*
X14195960Y-12908024D01*
X14195960Y-12908024D02*
X14215008Y-12898500D01*
X14215008Y-12898500D02*
X14243579Y-12898500D01*
X14243579Y-12898500D02*
X14262627Y-12908024D01*
X14262627Y-12908024D02*
X14272151Y-12927072D01*
X14272151Y-12927072D02*
X14272151Y-13031834D01*
X14272151Y-12927072D02*
X14281674Y-12908024D01*
X14281674Y-12908024D02*
X14300722Y-12898500D01*
X14300722Y-12898500D02*
X14329293Y-12898500D01*
X14329293Y-12898500D02*
X14348341Y-12908024D01*
X14348341Y-12908024D02*
X14357865Y-12927072D01*
X14357865Y-12927072D02*
X14357865Y-13031834D01*
X14748341Y-12822310D02*
X14576913Y-13079453D01*
X15005484Y-12831834D02*
X15024532Y-12831834D01*
X15024532Y-12831834D02*
X15043579Y-12841358D01*
X15043579Y-12841358D02*
X15053103Y-12850881D01*
X15053103Y-12850881D02*
X15062627Y-12869929D01*
X15062627Y-12869929D02*
X15072151Y-12908024D01*
X15072151Y-12908024D02*
X15072151Y-12955643D01*
X15072151Y-12955643D02*
X15062627Y-12993738D01*
X15062627Y-12993738D02*
X15053103Y-13012786D01*
X15053103Y-13012786D02*
X15043579Y-13022310D01*
X15043579Y-13022310D02*
X15024532Y-13031834D01*
X15024532Y-13031834D02*
X15005484Y-13031834D01*
X15005484Y-13031834D02*
X14986436Y-13022310D01*
X14986436Y-13022310D02*
X14976913Y-13012786D01*
X14976913Y-13012786D02*
X14967389Y-12993738D01*
X14967389Y-12993738D02*
X14957865Y-12955643D01*
X14957865Y-12955643D02*
X14957865Y-12908024D01*
X14957865Y-12908024D02*
X14967389Y-12869929D01*
X14967389Y-12869929D02*
X14976913Y-12850881D01*
X14976913Y-12850881D02*
X14986436Y-12841358D01*
X14986436Y-12841358D02*
X15005484Y-12831834D01*
X15157865Y-13012786D02*
X15167389Y-13022310D01*
X15167389Y-13022310D02*
X15157865Y-13031834D01*
X15157865Y-13031834D02*
X15148341Y-13022310D01*
X15148341Y-13022310D02*
X15157865Y-13012786D01*
X15157865Y-13012786D02*
X15157865Y-13031834D01*
X15291198Y-12831834D02*
X15310246Y-12831834D01*
X15310246Y-12831834D02*
X15329294Y-12841358D01*
X15329294Y-12841358D02*
X15338817Y-12850881D01*
X15338817Y-12850881D02*
X15348341Y-12869929D01*
X15348341Y-12869929D02*
X15357865Y-12908024D01*
X15357865Y-12908024D02*
X15357865Y-12955643D01*
X15357865Y-12955643D02*
X15348341Y-12993738D01*
X15348341Y-12993738D02*
X15338817Y-13012786D01*
X15338817Y-13012786D02*
X15329294Y-13022310D01*
X15329294Y-13022310D02*
X15310246Y-13031834D01*
X15310246Y-13031834D02*
X15291198Y-13031834D01*
X15291198Y-13031834D02*
X15272151Y-13022310D01*
X15272151Y-13022310D02*
X15262627Y-13012786D01*
X15262627Y-13012786D02*
X15253103Y-12993738D01*
X15253103Y-12993738D02*
X15243579Y-12955643D01*
X15243579Y-12955643D02*
X15243579Y-12908024D01*
X15243579Y-12908024D02*
X15253103Y-12869929D01*
X15253103Y-12869929D02*
X15262627Y-12850881D01*
X15262627Y-12850881D02*
X15272151Y-12841358D01*
X15272151Y-12841358D02*
X15291198Y-12831834D01*
X15538817Y-12831834D02*
X15443579Y-12831834D01*
X15443579Y-12831834D02*
X15434056Y-12927072D01*
X15434056Y-12927072D02*
X15443579Y-12917548D01*
X15443579Y-12917548D02*
X15462627Y-12908024D01*
X15462627Y-12908024D02*
X15510246Y-12908024D01*
X15510246Y-12908024D02*
X15529294Y-12917548D01*
X15529294Y-12917548D02*
X15538817Y-12927072D01*
X15538817Y-12927072D02*
X15548341Y-12946119D01*
X15548341Y-12946119D02*
X15548341Y-12993738D01*
X15548341Y-12993738D02*
X15538817Y-13012786D01*
X15538817Y-13012786D02*
X15529294Y-13022310D01*
X15529294Y-13022310D02*
X15510246Y-13031834D01*
X15510246Y-13031834D02*
X15462627Y-13031834D01*
X15462627Y-13031834D02*
X15443579Y-13022310D01*
X15443579Y-13022310D02*
X15434056Y-13012786D01*
X15729294Y-12831834D02*
X15634056Y-12831834D01*
X15634056Y-12831834D02*
X15624532Y-12927072D01*
X15624532Y-12927072D02*
X15634056Y-12917548D01*
X15634056Y-12917548D02*
X15653103Y-12908024D01*
X15653103Y-12908024D02*
X15700722Y-12908024D01*
X15700722Y-12908024D02*
X15719770Y-12917548D01*
X15719770Y-12917548D02*
X15729294Y-12927072D01*
X15729294Y-12927072D02*
X15738817Y-12946119D01*
X15738817Y-12946119D02*
X15738817Y-12993738D01*
X15738817Y-12993738D02*
X15729294Y-13012786D01*
X15729294Y-13012786D02*
X15719770Y-13022310D01*
X15719770Y-13022310D02*
X15700722Y-13031834D01*
X15700722Y-13031834D02*
X15653103Y-13031834D01*
X15653103Y-13031834D02*
X15634056Y-13022310D01*
X15634056Y-13022310D02*
X15624532Y-13012786D01*
X15862627Y-12831834D02*
X15881675Y-12831834D01*
X15881675Y-12831834D02*
X15900722Y-12841358D01*
X15900722Y-12841358D02*
X15910246Y-12850881D01*
X15910246Y-12850881D02*
X15919770Y-12869929D01*
X15919770Y-12869929D02*
X15929294Y-12908024D01*
X15929294Y-12908024D02*
X15929294Y-12955643D01*
X15929294Y-12955643D02*
X15919770Y-12993738D01*
X15919770Y-12993738D02*
X15910246Y-13012786D01*
X15910246Y-13012786D02*
X15900722Y-13022310D01*
X15900722Y-13022310D02*
X15881675Y-13031834D01*
X15881675Y-13031834D02*
X15862627Y-13031834D01*
X15862627Y-13031834D02*
X15843579Y-13022310D01*
X15843579Y-13022310D02*
X15834056Y-13012786D01*
X15834056Y-13012786D02*
X15824532Y-12993738D01*
X15824532Y-12993738D02*
X15815008Y-12955643D01*
X15815008Y-12955643D02*
X15815008Y-12908024D01*
X15815008Y-12908024D02*
X15824532Y-12869929D01*
X15824532Y-12869929D02*
X15834056Y-12850881D01*
X15834056Y-12850881D02*
X15843579Y-12841358D01*
X15843579Y-12841358D02*
X15862627Y-12831834D01*
X16005484Y-12831834D02*
X16005484Y-12869929D01*
X16081675Y-12831834D02*
X16081675Y-12869929D01*
X16376913Y-13108024D02*
X16367389Y-13098500D01*
X16367389Y-13098500D02*
X16348341Y-13069929D01*
X16348341Y-13069929D02*
X16338818Y-13050881D01*
X16338818Y-13050881D02*
X16329294Y-13022310D01*
X16329294Y-13022310D02*
X16319770Y-12974691D01*
X16319770Y-12974691D02*
X16319770Y-12936596D01*
X16319770Y-12936596D02*
X16329294Y-12888977D01*
X16329294Y-12888977D02*
X16338818Y-12860405D01*
X16338818Y-12860405D02*
X16348341Y-12841358D01*
X16348341Y-12841358D02*
X16367389Y-12812786D01*
X16367389Y-12812786D02*
X16376913Y-12803262D01*
X16557865Y-13031834D02*
X16443579Y-13031834D01*
X16500722Y-13031834D02*
X16500722Y-12831834D01*
X16500722Y-12831834D02*
X16481675Y-12860405D01*
X16481675Y-12860405D02*
X16462627Y-12879453D01*
X16462627Y-12879453D02*
X16443579Y-12888977D01*
X16795961Y-13031834D02*
X16795961Y-12831834D01*
X16881675Y-13031834D02*
X16881675Y-12927072D01*
X16881675Y-12927072D02*
X16872151Y-12908024D01*
X16872151Y-12908024D02*
X16853103Y-12898500D01*
X16853103Y-12898500D02*
X16824532Y-12898500D01*
X16824532Y-12898500D02*
X16805484Y-12908024D01*
X16805484Y-12908024D02*
X16795961Y-12917548D01*
X17005484Y-13031834D02*
X16986437Y-13022310D01*
X16986437Y-13022310D02*
X16976913Y-13012786D01*
X16976913Y-13012786D02*
X16967389Y-12993738D01*
X16967389Y-12993738D02*
X16967389Y-12936596D01*
X16967389Y-12936596D02*
X16976913Y-12917548D01*
X16976913Y-12917548D02*
X16986437Y-12908024D01*
X16986437Y-12908024D02*
X17005484Y-12898500D01*
X17005484Y-12898500D02*
X17034056Y-12898500D01*
X17034056Y-12898500D02*
X17053103Y-12908024D01*
X17053103Y-12908024D02*
X17062627Y-12917548D01*
X17062627Y-12917548D02*
X17072151Y-12936596D01*
X17072151Y-12936596D02*
X17072151Y-12993738D01*
X17072151Y-12993738D02*
X17062627Y-13012786D01*
X17062627Y-13012786D02*
X17053103Y-13022310D01*
X17053103Y-13022310D02*
X17034056Y-13031834D01*
X17034056Y-13031834D02*
X17005484Y-13031834D01*
X17186437Y-13031834D02*
X17167389Y-13022310D01*
X17167389Y-13022310D02*
X17157865Y-13003262D01*
X17157865Y-13003262D02*
X17157865Y-12831834D01*
X17338818Y-13022310D02*
X17319770Y-13031834D01*
X17319770Y-13031834D02*
X17281675Y-13031834D01*
X17281675Y-13031834D02*
X17262627Y-13022310D01*
X17262627Y-13022310D02*
X17253103Y-13003262D01*
X17253103Y-13003262D02*
X17253103Y-12927072D01*
X17253103Y-12927072D02*
X17262627Y-12908024D01*
X17262627Y-12908024D02*
X17281675Y-12898500D01*
X17281675Y-12898500D02*
X17319770Y-12898500D01*
X17319770Y-12898500D02*
X17338818Y-12908024D01*
X17338818Y-12908024D02*
X17348342Y-12927072D01*
X17348342Y-12927072D02*
X17348342Y-12946119D01*
X17348342Y-12946119D02*
X17253103Y-12965167D01*
X17415008Y-13108024D02*
X17424532Y-13098500D01*
X17424532Y-13098500D02*
X17443580Y-13069929D01*
X17443580Y-13069929D02*
X17453103Y-13050881D01*
X17453103Y-13050881D02*
X17462627Y-13022310D01*
X17462627Y-13022310D02*
X17472151Y-12974691D01*
X17472151Y-12974691D02*
X17472151Y-12936596D01*
X17472151Y-12936596D02*
X17462627Y-12888977D01*
X17462627Y-12888977D02*
X17453103Y-12860405D01*
X17453103Y-12860405D02*
X17443580Y-12841358D01*
X17443580Y-12841358D02*
X17424532Y-12812786D01*
X17424532Y-12812786D02*
X17415008Y-12803262D01*
X17776913Y-13108024D02*
X17767389Y-13098500D01*
X17767389Y-13098500D02*
X17748342Y-13069929D01*
X17748342Y-13069929D02*
X17738818Y-13050881D01*
X17738818Y-13050881D02*
X17729294Y-13022310D01*
X17729294Y-13022310D02*
X17719770Y-12974691D01*
X17719770Y-12974691D02*
X17719770Y-12936596D01*
X17719770Y-12936596D02*
X17729294Y-12888977D01*
X17729294Y-12888977D02*
X17738818Y-12860405D01*
X17738818Y-12860405D02*
X17748342Y-12841358D01*
X17748342Y-12841358D02*
X17767389Y-12812786D01*
X17767389Y-12812786D02*
X17776913Y-12803262D01*
X17853103Y-12898500D02*
X17853103Y-13031834D01*
X17853103Y-12917548D02*
X17862627Y-12908024D01*
X17862627Y-12908024D02*
X17881675Y-12898500D01*
X17881675Y-12898500D02*
X17910246Y-12898500D01*
X17910246Y-12898500D02*
X17929294Y-12908024D01*
X17929294Y-12908024D02*
X17938818Y-12927072D01*
X17938818Y-12927072D02*
X17938818Y-13031834D01*
X18062627Y-13031834D02*
X18043580Y-13022310D01*
X18043580Y-13022310D02*
X18034056Y-13012786D01*
X18034056Y-13012786D02*
X18024532Y-12993738D01*
X18024532Y-12993738D02*
X18024532Y-12936596D01*
X18024532Y-12936596D02*
X18034056Y-12917548D01*
X18034056Y-12917548D02*
X18043580Y-12908024D01*
X18043580Y-12908024D02*
X18062627Y-12898500D01*
X18062627Y-12898500D02*
X18091199Y-12898500D01*
X18091199Y-12898500D02*
X18110246Y-12908024D01*
X18110246Y-12908024D02*
X18119770Y-12917548D01*
X18119770Y-12917548D02*
X18129294Y-12936596D01*
X18129294Y-12936596D02*
X18129294Y-12993738D01*
X18129294Y-12993738D02*
X18119770Y-13012786D01*
X18119770Y-13012786D02*
X18110246Y-13022310D01*
X18110246Y-13022310D02*
X18091199Y-13031834D01*
X18091199Y-13031834D02*
X18062627Y-13031834D01*
X18186437Y-12898500D02*
X18262627Y-12898500D01*
X18215008Y-12831834D02*
X18215008Y-13003262D01*
X18215008Y-13003262D02*
X18224532Y-13022310D01*
X18224532Y-13022310D02*
X18243580Y-13031834D01*
X18243580Y-13031834D02*
X18262627Y-13031834D01*
X18481675Y-12898500D02*
X18481675Y-13098500D01*
X18481675Y-12908024D02*
X18500723Y-12898500D01*
X18500723Y-12898500D02*
X18538818Y-12898500D01*
X18538818Y-12898500D02*
X18557865Y-12908024D01*
X18557865Y-12908024D02*
X18567389Y-12917548D01*
X18567389Y-12917548D02*
X18576913Y-12936596D01*
X18576913Y-12936596D02*
X18576913Y-12993738D01*
X18576913Y-12993738D02*
X18567389Y-13012786D01*
X18567389Y-13012786D02*
X18557865Y-13022310D01*
X18557865Y-13022310D02*
X18538818Y-13031834D01*
X18538818Y-13031834D02*
X18500723Y-13031834D01*
X18500723Y-13031834D02*
X18481675Y-13022310D01*
X18691199Y-13031834D02*
X18672151Y-13022310D01*
X18672151Y-13022310D02*
X18662627Y-13003262D01*
X18662627Y-13003262D02*
X18662627Y-12831834D01*
X18853104Y-13031834D02*
X18853104Y-12927072D01*
X18853104Y-12927072D02*
X18843580Y-12908024D01*
X18843580Y-12908024D02*
X18824532Y-12898500D01*
X18824532Y-12898500D02*
X18786437Y-12898500D01*
X18786437Y-12898500D02*
X18767389Y-12908024D01*
X18853104Y-13022310D02*
X18834056Y-13031834D01*
X18834056Y-13031834D02*
X18786437Y-13031834D01*
X18786437Y-13031834D02*
X18767389Y-13022310D01*
X18767389Y-13022310D02*
X18757865Y-13003262D01*
X18757865Y-13003262D02*
X18757865Y-12984215D01*
X18757865Y-12984215D02*
X18767389Y-12965167D01*
X18767389Y-12965167D02*
X18786437Y-12955643D01*
X18786437Y-12955643D02*
X18834056Y-12955643D01*
X18834056Y-12955643D02*
X18853104Y-12946119D01*
X18919770Y-12898500D02*
X18995961Y-12898500D01*
X18948342Y-12831834D02*
X18948342Y-13003262D01*
X18948342Y-13003262D02*
X18957865Y-13022310D01*
X18957865Y-13022310D02*
X18976913Y-13031834D01*
X18976913Y-13031834D02*
X18995961Y-13031834D01*
X19138818Y-13022310D02*
X19119770Y-13031834D01*
X19119770Y-13031834D02*
X19081675Y-13031834D01*
X19081675Y-13031834D02*
X19062627Y-13022310D01*
X19062627Y-13022310D02*
X19053104Y-13003262D01*
X19053104Y-13003262D02*
X19053104Y-12927072D01*
X19053104Y-12927072D02*
X19062627Y-12908024D01*
X19062627Y-12908024D02*
X19081675Y-12898500D01*
X19081675Y-12898500D02*
X19119770Y-12898500D01*
X19119770Y-12898500D02*
X19138818Y-12908024D01*
X19138818Y-12908024D02*
X19148342Y-12927072D01*
X19148342Y-12927072D02*
X19148342Y-12946119D01*
X19148342Y-12946119D02*
X19053104Y-12965167D01*
X19319770Y-13031834D02*
X19319770Y-12831834D01*
X19319770Y-13022310D02*
X19300723Y-13031834D01*
X19300723Y-13031834D02*
X19262627Y-13031834D01*
X19262627Y-13031834D02*
X19243580Y-13022310D01*
X19243580Y-13022310D02*
X19234056Y-13012786D01*
X19234056Y-13012786D02*
X19224532Y-12993738D01*
X19224532Y-12993738D02*
X19224532Y-12936596D01*
X19224532Y-12936596D02*
X19234056Y-12917548D01*
X19234056Y-12917548D02*
X19243580Y-12908024D01*
X19243580Y-12908024D02*
X19262627Y-12898500D01*
X19262627Y-12898500D02*
X19300723Y-12898500D01*
X19300723Y-12898500D02*
X19319770Y-12908024D01*
X19395961Y-13108024D02*
X19405485Y-13098500D01*
X19405485Y-13098500D02*
X19424532Y-13069929D01*
X19424532Y-13069929D02*
X19434056Y-13050881D01*
X19434056Y-13050881D02*
X19443580Y-13022310D01*
X19443580Y-13022310D02*
X19453104Y-12974691D01*
X19453104Y-12974691D02*
X19453104Y-12936596D01*
X19453104Y-12936596D02*
X19443580Y-12888977D01*
X19443580Y-12888977D02*
X19434056Y-12860405D01*
X19434056Y-12860405D02*
X19424532Y-12841358D01*
X19424532Y-12841358D02*
X19405485Y-12812786D01*
X19405485Y-12812786D02*
X19395961Y-12803262D01*
M02*
