%TF.GenerationSoftware,KiCad,Pcbnew,7.0.7*%
%TF.CreationDate,2024-03-29T16:46:14+10:30*%
%TF.ProjectId,hawk,6861776b-2e6b-4696-9361-645f70636258,1*%
%TF.SameCoordinates,Original*%
%TF.FileFunction,Drillmap*%
%TF.FilePolarity,Positive*%
%FSLAX45Y45*%
G04 Gerber Fmt 4.5, Leading zero omitted, Abs format (unit mm)*
G04 Created by KiCad (PCBNEW 7.0.7) date 2024-03-29 16:46:14*
%MOMM*%
%LPD*%
G01*
G04 APERTURE LIST*
%ADD10C,0.254000*%
%ADD11C,0.100000*%
%ADD12C,0.200000*%
%ADD13C,0.030000*%
%ADD14C,0.040000*%
%ADD15C,0.060960*%
%ADD16C,0.080000*%
G04 APERTURE END LIST*
D10*
X14697630Y-8187650D02*
X12914550Y-8187650D01*
X15943130Y-11832890D02*
X15967050Y-11837650D01*
X12821250Y-11812650D02*
X12839550Y-11830950D01*
X13819790Y-11799070D02*
X13824550Y-11775150D01*
D11*
X15027630Y-8187650D02*
X15027630Y-8324900D01*
D10*
X16914550Y-11447650D02*
X16824550Y-11447650D01*
X16864550Y-11837650D02*
X16889550Y-11830950D01*
X12843840Y-8216940D02*
X12827950Y-8237650D01*
X16907850Y-11812650D02*
X16914550Y-11787650D01*
X16911140Y-8261770D02*
X16901150Y-8237650D01*
X16864550Y-11837650D02*
X15967050Y-11837650D01*
X12827950Y-8237650D02*
X12817960Y-8261770D01*
X13785970Y-11832890D02*
X13806240Y-11819340D01*
X12817960Y-8261770D02*
X12814550Y-8287650D01*
X15922860Y-11819340D02*
X15943130Y-11832890D01*
X12839550Y-11830950D02*
X12864550Y-11837650D01*
X13806240Y-11819340D02*
X13819790Y-11799070D01*
X14053550Y-11462650D02*
X13825800Y-11462650D01*
X14071860Y-12269340D02*
X14092130Y-12282890D01*
X16864550Y-8201050D02*
X16840430Y-8191060D01*
X14092130Y-12282890D02*
X14116050Y-12287650D01*
X16824550Y-11447650D02*
X16824550Y-11647650D01*
X15657240Y-12269340D02*
X15670790Y-12249070D01*
X15613050Y-12287650D02*
X14116050Y-12287650D01*
X16889550Y-11830950D02*
X16907850Y-11812650D01*
X15670790Y-12249070D02*
X15675550Y-12225150D01*
X13762050Y-11837650D02*
X13785970Y-11832890D01*
X13762050Y-11837650D02*
X12864550Y-11837650D01*
X14058310Y-12249070D02*
X14071860Y-12269340D01*
X15904550Y-11462650D02*
X15904550Y-11775150D01*
X12864550Y-8201050D02*
X12843840Y-8216940D01*
X12914550Y-8187650D02*
X12888670Y-8191060D01*
X12904550Y-11647650D02*
X12814550Y-11647650D01*
X16914550Y-11647650D02*
X16824550Y-11647650D01*
X16814550Y-8187650D02*
X15027630Y-8187650D01*
X15613050Y-12287650D02*
X15636970Y-12282890D01*
X14053550Y-12225150D02*
X14058310Y-12249070D01*
X12904550Y-11447650D02*
X12904550Y-11647650D01*
X16840430Y-8191060D02*
X16814550Y-8187650D01*
X16885260Y-8216940D02*
X16864550Y-8201050D01*
X12888670Y-8191060D02*
X12864550Y-8201050D01*
X12814550Y-8287650D02*
X12814550Y-11447650D01*
D11*
X15027630Y-8324900D02*
X14697630Y-8324900D01*
D10*
X12814550Y-11787650D02*
X12821250Y-11812650D01*
D11*
X14697630Y-8324900D02*
X14697630Y-8187650D01*
D10*
X15636970Y-12282890D02*
X15657240Y-12269340D01*
X13825800Y-11462650D02*
X13824550Y-11775150D01*
X15904550Y-11462650D02*
X15675550Y-11462650D01*
X12904550Y-11447650D02*
X12814550Y-11447650D01*
X12814550Y-11647650D02*
X12814550Y-11787650D01*
X15675550Y-11462650D02*
X15675550Y-12225150D01*
X14053550Y-11462650D02*
X14053550Y-12225150D01*
X16914550Y-8287650D02*
X16911140Y-8261770D01*
X15909310Y-11799070D02*
X15922860Y-11819340D01*
X16914550Y-8287650D02*
X16914550Y-11447650D01*
X16914550Y-11647650D02*
X16914550Y-11787650D01*
X16901150Y-8237650D02*
X16885260Y-8216940D01*
X15904550Y-11775150D02*
X15909310Y-11799070D01*
D12*
D13*
X13586950Y-10703550D02*
X13616950Y-10733550D01*
X13616950Y-10703550D02*
X13586950Y-10733550D01*
X14183850Y-9458950D02*
X14213850Y-9488950D01*
X14213850Y-9458950D02*
X14183850Y-9488950D01*
X14425150Y-10563850D02*
X14455150Y-10593850D01*
X14455150Y-10563850D02*
X14425150Y-10593850D01*
X14488650Y-10728950D02*
X14518650Y-10758950D01*
X14518650Y-10728950D02*
X14488650Y-10758950D01*
X14550100Y-10655993D02*
X14580100Y-10685993D01*
X14580100Y-10655993D02*
X14550100Y-10685993D01*
X14552150Y-10563850D02*
X14582150Y-10593850D01*
X14582150Y-10563850D02*
X14552150Y-10593850D01*
X14717250Y-10195550D02*
X14747250Y-10225550D01*
X14747250Y-10195550D02*
X14717250Y-10225550D01*
X14745789Y-10668082D02*
X14775789Y-10698082D01*
X14775789Y-10668082D02*
X14745789Y-10698082D01*
X15161750Y-10747950D02*
X15191750Y-10777950D01*
X15191750Y-10747950D02*
X15161750Y-10777950D01*
X15210050Y-10667950D02*
X15240050Y-10697950D01*
X15240050Y-10667950D02*
X15210050Y-10697950D01*
X15340313Y-10177704D02*
X15370313Y-10207704D01*
X15370313Y-10177704D02*
X15340313Y-10207704D01*
X15368240Y-10686189D02*
X15398240Y-10716189D01*
X15398240Y-10686189D02*
X15368240Y-10716189D01*
X15453850Y-10703550D02*
X15483850Y-10733550D01*
X15483850Y-10703550D02*
X15453850Y-10733550D01*
X15568150Y-10187950D02*
X15598150Y-10217950D01*
X15598150Y-10187950D02*
X15568150Y-10217950D01*
X15874375Y-10336675D02*
X15904375Y-10366675D01*
X15904375Y-10336675D02*
X15874375Y-10366675D01*
X15885650Y-9611350D02*
X15915650Y-9641350D01*
X15915650Y-9611350D02*
X15885650Y-9641350D01*
X15943100Y-9865350D02*
X15973100Y-9895350D01*
X15973100Y-9865350D02*
X15943100Y-9895350D01*
X15946504Y-9786750D02*
X15976504Y-9816750D01*
X15976504Y-9786750D02*
X15946504Y-9816750D01*
X15958184Y-10344284D02*
X15988184Y-10374284D01*
X15988184Y-10344284D02*
X15958184Y-10374284D01*
X16046968Y-10325450D02*
X16076968Y-10355450D01*
X16076968Y-10325450D02*
X16046968Y-10355450D01*
D14*
X12974500Y-10870700D02*
G75*
G03*
X12974500Y-10870700I-20000J0D01*
G01*
X12974500Y-11073900D02*
G75*
G03*
X12974500Y-11073900I-20000J0D01*
G01*
X12975500Y-10972800D02*
G75*
G03*
X12975500Y-10972800I-20000J0D01*
G01*
X13063400Y-10870700D02*
G75*
G03*
X13063400Y-10870700I-20000J0D01*
G01*
X13063400Y-11073900D02*
G75*
G03*
X13063400Y-11073900I-20000J0D01*
G01*
X13064400Y-10972800D02*
G75*
G03*
X13064400Y-10972800I-20000J0D01*
G01*
X13152300Y-10870700D02*
G75*
G03*
X13152300Y-10870700I-20000J0D01*
G01*
X13152300Y-11073900D02*
G75*
G03*
X13152300Y-11073900I-20000J0D01*
G01*
X13153300Y-10972800D02*
G75*
G03*
X13153300Y-10972800I-20000J0D01*
G01*
X13228250Y-10155750D02*
G75*
G03*
X13228250Y-10155750I-20000J0D01*
G01*
X13228250Y-10687850D02*
G75*
G03*
X13228250Y-10687850I-20000J0D01*
G01*
X13241200Y-10870700D02*
G75*
G03*
X13241200Y-10870700I-20000J0D01*
G01*
X13241200Y-11073900D02*
G75*
G03*
X13241200Y-11073900I-20000J0D01*
G01*
X13242200Y-10972800D02*
G75*
G03*
X13242200Y-10972800I-20000J0D01*
G01*
X13367950Y-9812850D02*
G75*
G03*
X13367950Y-9812850I-20000J0D01*
G01*
X13389970Y-10155750D02*
G75*
G03*
X13389970Y-10155750I-20000J0D01*
G01*
X13389970Y-10687850D02*
G75*
G03*
X13389970Y-10687850I-20000J0D01*
G01*
X13516970Y-10854250D02*
G75*
G03*
X13516970Y-10854250I-20000J0D01*
G01*
X13516970Y-11026750D02*
G75*
G03*
X13516970Y-11026750I-20000J0D01*
G01*
X13533050Y-9812850D02*
G75*
G03*
X13533050Y-9812850I-20000J0D01*
G01*
X13682070Y-11026750D02*
G75*
G03*
X13682070Y-11026750I-20000J0D01*
G01*
X13736250Y-10375650D02*
G75*
G03*
X13736250Y-10375650I-20000J0D01*
G01*
X13736250Y-10477250D02*
G75*
G03*
X13736250Y-10477250I-20000J0D01*
G01*
X13837850Y-10375650D02*
G75*
G03*
X13837850Y-10375650I-20000J0D01*
G01*
X13837850Y-10477250D02*
G75*
G03*
X13837850Y-10477250I-20000J0D01*
G01*
X13990250Y-9651750D02*
G75*
G03*
X13990250Y-9651750I-20000J0D01*
G01*
X14078720Y-10655480D02*
G75*
G03*
X14078720Y-10655480I-20000J0D01*
G01*
X14085910Y-11027350D02*
G75*
G03*
X14085910Y-11027350I-20000J0D01*
G01*
X14256950Y-10680450D02*
G75*
G03*
X14256950Y-10680450I-20000J0D01*
G01*
X14422050Y-10849850D02*
G75*
G03*
X14422050Y-10849850I-20000J0D01*
G01*
X14432100Y-10680450D02*
G75*
G03*
X14432100Y-10680450I-20000J0D01*
G01*
X14549050Y-11137650D02*
G75*
G03*
X14549050Y-11137650I-20000J0D01*
G01*
X14549050Y-11226550D02*
G75*
G03*
X14549050Y-11226550I-20000J0D01*
G01*
X14549050Y-11315450D02*
G75*
G03*
X14549050Y-11315450I-20000J0D01*
G01*
X14549050Y-11404350D02*
G75*
G03*
X14549050Y-11404350I-20000J0D01*
G01*
X14549050Y-11493250D02*
G75*
G03*
X14549050Y-11493250I-20000J0D01*
G01*
X14637950Y-11226550D02*
G75*
G03*
X14637950Y-11226550I-20000J0D01*
G01*
X14637950Y-11315450D02*
G75*
G03*
X14637950Y-11315450I-20000J0D01*
G01*
X14637950Y-11404350D02*
G75*
G03*
X14637950Y-11404350I-20000J0D01*
G01*
X14637950Y-11493250D02*
G75*
G03*
X14637950Y-11493250I-20000J0D01*
G01*
X14726850Y-11315450D02*
G75*
G03*
X14726850Y-11315450I-20000J0D01*
G01*
X14726850Y-11404350D02*
G75*
G03*
X14726850Y-11404350I-20000J0D01*
G01*
X14726850Y-11493250D02*
G75*
G03*
X14726850Y-11493250I-20000J0D01*
G01*
X14845250Y-9877600D02*
G75*
G03*
X14845250Y-9877600I-20000J0D01*
G01*
X15270300Y-9862250D02*
G75*
G03*
X15270300Y-9862250I-20000J0D01*
G01*
X15385499Y-9118350D02*
G75*
G03*
X15385499Y-9118350I-20000J0D01*
G01*
X15488850Y-11074150D02*
G75*
G03*
X15488850Y-11074150I-20000J0D01*
G01*
X15500820Y-9861000D02*
G75*
G03*
X15500820Y-9861000I-20000J0D01*
G01*
X15539650Y-8356350D02*
G75*
G03*
X15539650Y-8356350I-20000J0D01*
G01*
X15793650Y-10007350D02*
G75*
G03*
X15793650Y-10007350I-20000J0D01*
G01*
X15816400Y-11201150D02*
G75*
G03*
X15816400Y-11201150I-20000J0D01*
G01*
X15920650Y-10642350D02*
G75*
G03*
X15920650Y-10642350I-20000J0D01*
G01*
X16101100Y-10566150D02*
G75*
G03*
X16101100Y-10566150I-20000J0D01*
G01*
X16101100Y-11175750D02*
G75*
G03*
X16101100Y-11175750I-20000J0D01*
G01*
X16428650Y-10134350D02*
G75*
G03*
X16428650Y-10134350I-20000J0D01*
G01*
X16428650Y-10451850D02*
G75*
G03*
X16428650Y-10451850I-20000J0D01*
G01*
D15*
X14604330Y-9148210D02*
X14604330Y-9209170D01*
X14573850Y-9178690D02*
X14634810Y-9178690D01*
D12*
X14634810Y-9224410D02*
X14634810Y-9132970D01*
X14634810Y-9132970D02*
G75*
G03*
X14573850Y-9132970I-30480J0D01*
G01*
X14573850Y-9132970D02*
X14573850Y-9224410D01*
X14573850Y-9224410D02*
G75*
G03*
X14634810Y-9224410I30480J0D01*
G01*
D15*
X14644330Y-8506045D02*
X14644330Y-8567005D01*
X14613850Y-8536525D02*
X14674810Y-8536525D01*
D12*
X14674810Y-8582245D02*
X14674810Y-8490805D01*
X14674810Y-8490805D02*
G75*
G03*
X14613850Y-8490805I-30480J0D01*
G01*
X14613850Y-8490805D02*
X14613850Y-8582245D01*
X14613850Y-8582245D02*
G75*
G03*
X14674810Y-8582245I30480J0D01*
G01*
D15*
X14684330Y-9368210D02*
X14684330Y-9429170D01*
X14653850Y-9398690D02*
X14714810Y-9398690D01*
D12*
X14714810Y-9444410D02*
X14714810Y-9352970D01*
X14714810Y-9352970D02*
G75*
G03*
X14653850Y-9352970I-30480J0D01*
G01*
X14653850Y-9352970D02*
X14653850Y-9444410D01*
X14653850Y-9444410D02*
G75*
G03*
X14714810Y-9444410I30480J0D01*
G01*
D15*
X15124330Y-8768210D02*
X15124330Y-8829170D01*
X15093850Y-8798690D02*
X15154810Y-8798690D01*
D12*
X15154810Y-8844410D02*
X15154810Y-8752970D01*
X15154810Y-8752970D02*
G75*
G03*
X15093850Y-8752970I-30480J0D01*
G01*
X15093850Y-8752970D02*
X15093850Y-8844410D01*
X15093850Y-8844410D02*
G75*
G03*
X15154810Y-8844410I30480J0D01*
G01*
D15*
X15124330Y-9268210D02*
X15124330Y-9329170D01*
X15093850Y-9298690D02*
X15154810Y-9298690D01*
D12*
X15154810Y-9344410D02*
X15154810Y-9252970D01*
X15154810Y-9252970D02*
G75*
G03*
X15093850Y-9252970I-30480J0D01*
G01*
X15093850Y-9252970D02*
X15093850Y-9344410D01*
X15093850Y-9344410D02*
G75*
G03*
X15154810Y-9344410I30480J0D01*
G01*
D15*
X15154330Y-8506045D02*
X15154330Y-8567005D01*
X15123850Y-8536525D02*
X15184810Y-8536525D01*
D12*
X15184810Y-8582245D02*
X15184810Y-8490805D01*
X15184810Y-8490805D02*
G75*
G03*
X15123850Y-8490805I-30480J0D01*
G01*
X15123850Y-8490805D02*
X15123850Y-8582245D01*
X15123850Y-8582245D02*
G75*
G03*
X15184810Y-8582245I30480J0D01*
G01*
D16*
X13690734Y-11356434D02*
X13690734Y-11299865D01*
X13634165Y-11299865D01*
X13634165Y-11356434D01*
X13690734Y-11356434D01*
X13950734Y-11356434D02*
X13950734Y-11299865D01*
X13894165Y-11299865D01*
X13894165Y-11356434D01*
X13950734Y-11356434D01*
D11*
X16202070Y-10051200D02*
X16252070Y-10001200D01*
X16202070Y-9951200D01*
X16152070Y-10001200D01*
X16202070Y-10051200D01*
X16202070Y-10305200D02*
X16252070Y-10255200D01*
X16202070Y-10205200D01*
X16152070Y-10255200D01*
X16202070Y-10305200D01*
X16599150Y-10056850D02*
X16649150Y-10006850D01*
X16599150Y-9956850D01*
X16549150Y-10006850D01*
X16599150Y-10056850D01*
X16599150Y-10310850D02*
X16649150Y-10260850D01*
X16599150Y-10210850D01*
X16549150Y-10260850D01*
X16599150Y-10310850D01*
X16599150Y-10564850D02*
X16649150Y-10514850D01*
X16599150Y-10464850D01*
X16549150Y-10514850D01*
X16599150Y-10564850D01*
X16599150Y-10818850D02*
X16649150Y-10768850D01*
X16599150Y-10718850D01*
X16549150Y-10768850D01*
X16599150Y-10818850D01*
X16599150Y-11072850D02*
X16649150Y-11022850D01*
X16599150Y-10972850D01*
X16549150Y-11022850D01*
X16599150Y-11072850D01*
D12*
X13062627Y-12611834D02*
X13062627Y-12411834D01*
X13062627Y-12411834D02*
X13110246Y-12411834D01*
X13110246Y-12411834D02*
X13138817Y-12421358D01*
X13138817Y-12421358D02*
X13157865Y-12440405D01*
X13157865Y-12440405D02*
X13167389Y-12459453D01*
X13167389Y-12459453D02*
X13176912Y-12497548D01*
X13176912Y-12497548D02*
X13176912Y-12526119D01*
X13176912Y-12526119D02*
X13167389Y-12564215D01*
X13167389Y-12564215D02*
X13157865Y-12583262D01*
X13157865Y-12583262D02*
X13138817Y-12602310D01*
X13138817Y-12602310D02*
X13110246Y-12611834D01*
X13110246Y-12611834D02*
X13062627Y-12611834D01*
X13262627Y-12611834D02*
X13262627Y-12478500D01*
X13262627Y-12516596D02*
X13272151Y-12497548D01*
X13272151Y-12497548D02*
X13281674Y-12488024D01*
X13281674Y-12488024D02*
X13300722Y-12478500D01*
X13300722Y-12478500D02*
X13319770Y-12478500D01*
X13386436Y-12611834D02*
X13386436Y-12478500D01*
X13386436Y-12411834D02*
X13376912Y-12421358D01*
X13376912Y-12421358D02*
X13386436Y-12430881D01*
X13386436Y-12430881D02*
X13395960Y-12421358D01*
X13395960Y-12421358D02*
X13386436Y-12411834D01*
X13386436Y-12411834D02*
X13386436Y-12430881D01*
X13510246Y-12611834D02*
X13491198Y-12602310D01*
X13491198Y-12602310D02*
X13481674Y-12583262D01*
X13481674Y-12583262D02*
X13481674Y-12411834D01*
X13615008Y-12611834D02*
X13595960Y-12602310D01*
X13595960Y-12602310D02*
X13586436Y-12583262D01*
X13586436Y-12583262D02*
X13586436Y-12411834D01*
X13843579Y-12611834D02*
X13843579Y-12411834D01*
X13843579Y-12411834D02*
X13910246Y-12554691D01*
X13910246Y-12554691D02*
X13976912Y-12411834D01*
X13976912Y-12411834D02*
X13976912Y-12611834D01*
X14157865Y-12611834D02*
X14157865Y-12507072D01*
X14157865Y-12507072D02*
X14148341Y-12488024D01*
X14148341Y-12488024D02*
X14129293Y-12478500D01*
X14129293Y-12478500D02*
X14091198Y-12478500D01*
X14091198Y-12478500D02*
X14072151Y-12488024D01*
X14157865Y-12602310D02*
X14138817Y-12611834D01*
X14138817Y-12611834D02*
X14091198Y-12611834D01*
X14091198Y-12611834D02*
X14072151Y-12602310D01*
X14072151Y-12602310D02*
X14062627Y-12583262D01*
X14062627Y-12583262D02*
X14062627Y-12564215D01*
X14062627Y-12564215D02*
X14072151Y-12545167D01*
X14072151Y-12545167D02*
X14091198Y-12535643D01*
X14091198Y-12535643D02*
X14138817Y-12535643D01*
X14138817Y-12535643D02*
X14157865Y-12526119D01*
X14253103Y-12478500D02*
X14253103Y-12678500D01*
X14253103Y-12488024D02*
X14272151Y-12478500D01*
X14272151Y-12478500D02*
X14310246Y-12478500D01*
X14310246Y-12478500D02*
X14329293Y-12488024D01*
X14329293Y-12488024D02*
X14338817Y-12497548D01*
X14338817Y-12497548D02*
X14348341Y-12516596D01*
X14348341Y-12516596D02*
X14348341Y-12573738D01*
X14348341Y-12573738D02*
X14338817Y-12592786D01*
X14338817Y-12592786D02*
X14329293Y-12602310D01*
X14329293Y-12602310D02*
X14310246Y-12611834D01*
X14310246Y-12611834D02*
X14272151Y-12611834D01*
X14272151Y-12611834D02*
X14253103Y-12602310D01*
X14434055Y-12592786D02*
X14443579Y-12602310D01*
X14443579Y-12602310D02*
X14434055Y-12611834D01*
X14434055Y-12611834D02*
X14424532Y-12602310D01*
X14424532Y-12602310D02*
X14434055Y-12592786D01*
X14434055Y-12592786D02*
X14434055Y-12611834D01*
X14434055Y-12488024D02*
X14443579Y-12497548D01*
X14443579Y-12497548D02*
X14434055Y-12507072D01*
X14434055Y-12507072D02*
X14424532Y-12497548D01*
X14424532Y-12497548D02*
X14434055Y-12488024D01*
X14434055Y-12488024D02*
X14434055Y-12507072D01*
D13*
X12771850Y-12925350D02*
X12801850Y-12955350D01*
X12801850Y-12925350D02*
X12771850Y-12955350D01*
D12*
X13100722Y-12831834D02*
X13119770Y-12831834D01*
X13119770Y-12831834D02*
X13138817Y-12841358D01*
X13138817Y-12841358D02*
X13148341Y-12850881D01*
X13148341Y-12850881D02*
X13157865Y-12869929D01*
X13157865Y-12869929D02*
X13167389Y-12908024D01*
X13167389Y-12908024D02*
X13167389Y-12955643D01*
X13167389Y-12955643D02*
X13157865Y-12993738D01*
X13157865Y-12993738D02*
X13148341Y-13012786D01*
X13148341Y-13012786D02*
X13138817Y-13022310D01*
X13138817Y-13022310D02*
X13119770Y-13031834D01*
X13119770Y-13031834D02*
X13100722Y-13031834D01*
X13100722Y-13031834D02*
X13081674Y-13022310D01*
X13081674Y-13022310D02*
X13072151Y-13012786D01*
X13072151Y-13012786D02*
X13062627Y-12993738D01*
X13062627Y-12993738D02*
X13053103Y-12955643D01*
X13053103Y-12955643D02*
X13053103Y-12908024D01*
X13053103Y-12908024D02*
X13062627Y-12869929D01*
X13062627Y-12869929D02*
X13072151Y-12850881D01*
X13072151Y-12850881D02*
X13081674Y-12841358D01*
X13081674Y-12841358D02*
X13100722Y-12831834D01*
X13253103Y-13012786D02*
X13262627Y-13022310D01*
X13262627Y-13022310D02*
X13253103Y-13031834D01*
X13253103Y-13031834D02*
X13243579Y-13022310D01*
X13243579Y-13022310D02*
X13253103Y-13012786D01*
X13253103Y-13012786D02*
X13253103Y-13031834D01*
X13329293Y-12831834D02*
X13453103Y-12831834D01*
X13453103Y-12831834D02*
X13386436Y-12908024D01*
X13386436Y-12908024D02*
X13415008Y-12908024D01*
X13415008Y-12908024D02*
X13434055Y-12917548D01*
X13434055Y-12917548D02*
X13443579Y-12927072D01*
X13443579Y-12927072D02*
X13453103Y-12946119D01*
X13453103Y-12946119D02*
X13453103Y-12993738D01*
X13453103Y-12993738D02*
X13443579Y-13012786D01*
X13443579Y-13012786D02*
X13434055Y-13022310D01*
X13434055Y-13022310D02*
X13415008Y-13031834D01*
X13415008Y-13031834D02*
X13357865Y-13031834D01*
X13357865Y-13031834D02*
X13338817Y-13022310D01*
X13338817Y-13022310D02*
X13329293Y-13012786D01*
X13576912Y-12831834D02*
X13595960Y-12831834D01*
X13595960Y-12831834D02*
X13615008Y-12841358D01*
X13615008Y-12841358D02*
X13624532Y-12850881D01*
X13624532Y-12850881D02*
X13634055Y-12869929D01*
X13634055Y-12869929D02*
X13643579Y-12908024D01*
X13643579Y-12908024D02*
X13643579Y-12955643D01*
X13643579Y-12955643D02*
X13634055Y-12993738D01*
X13634055Y-12993738D02*
X13624532Y-13012786D01*
X13624532Y-13012786D02*
X13615008Y-13022310D01*
X13615008Y-13022310D02*
X13595960Y-13031834D01*
X13595960Y-13031834D02*
X13576912Y-13031834D01*
X13576912Y-13031834D02*
X13557865Y-13022310D01*
X13557865Y-13022310D02*
X13548341Y-13012786D01*
X13548341Y-13012786D02*
X13538817Y-12993738D01*
X13538817Y-12993738D02*
X13529293Y-12955643D01*
X13529293Y-12955643D02*
X13529293Y-12908024D01*
X13529293Y-12908024D02*
X13538817Y-12869929D01*
X13538817Y-12869929D02*
X13548341Y-12850881D01*
X13548341Y-12850881D02*
X13557865Y-12841358D01*
X13557865Y-12841358D02*
X13576912Y-12831834D01*
X13767389Y-12831834D02*
X13786436Y-12831834D01*
X13786436Y-12831834D02*
X13805484Y-12841358D01*
X13805484Y-12841358D02*
X13815008Y-12850881D01*
X13815008Y-12850881D02*
X13824532Y-12869929D01*
X13824532Y-12869929D02*
X13834055Y-12908024D01*
X13834055Y-12908024D02*
X13834055Y-12955643D01*
X13834055Y-12955643D02*
X13824532Y-12993738D01*
X13824532Y-12993738D02*
X13815008Y-13012786D01*
X13815008Y-13012786D02*
X13805484Y-13022310D01*
X13805484Y-13022310D02*
X13786436Y-13031834D01*
X13786436Y-13031834D02*
X13767389Y-13031834D01*
X13767389Y-13031834D02*
X13748341Y-13022310D01*
X13748341Y-13022310D02*
X13738817Y-13012786D01*
X13738817Y-13012786D02*
X13729293Y-12993738D01*
X13729293Y-12993738D02*
X13719770Y-12955643D01*
X13719770Y-12955643D02*
X13719770Y-12908024D01*
X13719770Y-12908024D02*
X13729293Y-12869929D01*
X13729293Y-12869929D02*
X13738817Y-12850881D01*
X13738817Y-12850881D02*
X13748341Y-12841358D01*
X13748341Y-12841358D02*
X13767389Y-12831834D01*
X13919770Y-13031834D02*
X13919770Y-12898500D01*
X13919770Y-12917548D02*
X13929293Y-12908024D01*
X13929293Y-12908024D02*
X13948341Y-12898500D01*
X13948341Y-12898500D02*
X13976913Y-12898500D01*
X13976913Y-12898500D02*
X13995960Y-12908024D01*
X13995960Y-12908024D02*
X14005484Y-12927072D01*
X14005484Y-12927072D02*
X14005484Y-13031834D01*
X14005484Y-12927072D02*
X14015008Y-12908024D01*
X14015008Y-12908024D02*
X14034055Y-12898500D01*
X14034055Y-12898500D02*
X14062627Y-12898500D01*
X14062627Y-12898500D02*
X14081674Y-12908024D01*
X14081674Y-12908024D02*
X14091198Y-12927072D01*
X14091198Y-12927072D02*
X14091198Y-13031834D01*
X14186436Y-13031834D02*
X14186436Y-12898500D01*
X14186436Y-12917548D02*
X14195960Y-12908024D01*
X14195960Y-12908024D02*
X14215008Y-12898500D01*
X14215008Y-12898500D02*
X14243579Y-12898500D01*
X14243579Y-12898500D02*
X14262627Y-12908024D01*
X14262627Y-12908024D02*
X14272151Y-12927072D01*
X14272151Y-12927072D02*
X14272151Y-13031834D01*
X14272151Y-12927072D02*
X14281674Y-12908024D01*
X14281674Y-12908024D02*
X14300722Y-12898500D01*
X14300722Y-12898500D02*
X14329293Y-12898500D01*
X14329293Y-12898500D02*
X14348341Y-12908024D01*
X14348341Y-12908024D02*
X14357865Y-12927072D01*
X14357865Y-12927072D02*
X14357865Y-13031834D01*
X14748341Y-12822310D02*
X14576913Y-13079453D01*
X15005484Y-12831834D02*
X15024532Y-12831834D01*
X15024532Y-12831834D02*
X15043579Y-12841358D01*
X15043579Y-12841358D02*
X15053103Y-12850881D01*
X15053103Y-12850881D02*
X15062627Y-12869929D01*
X15062627Y-12869929D02*
X15072151Y-12908024D01*
X15072151Y-12908024D02*
X15072151Y-12955643D01*
X15072151Y-12955643D02*
X15062627Y-12993738D01*
X15062627Y-12993738D02*
X15053103Y-13012786D01*
X15053103Y-13012786D02*
X15043579Y-13022310D01*
X15043579Y-13022310D02*
X15024532Y-13031834D01*
X15024532Y-13031834D02*
X15005484Y-13031834D01*
X15005484Y-13031834D02*
X14986436Y-13022310D01*
X14986436Y-13022310D02*
X14976913Y-13012786D01*
X14976913Y-13012786D02*
X14967389Y-12993738D01*
X14967389Y-12993738D02*
X14957865Y-12955643D01*
X14957865Y-12955643D02*
X14957865Y-12908024D01*
X14957865Y-12908024D02*
X14967389Y-12869929D01*
X14967389Y-12869929D02*
X14976913Y-12850881D01*
X14976913Y-12850881D02*
X14986436Y-12841358D01*
X14986436Y-12841358D02*
X15005484Y-12831834D01*
X15157865Y-13012786D02*
X15167389Y-13022310D01*
X15167389Y-13022310D02*
X15157865Y-13031834D01*
X15157865Y-13031834D02*
X15148341Y-13022310D01*
X15148341Y-13022310D02*
X15157865Y-13012786D01*
X15157865Y-13012786D02*
X15157865Y-13031834D01*
X15291198Y-12831834D02*
X15310246Y-12831834D01*
X15310246Y-12831834D02*
X15329294Y-12841358D01*
X15329294Y-12841358D02*
X15338817Y-12850881D01*
X15338817Y-12850881D02*
X15348341Y-12869929D01*
X15348341Y-12869929D02*
X15357865Y-12908024D01*
X15357865Y-12908024D02*
X15357865Y-12955643D01*
X15357865Y-12955643D02*
X15348341Y-12993738D01*
X15348341Y-12993738D02*
X15338817Y-13012786D01*
X15338817Y-13012786D02*
X15329294Y-13022310D01*
X15329294Y-13022310D02*
X15310246Y-13031834D01*
X15310246Y-13031834D02*
X15291198Y-13031834D01*
X15291198Y-13031834D02*
X15272151Y-13022310D01*
X15272151Y-13022310D02*
X15262627Y-13012786D01*
X15262627Y-13012786D02*
X15253103Y-12993738D01*
X15253103Y-12993738D02*
X15243579Y-12955643D01*
X15243579Y-12955643D02*
X15243579Y-12908024D01*
X15243579Y-12908024D02*
X15253103Y-12869929D01*
X15253103Y-12869929D02*
X15262627Y-12850881D01*
X15262627Y-12850881D02*
X15272151Y-12841358D01*
X15272151Y-12841358D02*
X15291198Y-12831834D01*
X15548341Y-13031834D02*
X15434056Y-13031834D01*
X15491198Y-13031834D02*
X15491198Y-12831834D01*
X15491198Y-12831834D02*
X15472151Y-12860405D01*
X15472151Y-12860405D02*
X15453103Y-12879453D01*
X15453103Y-12879453D02*
X15434056Y-12888977D01*
X15738817Y-13031834D02*
X15624532Y-13031834D01*
X15681675Y-13031834D02*
X15681675Y-12831834D01*
X15681675Y-12831834D02*
X15662627Y-12860405D01*
X15662627Y-12860405D02*
X15643579Y-12879453D01*
X15643579Y-12879453D02*
X15624532Y-12888977D01*
X15853103Y-12917548D02*
X15834056Y-12908024D01*
X15834056Y-12908024D02*
X15824532Y-12898500D01*
X15824532Y-12898500D02*
X15815008Y-12879453D01*
X15815008Y-12879453D02*
X15815008Y-12869929D01*
X15815008Y-12869929D02*
X15824532Y-12850881D01*
X15824532Y-12850881D02*
X15834056Y-12841358D01*
X15834056Y-12841358D02*
X15853103Y-12831834D01*
X15853103Y-12831834D02*
X15891198Y-12831834D01*
X15891198Y-12831834D02*
X15910246Y-12841358D01*
X15910246Y-12841358D02*
X15919770Y-12850881D01*
X15919770Y-12850881D02*
X15929294Y-12869929D01*
X15929294Y-12869929D02*
X15929294Y-12879453D01*
X15929294Y-12879453D02*
X15919770Y-12898500D01*
X15919770Y-12898500D02*
X15910246Y-12908024D01*
X15910246Y-12908024D02*
X15891198Y-12917548D01*
X15891198Y-12917548D02*
X15853103Y-12917548D01*
X15853103Y-12917548D02*
X15834056Y-12927072D01*
X15834056Y-12927072D02*
X15824532Y-12936596D01*
X15824532Y-12936596D02*
X15815008Y-12955643D01*
X15815008Y-12955643D02*
X15815008Y-12993738D01*
X15815008Y-12993738D02*
X15824532Y-13012786D01*
X15824532Y-13012786D02*
X15834056Y-13022310D01*
X15834056Y-13022310D02*
X15853103Y-13031834D01*
X15853103Y-13031834D02*
X15891198Y-13031834D01*
X15891198Y-13031834D02*
X15910246Y-13022310D01*
X15910246Y-13022310D02*
X15919770Y-13012786D01*
X15919770Y-13012786D02*
X15929294Y-12993738D01*
X15929294Y-12993738D02*
X15929294Y-12955643D01*
X15929294Y-12955643D02*
X15919770Y-12936596D01*
X15919770Y-12936596D02*
X15910246Y-12927072D01*
X15910246Y-12927072D02*
X15891198Y-12917548D01*
X16005484Y-12831834D02*
X16005484Y-12869929D01*
X16081675Y-12831834D02*
X16081675Y-12869929D01*
X16376913Y-13108024D02*
X16367389Y-13098500D01*
X16367389Y-13098500D02*
X16348341Y-13069929D01*
X16348341Y-13069929D02*
X16338818Y-13050881D01*
X16338818Y-13050881D02*
X16329294Y-13022310D01*
X16329294Y-13022310D02*
X16319770Y-12974691D01*
X16319770Y-12974691D02*
X16319770Y-12936596D01*
X16319770Y-12936596D02*
X16329294Y-12888977D01*
X16329294Y-12888977D02*
X16338818Y-12860405D01*
X16338818Y-12860405D02*
X16348341Y-12841358D01*
X16348341Y-12841358D02*
X16367389Y-12812786D01*
X16367389Y-12812786D02*
X16376913Y-12803262D01*
X16443579Y-12850881D02*
X16453103Y-12841358D01*
X16453103Y-12841358D02*
X16472151Y-12831834D01*
X16472151Y-12831834D02*
X16519770Y-12831834D01*
X16519770Y-12831834D02*
X16538818Y-12841358D01*
X16538818Y-12841358D02*
X16548341Y-12850881D01*
X16548341Y-12850881D02*
X16557865Y-12869929D01*
X16557865Y-12869929D02*
X16557865Y-12888977D01*
X16557865Y-12888977D02*
X16548341Y-12917548D01*
X16548341Y-12917548D02*
X16434056Y-13031834D01*
X16434056Y-13031834D02*
X16557865Y-13031834D01*
X16681675Y-12831834D02*
X16700722Y-12831834D01*
X16700722Y-12831834D02*
X16719770Y-12841358D01*
X16719770Y-12841358D02*
X16729294Y-12850881D01*
X16729294Y-12850881D02*
X16738818Y-12869929D01*
X16738818Y-12869929D02*
X16748341Y-12908024D01*
X16748341Y-12908024D02*
X16748341Y-12955643D01*
X16748341Y-12955643D02*
X16738818Y-12993738D01*
X16738818Y-12993738D02*
X16729294Y-13012786D01*
X16729294Y-13012786D02*
X16719770Y-13022310D01*
X16719770Y-13022310D02*
X16700722Y-13031834D01*
X16700722Y-13031834D02*
X16681675Y-13031834D01*
X16681675Y-13031834D02*
X16662627Y-13022310D01*
X16662627Y-13022310D02*
X16653103Y-13012786D01*
X16653103Y-13012786D02*
X16643579Y-12993738D01*
X16643579Y-12993738D02*
X16634056Y-12955643D01*
X16634056Y-12955643D02*
X16634056Y-12908024D01*
X16634056Y-12908024D02*
X16643579Y-12869929D01*
X16643579Y-12869929D02*
X16653103Y-12850881D01*
X16653103Y-12850881D02*
X16662627Y-12841358D01*
X16662627Y-12841358D02*
X16681675Y-12831834D01*
X16986437Y-13031834D02*
X16986437Y-12831834D01*
X17072151Y-13031834D02*
X17072151Y-12927072D01*
X17072151Y-12927072D02*
X17062627Y-12908024D01*
X17062627Y-12908024D02*
X17043580Y-12898500D01*
X17043580Y-12898500D02*
X17015008Y-12898500D01*
X17015008Y-12898500D02*
X16995961Y-12908024D01*
X16995961Y-12908024D02*
X16986437Y-12917548D01*
X17195961Y-13031834D02*
X17176913Y-13022310D01*
X17176913Y-13022310D02*
X17167389Y-13012786D01*
X17167389Y-13012786D02*
X17157865Y-12993738D01*
X17157865Y-12993738D02*
X17157865Y-12936596D01*
X17157865Y-12936596D02*
X17167389Y-12917548D01*
X17167389Y-12917548D02*
X17176913Y-12908024D01*
X17176913Y-12908024D02*
X17195961Y-12898500D01*
X17195961Y-12898500D02*
X17224532Y-12898500D01*
X17224532Y-12898500D02*
X17243580Y-12908024D01*
X17243580Y-12908024D02*
X17253103Y-12917548D01*
X17253103Y-12917548D02*
X17262627Y-12936596D01*
X17262627Y-12936596D02*
X17262627Y-12993738D01*
X17262627Y-12993738D02*
X17253103Y-13012786D01*
X17253103Y-13012786D02*
X17243580Y-13022310D01*
X17243580Y-13022310D02*
X17224532Y-13031834D01*
X17224532Y-13031834D02*
X17195961Y-13031834D01*
X17376913Y-13031834D02*
X17357865Y-13022310D01*
X17357865Y-13022310D02*
X17348342Y-13003262D01*
X17348342Y-13003262D02*
X17348342Y-12831834D01*
X17529294Y-13022310D02*
X17510246Y-13031834D01*
X17510246Y-13031834D02*
X17472151Y-13031834D01*
X17472151Y-13031834D02*
X17453103Y-13022310D01*
X17453103Y-13022310D02*
X17443580Y-13003262D01*
X17443580Y-13003262D02*
X17443580Y-12927072D01*
X17443580Y-12927072D02*
X17453103Y-12908024D01*
X17453103Y-12908024D02*
X17472151Y-12898500D01*
X17472151Y-12898500D02*
X17510246Y-12898500D01*
X17510246Y-12898500D02*
X17529294Y-12908024D01*
X17529294Y-12908024D02*
X17538818Y-12927072D01*
X17538818Y-12927072D02*
X17538818Y-12946119D01*
X17538818Y-12946119D02*
X17443580Y-12965167D01*
X17615008Y-13022310D02*
X17634056Y-13031834D01*
X17634056Y-13031834D02*
X17672151Y-13031834D01*
X17672151Y-13031834D02*
X17691199Y-13022310D01*
X17691199Y-13022310D02*
X17700723Y-13003262D01*
X17700723Y-13003262D02*
X17700723Y-12993738D01*
X17700723Y-12993738D02*
X17691199Y-12974691D01*
X17691199Y-12974691D02*
X17672151Y-12965167D01*
X17672151Y-12965167D02*
X17643580Y-12965167D01*
X17643580Y-12965167D02*
X17624532Y-12955643D01*
X17624532Y-12955643D02*
X17615008Y-12936596D01*
X17615008Y-12936596D02*
X17615008Y-12927072D01*
X17615008Y-12927072D02*
X17624532Y-12908024D01*
X17624532Y-12908024D02*
X17643580Y-12898500D01*
X17643580Y-12898500D02*
X17672151Y-12898500D01*
X17672151Y-12898500D02*
X17691199Y-12908024D01*
X17767389Y-13108024D02*
X17776913Y-13098500D01*
X17776913Y-13098500D02*
X17795961Y-13069929D01*
X17795961Y-13069929D02*
X17805484Y-13050881D01*
X17805484Y-13050881D02*
X17815008Y-13022310D01*
X17815008Y-13022310D02*
X17824532Y-12974691D01*
X17824532Y-12974691D02*
X17824532Y-12936596D01*
X17824532Y-12936596D02*
X17815008Y-12888977D01*
X17815008Y-12888977D02*
X17805484Y-12860405D01*
X17805484Y-12860405D02*
X17795961Y-12841358D01*
X17795961Y-12841358D02*
X17776913Y-12812786D01*
X17776913Y-12812786D02*
X17767389Y-12803262D01*
D14*
X12801850Y-13204350D02*
G75*
G03*
X12801850Y-13204350I-20000J0D01*
G01*
D12*
X13100722Y-13095834D02*
X13119770Y-13095834D01*
X13119770Y-13095834D02*
X13138817Y-13105358D01*
X13138817Y-13105358D02*
X13148341Y-13114881D01*
X13148341Y-13114881D02*
X13157865Y-13133929D01*
X13157865Y-13133929D02*
X13167389Y-13172024D01*
X13167389Y-13172024D02*
X13167389Y-13219643D01*
X13167389Y-13219643D02*
X13157865Y-13257738D01*
X13157865Y-13257738D02*
X13148341Y-13276786D01*
X13148341Y-13276786D02*
X13138817Y-13286310D01*
X13138817Y-13286310D02*
X13119770Y-13295834D01*
X13119770Y-13295834D02*
X13100722Y-13295834D01*
X13100722Y-13295834D02*
X13081674Y-13286310D01*
X13081674Y-13286310D02*
X13072151Y-13276786D01*
X13072151Y-13276786D02*
X13062627Y-13257738D01*
X13062627Y-13257738D02*
X13053103Y-13219643D01*
X13053103Y-13219643D02*
X13053103Y-13172024D01*
X13053103Y-13172024D02*
X13062627Y-13133929D01*
X13062627Y-13133929D02*
X13072151Y-13114881D01*
X13072151Y-13114881D02*
X13081674Y-13105358D01*
X13081674Y-13105358D02*
X13100722Y-13095834D01*
X13253103Y-13276786D02*
X13262627Y-13286310D01*
X13262627Y-13286310D02*
X13253103Y-13295834D01*
X13253103Y-13295834D02*
X13243579Y-13286310D01*
X13243579Y-13286310D02*
X13253103Y-13276786D01*
X13253103Y-13276786D02*
X13253103Y-13295834D01*
X13434055Y-13162500D02*
X13434055Y-13295834D01*
X13386436Y-13086310D02*
X13338817Y-13229167D01*
X13338817Y-13229167D02*
X13462627Y-13229167D01*
X13576912Y-13095834D02*
X13595960Y-13095834D01*
X13595960Y-13095834D02*
X13615008Y-13105358D01*
X13615008Y-13105358D02*
X13624532Y-13114881D01*
X13624532Y-13114881D02*
X13634055Y-13133929D01*
X13634055Y-13133929D02*
X13643579Y-13172024D01*
X13643579Y-13172024D02*
X13643579Y-13219643D01*
X13643579Y-13219643D02*
X13634055Y-13257738D01*
X13634055Y-13257738D02*
X13624532Y-13276786D01*
X13624532Y-13276786D02*
X13615008Y-13286310D01*
X13615008Y-13286310D02*
X13595960Y-13295834D01*
X13595960Y-13295834D02*
X13576912Y-13295834D01*
X13576912Y-13295834D02*
X13557865Y-13286310D01*
X13557865Y-13286310D02*
X13548341Y-13276786D01*
X13548341Y-13276786D02*
X13538817Y-13257738D01*
X13538817Y-13257738D02*
X13529293Y-13219643D01*
X13529293Y-13219643D02*
X13529293Y-13172024D01*
X13529293Y-13172024D02*
X13538817Y-13133929D01*
X13538817Y-13133929D02*
X13548341Y-13114881D01*
X13548341Y-13114881D02*
X13557865Y-13105358D01*
X13557865Y-13105358D02*
X13576912Y-13095834D01*
X13767389Y-13095834D02*
X13786436Y-13095834D01*
X13786436Y-13095834D02*
X13805484Y-13105358D01*
X13805484Y-13105358D02*
X13815008Y-13114881D01*
X13815008Y-13114881D02*
X13824532Y-13133929D01*
X13824532Y-13133929D02*
X13834055Y-13172024D01*
X13834055Y-13172024D02*
X13834055Y-13219643D01*
X13834055Y-13219643D02*
X13824532Y-13257738D01*
X13824532Y-13257738D02*
X13815008Y-13276786D01*
X13815008Y-13276786D02*
X13805484Y-13286310D01*
X13805484Y-13286310D02*
X13786436Y-13295834D01*
X13786436Y-13295834D02*
X13767389Y-13295834D01*
X13767389Y-13295834D02*
X13748341Y-13286310D01*
X13748341Y-13286310D02*
X13738817Y-13276786D01*
X13738817Y-13276786D02*
X13729293Y-13257738D01*
X13729293Y-13257738D02*
X13719770Y-13219643D01*
X13719770Y-13219643D02*
X13719770Y-13172024D01*
X13719770Y-13172024D02*
X13729293Y-13133929D01*
X13729293Y-13133929D02*
X13738817Y-13114881D01*
X13738817Y-13114881D02*
X13748341Y-13105358D01*
X13748341Y-13105358D02*
X13767389Y-13095834D01*
X13919770Y-13295834D02*
X13919770Y-13162500D01*
X13919770Y-13181548D02*
X13929293Y-13172024D01*
X13929293Y-13172024D02*
X13948341Y-13162500D01*
X13948341Y-13162500D02*
X13976913Y-13162500D01*
X13976913Y-13162500D02*
X13995960Y-13172024D01*
X13995960Y-13172024D02*
X14005484Y-13191072D01*
X14005484Y-13191072D02*
X14005484Y-13295834D01*
X14005484Y-13191072D02*
X14015008Y-13172024D01*
X14015008Y-13172024D02*
X14034055Y-13162500D01*
X14034055Y-13162500D02*
X14062627Y-13162500D01*
X14062627Y-13162500D02*
X14081674Y-13172024D01*
X14081674Y-13172024D02*
X14091198Y-13191072D01*
X14091198Y-13191072D02*
X14091198Y-13295834D01*
X14186436Y-13295834D02*
X14186436Y-13162500D01*
X14186436Y-13181548D02*
X14195960Y-13172024D01*
X14195960Y-13172024D02*
X14215008Y-13162500D01*
X14215008Y-13162500D02*
X14243579Y-13162500D01*
X14243579Y-13162500D02*
X14262627Y-13172024D01*
X14262627Y-13172024D02*
X14272151Y-13191072D01*
X14272151Y-13191072D02*
X14272151Y-13295834D01*
X14272151Y-13191072D02*
X14281674Y-13172024D01*
X14281674Y-13172024D02*
X14300722Y-13162500D01*
X14300722Y-13162500D02*
X14329293Y-13162500D01*
X14329293Y-13162500D02*
X14348341Y-13172024D01*
X14348341Y-13172024D02*
X14357865Y-13191072D01*
X14357865Y-13191072D02*
X14357865Y-13295834D01*
X14748341Y-13086310D02*
X14576913Y-13343453D01*
X15005484Y-13095834D02*
X15024532Y-13095834D01*
X15024532Y-13095834D02*
X15043579Y-13105358D01*
X15043579Y-13105358D02*
X15053103Y-13114881D01*
X15053103Y-13114881D02*
X15062627Y-13133929D01*
X15062627Y-13133929D02*
X15072151Y-13172024D01*
X15072151Y-13172024D02*
X15072151Y-13219643D01*
X15072151Y-13219643D02*
X15062627Y-13257738D01*
X15062627Y-13257738D02*
X15053103Y-13276786D01*
X15053103Y-13276786D02*
X15043579Y-13286310D01*
X15043579Y-13286310D02*
X15024532Y-13295834D01*
X15024532Y-13295834D02*
X15005484Y-13295834D01*
X15005484Y-13295834D02*
X14986436Y-13286310D01*
X14986436Y-13286310D02*
X14976913Y-13276786D01*
X14976913Y-13276786D02*
X14967389Y-13257738D01*
X14967389Y-13257738D02*
X14957865Y-13219643D01*
X14957865Y-13219643D02*
X14957865Y-13172024D01*
X14957865Y-13172024D02*
X14967389Y-13133929D01*
X14967389Y-13133929D02*
X14976913Y-13114881D01*
X14976913Y-13114881D02*
X14986436Y-13105358D01*
X14986436Y-13105358D02*
X15005484Y-13095834D01*
X15157865Y-13276786D02*
X15167389Y-13286310D01*
X15167389Y-13286310D02*
X15157865Y-13295834D01*
X15157865Y-13295834D02*
X15148341Y-13286310D01*
X15148341Y-13286310D02*
X15157865Y-13276786D01*
X15157865Y-13276786D02*
X15157865Y-13295834D01*
X15291198Y-13095834D02*
X15310246Y-13095834D01*
X15310246Y-13095834D02*
X15329294Y-13105358D01*
X15329294Y-13105358D02*
X15338817Y-13114881D01*
X15338817Y-13114881D02*
X15348341Y-13133929D01*
X15348341Y-13133929D02*
X15357865Y-13172024D01*
X15357865Y-13172024D02*
X15357865Y-13219643D01*
X15357865Y-13219643D02*
X15348341Y-13257738D01*
X15348341Y-13257738D02*
X15338817Y-13276786D01*
X15338817Y-13276786D02*
X15329294Y-13286310D01*
X15329294Y-13286310D02*
X15310246Y-13295834D01*
X15310246Y-13295834D02*
X15291198Y-13295834D01*
X15291198Y-13295834D02*
X15272151Y-13286310D01*
X15272151Y-13286310D02*
X15262627Y-13276786D01*
X15262627Y-13276786D02*
X15253103Y-13257738D01*
X15253103Y-13257738D02*
X15243579Y-13219643D01*
X15243579Y-13219643D02*
X15243579Y-13172024D01*
X15243579Y-13172024D02*
X15253103Y-13133929D01*
X15253103Y-13133929D02*
X15262627Y-13114881D01*
X15262627Y-13114881D02*
X15272151Y-13105358D01*
X15272151Y-13105358D02*
X15291198Y-13095834D01*
X15548341Y-13295834D02*
X15434056Y-13295834D01*
X15491198Y-13295834D02*
X15491198Y-13095834D01*
X15491198Y-13095834D02*
X15472151Y-13124405D01*
X15472151Y-13124405D02*
X15453103Y-13143453D01*
X15453103Y-13143453D02*
X15434056Y-13152977D01*
X15729294Y-13095834D02*
X15634056Y-13095834D01*
X15634056Y-13095834D02*
X15624532Y-13191072D01*
X15624532Y-13191072D02*
X15634056Y-13181548D01*
X15634056Y-13181548D02*
X15653103Y-13172024D01*
X15653103Y-13172024D02*
X15700722Y-13172024D01*
X15700722Y-13172024D02*
X15719770Y-13181548D01*
X15719770Y-13181548D02*
X15729294Y-13191072D01*
X15729294Y-13191072D02*
X15738817Y-13210119D01*
X15738817Y-13210119D02*
X15738817Y-13257738D01*
X15738817Y-13257738D02*
X15729294Y-13276786D01*
X15729294Y-13276786D02*
X15719770Y-13286310D01*
X15719770Y-13286310D02*
X15700722Y-13295834D01*
X15700722Y-13295834D02*
X15653103Y-13295834D01*
X15653103Y-13295834D02*
X15634056Y-13286310D01*
X15634056Y-13286310D02*
X15624532Y-13276786D01*
X15805484Y-13095834D02*
X15938817Y-13095834D01*
X15938817Y-13095834D02*
X15853103Y-13295834D01*
X16005484Y-13095834D02*
X16005484Y-13133929D01*
X16081675Y-13095834D02*
X16081675Y-13133929D01*
X16376913Y-13372024D02*
X16367389Y-13362500D01*
X16367389Y-13362500D02*
X16348341Y-13333929D01*
X16348341Y-13333929D02*
X16338818Y-13314881D01*
X16338818Y-13314881D02*
X16329294Y-13286310D01*
X16329294Y-13286310D02*
X16319770Y-13238691D01*
X16319770Y-13238691D02*
X16319770Y-13200596D01*
X16319770Y-13200596D02*
X16329294Y-13152977D01*
X16329294Y-13152977D02*
X16338818Y-13124405D01*
X16338818Y-13124405D02*
X16348341Y-13105358D01*
X16348341Y-13105358D02*
X16367389Y-13076786D01*
X16367389Y-13076786D02*
X16376913Y-13067262D01*
X16548341Y-13095834D02*
X16453103Y-13095834D01*
X16453103Y-13095834D02*
X16443579Y-13191072D01*
X16443579Y-13191072D02*
X16453103Y-13181548D01*
X16453103Y-13181548D02*
X16472151Y-13172024D01*
X16472151Y-13172024D02*
X16519770Y-13172024D01*
X16519770Y-13172024D02*
X16538818Y-13181548D01*
X16538818Y-13181548D02*
X16548341Y-13191072D01*
X16548341Y-13191072D02*
X16557865Y-13210119D01*
X16557865Y-13210119D02*
X16557865Y-13257738D01*
X16557865Y-13257738D02*
X16548341Y-13276786D01*
X16548341Y-13276786D02*
X16538818Y-13286310D01*
X16538818Y-13286310D02*
X16519770Y-13295834D01*
X16519770Y-13295834D02*
X16472151Y-13295834D01*
X16472151Y-13295834D02*
X16453103Y-13286310D01*
X16453103Y-13286310D02*
X16443579Y-13276786D01*
X16729294Y-13095834D02*
X16691198Y-13095834D01*
X16691198Y-13095834D02*
X16672151Y-13105358D01*
X16672151Y-13105358D02*
X16662627Y-13114881D01*
X16662627Y-13114881D02*
X16643579Y-13143453D01*
X16643579Y-13143453D02*
X16634056Y-13181548D01*
X16634056Y-13181548D02*
X16634056Y-13257738D01*
X16634056Y-13257738D02*
X16643579Y-13276786D01*
X16643579Y-13276786D02*
X16653103Y-13286310D01*
X16653103Y-13286310D02*
X16672151Y-13295834D01*
X16672151Y-13295834D02*
X16710246Y-13295834D01*
X16710246Y-13295834D02*
X16729294Y-13286310D01*
X16729294Y-13286310D02*
X16738818Y-13276786D01*
X16738818Y-13276786D02*
X16748341Y-13257738D01*
X16748341Y-13257738D02*
X16748341Y-13210119D01*
X16748341Y-13210119D02*
X16738818Y-13191072D01*
X16738818Y-13191072D02*
X16729294Y-13181548D01*
X16729294Y-13181548D02*
X16710246Y-13172024D01*
X16710246Y-13172024D02*
X16672151Y-13172024D01*
X16672151Y-13172024D02*
X16653103Y-13181548D01*
X16653103Y-13181548D02*
X16643579Y-13191072D01*
X16643579Y-13191072D02*
X16634056Y-13210119D01*
X16986437Y-13295834D02*
X16986437Y-13095834D01*
X17072151Y-13295834D02*
X17072151Y-13191072D01*
X17072151Y-13191072D02*
X17062627Y-13172024D01*
X17062627Y-13172024D02*
X17043580Y-13162500D01*
X17043580Y-13162500D02*
X17015008Y-13162500D01*
X17015008Y-13162500D02*
X16995961Y-13172024D01*
X16995961Y-13172024D02*
X16986437Y-13181548D01*
X17195961Y-13295834D02*
X17176913Y-13286310D01*
X17176913Y-13286310D02*
X17167389Y-13276786D01*
X17167389Y-13276786D02*
X17157865Y-13257738D01*
X17157865Y-13257738D02*
X17157865Y-13200596D01*
X17157865Y-13200596D02*
X17167389Y-13181548D01*
X17167389Y-13181548D02*
X17176913Y-13172024D01*
X17176913Y-13172024D02*
X17195961Y-13162500D01*
X17195961Y-13162500D02*
X17224532Y-13162500D01*
X17224532Y-13162500D02*
X17243580Y-13172024D01*
X17243580Y-13172024D02*
X17253103Y-13181548D01*
X17253103Y-13181548D02*
X17262627Y-13200596D01*
X17262627Y-13200596D02*
X17262627Y-13257738D01*
X17262627Y-13257738D02*
X17253103Y-13276786D01*
X17253103Y-13276786D02*
X17243580Y-13286310D01*
X17243580Y-13286310D02*
X17224532Y-13295834D01*
X17224532Y-13295834D02*
X17195961Y-13295834D01*
X17376913Y-13295834D02*
X17357865Y-13286310D01*
X17357865Y-13286310D02*
X17348342Y-13267262D01*
X17348342Y-13267262D02*
X17348342Y-13095834D01*
X17529294Y-13286310D02*
X17510246Y-13295834D01*
X17510246Y-13295834D02*
X17472151Y-13295834D01*
X17472151Y-13295834D02*
X17453103Y-13286310D01*
X17453103Y-13286310D02*
X17443580Y-13267262D01*
X17443580Y-13267262D02*
X17443580Y-13191072D01*
X17443580Y-13191072D02*
X17453103Y-13172024D01*
X17453103Y-13172024D02*
X17472151Y-13162500D01*
X17472151Y-13162500D02*
X17510246Y-13162500D01*
X17510246Y-13162500D02*
X17529294Y-13172024D01*
X17529294Y-13172024D02*
X17538818Y-13191072D01*
X17538818Y-13191072D02*
X17538818Y-13210119D01*
X17538818Y-13210119D02*
X17443580Y-13229167D01*
X17615008Y-13286310D02*
X17634056Y-13295834D01*
X17634056Y-13295834D02*
X17672151Y-13295834D01*
X17672151Y-13295834D02*
X17691199Y-13286310D01*
X17691199Y-13286310D02*
X17700723Y-13267262D01*
X17700723Y-13267262D02*
X17700723Y-13257738D01*
X17700723Y-13257738D02*
X17691199Y-13238691D01*
X17691199Y-13238691D02*
X17672151Y-13229167D01*
X17672151Y-13229167D02*
X17643580Y-13229167D01*
X17643580Y-13229167D02*
X17624532Y-13219643D01*
X17624532Y-13219643D02*
X17615008Y-13200596D01*
X17615008Y-13200596D02*
X17615008Y-13191072D01*
X17615008Y-13191072D02*
X17624532Y-13172024D01*
X17624532Y-13172024D02*
X17643580Y-13162500D01*
X17643580Y-13162500D02*
X17672151Y-13162500D01*
X17672151Y-13162500D02*
X17691199Y-13172024D01*
X17767389Y-13372024D02*
X17776913Y-13362500D01*
X17776913Y-13362500D02*
X17795961Y-13333929D01*
X17795961Y-13333929D02*
X17805484Y-13314881D01*
X17805484Y-13314881D02*
X17815008Y-13286310D01*
X17815008Y-13286310D02*
X17824532Y-13238691D01*
X17824532Y-13238691D02*
X17824532Y-13200596D01*
X17824532Y-13200596D02*
X17815008Y-13152977D01*
X17815008Y-13152977D02*
X17805484Y-13124405D01*
X17805484Y-13124405D02*
X17795961Y-13105358D01*
X17795961Y-13105358D02*
X17776913Y-13076786D01*
X17776913Y-13076786D02*
X17767389Y-13067262D01*
D15*
X12771370Y-13437870D02*
X12771370Y-13498830D01*
X12740890Y-13468350D02*
X12801850Y-13468350D01*
D12*
X13100722Y-13359834D02*
X13119770Y-13359834D01*
X13119770Y-13359834D02*
X13138817Y-13369358D01*
X13138817Y-13369358D02*
X13148341Y-13378881D01*
X13148341Y-13378881D02*
X13157865Y-13397929D01*
X13157865Y-13397929D02*
X13167389Y-13436024D01*
X13167389Y-13436024D02*
X13167389Y-13483643D01*
X13167389Y-13483643D02*
X13157865Y-13521738D01*
X13157865Y-13521738D02*
X13148341Y-13540786D01*
X13148341Y-13540786D02*
X13138817Y-13550310D01*
X13138817Y-13550310D02*
X13119770Y-13559834D01*
X13119770Y-13559834D02*
X13100722Y-13559834D01*
X13100722Y-13559834D02*
X13081674Y-13550310D01*
X13081674Y-13550310D02*
X13072151Y-13540786D01*
X13072151Y-13540786D02*
X13062627Y-13521738D01*
X13062627Y-13521738D02*
X13053103Y-13483643D01*
X13053103Y-13483643D02*
X13053103Y-13436024D01*
X13053103Y-13436024D02*
X13062627Y-13397929D01*
X13062627Y-13397929D02*
X13072151Y-13378881D01*
X13072151Y-13378881D02*
X13081674Y-13369358D01*
X13081674Y-13369358D02*
X13100722Y-13359834D01*
X13253103Y-13540786D02*
X13262627Y-13550310D01*
X13262627Y-13550310D02*
X13253103Y-13559834D01*
X13253103Y-13559834D02*
X13243579Y-13550310D01*
X13243579Y-13550310D02*
X13253103Y-13540786D01*
X13253103Y-13540786D02*
X13253103Y-13559834D01*
X13434055Y-13359834D02*
X13395960Y-13359834D01*
X13395960Y-13359834D02*
X13376912Y-13369358D01*
X13376912Y-13369358D02*
X13367389Y-13378881D01*
X13367389Y-13378881D02*
X13348341Y-13407453D01*
X13348341Y-13407453D02*
X13338817Y-13445548D01*
X13338817Y-13445548D02*
X13338817Y-13521738D01*
X13338817Y-13521738D02*
X13348341Y-13540786D01*
X13348341Y-13540786D02*
X13357865Y-13550310D01*
X13357865Y-13550310D02*
X13376912Y-13559834D01*
X13376912Y-13559834D02*
X13415008Y-13559834D01*
X13415008Y-13559834D02*
X13434055Y-13550310D01*
X13434055Y-13550310D02*
X13443579Y-13540786D01*
X13443579Y-13540786D02*
X13453103Y-13521738D01*
X13453103Y-13521738D02*
X13453103Y-13474119D01*
X13453103Y-13474119D02*
X13443579Y-13455072D01*
X13443579Y-13455072D02*
X13434055Y-13445548D01*
X13434055Y-13445548D02*
X13415008Y-13436024D01*
X13415008Y-13436024D02*
X13376912Y-13436024D01*
X13376912Y-13436024D02*
X13357865Y-13445548D01*
X13357865Y-13445548D02*
X13348341Y-13455072D01*
X13348341Y-13455072D02*
X13338817Y-13474119D01*
X13643579Y-13559834D02*
X13529293Y-13559834D01*
X13586436Y-13559834D02*
X13586436Y-13359834D01*
X13586436Y-13359834D02*
X13567389Y-13388405D01*
X13567389Y-13388405D02*
X13548341Y-13407453D01*
X13548341Y-13407453D02*
X13529293Y-13416977D01*
X13767389Y-13359834D02*
X13786436Y-13359834D01*
X13786436Y-13359834D02*
X13805484Y-13369358D01*
X13805484Y-13369358D02*
X13815008Y-13378881D01*
X13815008Y-13378881D02*
X13824532Y-13397929D01*
X13824532Y-13397929D02*
X13834055Y-13436024D01*
X13834055Y-13436024D02*
X13834055Y-13483643D01*
X13834055Y-13483643D02*
X13824532Y-13521738D01*
X13824532Y-13521738D02*
X13815008Y-13540786D01*
X13815008Y-13540786D02*
X13805484Y-13550310D01*
X13805484Y-13550310D02*
X13786436Y-13559834D01*
X13786436Y-13559834D02*
X13767389Y-13559834D01*
X13767389Y-13559834D02*
X13748341Y-13550310D01*
X13748341Y-13550310D02*
X13738817Y-13540786D01*
X13738817Y-13540786D02*
X13729293Y-13521738D01*
X13729293Y-13521738D02*
X13719770Y-13483643D01*
X13719770Y-13483643D02*
X13719770Y-13436024D01*
X13719770Y-13436024D02*
X13729293Y-13397929D01*
X13729293Y-13397929D02*
X13738817Y-13378881D01*
X13738817Y-13378881D02*
X13748341Y-13369358D01*
X13748341Y-13369358D02*
X13767389Y-13359834D01*
X13919770Y-13559834D02*
X13919770Y-13426500D01*
X13919770Y-13445548D02*
X13929293Y-13436024D01*
X13929293Y-13436024D02*
X13948341Y-13426500D01*
X13948341Y-13426500D02*
X13976913Y-13426500D01*
X13976913Y-13426500D02*
X13995960Y-13436024D01*
X13995960Y-13436024D02*
X14005484Y-13455072D01*
X14005484Y-13455072D02*
X14005484Y-13559834D01*
X14005484Y-13455072D02*
X14015008Y-13436024D01*
X14015008Y-13436024D02*
X14034055Y-13426500D01*
X14034055Y-13426500D02*
X14062627Y-13426500D01*
X14062627Y-13426500D02*
X14081674Y-13436024D01*
X14081674Y-13436024D02*
X14091198Y-13455072D01*
X14091198Y-13455072D02*
X14091198Y-13559834D01*
X14186436Y-13559834D02*
X14186436Y-13426500D01*
X14186436Y-13445548D02*
X14195960Y-13436024D01*
X14195960Y-13436024D02*
X14215008Y-13426500D01*
X14215008Y-13426500D02*
X14243579Y-13426500D01*
X14243579Y-13426500D02*
X14262627Y-13436024D01*
X14262627Y-13436024D02*
X14272151Y-13455072D01*
X14272151Y-13455072D02*
X14272151Y-13559834D01*
X14272151Y-13455072D02*
X14281674Y-13436024D01*
X14281674Y-13436024D02*
X14300722Y-13426500D01*
X14300722Y-13426500D02*
X14329293Y-13426500D01*
X14329293Y-13426500D02*
X14348341Y-13436024D01*
X14348341Y-13436024D02*
X14357865Y-13455072D01*
X14357865Y-13455072D02*
X14357865Y-13559834D01*
X14748341Y-13350310D02*
X14576913Y-13607453D01*
X15005484Y-13359834D02*
X15024532Y-13359834D01*
X15024532Y-13359834D02*
X15043579Y-13369358D01*
X15043579Y-13369358D02*
X15053103Y-13378881D01*
X15053103Y-13378881D02*
X15062627Y-13397929D01*
X15062627Y-13397929D02*
X15072151Y-13436024D01*
X15072151Y-13436024D02*
X15072151Y-13483643D01*
X15072151Y-13483643D02*
X15062627Y-13521738D01*
X15062627Y-13521738D02*
X15053103Y-13540786D01*
X15053103Y-13540786D02*
X15043579Y-13550310D01*
X15043579Y-13550310D02*
X15024532Y-13559834D01*
X15024532Y-13559834D02*
X15005484Y-13559834D01*
X15005484Y-13559834D02*
X14986436Y-13550310D01*
X14986436Y-13550310D02*
X14976913Y-13540786D01*
X14976913Y-13540786D02*
X14967389Y-13521738D01*
X14967389Y-13521738D02*
X14957865Y-13483643D01*
X14957865Y-13483643D02*
X14957865Y-13436024D01*
X14957865Y-13436024D02*
X14967389Y-13397929D01*
X14967389Y-13397929D02*
X14976913Y-13378881D01*
X14976913Y-13378881D02*
X14986436Y-13369358D01*
X14986436Y-13369358D02*
X15005484Y-13359834D01*
X15157865Y-13540786D02*
X15167389Y-13550310D01*
X15167389Y-13550310D02*
X15157865Y-13559834D01*
X15157865Y-13559834D02*
X15148341Y-13550310D01*
X15148341Y-13550310D02*
X15157865Y-13540786D01*
X15157865Y-13540786D02*
X15157865Y-13559834D01*
X15291198Y-13359834D02*
X15310246Y-13359834D01*
X15310246Y-13359834D02*
X15329294Y-13369358D01*
X15329294Y-13369358D02*
X15338817Y-13378881D01*
X15338817Y-13378881D02*
X15348341Y-13397929D01*
X15348341Y-13397929D02*
X15357865Y-13436024D01*
X15357865Y-13436024D02*
X15357865Y-13483643D01*
X15357865Y-13483643D02*
X15348341Y-13521738D01*
X15348341Y-13521738D02*
X15338817Y-13540786D01*
X15338817Y-13540786D02*
X15329294Y-13550310D01*
X15329294Y-13550310D02*
X15310246Y-13559834D01*
X15310246Y-13559834D02*
X15291198Y-13559834D01*
X15291198Y-13559834D02*
X15272151Y-13550310D01*
X15272151Y-13550310D02*
X15262627Y-13540786D01*
X15262627Y-13540786D02*
X15253103Y-13521738D01*
X15253103Y-13521738D02*
X15243579Y-13483643D01*
X15243579Y-13483643D02*
X15243579Y-13436024D01*
X15243579Y-13436024D02*
X15253103Y-13397929D01*
X15253103Y-13397929D02*
X15262627Y-13378881D01*
X15262627Y-13378881D02*
X15272151Y-13369358D01*
X15272151Y-13369358D02*
X15291198Y-13359834D01*
X15434056Y-13378881D02*
X15443579Y-13369358D01*
X15443579Y-13369358D02*
X15462627Y-13359834D01*
X15462627Y-13359834D02*
X15510246Y-13359834D01*
X15510246Y-13359834D02*
X15529294Y-13369358D01*
X15529294Y-13369358D02*
X15538817Y-13378881D01*
X15538817Y-13378881D02*
X15548341Y-13397929D01*
X15548341Y-13397929D02*
X15548341Y-13416977D01*
X15548341Y-13416977D02*
X15538817Y-13445548D01*
X15538817Y-13445548D02*
X15424532Y-13559834D01*
X15424532Y-13559834D02*
X15548341Y-13559834D01*
X15719770Y-13426500D02*
X15719770Y-13559834D01*
X15672151Y-13350310D02*
X15624532Y-13493167D01*
X15624532Y-13493167D02*
X15748341Y-13493167D01*
X15862627Y-13359834D02*
X15881675Y-13359834D01*
X15881675Y-13359834D02*
X15900722Y-13369358D01*
X15900722Y-13369358D02*
X15910246Y-13378881D01*
X15910246Y-13378881D02*
X15919770Y-13397929D01*
X15919770Y-13397929D02*
X15929294Y-13436024D01*
X15929294Y-13436024D02*
X15929294Y-13483643D01*
X15929294Y-13483643D02*
X15919770Y-13521738D01*
X15919770Y-13521738D02*
X15910246Y-13540786D01*
X15910246Y-13540786D02*
X15900722Y-13550310D01*
X15900722Y-13550310D02*
X15881675Y-13559834D01*
X15881675Y-13559834D02*
X15862627Y-13559834D01*
X15862627Y-13559834D02*
X15843579Y-13550310D01*
X15843579Y-13550310D02*
X15834056Y-13540786D01*
X15834056Y-13540786D02*
X15824532Y-13521738D01*
X15824532Y-13521738D02*
X15815008Y-13483643D01*
X15815008Y-13483643D02*
X15815008Y-13436024D01*
X15815008Y-13436024D02*
X15824532Y-13397929D01*
X15824532Y-13397929D02*
X15834056Y-13378881D01*
X15834056Y-13378881D02*
X15843579Y-13369358D01*
X15843579Y-13369358D02*
X15862627Y-13359834D01*
X16005484Y-13359834D02*
X16005484Y-13397929D01*
X16081675Y-13359834D02*
X16081675Y-13397929D01*
X16376913Y-13636024D02*
X16367389Y-13626500D01*
X16367389Y-13626500D02*
X16348341Y-13597929D01*
X16348341Y-13597929D02*
X16338818Y-13578881D01*
X16338818Y-13578881D02*
X16329294Y-13550310D01*
X16329294Y-13550310D02*
X16319770Y-13502691D01*
X16319770Y-13502691D02*
X16319770Y-13464596D01*
X16319770Y-13464596D02*
X16329294Y-13416977D01*
X16329294Y-13416977D02*
X16338818Y-13388405D01*
X16338818Y-13388405D02*
X16348341Y-13369358D01*
X16348341Y-13369358D02*
X16367389Y-13340786D01*
X16367389Y-13340786D02*
X16376913Y-13331262D01*
X16491198Y-13359834D02*
X16510246Y-13359834D01*
X16510246Y-13359834D02*
X16529294Y-13369358D01*
X16529294Y-13369358D02*
X16538818Y-13378881D01*
X16538818Y-13378881D02*
X16548341Y-13397929D01*
X16548341Y-13397929D02*
X16557865Y-13436024D01*
X16557865Y-13436024D02*
X16557865Y-13483643D01*
X16557865Y-13483643D02*
X16548341Y-13521738D01*
X16548341Y-13521738D02*
X16538818Y-13540786D01*
X16538818Y-13540786D02*
X16529294Y-13550310D01*
X16529294Y-13550310D02*
X16510246Y-13559834D01*
X16510246Y-13559834D02*
X16491198Y-13559834D01*
X16491198Y-13559834D02*
X16472151Y-13550310D01*
X16472151Y-13550310D02*
X16462627Y-13540786D01*
X16462627Y-13540786D02*
X16453103Y-13521738D01*
X16453103Y-13521738D02*
X16443579Y-13483643D01*
X16443579Y-13483643D02*
X16443579Y-13436024D01*
X16443579Y-13436024D02*
X16453103Y-13397929D01*
X16453103Y-13397929D02*
X16462627Y-13378881D01*
X16462627Y-13378881D02*
X16472151Y-13369358D01*
X16472151Y-13369358D02*
X16491198Y-13359834D01*
X16795961Y-13559834D02*
X16795961Y-13359834D01*
X16881675Y-13559834D02*
X16881675Y-13455072D01*
X16881675Y-13455072D02*
X16872151Y-13436024D01*
X16872151Y-13436024D02*
X16853103Y-13426500D01*
X16853103Y-13426500D02*
X16824532Y-13426500D01*
X16824532Y-13426500D02*
X16805484Y-13436024D01*
X16805484Y-13436024D02*
X16795961Y-13445548D01*
X17005484Y-13559834D02*
X16986437Y-13550310D01*
X16986437Y-13550310D02*
X16976913Y-13540786D01*
X16976913Y-13540786D02*
X16967389Y-13521738D01*
X16967389Y-13521738D02*
X16967389Y-13464596D01*
X16967389Y-13464596D02*
X16976913Y-13445548D01*
X16976913Y-13445548D02*
X16986437Y-13436024D01*
X16986437Y-13436024D02*
X17005484Y-13426500D01*
X17005484Y-13426500D02*
X17034056Y-13426500D01*
X17034056Y-13426500D02*
X17053103Y-13436024D01*
X17053103Y-13436024D02*
X17062627Y-13445548D01*
X17062627Y-13445548D02*
X17072151Y-13464596D01*
X17072151Y-13464596D02*
X17072151Y-13521738D01*
X17072151Y-13521738D02*
X17062627Y-13540786D01*
X17062627Y-13540786D02*
X17053103Y-13550310D01*
X17053103Y-13550310D02*
X17034056Y-13559834D01*
X17034056Y-13559834D02*
X17005484Y-13559834D01*
X17186437Y-13559834D02*
X17167389Y-13550310D01*
X17167389Y-13550310D02*
X17157865Y-13531262D01*
X17157865Y-13531262D02*
X17157865Y-13359834D01*
X17338818Y-13550310D02*
X17319770Y-13559834D01*
X17319770Y-13559834D02*
X17281675Y-13559834D01*
X17281675Y-13559834D02*
X17262627Y-13550310D01*
X17262627Y-13550310D02*
X17253103Y-13531262D01*
X17253103Y-13531262D02*
X17253103Y-13455072D01*
X17253103Y-13455072D02*
X17262627Y-13436024D01*
X17262627Y-13436024D02*
X17281675Y-13426500D01*
X17281675Y-13426500D02*
X17319770Y-13426500D01*
X17319770Y-13426500D02*
X17338818Y-13436024D01*
X17338818Y-13436024D02*
X17348342Y-13455072D01*
X17348342Y-13455072D02*
X17348342Y-13474119D01*
X17348342Y-13474119D02*
X17253103Y-13493167D01*
X17424532Y-13550310D02*
X17443580Y-13559834D01*
X17443580Y-13559834D02*
X17481675Y-13559834D01*
X17481675Y-13559834D02*
X17500723Y-13550310D01*
X17500723Y-13550310D02*
X17510246Y-13531262D01*
X17510246Y-13531262D02*
X17510246Y-13521738D01*
X17510246Y-13521738D02*
X17500723Y-13502691D01*
X17500723Y-13502691D02*
X17481675Y-13493167D01*
X17481675Y-13493167D02*
X17453103Y-13493167D01*
X17453103Y-13493167D02*
X17434056Y-13483643D01*
X17434056Y-13483643D02*
X17424532Y-13464596D01*
X17424532Y-13464596D02*
X17424532Y-13455072D01*
X17424532Y-13455072D02*
X17434056Y-13436024D01*
X17434056Y-13436024D02*
X17453103Y-13426500D01*
X17453103Y-13426500D02*
X17481675Y-13426500D01*
X17481675Y-13426500D02*
X17500723Y-13436024D01*
X17748342Y-13483643D02*
X17900723Y-13483643D01*
X17824532Y-13559834D02*
X17824532Y-13407453D01*
X18234056Y-13359834D02*
X18195961Y-13359834D01*
X18195961Y-13359834D02*
X18176913Y-13369358D01*
X18176913Y-13369358D02*
X18167389Y-13378881D01*
X18167389Y-13378881D02*
X18148342Y-13407453D01*
X18148342Y-13407453D02*
X18138818Y-13445548D01*
X18138818Y-13445548D02*
X18138818Y-13521738D01*
X18138818Y-13521738D02*
X18148342Y-13540786D01*
X18148342Y-13540786D02*
X18157865Y-13550310D01*
X18157865Y-13550310D02*
X18176913Y-13559834D01*
X18176913Y-13559834D02*
X18215008Y-13559834D01*
X18215008Y-13559834D02*
X18234056Y-13550310D01*
X18234056Y-13550310D02*
X18243580Y-13540786D01*
X18243580Y-13540786D02*
X18253104Y-13521738D01*
X18253104Y-13521738D02*
X18253104Y-13474119D01*
X18253104Y-13474119D02*
X18243580Y-13455072D01*
X18243580Y-13455072D02*
X18234056Y-13445548D01*
X18234056Y-13445548D02*
X18215008Y-13436024D01*
X18215008Y-13436024D02*
X18176913Y-13436024D01*
X18176913Y-13436024D02*
X18157865Y-13445548D01*
X18157865Y-13445548D02*
X18148342Y-13455072D01*
X18148342Y-13455072D02*
X18138818Y-13474119D01*
X18481675Y-13550310D02*
X18500723Y-13559834D01*
X18500723Y-13559834D02*
X18538818Y-13559834D01*
X18538818Y-13559834D02*
X18557866Y-13550310D01*
X18557866Y-13550310D02*
X18567389Y-13531262D01*
X18567389Y-13531262D02*
X18567389Y-13521738D01*
X18567389Y-13521738D02*
X18557866Y-13502691D01*
X18557866Y-13502691D02*
X18538818Y-13493167D01*
X18538818Y-13493167D02*
X18510246Y-13493167D01*
X18510246Y-13493167D02*
X18491199Y-13483643D01*
X18491199Y-13483643D02*
X18481675Y-13464596D01*
X18481675Y-13464596D02*
X18481675Y-13455072D01*
X18481675Y-13455072D02*
X18491199Y-13436024D01*
X18491199Y-13436024D02*
X18510246Y-13426500D01*
X18510246Y-13426500D02*
X18538818Y-13426500D01*
X18538818Y-13426500D02*
X18557866Y-13436024D01*
X18681675Y-13559834D02*
X18662627Y-13550310D01*
X18662627Y-13550310D02*
X18653104Y-13531262D01*
X18653104Y-13531262D02*
X18653104Y-13359834D01*
X18786437Y-13559834D02*
X18767389Y-13550310D01*
X18767389Y-13550310D02*
X18757866Y-13540786D01*
X18757866Y-13540786D02*
X18748342Y-13521738D01*
X18748342Y-13521738D02*
X18748342Y-13464596D01*
X18748342Y-13464596D02*
X18757866Y-13445548D01*
X18757866Y-13445548D02*
X18767389Y-13436024D01*
X18767389Y-13436024D02*
X18786437Y-13426500D01*
X18786437Y-13426500D02*
X18815008Y-13426500D01*
X18815008Y-13426500D02*
X18834056Y-13436024D01*
X18834056Y-13436024D02*
X18843580Y-13445548D01*
X18843580Y-13445548D02*
X18853104Y-13464596D01*
X18853104Y-13464596D02*
X18853104Y-13521738D01*
X18853104Y-13521738D02*
X18843580Y-13540786D01*
X18843580Y-13540786D02*
X18834056Y-13550310D01*
X18834056Y-13550310D02*
X18815008Y-13559834D01*
X18815008Y-13559834D02*
X18786437Y-13559834D01*
X18910247Y-13426500D02*
X18986437Y-13426500D01*
X18938818Y-13359834D02*
X18938818Y-13531262D01*
X18938818Y-13531262D02*
X18948342Y-13550310D01*
X18948342Y-13550310D02*
X18967389Y-13559834D01*
X18967389Y-13559834D02*
X18986437Y-13559834D01*
X19043580Y-13550310D02*
X19062627Y-13559834D01*
X19062627Y-13559834D02*
X19100723Y-13559834D01*
X19100723Y-13559834D02*
X19119770Y-13550310D01*
X19119770Y-13550310D02*
X19129294Y-13531262D01*
X19129294Y-13531262D02*
X19129294Y-13521738D01*
X19129294Y-13521738D02*
X19119770Y-13502691D01*
X19119770Y-13502691D02*
X19100723Y-13493167D01*
X19100723Y-13493167D02*
X19072151Y-13493167D01*
X19072151Y-13493167D02*
X19053104Y-13483643D01*
X19053104Y-13483643D02*
X19043580Y-13464596D01*
X19043580Y-13464596D02*
X19043580Y-13455072D01*
X19043580Y-13455072D02*
X19053104Y-13436024D01*
X19053104Y-13436024D02*
X19072151Y-13426500D01*
X19072151Y-13426500D02*
X19100723Y-13426500D01*
X19100723Y-13426500D02*
X19119770Y-13436024D01*
X19195961Y-13636024D02*
X19205485Y-13626500D01*
X19205485Y-13626500D02*
X19224532Y-13597929D01*
X19224532Y-13597929D02*
X19234056Y-13578881D01*
X19234056Y-13578881D02*
X19243580Y-13550310D01*
X19243580Y-13550310D02*
X19253104Y-13502691D01*
X19253104Y-13502691D02*
X19253104Y-13464596D01*
X19253104Y-13464596D02*
X19243580Y-13416977D01*
X19243580Y-13416977D02*
X19234056Y-13388405D01*
X19234056Y-13388405D02*
X19224532Y-13369358D01*
X19224532Y-13369358D02*
X19205485Y-13340786D01*
X19205485Y-13340786D02*
X19195961Y-13331262D01*
D16*
X12790134Y-13760634D02*
X12790134Y-13704065D01*
X12733565Y-13704065D01*
X12733565Y-13760634D01*
X12790134Y-13760634D01*
D12*
X13100722Y-13623834D02*
X13119770Y-13623834D01*
X13119770Y-13623834D02*
X13138817Y-13633358D01*
X13138817Y-13633358D02*
X13148341Y-13642881D01*
X13148341Y-13642881D02*
X13157865Y-13661929D01*
X13157865Y-13661929D02*
X13167389Y-13700024D01*
X13167389Y-13700024D02*
X13167389Y-13747643D01*
X13167389Y-13747643D02*
X13157865Y-13785738D01*
X13157865Y-13785738D02*
X13148341Y-13804786D01*
X13148341Y-13804786D02*
X13138817Y-13814310D01*
X13138817Y-13814310D02*
X13119770Y-13823834D01*
X13119770Y-13823834D02*
X13100722Y-13823834D01*
X13100722Y-13823834D02*
X13081674Y-13814310D01*
X13081674Y-13814310D02*
X13072151Y-13804786D01*
X13072151Y-13804786D02*
X13062627Y-13785738D01*
X13062627Y-13785738D02*
X13053103Y-13747643D01*
X13053103Y-13747643D02*
X13053103Y-13700024D01*
X13053103Y-13700024D02*
X13062627Y-13661929D01*
X13062627Y-13661929D02*
X13072151Y-13642881D01*
X13072151Y-13642881D02*
X13081674Y-13633358D01*
X13081674Y-13633358D02*
X13100722Y-13623834D01*
X13253103Y-13804786D02*
X13262627Y-13814310D01*
X13262627Y-13814310D02*
X13253103Y-13823834D01*
X13253103Y-13823834D02*
X13243579Y-13814310D01*
X13243579Y-13814310D02*
X13253103Y-13804786D01*
X13253103Y-13804786D02*
X13253103Y-13823834D01*
X13376912Y-13709548D02*
X13357865Y-13700024D01*
X13357865Y-13700024D02*
X13348341Y-13690500D01*
X13348341Y-13690500D02*
X13338817Y-13671453D01*
X13338817Y-13671453D02*
X13338817Y-13661929D01*
X13338817Y-13661929D02*
X13348341Y-13642881D01*
X13348341Y-13642881D02*
X13357865Y-13633358D01*
X13357865Y-13633358D02*
X13376912Y-13623834D01*
X13376912Y-13623834D02*
X13415008Y-13623834D01*
X13415008Y-13623834D02*
X13434055Y-13633358D01*
X13434055Y-13633358D02*
X13443579Y-13642881D01*
X13443579Y-13642881D02*
X13453103Y-13661929D01*
X13453103Y-13661929D02*
X13453103Y-13671453D01*
X13453103Y-13671453D02*
X13443579Y-13690500D01*
X13443579Y-13690500D02*
X13434055Y-13700024D01*
X13434055Y-13700024D02*
X13415008Y-13709548D01*
X13415008Y-13709548D02*
X13376912Y-13709548D01*
X13376912Y-13709548D02*
X13357865Y-13719072D01*
X13357865Y-13719072D02*
X13348341Y-13728596D01*
X13348341Y-13728596D02*
X13338817Y-13747643D01*
X13338817Y-13747643D02*
X13338817Y-13785738D01*
X13338817Y-13785738D02*
X13348341Y-13804786D01*
X13348341Y-13804786D02*
X13357865Y-13814310D01*
X13357865Y-13814310D02*
X13376912Y-13823834D01*
X13376912Y-13823834D02*
X13415008Y-13823834D01*
X13415008Y-13823834D02*
X13434055Y-13814310D01*
X13434055Y-13814310D02*
X13443579Y-13804786D01*
X13443579Y-13804786D02*
X13453103Y-13785738D01*
X13453103Y-13785738D02*
X13453103Y-13747643D01*
X13453103Y-13747643D02*
X13443579Y-13728596D01*
X13443579Y-13728596D02*
X13434055Y-13719072D01*
X13434055Y-13719072D02*
X13415008Y-13709548D01*
X13576912Y-13623834D02*
X13595960Y-13623834D01*
X13595960Y-13623834D02*
X13615008Y-13633358D01*
X13615008Y-13633358D02*
X13624532Y-13642881D01*
X13624532Y-13642881D02*
X13634055Y-13661929D01*
X13634055Y-13661929D02*
X13643579Y-13700024D01*
X13643579Y-13700024D02*
X13643579Y-13747643D01*
X13643579Y-13747643D02*
X13634055Y-13785738D01*
X13634055Y-13785738D02*
X13624532Y-13804786D01*
X13624532Y-13804786D02*
X13615008Y-13814310D01*
X13615008Y-13814310D02*
X13595960Y-13823834D01*
X13595960Y-13823834D02*
X13576912Y-13823834D01*
X13576912Y-13823834D02*
X13557865Y-13814310D01*
X13557865Y-13814310D02*
X13548341Y-13804786D01*
X13548341Y-13804786D02*
X13538817Y-13785738D01*
X13538817Y-13785738D02*
X13529293Y-13747643D01*
X13529293Y-13747643D02*
X13529293Y-13700024D01*
X13529293Y-13700024D02*
X13538817Y-13661929D01*
X13538817Y-13661929D02*
X13548341Y-13642881D01*
X13548341Y-13642881D02*
X13557865Y-13633358D01*
X13557865Y-13633358D02*
X13576912Y-13623834D01*
X13767389Y-13623834D02*
X13786436Y-13623834D01*
X13786436Y-13623834D02*
X13805484Y-13633358D01*
X13805484Y-13633358D02*
X13815008Y-13642881D01*
X13815008Y-13642881D02*
X13824532Y-13661929D01*
X13824532Y-13661929D02*
X13834055Y-13700024D01*
X13834055Y-13700024D02*
X13834055Y-13747643D01*
X13834055Y-13747643D02*
X13824532Y-13785738D01*
X13824532Y-13785738D02*
X13815008Y-13804786D01*
X13815008Y-13804786D02*
X13805484Y-13814310D01*
X13805484Y-13814310D02*
X13786436Y-13823834D01*
X13786436Y-13823834D02*
X13767389Y-13823834D01*
X13767389Y-13823834D02*
X13748341Y-13814310D01*
X13748341Y-13814310D02*
X13738817Y-13804786D01*
X13738817Y-13804786D02*
X13729293Y-13785738D01*
X13729293Y-13785738D02*
X13719770Y-13747643D01*
X13719770Y-13747643D02*
X13719770Y-13700024D01*
X13719770Y-13700024D02*
X13729293Y-13661929D01*
X13729293Y-13661929D02*
X13738817Y-13642881D01*
X13738817Y-13642881D02*
X13748341Y-13633358D01*
X13748341Y-13633358D02*
X13767389Y-13623834D01*
X13919770Y-13823834D02*
X13919770Y-13690500D01*
X13919770Y-13709548D02*
X13929293Y-13700024D01*
X13929293Y-13700024D02*
X13948341Y-13690500D01*
X13948341Y-13690500D02*
X13976913Y-13690500D01*
X13976913Y-13690500D02*
X13995960Y-13700024D01*
X13995960Y-13700024D02*
X14005484Y-13719072D01*
X14005484Y-13719072D02*
X14005484Y-13823834D01*
X14005484Y-13719072D02*
X14015008Y-13700024D01*
X14015008Y-13700024D02*
X14034055Y-13690500D01*
X14034055Y-13690500D02*
X14062627Y-13690500D01*
X14062627Y-13690500D02*
X14081674Y-13700024D01*
X14081674Y-13700024D02*
X14091198Y-13719072D01*
X14091198Y-13719072D02*
X14091198Y-13823834D01*
X14186436Y-13823834D02*
X14186436Y-13690500D01*
X14186436Y-13709548D02*
X14195960Y-13700024D01*
X14195960Y-13700024D02*
X14215008Y-13690500D01*
X14215008Y-13690500D02*
X14243579Y-13690500D01*
X14243579Y-13690500D02*
X14262627Y-13700024D01*
X14262627Y-13700024D02*
X14272151Y-13719072D01*
X14272151Y-13719072D02*
X14272151Y-13823834D01*
X14272151Y-13719072D02*
X14281674Y-13700024D01*
X14281674Y-13700024D02*
X14300722Y-13690500D01*
X14300722Y-13690500D02*
X14329293Y-13690500D01*
X14329293Y-13690500D02*
X14348341Y-13700024D01*
X14348341Y-13700024D02*
X14357865Y-13719072D01*
X14357865Y-13719072D02*
X14357865Y-13823834D01*
X14748341Y-13614310D02*
X14576913Y-13871453D01*
X15005484Y-13623834D02*
X15024532Y-13623834D01*
X15024532Y-13623834D02*
X15043579Y-13633358D01*
X15043579Y-13633358D02*
X15053103Y-13642881D01*
X15053103Y-13642881D02*
X15062627Y-13661929D01*
X15062627Y-13661929D02*
X15072151Y-13700024D01*
X15072151Y-13700024D02*
X15072151Y-13747643D01*
X15072151Y-13747643D02*
X15062627Y-13785738D01*
X15062627Y-13785738D02*
X15053103Y-13804786D01*
X15053103Y-13804786D02*
X15043579Y-13814310D01*
X15043579Y-13814310D02*
X15024532Y-13823834D01*
X15024532Y-13823834D02*
X15005484Y-13823834D01*
X15005484Y-13823834D02*
X14986436Y-13814310D01*
X14986436Y-13814310D02*
X14976913Y-13804786D01*
X14976913Y-13804786D02*
X14967389Y-13785738D01*
X14967389Y-13785738D02*
X14957865Y-13747643D01*
X14957865Y-13747643D02*
X14957865Y-13700024D01*
X14957865Y-13700024D02*
X14967389Y-13661929D01*
X14967389Y-13661929D02*
X14976913Y-13642881D01*
X14976913Y-13642881D02*
X14986436Y-13633358D01*
X14986436Y-13633358D02*
X15005484Y-13623834D01*
X15157865Y-13804786D02*
X15167389Y-13814310D01*
X15167389Y-13814310D02*
X15157865Y-13823834D01*
X15157865Y-13823834D02*
X15148341Y-13814310D01*
X15148341Y-13814310D02*
X15157865Y-13804786D01*
X15157865Y-13804786D02*
X15157865Y-13823834D01*
X15291198Y-13623834D02*
X15310246Y-13623834D01*
X15310246Y-13623834D02*
X15329294Y-13633358D01*
X15329294Y-13633358D02*
X15338817Y-13642881D01*
X15338817Y-13642881D02*
X15348341Y-13661929D01*
X15348341Y-13661929D02*
X15357865Y-13700024D01*
X15357865Y-13700024D02*
X15357865Y-13747643D01*
X15357865Y-13747643D02*
X15348341Y-13785738D01*
X15348341Y-13785738D02*
X15338817Y-13804786D01*
X15338817Y-13804786D02*
X15329294Y-13814310D01*
X15329294Y-13814310D02*
X15310246Y-13823834D01*
X15310246Y-13823834D02*
X15291198Y-13823834D01*
X15291198Y-13823834D02*
X15272151Y-13814310D01*
X15272151Y-13814310D02*
X15262627Y-13804786D01*
X15262627Y-13804786D02*
X15253103Y-13785738D01*
X15253103Y-13785738D02*
X15243579Y-13747643D01*
X15243579Y-13747643D02*
X15243579Y-13700024D01*
X15243579Y-13700024D02*
X15253103Y-13661929D01*
X15253103Y-13661929D02*
X15262627Y-13642881D01*
X15262627Y-13642881D02*
X15272151Y-13633358D01*
X15272151Y-13633358D02*
X15291198Y-13623834D01*
X15424532Y-13623834D02*
X15548341Y-13623834D01*
X15548341Y-13623834D02*
X15481675Y-13700024D01*
X15481675Y-13700024D02*
X15510246Y-13700024D01*
X15510246Y-13700024D02*
X15529294Y-13709548D01*
X15529294Y-13709548D02*
X15538817Y-13719072D01*
X15538817Y-13719072D02*
X15548341Y-13738119D01*
X15548341Y-13738119D02*
X15548341Y-13785738D01*
X15548341Y-13785738D02*
X15538817Y-13804786D01*
X15538817Y-13804786D02*
X15529294Y-13814310D01*
X15529294Y-13814310D02*
X15510246Y-13823834D01*
X15510246Y-13823834D02*
X15453103Y-13823834D01*
X15453103Y-13823834D02*
X15434056Y-13814310D01*
X15434056Y-13814310D02*
X15424532Y-13804786D01*
X15738817Y-13823834D02*
X15624532Y-13823834D01*
X15681675Y-13823834D02*
X15681675Y-13623834D01*
X15681675Y-13623834D02*
X15662627Y-13652405D01*
X15662627Y-13652405D02*
X15643579Y-13671453D01*
X15643579Y-13671453D02*
X15624532Y-13680977D01*
X15919770Y-13623834D02*
X15824532Y-13623834D01*
X15824532Y-13623834D02*
X15815008Y-13719072D01*
X15815008Y-13719072D02*
X15824532Y-13709548D01*
X15824532Y-13709548D02*
X15843579Y-13700024D01*
X15843579Y-13700024D02*
X15891198Y-13700024D01*
X15891198Y-13700024D02*
X15910246Y-13709548D01*
X15910246Y-13709548D02*
X15919770Y-13719072D01*
X15919770Y-13719072D02*
X15929294Y-13738119D01*
X15929294Y-13738119D02*
X15929294Y-13785738D01*
X15929294Y-13785738D02*
X15919770Y-13804786D01*
X15919770Y-13804786D02*
X15910246Y-13814310D01*
X15910246Y-13814310D02*
X15891198Y-13823834D01*
X15891198Y-13823834D02*
X15843579Y-13823834D01*
X15843579Y-13823834D02*
X15824532Y-13814310D01*
X15824532Y-13814310D02*
X15815008Y-13804786D01*
X16005484Y-13623834D02*
X16005484Y-13661929D01*
X16081675Y-13623834D02*
X16081675Y-13661929D01*
X16376913Y-13900024D02*
X16367389Y-13890500D01*
X16367389Y-13890500D02*
X16348341Y-13861929D01*
X16348341Y-13861929D02*
X16338818Y-13842881D01*
X16338818Y-13842881D02*
X16329294Y-13814310D01*
X16329294Y-13814310D02*
X16319770Y-13766691D01*
X16319770Y-13766691D02*
X16319770Y-13728596D01*
X16319770Y-13728596D02*
X16329294Y-13680977D01*
X16329294Y-13680977D02*
X16338818Y-13652405D01*
X16338818Y-13652405D02*
X16348341Y-13633358D01*
X16348341Y-13633358D02*
X16367389Y-13604786D01*
X16367389Y-13604786D02*
X16376913Y-13595262D01*
X16443579Y-13642881D02*
X16453103Y-13633358D01*
X16453103Y-13633358D02*
X16472151Y-13623834D01*
X16472151Y-13623834D02*
X16519770Y-13623834D01*
X16519770Y-13623834D02*
X16538818Y-13633358D01*
X16538818Y-13633358D02*
X16548341Y-13642881D01*
X16548341Y-13642881D02*
X16557865Y-13661929D01*
X16557865Y-13661929D02*
X16557865Y-13680977D01*
X16557865Y-13680977D02*
X16548341Y-13709548D01*
X16548341Y-13709548D02*
X16434056Y-13823834D01*
X16434056Y-13823834D02*
X16557865Y-13823834D01*
X16795961Y-13823834D02*
X16795961Y-13623834D01*
X16881675Y-13823834D02*
X16881675Y-13719072D01*
X16881675Y-13719072D02*
X16872151Y-13700024D01*
X16872151Y-13700024D02*
X16853103Y-13690500D01*
X16853103Y-13690500D02*
X16824532Y-13690500D01*
X16824532Y-13690500D02*
X16805484Y-13700024D01*
X16805484Y-13700024D02*
X16795961Y-13709548D01*
X17005484Y-13823834D02*
X16986437Y-13814310D01*
X16986437Y-13814310D02*
X16976913Y-13804786D01*
X16976913Y-13804786D02*
X16967389Y-13785738D01*
X16967389Y-13785738D02*
X16967389Y-13728596D01*
X16967389Y-13728596D02*
X16976913Y-13709548D01*
X16976913Y-13709548D02*
X16986437Y-13700024D01*
X16986437Y-13700024D02*
X17005484Y-13690500D01*
X17005484Y-13690500D02*
X17034056Y-13690500D01*
X17034056Y-13690500D02*
X17053103Y-13700024D01*
X17053103Y-13700024D02*
X17062627Y-13709548D01*
X17062627Y-13709548D02*
X17072151Y-13728596D01*
X17072151Y-13728596D02*
X17072151Y-13785738D01*
X17072151Y-13785738D02*
X17062627Y-13804786D01*
X17062627Y-13804786D02*
X17053103Y-13814310D01*
X17053103Y-13814310D02*
X17034056Y-13823834D01*
X17034056Y-13823834D02*
X17005484Y-13823834D01*
X17186437Y-13823834D02*
X17167389Y-13814310D01*
X17167389Y-13814310D02*
X17157865Y-13795262D01*
X17157865Y-13795262D02*
X17157865Y-13623834D01*
X17338818Y-13814310D02*
X17319770Y-13823834D01*
X17319770Y-13823834D02*
X17281675Y-13823834D01*
X17281675Y-13823834D02*
X17262627Y-13814310D01*
X17262627Y-13814310D02*
X17253103Y-13795262D01*
X17253103Y-13795262D02*
X17253103Y-13719072D01*
X17253103Y-13719072D02*
X17262627Y-13700024D01*
X17262627Y-13700024D02*
X17281675Y-13690500D01*
X17281675Y-13690500D02*
X17319770Y-13690500D01*
X17319770Y-13690500D02*
X17338818Y-13700024D01*
X17338818Y-13700024D02*
X17348342Y-13719072D01*
X17348342Y-13719072D02*
X17348342Y-13738119D01*
X17348342Y-13738119D02*
X17253103Y-13757167D01*
X17424532Y-13814310D02*
X17443580Y-13823834D01*
X17443580Y-13823834D02*
X17481675Y-13823834D01*
X17481675Y-13823834D02*
X17500723Y-13814310D01*
X17500723Y-13814310D02*
X17510246Y-13795262D01*
X17510246Y-13795262D02*
X17510246Y-13785738D01*
X17510246Y-13785738D02*
X17500723Y-13766691D01*
X17500723Y-13766691D02*
X17481675Y-13757167D01*
X17481675Y-13757167D02*
X17453103Y-13757167D01*
X17453103Y-13757167D02*
X17434056Y-13747643D01*
X17434056Y-13747643D02*
X17424532Y-13728596D01*
X17424532Y-13728596D02*
X17424532Y-13719072D01*
X17424532Y-13719072D02*
X17434056Y-13700024D01*
X17434056Y-13700024D02*
X17453103Y-13690500D01*
X17453103Y-13690500D02*
X17481675Y-13690500D01*
X17481675Y-13690500D02*
X17500723Y-13700024D01*
X17576913Y-13900024D02*
X17586437Y-13890500D01*
X17586437Y-13890500D02*
X17605484Y-13861929D01*
X17605484Y-13861929D02*
X17615008Y-13842881D01*
X17615008Y-13842881D02*
X17624532Y-13814310D01*
X17624532Y-13814310D02*
X17634056Y-13766691D01*
X17634056Y-13766691D02*
X17634056Y-13728596D01*
X17634056Y-13728596D02*
X17624532Y-13680977D01*
X17624532Y-13680977D02*
X17615008Y-13652405D01*
X17615008Y-13652405D02*
X17605484Y-13633358D01*
X17605484Y-13633358D02*
X17586437Y-13604786D01*
X17586437Y-13604786D02*
X17576913Y-13595262D01*
D11*
X12751850Y-14046350D02*
X12801850Y-13996350D01*
X12751850Y-13946350D01*
X12701850Y-13996350D01*
X12751850Y-14046350D01*
D12*
X13167389Y-14087834D02*
X13053103Y-14087834D01*
X13110246Y-14087834D02*
X13110246Y-13887834D01*
X13110246Y-13887834D02*
X13091198Y-13916405D01*
X13091198Y-13916405D02*
X13072151Y-13935453D01*
X13072151Y-13935453D02*
X13053103Y-13944977D01*
X13253103Y-14068786D02*
X13262627Y-14078310D01*
X13262627Y-14078310D02*
X13253103Y-14087834D01*
X13253103Y-14087834D02*
X13243579Y-14078310D01*
X13243579Y-14078310D02*
X13253103Y-14068786D01*
X13253103Y-14068786D02*
X13253103Y-14087834D01*
X13386436Y-13887834D02*
X13405484Y-13887834D01*
X13405484Y-13887834D02*
X13424532Y-13897358D01*
X13424532Y-13897358D02*
X13434055Y-13906881D01*
X13434055Y-13906881D02*
X13443579Y-13925929D01*
X13443579Y-13925929D02*
X13453103Y-13964024D01*
X13453103Y-13964024D02*
X13453103Y-14011643D01*
X13453103Y-14011643D02*
X13443579Y-14049738D01*
X13443579Y-14049738D02*
X13434055Y-14068786D01*
X13434055Y-14068786D02*
X13424532Y-14078310D01*
X13424532Y-14078310D02*
X13405484Y-14087834D01*
X13405484Y-14087834D02*
X13386436Y-14087834D01*
X13386436Y-14087834D02*
X13367389Y-14078310D01*
X13367389Y-14078310D02*
X13357865Y-14068786D01*
X13357865Y-14068786D02*
X13348341Y-14049738D01*
X13348341Y-14049738D02*
X13338817Y-14011643D01*
X13338817Y-14011643D02*
X13338817Y-13964024D01*
X13338817Y-13964024D02*
X13348341Y-13925929D01*
X13348341Y-13925929D02*
X13357865Y-13906881D01*
X13357865Y-13906881D02*
X13367389Y-13897358D01*
X13367389Y-13897358D02*
X13386436Y-13887834D01*
X13576912Y-13887834D02*
X13595960Y-13887834D01*
X13595960Y-13887834D02*
X13615008Y-13897358D01*
X13615008Y-13897358D02*
X13624532Y-13906881D01*
X13624532Y-13906881D02*
X13634055Y-13925929D01*
X13634055Y-13925929D02*
X13643579Y-13964024D01*
X13643579Y-13964024D02*
X13643579Y-14011643D01*
X13643579Y-14011643D02*
X13634055Y-14049738D01*
X13634055Y-14049738D02*
X13624532Y-14068786D01*
X13624532Y-14068786D02*
X13615008Y-14078310D01*
X13615008Y-14078310D02*
X13595960Y-14087834D01*
X13595960Y-14087834D02*
X13576912Y-14087834D01*
X13576912Y-14087834D02*
X13557865Y-14078310D01*
X13557865Y-14078310D02*
X13548341Y-14068786D01*
X13548341Y-14068786D02*
X13538817Y-14049738D01*
X13538817Y-14049738D02*
X13529293Y-14011643D01*
X13529293Y-14011643D02*
X13529293Y-13964024D01*
X13529293Y-13964024D02*
X13538817Y-13925929D01*
X13538817Y-13925929D02*
X13548341Y-13906881D01*
X13548341Y-13906881D02*
X13557865Y-13897358D01*
X13557865Y-13897358D02*
X13576912Y-13887834D01*
X13767389Y-13887834D02*
X13786436Y-13887834D01*
X13786436Y-13887834D02*
X13805484Y-13897358D01*
X13805484Y-13897358D02*
X13815008Y-13906881D01*
X13815008Y-13906881D02*
X13824532Y-13925929D01*
X13824532Y-13925929D02*
X13834055Y-13964024D01*
X13834055Y-13964024D02*
X13834055Y-14011643D01*
X13834055Y-14011643D02*
X13824532Y-14049738D01*
X13824532Y-14049738D02*
X13815008Y-14068786D01*
X13815008Y-14068786D02*
X13805484Y-14078310D01*
X13805484Y-14078310D02*
X13786436Y-14087834D01*
X13786436Y-14087834D02*
X13767389Y-14087834D01*
X13767389Y-14087834D02*
X13748341Y-14078310D01*
X13748341Y-14078310D02*
X13738817Y-14068786D01*
X13738817Y-14068786D02*
X13729293Y-14049738D01*
X13729293Y-14049738D02*
X13719770Y-14011643D01*
X13719770Y-14011643D02*
X13719770Y-13964024D01*
X13719770Y-13964024D02*
X13729293Y-13925929D01*
X13729293Y-13925929D02*
X13738817Y-13906881D01*
X13738817Y-13906881D02*
X13748341Y-13897358D01*
X13748341Y-13897358D02*
X13767389Y-13887834D01*
X13919770Y-14087834D02*
X13919770Y-13954500D01*
X13919770Y-13973548D02*
X13929293Y-13964024D01*
X13929293Y-13964024D02*
X13948341Y-13954500D01*
X13948341Y-13954500D02*
X13976913Y-13954500D01*
X13976913Y-13954500D02*
X13995960Y-13964024D01*
X13995960Y-13964024D02*
X14005484Y-13983072D01*
X14005484Y-13983072D02*
X14005484Y-14087834D01*
X14005484Y-13983072D02*
X14015008Y-13964024D01*
X14015008Y-13964024D02*
X14034055Y-13954500D01*
X14034055Y-13954500D02*
X14062627Y-13954500D01*
X14062627Y-13954500D02*
X14081674Y-13964024D01*
X14081674Y-13964024D02*
X14091198Y-13983072D01*
X14091198Y-13983072D02*
X14091198Y-14087834D01*
X14186436Y-14087834D02*
X14186436Y-13954500D01*
X14186436Y-13973548D02*
X14195960Y-13964024D01*
X14195960Y-13964024D02*
X14215008Y-13954500D01*
X14215008Y-13954500D02*
X14243579Y-13954500D01*
X14243579Y-13954500D02*
X14262627Y-13964024D01*
X14262627Y-13964024D02*
X14272151Y-13983072D01*
X14272151Y-13983072D02*
X14272151Y-14087834D01*
X14272151Y-13983072D02*
X14281674Y-13964024D01*
X14281674Y-13964024D02*
X14300722Y-13954500D01*
X14300722Y-13954500D02*
X14329293Y-13954500D01*
X14329293Y-13954500D02*
X14348341Y-13964024D01*
X14348341Y-13964024D02*
X14357865Y-13983072D01*
X14357865Y-13983072D02*
X14357865Y-14087834D01*
X14748341Y-13878310D02*
X14576913Y-14135453D01*
X15005484Y-13887834D02*
X15024532Y-13887834D01*
X15024532Y-13887834D02*
X15043579Y-13897358D01*
X15043579Y-13897358D02*
X15053103Y-13906881D01*
X15053103Y-13906881D02*
X15062627Y-13925929D01*
X15062627Y-13925929D02*
X15072151Y-13964024D01*
X15072151Y-13964024D02*
X15072151Y-14011643D01*
X15072151Y-14011643D02*
X15062627Y-14049738D01*
X15062627Y-14049738D02*
X15053103Y-14068786D01*
X15053103Y-14068786D02*
X15043579Y-14078310D01*
X15043579Y-14078310D02*
X15024532Y-14087834D01*
X15024532Y-14087834D02*
X15005484Y-14087834D01*
X15005484Y-14087834D02*
X14986436Y-14078310D01*
X14986436Y-14078310D02*
X14976913Y-14068786D01*
X14976913Y-14068786D02*
X14967389Y-14049738D01*
X14967389Y-14049738D02*
X14957865Y-14011643D01*
X14957865Y-14011643D02*
X14957865Y-13964024D01*
X14957865Y-13964024D02*
X14967389Y-13925929D01*
X14967389Y-13925929D02*
X14976913Y-13906881D01*
X14976913Y-13906881D02*
X14986436Y-13897358D01*
X14986436Y-13897358D02*
X15005484Y-13887834D01*
X15157865Y-14068786D02*
X15167389Y-14078310D01*
X15167389Y-14078310D02*
X15157865Y-14087834D01*
X15157865Y-14087834D02*
X15148341Y-14078310D01*
X15148341Y-14078310D02*
X15157865Y-14068786D01*
X15157865Y-14068786D02*
X15157865Y-14087834D01*
X15291198Y-13887834D02*
X15310246Y-13887834D01*
X15310246Y-13887834D02*
X15329294Y-13897358D01*
X15329294Y-13897358D02*
X15338817Y-13906881D01*
X15338817Y-13906881D02*
X15348341Y-13925929D01*
X15348341Y-13925929D02*
X15357865Y-13964024D01*
X15357865Y-13964024D02*
X15357865Y-14011643D01*
X15357865Y-14011643D02*
X15348341Y-14049738D01*
X15348341Y-14049738D02*
X15338817Y-14068786D01*
X15338817Y-14068786D02*
X15329294Y-14078310D01*
X15329294Y-14078310D02*
X15310246Y-14087834D01*
X15310246Y-14087834D02*
X15291198Y-14087834D01*
X15291198Y-14087834D02*
X15272151Y-14078310D01*
X15272151Y-14078310D02*
X15262627Y-14068786D01*
X15262627Y-14068786D02*
X15253103Y-14049738D01*
X15253103Y-14049738D02*
X15243579Y-14011643D01*
X15243579Y-14011643D02*
X15243579Y-13964024D01*
X15243579Y-13964024D02*
X15253103Y-13925929D01*
X15253103Y-13925929D02*
X15262627Y-13906881D01*
X15262627Y-13906881D02*
X15272151Y-13897358D01*
X15272151Y-13897358D02*
X15291198Y-13887834D01*
X15424532Y-13887834D02*
X15548341Y-13887834D01*
X15548341Y-13887834D02*
X15481675Y-13964024D01*
X15481675Y-13964024D02*
X15510246Y-13964024D01*
X15510246Y-13964024D02*
X15529294Y-13973548D01*
X15529294Y-13973548D02*
X15538817Y-13983072D01*
X15538817Y-13983072D02*
X15548341Y-14002119D01*
X15548341Y-14002119D02*
X15548341Y-14049738D01*
X15548341Y-14049738D02*
X15538817Y-14068786D01*
X15538817Y-14068786D02*
X15529294Y-14078310D01*
X15529294Y-14078310D02*
X15510246Y-14087834D01*
X15510246Y-14087834D02*
X15453103Y-14087834D01*
X15453103Y-14087834D02*
X15434056Y-14078310D01*
X15434056Y-14078310D02*
X15424532Y-14068786D01*
X15643579Y-14087834D02*
X15681675Y-14087834D01*
X15681675Y-14087834D02*
X15700722Y-14078310D01*
X15700722Y-14078310D02*
X15710246Y-14068786D01*
X15710246Y-14068786D02*
X15729294Y-14040215D01*
X15729294Y-14040215D02*
X15738817Y-14002119D01*
X15738817Y-14002119D02*
X15738817Y-13925929D01*
X15738817Y-13925929D02*
X15729294Y-13906881D01*
X15729294Y-13906881D02*
X15719770Y-13897358D01*
X15719770Y-13897358D02*
X15700722Y-13887834D01*
X15700722Y-13887834D02*
X15662627Y-13887834D01*
X15662627Y-13887834D02*
X15643579Y-13897358D01*
X15643579Y-13897358D02*
X15634056Y-13906881D01*
X15634056Y-13906881D02*
X15624532Y-13925929D01*
X15624532Y-13925929D02*
X15624532Y-13973548D01*
X15624532Y-13973548D02*
X15634056Y-13992596D01*
X15634056Y-13992596D02*
X15643579Y-14002119D01*
X15643579Y-14002119D02*
X15662627Y-14011643D01*
X15662627Y-14011643D02*
X15700722Y-14011643D01*
X15700722Y-14011643D02*
X15719770Y-14002119D01*
X15719770Y-14002119D02*
X15729294Y-13992596D01*
X15729294Y-13992596D02*
X15738817Y-13973548D01*
X15910246Y-13954500D02*
X15910246Y-14087834D01*
X15862627Y-13878310D02*
X15815008Y-14021167D01*
X15815008Y-14021167D02*
X15938817Y-14021167D01*
X16005484Y-13887834D02*
X16005484Y-13925929D01*
X16081675Y-13887834D02*
X16081675Y-13925929D01*
X16376913Y-14164024D02*
X16367389Y-14154500D01*
X16367389Y-14154500D02*
X16348341Y-14125929D01*
X16348341Y-14125929D02*
X16338818Y-14106881D01*
X16338818Y-14106881D02*
X16329294Y-14078310D01*
X16329294Y-14078310D02*
X16319770Y-14030691D01*
X16319770Y-14030691D02*
X16319770Y-13992596D01*
X16319770Y-13992596D02*
X16329294Y-13944977D01*
X16329294Y-13944977D02*
X16338818Y-13916405D01*
X16338818Y-13916405D02*
X16348341Y-13897358D01*
X16348341Y-13897358D02*
X16367389Y-13868786D01*
X16367389Y-13868786D02*
X16376913Y-13859262D01*
X16434056Y-13887834D02*
X16567389Y-13887834D01*
X16567389Y-13887834D02*
X16481675Y-14087834D01*
X16795961Y-14087834D02*
X16795961Y-13887834D01*
X16881675Y-14087834D02*
X16881675Y-13983072D01*
X16881675Y-13983072D02*
X16872151Y-13964024D01*
X16872151Y-13964024D02*
X16853103Y-13954500D01*
X16853103Y-13954500D02*
X16824532Y-13954500D01*
X16824532Y-13954500D02*
X16805484Y-13964024D01*
X16805484Y-13964024D02*
X16795961Y-13973548D01*
X17005484Y-14087834D02*
X16986437Y-14078310D01*
X16986437Y-14078310D02*
X16976913Y-14068786D01*
X16976913Y-14068786D02*
X16967389Y-14049738D01*
X16967389Y-14049738D02*
X16967389Y-13992596D01*
X16967389Y-13992596D02*
X16976913Y-13973548D01*
X16976913Y-13973548D02*
X16986437Y-13964024D01*
X16986437Y-13964024D02*
X17005484Y-13954500D01*
X17005484Y-13954500D02*
X17034056Y-13954500D01*
X17034056Y-13954500D02*
X17053103Y-13964024D01*
X17053103Y-13964024D02*
X17062627Y-13973548D01*
X17062627Y-13973548D02*
X17072151Y-13992596D01*
X17072151Y-13992596D02*
X17072151Y-14049738D01*
X17072151Y-14049738D02*
X17062627Y-14068786D01*
X17062627Y-14068786D02*
X17053103Y-14078310D01*
X17053103Y-14078310D02*
X17034056Y-14087834D01*
X17034056Y-14087834D02*
X17005484Y-14087834D01*
X17186437Y-14087834D02*
X17167389Y-14078310D01*
X17167389Y-14078310D02*
X17157865Y-14059262D01*
X17157865Y-14059262D02*
X17157865Y-13887834D01*
X17338818Y-14078310D02*
X17319770Y-14087834D01*
X17319770Y-14087834D02*
X17281675Y-14087834D01*
X17281675Y-14087834D02*
X17262627Y-14078310D01*
X17262627Y-14078310D02*
X17253103Y-14059262D01*
X17253103Y-14059262D02*
X17253103Y-13983072D01*
X17253103Y-13983072D02*
X17262627Y-13964024D01*
X17262627Y-13964024D02*
X17281675Y-13954500D01*
X17281675Y-13954500D02*
X17319770Y-13954500D01*
X17319770Y-13954500D02*
X17338818Y-13964024D01*
X17338818Y-13964024D02*
X17348342Y-13983072D01*
X17348342Y-13983072D02*
X17348342Y-14002119D01*
X17348342Y-14002119D02*
X17253103Y-14021167D01*
X17424532Y-14078310D02*
X17443580Y-14087834D01*
X17443580Y-14087834D02*
X17481675Y-14087834D01*
X17481675Y-14087834D02*
X17500723Y-14078310D01*
X17500723Y-14078310D02*
X17510246Y-14059262D01*
X17510246Y-14059262D02*
X17510246Y-14049738D01*
X17510246Y-14049738D02*
X17500723Y-14030691D01*
X17500723Y-14030691D02*
X17481675Y-14021167D01*
X17481675Y-14021167D02*
X17453103Y-14021167D01*
X17453103Y-14021167D02*
X17434056Y-14011643D01*
X17434056Y-14011643D02*
X17424532Y-13992596D01*
X17424532Y-13992596D02*
X17424532Y-13983072D01*
X17424532Y-13983072D02*
X17434056Y-13964024D01*
X17434056Y-13964024D02*
X17453103Y-13954500D01*
X17453103Y-13954500D02*
X17481675Y-13954500D01*
X17481675Y-13954500D02*
X17500723Y-13964024D01*
X17576913Y-14164024D02*
X17586437Y-14154500D01*
X17586437Y-14154500D02*
X17605484Y-14125929D01*
X17605484Y-14125929D02*
X17615008Y-14106881D01*
X17615008Y-14106881D02*
X17624532Y-14078310D01*
X17624532Y-14078310D02*
X17634056Y-14030691D01*
X17634056Y-14030691D02*
X17634056Y-13992596D01*
X17634056Y-13992596D02*
X17624532Y-13944977D01*
X17624532Y-13944977D02*
X17615008Y-13916405D01*
X17615008Y-13916405D02*
X17605484Y-13897358D01*
X17605484Y-13897358D02*
X17586437Y-13868786D01*
X17586437Y-13868786D02*
X17576913Y-13859262D01*
M02*
