G04 #@! TF.GenerationSoftware,KiCad,Pcbnew,7.0.7*
G04 #@! TF.CreationDate,2024-03-29T16:46:10+10:30*
G04 #@! TF.ProjectId,hawk,6861776b-2e6b-4696-9361-645f70636258,1*
G04 #@! TF.SameCoordinates,Original*
G04 #@! TF.FileFunction,Legend,Top*
G04 #@! TF.FilePolarity,Positive*
%FSLAX46Y46*%
G04 Gerber Fmt 4.6, Leading zero omitted, Abs format (unit mm)*
G04 Created by KiCad (PCBNEW 7.0.7) date 2024-03-29 16:46:10*
%MOMM*%
%LPD*%
G01*
G04 APERTURE LIST*
G04 Aperture macros list*
%AMRoundRect*
0 Rectangle with rounded corners*
0 $1 Rounding radius*
0 $2 $3 $4 $5 $6 $7 $8 $9 X,Y pos of 4 corners*
0 Add a 4 corners polygon primitive as box body*
4,1,4,$2,$3,$4,$5,$6,$7,$8,$9,$2,$3,0*
0 Add four circle primitives for the rounded corners*
1,1,$1+$1,$2,$3*
1,1,$1+$1,$4,$5*
1,1,$1+$1,$6,$7*
1,1,$1+$1,$8,$9*
0 Add four rect primitives between the rounded corners*
20,1,$1+$1,$2,$3,$4,$5,0*
20,1,$1+$1,$4,$5,$6,$7,0*
20,1,$1+$1,$6,$7,$8,$9,0*
20,1,$1+$1,$8,$9,$2,$3,0*%
G04 Aperture macros list end*
%ADD10C,0.000000*%
%ADD11C,0.150000*%
%ADD12C,0.300000*%
%ADD13C,0.152400*%
%ADD14C,0.120000*%
%ADD15R,0.550000X0.800000*%
%ADD16O,0.550000X0.800000*%
%ADD17R,0.812800X0.254000*%
%ADD18R,0.254000X0.812800*%
%ADD19R,2.641600X2.641600*%
%ADD20RoundRect,0.237500X-0.237500X0.250000X-0.237500X-0.250000X0.237500X-0.250000X0.237500X0.250000X0*%
%ADD21RoundRect,0.237500X0.300000X0.237500X-0.300000X0.237500X-0.300000X-0.237500X0.300000X-0.237500X0*%
%ADD22RoundRect,0.237500X-0.300000X-0.237500X0.300000X-0.237500X0.300000X0.237500X-0.300000X0.237500X0*%
%ADD23RoundRect,0.237500X0.250000X0.237500X-0.250000X0.237500X-0.250000X-0.237500X0.250000X-0.237500X0*%
%ADD24RoundRect,0.237500X-0.237500X0.300000X-0.237500X-0.300000X0.237500X-0.300000X0.237500X0.300000X0*%
%ADD25R,1.000000X7.000000*%
%ADD26RoundRect,0.237500X0.237500X-0.300000X0.237500X0.300000X-0.237500X0.300000X-0.237500X-0.300000X0*%
%ADD27RoundRect,0.125000X0.125000X0.625000X-0.125000X0.625000X-0.125000X-0.625000X0.125000X-0.625000X0*%
%ADD28RoundRect,0.125000X0.625000X0.125000X-0.625000X0.125000X-0.625000X-0.125000X0.625000X-0.125000X0*%
%ADD29RoundRect,0.237500X0.287500X0.237500X-0.287500X0.237500X-0.287500X-0.237500X0.287500X-0.237500X0*%
%ADD30RoundRect,0.237500X0.237500X-0.250000X0.237500X0.250000X-0.237500X0.250000X-0.237500X-0.250000X0*%
%ADD31R,1.000000X8.000000*%
%ADD32RoundRect,0.237500X-0.250000X-0.237500X0.250000X-0.237500X0.250000X0.237500X-0.250000X0.237500X0*%
%ADD33O,1.700000X1.700000*%
%ADD34R,1.700000X1.700000*%
%ADD35O,1.371600X2.006600*%
%ADD36O,1.100000X2.000000*%
%ADD37C,1.397000*%
G04 APERTURE END LIST*
D10*
G36*
X149354500Y-91501000D02*
G01*
X148592500Y-91628000D01*
X147830500Y-91501000D01*
X147957500Y-90358000D01*
X149227500Y-90358000D01*
X149354500Y-91501000D01*
G37*
D11*
X163705500Y-106677500D02*
G75*
G03*
X163705500Y-106677500I-127000J0D01*
G01*
G36*
X147830500Y-89469000D02*
G01*
X149354500Y-89469000D01*
X149354500Y-90358000D01*
X147830500Y-90358000D01*
X147830500Y-89469000D01*
G37*
G36*
X147576500Y-84389000D02*
G01*
X149608500Y-84389000D01*
X149608500Y-86929000D01*
X147576500Y-86929000D01*
X147576500Y-84389000D01*
G37*
X135003500Y-102359500D02*
G75*
G03*
X135003500Y-102359500I-127000J0D01*
G01*
G36*
X147830500Y-87183000D02*
G01*
X149354500Y-87183000D01*
X149354500Y-88072000D01*
X147830500Y-88072000D01*
X147830500Y-87183000D01*
G37*
X158117500Y-108709500D02*
G75*
G03*
X158117500Y-108709500I-127000J0D01*
G01*
G36*
X147830500Y-88326000D02*
G01*
X149354500Y-88326000D01*
X149354500Y-89215000D01*
X147830500Y-89215000D01*
X147830500Y-88326000D01*
G37*
D12*
X138288439Y-83745328D02*
X138288439Y-82602471D01*
X138002725Y-82888185D02*
X138288439Y-82602471D01*
X138288439Y-82602471D02*
X138574153Y-82888185D01*
D11*
X159110024Y-88173319D02*
X159110024Y-87173319D01*
X159586214Y-87506652D02*
X159586214Y-88173319D01*
X159586214Y-87601890D02*
X159633833Y-87554271D01*
X159633833Y-87554271D02*
X159729071Y-87506652D01*
X159729071Y-87506652D02*
X159871928Y-87506652D01*
X159871928Y-87506652D02*
X159967166Y-87554271D01*
X159967166Y-87554271D02*
X160014785Y-87649509D01*
X160014785Y-87649509D02*
X160014785Y-88173319D01*
X160443357Y-88125700D02*
X160538595Y-88173319D01*
X160538595Y-88173319D02*
X160729071Y-88173319D01*
X160729071Y-88173319D02*
X160824309Y-88125700D01*
X160824309Y-88125700D02*
X160871928Y-88030461D01*
X160871928Y-88030461D02*
X160871928Y-87982842D01*
X160871928Y-87982842D02*
X160824309Y-87887604D01*
X160824309Y-87887604D02*
X160729071Y-87839985D01*
X160729071Y-87839985D02*
X160586214Y-87839985D01*
X160586214Y-87839985D02*
X160490976Y-87792366D01*
X160490976Y-87792366D02*
X160443357Y-87697128D01*
X160443357Y-87697128D02*
X160443357Y-87649509D01*
X160443357Y-87649509D02*
X160490976Y-87554271D01*
X160490976Y-87554271D02*
X160586214Y-87506652D01*
X160586214Y-87506652D02*
X160729071Y-87506652D01*
X160729071Y-87506652D02*
X160824309Y-87554271D01*
X161300500Y-88173319D02*
X161300500Y-87506652D01*
X161300500Y-87173319D02*
X161252881Y-87220938D01*
X161252881Y-87220938D02*
X161300500Y-87268557D01*
X161300500Y-87268557D02*
X161348119Y-87220938D01*
X161348119Y-87220938D02*
X161300500Y-87173319D01*
X161300500Y-87173319D02*
X161300500Y-87268557D01*
X162205261Y-87506652D02*
X162205261Y-88316176D01*
X162205261Y-88316176D02*
X162157642Y-88411414D01*
X162157642Y-88411414D02*
X162110023Y-88459033D01*
X162110023Y-88459033D02*
X162014785Y-88506652D01*
X162014785Y-88506652D02*
X161871928Y-88506652D01*
X161871928Y-88506652D02*
X161776690Y-88459033D01*
X162205261Y-88125700D02*
X162110023Y-88173319D01*
X162110023Y-88173319D02*
X161919547Y-88173319D01*
X161919547Y-88173319D02*
X161824309Y-88125700D01*
X161824309Y-88125700D02*
X161776690Y-88078080D01*
X161776690Y-88078080D02*
X161729071Y-87982842D01*
X161729071Y-87982842D02*
X161729071Y-87697128D01*
X161729071Y-87697128D02*
X161776690Y-87601890D01*
X161776690Y-87601890D02*
X161824309Y-87554271D01*
X161824309Y-87554271D02*
X161919547Y-87506652D01*
X161919547Y-87506652D02*
X162110023Y-87506652D01*
X162110023Y-87506652D02*
X162205261Y-87554271D01*
X162681452Y-87506652D02*
X162681452Y-88173319D01*
X162681452Y-87601890D02*
X162729071Y-87554271D01*
X162729071Y-87554271D02*
X162824309Y-87506652D01*
X162824309Y-87506652D02*
X162967166Y-87506652D01*
X162967166Y-87506652D02*
X163062404Y-87554271D01*
X163062404Y-87554271D02*
X163110023Y-87649509D01*
X163110023Y-87649509D02*
X163110023Y-88173319D01*
X163586214Y-88173319D02*
X163586214Y-87506652D01*
X163586214Y-87173319D02*
X163538595Y-87220938D01*
X163538595Y-87220938D02*
X163586214Y-87268557D01*
X163586214Y-87268557D02*
X163633833Y-87220938D01*
X163633833Y-87220938D02*
X163586214Y-87173319D01*
X163586214Y-87173319D02*
X163586214Y-87268557D01*
X164490975Y-88173319D02*
X164490975Y-87649509D01*
X164490975Y-87649509D02*
X164443356Y-87554271D01*
X164443356Y-87554271D02*
X164348118Y-87506652D01*
X164348118Y-87506652D02*
X164157642Y-87506652D01*
X164157642Y-87506652D02*
X164062404Y-87554271D01*
X164490975Y-88125700D02*
X164395737Y-88173319D01*
X164395737Y-88173319D02*
X164157642Y-88173319D01*
X164157642Y-88173319D02*
X164062404Y-88125700D01*
X164062404Y-88125700D02*
X164014785Y-88030461D01*
X164014785Y-88030461D02*
X164014785Y-87935223D01*
X164014785Y-87935223D02*
X164062404Y-87839985D01*
X164062404Y-87839985D02*
X164157642Y-87792366D01*
X164157642Y-87792366D02*
X164395737Y-87792366D01*
X164395737Y-87792366D02*
X164490975Y-87744747D01*
X158419547Y-89688080D02*
X158371928Y-89735700D01*
X158371928Y-89735700D02*
X158229071Y-89783319D01*
X158229071Y-89783319D02*
X158133833Y-89783319D01*
X158133833Y-89783319D02*
X157990976Y-89735700D01*
X157990976Y-89735700D02*
X157895738Y-89640461D01*
X157895738Y-89640461D02*
X157848119Y-89545223D01*
X157848119Y-89545223D02*
X157800500Y-89354747D01*
X157800500Y-89354747D02*
X157800500Y-89211890D01*
X157800500Y-89211890D02*
X157848119Y-89021414D01*
X157848119Y-89021414D02*
X157895738Y-88926176D01*
X157895738Y-88926176D02*
X157990976Y-88830938D01*
X157990976Y-88830938D02*
X158133833Y-88783319D01*
X158133833Y-88783319D02*
X158229071Y-88783319D01*
X158229071Y-88783319D02*
X158371928Y-88830938D01*
X158371928Y-88830938D02*
X158419547Y-88878557D01*
X158990976Y-89783319D02*
X158895738Y-89735700D01*
X158895738Y-89735700D02*
X158848119Y-89688080D01*
X158848119Y-89688080D02*
X158800500Y-89592842D01*
X158800500Y-89592842D02*
X158800500Y-89307128D01*
X158800500Y-89307128D02*
X158848119Y-89211890D01*
X158848119Y-89211890D02*
X158895738Y-89164271D01*
X158895738Y-89164271D02*
X158990976Y-89116652D01*
X158990976Y-89116652D02*
X159133833Y-89116652D01*
X159133833Y-89116652D02*
X159229071Y-89164271D01*
X159229071Y-89164271D02*
X159276690Y-89211890D01*
X159276690Y-89211890D02*
X159324309Y-89307128D01*
X159324309Y-89307128D02*
X159324309Y-89592842D01*
X159324309Y-89592842D02*
X159276690Y-89688080D01*
X159276690Y-89688080D02*
X159229071Y-89735700D01*
X159229071Y-89735700D02*
X159133833Y-89783319D01*
X159133833Y-89783319D02*
X158990976Y-89783319D01*
X159752881Y-89783319D02*
X159752881Y-89116652D01*
X159752881Y-89211890D02*
X159800500Y-89164271D01*
X159800500Y-89164271D02*
X159895738Y-89116652D01*
X159895738Y-89116652D02*
X160038595Y-89116652D01*
X160038595Y-89116652D02*
X160133833Y-89164271D01*
X160133833Y-89164271D02*
X160181452Y-89259509D01*
X160181452Y-89259509D02*
X160181452Y-89783319D01*
X160181452Y-89259509D02*
X160229071Y-89164271D01*
X160229071Y-89164271D02*
X160324309Y-89116652D01*
X160324309Y-89116652D02*
X160467166Y-89116652D01*
X160467166Y-89116652D02*
X160562405Y-89164271D01*
X160562405Y-89164271D02*
X160610024Y-89259509D01*
X160610024Y-89259509D02*
X160610024Y-89783319D01*
X161086214Y-89116652D02*
X161086214Y-90116652D01*
X161086214Y-89164271D02*
X161181452Y-89116652D01*
X161181452Y-89116652D02*
X161371928Y-89116652D01*
X161371928Y-89116652D02*
X161467166Y-89164271D01*
X161467166Y-89164271D02*
X161514785Y-89211890D01*
X161514785Y-89211890D02*
X161562404Y-89307128D01*
X161562404Y-89307128D02*
X161562404Y-89592842D01*
X161562404Y-89592842D02*
X161514785Y-89688080D01*
X161514785Y-89688080D02*
X161467166Y-89735700D01*
X161467166Y-89735700D02*
X161371928Y-89783319D01*
X161371928Y-89783319D02*
X161181452Y-89783319D01*
X161181452Y-89783319D02*
X161086214Y-89735700D01*
X162419547Y-89783319D02*
X162419547Y-89259509D01*
X162419547Y-89259509D02*
X162371928Y-89164271D01*
X162371928Y-89164271D02*
X162276690Y-89116652D01*
X162276690Y-89116652D02*
X162086214Y-89116652D01*
X162086214Y-89116652D02*
X161990976Y-89164271D01*
X162419547Y-89735700D02*
X162324309Y-89783319D01*
X162324309Y-89783319D02*
X162086214Y-89783319D01*
X162086214Y-89783319D02*
X161990976Y-89735700D01*
X161990976Y-89735700D02*
X161943357Y-89640461D01*
X161943357Y-89640461D02*
X161943357Y-89545223D01*
X161943357Y-89545223D02*
X161990976Y-89449985D01*
X161990976Y-89449985D02*
X162086214Y-89402366D01*
X162086214Y-89402366D02*
X162324309Y-89402366D01*
X162324309Y-89402366D02*
X162419547Y-89354747D01*
X162752881Y-89116652D02*
X163133833Y-89116652D01*
X162895738Y-88783319D02*
X162895738Y-89640461D01*
X162895738Y-89640461D02*
X162943357Y-89735700D01*
X162943357Y-89735700D02*
X163038595Y-89783319D01*
X163038595Y-89783319D02*
X163133833Y-89783319D01*
X163467167Y-89783319D02*
X163467167Y-89116652D01*
X163467167Y-88783319D02*
X163419548Y-88830938D01*
X163419548Y-88830938D02*
X163467167Y-88878557D01*
X163467167Y-88878557D02*
X163514786Y-88830938D01*
X163514786Y-88830938D02*
X163467167Y-88783319D01*
X163467167Y-88783319D02*
X163467167Y-88878557D01*
X163943357Y-89783319D02*
X163943357Y-88783319D01*
X163943357Y-89164271D02*
X164038595Y-89116652D01*
X164038595Y-89116652D02*
X164229071Y-89116652D01*
X164229071Y-89116652D02*
X164324309Y-89164271D01*
X164324309Y-89164271D02*
X164371928Y-89211890D01*
X164371928Y-89211890D02*
X164419547Y-89307128D01*
X164419547Y-89307128D02*
X164419547Y-89592842D01*
X164419547Y-89592842D02*
X164371928Y-89688080D01*
X164371928Y-89688080D02*
X164324309Y-89735700D01*
X164324309Y-89735700D02*
X164229071Y-89783319D01*
X164229071Y-89783319D02*
X164038595Y-89783319D01*
X164038595Y-89783319D02*
X163943357Y-89735700D01*
X164990976Y-89783319D02*
X164895738Y-89735700D01*
X164895738Y-89735700D02*
X164848119Y-89640461D01*
X164848119Y-89640461D02*
X164848119Y-88783319D01*
X165752881Y-89735700D02*
X165657643Y-89783319D01*
X165657643Y-89783319D02*
X165467167Y-89783319D01*
X165467167Y-89783319D02*
X165371929Y-89735700D01*
X165371929Y-89735700D02*
X165324310Y-89640461D01*
X165324310Y-89640461D02*
X165324310Y-89259509D01*
X165324310Y-89259509D02*
X165371929Y-89164271D01*
X165371929Y-89164271D02*
X165467167Y-89116652D01*
X165467167Y-89116652D02*
X165657643Y-89116652D01*
X165657643Y-89116652D02*
X165752881Y-89164271D01*
X165752881Y-89164271D02*
X165800500Y-89259509D01*
X165800500Y-89259509D02*
X165800500Y-89354747D01*
X165800500Y-89354747D02*
X165324310Y-89449985D01*
X158498595Y-110196319D02*
X158498595Y-111005842D01*
X158498595Y-111005842D02*
X158546214Y-111101080D01*
X158546214Y-111101080D02*
X158593833Y-111148700D01*
X158593833Y-111148700D02*
X158689071Y-111196319D01*
X158689071Y-111196319D02*
X158879547Y-111196319D01*
X158879547Y-111196319D02*
X158974785Y-111148700D01*
X158974785Y-111148700D02*
X159022404Y-111101080D01*
X159022404Y-111101080D02*
X159070023Y-111005842D01*
X159070023Y-111005842D02*
X159070023Y-110196319D01*
X160070023Y-111196319D02*
X159498595Y-111196319D01*
X159784309Y-111196319D02*
X159784309Y-110196319D01*
X159784309Y-110196319D02*
X159689071Y-110339176D01*
X159689071Y-110339176D02*
X159593833Y-110434414D01*
X159593833Y-110434414D02*
X159498595Y-110482033D01*
X140718595Y-102068319D02*
X140718595Y-102877842D01*
X140718595Y-102877842D02*
X140766214Y-102973080D01*
X140766214Y-102973080D02*
X140813833Y-103020700D01*
X140813833Y-103020700D02*
X140909071Y-103068319D01*
X140909071Y-103068319D02*
X141099547Y-103068319D01*
X141099547Y-103068319D02*
X141194785Y-103020700D01*
X141194785Y-103020700D02*
X141242404Y-102973080D01*
X141242404Y-102973080D02*
X141290023Y-102877842D01*
X141290023Y-102877842D02*
X141290023Y-102068319D01*
X141670976Y-102068319D02*
X142290023Y-102068319D01*
X142290023Y-102068319D02*
X141956690Y-102449271D01*
X141956690Y-102449271D02*
X142099547Y-102449271D01*
X142099547Y-102449271D02*
X142194785Y-102496890D01*
X142194785Y-102496890D02*
X142242404Y-102544509D01*
X142242404Y-102544509D02*
X142290023Y-102639747D01*
X142290023Y-102639747D02*
X142290023Y-102877842D01*
X142290023Y-102877842D02*
X142242404Y-102973080D01*
X142242404Y-102973080D02*
X142194785Y-103020700D01*
X142194785Y-103020700D02*
X142099547Y-103068319D01*
X142099547Y-103068319D02*
X141813833Y-103068319D01*
X141813833Y-103068319D02*
X141718595Y-103020700D01*
X141718595Y-103020700D02*
X141670976Y-102973080D01*
X144475319Y-112178166D02*
X143999128Y-112511499D01*
X144475319Y-112749594D02*
X143475319Y-112749594D01*
X143475319Y-112749594D02*
X143475319Y-112368642D01*
X143475319Y-112368642D02*
X143522938Y-112273404D01*
X143522938Y-112273404D02*
X143570557Y-112225785D01*
X143570557Y-112225785D02*
X143665795Y-112178166D01*
X143665795Y-112178166D02*
X143808652Y-112178166D01*
X143808652Y-112178166D02*
X143903890Y-112225785D01*
X143903890Y-112225785D02*
X143951509Y-112273404D01*
X143951509Y-112273404D02*
X143999128Y-112368642D01*
X143999128Y-112368642D02*
X143999128Y-112749594D01*
X143570557Y-111797213D02*
X143522938Y-111749594D01*
X143522938Y-111749594D02*
X143475319Y-111654356D01*
X143475319Y-111654356D02*
X143475319Y-111416261D01*
X143475319Y-111416261D02*
X143522938Y-111321023D01*
X143522938Y-111321023D02*
X143570557Y-111273404D01*
X143570557Y-111273404D02*
X143665795Y-111225785D01*
X143665795Y-111225785D02*
X143761033Y-111225785D01*
X143761033Y-111225785D02*
X143903890Y-111273404D01*
X143903890Y-111273404D02*
X144475319Y-111844832D01*
X144475319Y-111844832D02*
X144475319Y-111225785D01*
X156934833Y-113801080D02*
X156887214Y-113848700D01*
X156887214Y-113848700D02*
X156744357Y-113896319D01*
X156744357Y-113896319D02*
X156649119Y-113896319D01*
X156649119Y-113896319D02*
X156506262Y-113848700D01*
X156506262Y-113848700D02*
X156411024Y-113753461D01*
X156411024Y-113753461D02*
X156363405Y-113658223D01*
X156363405Y-113658223D02*
X156315786Y-113467747D01*
X156315786Y-113467747D02*
X156315786Y-113324890D01*
X156315786Y-113324890D02*
X156363405Y-113134414D01*
X156363405Y-113134414D02*
X156411024Y-113039176D01*
X156411024Y-113039176D02*
X156506262Y-112943938D01*
X156506262Y-112943938D02*
X156649119Y-112896319D01*
X156649119Y-112896319D02*
X156744357Y-112896319D01*
X156744357Y-112896319D02*
X156887214Y-112943938D01*
X156887214Y-112943938D02*
X156934833Y-112991557D01*
X157791976Y-112896319D02*
X157601500Y-112896319D01*
X157601500Y-112896319D02*
X157506262Y-112943938D01*
X157506262Y-112943938D02*
X157458643Y-112991557D01*
X157458643Y-112991557D02*
X157363405Y-113134414D01*
X157363405Y-113134414D02*
X157315786Y-113324890D01*
X157315786Y-113324890D02*
X157315786Y-113705842D01*
X157315786Y-113705842D02*
X157363405Y-113801080D01*
X157363405Y-113801080D02*
X157411024Y-113848700D01*
X157411024Y-113848700D02*
X157506262Y-113896319D01*
X157506262Y-113896319D02*
X157696738Y-113896319D01*
X157696738Y-113896319D02*
X157791976Y-113848700D01*
X157791976Y-113848700D02*
X157839595Y-113801080D01*
X157839595Y-113801080D02*
X157887214Y-113705842D01*
X157887214Y-113705842D02*
X157887214Y-113467747D01*
X157887214Y-113467747D02*
X157839595Y-113372509D01*
X157839595Y-113372509D02*
X157791976Y-113324890D01*
X157791976Y-113324890D02*
X157696738Y-113277271D01*
X157696738Y-113277271D02*
X157506262Y-113277271D01*
X157506262Y-113277271D02*
X157411024Y-113324890D01*
X157411024Y-113324890D02*
X157363405Y-113372509D01*
X157363405Y-113372509D02*
X157315786Y-113467747D01*
X164173833Y-114149080D02*
X164126214Y-114196700D01*
X164126214Y-114196700D02*
X163983357Y-114244319D01*
X163983357Y-114244319D02*
X163888119Y-114244319D01*
X163888119Y-114244319D02*
X163745262Y-114196700D01*
X163745262Y-114196700D02*
X163650024Y-114101461D01*
X163650024Y-114101461D02*
X163602405Y-114006223D01*
X163602405Y-114006223D02*
X163554786Y-113815747D01*
X163554786Y-113815747D02*
X163554786Y-113672890D01*
X163554786Y-113672890D02*
X163602405Y-113482414D01*
X163602405Y-113482414D02*
X163650024Y-113387176D01*
X163650024Y-113387176D02*
X163745262Y-113291938D01*
X163745262Y-113291938D02*
X163888119Y-113244319D01*
X163888119Y-113244319D02*
X163983357Y-113244319D01*
X163983357Y-113244319D02*
X164126214Y-113291938D01*
X164126214Y-113291938D02*
X164173833Y-113339557D01*
X165126214Y-114244319D02*
X164554786Y-114244319D01*
X164840500Y-114244319D02*
X164840500Y-113244319D01*
X164840500Y-113244319D02*
X164745262Y-113387176D01*
X164745262Y-113387176D02*
X164650024Y-113482414D01*
X164650024Y-113482414D02*
X164554786Y-113530033D01*
X145631833Y-105100319D02*
X145298500Y-104624128D01*
X145060405Y-105100319D02*
X145060405Y-104100319D01*
X145060405Y-104100319D02*
X145441357Y-104100319D01*
X145441357Y-104100319D02*
X145536595Y-104147938D01*
X145536595Y-104147938D02*
X145584214Y-104195557D01*
X145584214Y-104195557D02*
X145631833Y-104290795D01*
X145631833Y-104290795D02*
X145631833Y-104433652D01*
X145631833Y-104433652D02*
X145584214Y-104528890D01*
X145584214Y-104528890D02*
X145536595Y-104576509D01*
X145536595Y-104576509D02*
X145441357Y-104624128D01*
X145441357Y-104624128D02*
X145060405Y-104624128D01*
X146488976Y-104433652D02*
X146488976Y-105100319D01*
X146250881Y-104052700D02*
X146012786Y-104766985D01*
X146012786Y-104766985D02*
X146631833Y-104766985D01*
X143110080Y-99224166D02*
X143157700Y-99271785D01*
X143157700Y-99271785D02*
X143205319Y-99414642D01*
X143205319Y-99414642D02*
X143205319Y-99509880D01*
X143205319Y-99509880D02*
X143157700Y-99652737D01*
X143157700Y-99652737D02*
X143062461Y-99747975D01*
X143062461Y-99747975D02*
X142967223Y-99795594D01*
X142967223Y-99795594D02*
X142776747Y-99843213D01*
X142776747Y-99843213D02*
X142633890Y-99843213D01*
X142633890Y-99843213D02*
X142443414Y-99795594D01*
X142443414Y-99795594D02*
X142348176Y-99747975D01*
X142348176Y-99747975D02*
X142252938Y-99652737D01*
X142252938Y-99652737D02*
X142205319Y-99509880D01*
X142205319Y-99509880D02*
X142205319Y-99414642D01*
X142205319Y-99414642D02*
X142252938Y-99271785D01*
X142252938Y-99271785D02*
X142300557Y-99224166D01*
X142633890Y-98652737D02*
X142586271Y-98747975D01*
X142586271Y-98747975D02*
X142538652Y-98795594D01*
X142538652Y-98795594D02*
X142443414Y-98843213D01*
X142443414Y-98843213D02*
X142395795Y-98843213D01*
X142395795Y-98843213D02*
X142300557Y-98795594D01*
X142300557Y-98795594D02*
X142252938Y-98747975D01*
X142252938Y-98747975D02*
X142205319Y-98652737D01*
X142205319Y-98652737D02*
X142205319Y-98462261D01*
X142205319Y-98462261D02*
X142252938Y-98367023D01*
X142252938Y-98367023D02*
X142300557Y-98319404D01*
X142300557Y-98319404D02*
X142395795Y-98271785D01*
X142395795Y-98271785D02*
X142443414Y-98271785D01*
X142443414Y-98271785D02*
X142538652Y-98319404D01*
X142538652Y-98319404D02*
X142586271Y-98367023D01*
X142586271Y-98367023D02*
X142633890Y-98462261D01*
X142633890Y-98462261D02*
X142633890Y-98652737D01*
X142633890Y-98652737D02*
X142681509Y-98747975D01*
X142681509Y-98747975D02*
X142729128Y-98795594D01*
X142729128Y-98795594D02*
X142824366Y-98843213D01*
X142824366Y-98843213D02*
X143014842Y-98843213D01*
X143014842Y-98843213D02*
X143110080Y-98795594D01*
X143110080Y-98795594D02*
X143157700Y-98747975D01*
X143157700Y-98747975D02*
X143205319Y-98652737D01*
X143205319Y-98652737D02*
X143205319Y-98462261D01*
X143205319Y-98462261D02*
X143157700Y-98367023D01*
X143157700Y-98367023D02*
X143110080Y-98319404D01*
X143110080Y-98319404D02*
X143014842Y-98271785D01*
X143014842Y-98271785D02*
X142824366Y-98271785D01*
X142824366Y-98271785D02*
X142729128Y-98319404D01*
X142729128Y-98319404D02*
X142681509Y-98367023D01*
X142681509Y-98367023D02*
X142633890Y-98462261D01*
X158077833Y-99163080D02*
X158030214Y-99210700D01*
X158030214Y-99210700D02*
X157887357Y-99258319D01*
X157887357Y-99258319D02*
X157792119Y-99258319D01*
X157792119Y-99258319D02*
X157649262Y-99210700D01*
X157649262Y-99210700D02*
X157554024Y-99115461D01*
X157554024Y-99115461D02*
X157506405Y-99020223D01*
X157506405Y-99020223D02*
X157458786Y-98829747D01*
X157458786Y-98829747D02*
X157458786Y-98686890D01*
X157458786Y-98686890D02*
X157506405Y-98496414D01*
X157506405Y-98496414D02*
X157554024Y-98401176D01*
X157554024Y-98401176D02*
X157649262Y-98305938D01*
X157649262Y-98305938D02*
X157792119Y-98258319D01*
X157792119Y-98258319D02*
X157887357Y-98258319D01*
X157887357Y-98258319D02*
X158030214Y-98305938D01*
X158030214Y-98305938D02*
X158077833Y-98353557D01*
X158934976Y-98591652D02*
X158934976Y-99258319D01*
X158696881Y-98210700D02*
X158458786Y-98924985D01*
X158458786Y-98924985D02*
X159077833Y-98924985D01*
X164681833Y-112625080D02*
X164634214Y-112672700D01*
X164634214Y-112672700D02*
X164491357Y-112720319D01*
X164491357Y-112720319D02*
X164396119Y-112720319D01*
X164396119Y-112720319D02*
X164253262Y-112672700D01*
X164253262Y-112672700D02*
X164158024Y-112577461D01*
X164158024Y-112577461D02*
X164110405Y-112482223D01*
X164110405Y-112482223D02*
X164062786Y-112291747D01*
X164062786Y-112291747D02*
X164062786Y-112148890D01*
X164062786Y-112148890D02*
X164110405Y-111958414D01*
X164110405Y-111958414D02*
X164158024Y-111863176D01*
X164158024Y-111863176D02*
X164253262Y-111767938D01*
X164253262Y-111767938D02*
X164396119Y-111720319D01*
X164396119Y-111720319D02*
X164491357Y-111720319D01*
X164491357Y-111720319D02*
X164634214Y-111767938D01*
X164634214Y-111767938D02*
X164681833Y-111815557D01*
X165062786Y-111815557D02*
X165110405Y-111767938D01*
X165110405Y-111767938D02*
X165205643Y-111720319D01*
X165205643Y-111720319D02*
X165443738Y-111720319D01*
X165443738Y-111720319D02*
X165538976Y-111767938D01*
X165538976Y-111767938D02*
X165586595Y-111815557D01*
X165586595Y-111815557D02*
X165634214Y-111910795D01*
X165634214Y-111910795D02*
X165634214Y-112006033D01*
X165634214Y-112006033D02*
X165586595Y-112148890D01*
X165586595Y-112148890D02*
X165015167Y-112720319D01*
X165015167Y-112720319D02*
X165634214Y-112720319D01*
X144380080Y-99224166D02*
X144427700Y-99271785D01*
X144427700Y-99271785D02*
X144475319Y-99414642D01*
X144475319Y-99414642D02*
X144475319Y-99509880D01*
X144475319Y-99509880D02*
X144427700Y-99652737D01*
X144427700Y-99652737D02*
X144332461Y-99747975D01*
X144332461Y-99747975D02*
X144237223Y-99795594D01*
X144237223Y-99795594D02*
X144046747Y-99843213D01*
X144046747Y-99843213D02*
X143903890Y-99843213D01*
X143903890Y-99843213D02*
X143713414Y-99795594D01*
X143713414Y-99795594D02*
X143618176Y-99747975D01*
X143618176Y-99747975D02*
X143522938Y-99652737D01*
X143522938Y-99652737D02*
X143475319Y-99509880D01*
X143475319Y-99509880D02*
X143475319Y-99414642D01*
X143475319Y-99414642D02*
X143522938Y-99271785D01*
X143522938Y-99271785D02*
X143570557Y-99224166D01*
X144475319Y-98747975D02*
X144475319Y-98557499D01*
X144475319Y-98557499D02*
X144427700Y-98462261D01*
X144427700Y-98462261D02*
X144380080Y-98414642D01*
X144380080Y-98414642D02*
X144237223Y-98319404D01*
X144237223Y-98319404D02*
X144046747Y-98271785D01*
X144046747Y-98271785D02*
X143665795Y-98271785D01*
X143665795Y-98271785D02*
X143570557Y-98319404D01*
X143570557Y-98319404D02*
X143522938Y-98367023D01*
X143522938Y-98367023D02*
X143475319Y-98462261D01*
X143475319Y-98462261D02*
X143475319Y-98652737D01*
X143475319Y-98652737D02*
X143522938Y-98747975D01*
X143522938Y-98747975D02*
X143570557Y-98795594D01*
X143570557Y-98795594D02*
X143665795Y-98843213D01*
X143665795Y-98843213D02*
X143903890Y-98843213D01*
X143903890Y-98843213D02*
X143999128Y-98795594D01*
X143999128Y-98795594D02*
X144046747Y-98747975D01*
X144046747Y-98747975D02*
X144094366Y-98652737D01*
X144094366Y-98652737D02*
X144094366Y-98462261D01*
X144094366Y-98462261D02*
X144046747Y-98367023D01*
X144046747Y-98367023D02*
X143999128Y-98319404D01*
X143999128Y-98319404D02*
X143903890Y-98271785D01*
X130664080Y-99700357D02*
X130711700Y-99747976D01*
X130711700Y-99747976D02*
X130759319Y-99890833D01*
X130759319Y-99890833D02*
X130759319Y-99986071D01*
X130759319Y-99986071D02*
X130711700Y-100128928D01*
X130711700Y-100128928D02*
X130616461Y-100224166D01*
X130616461Y-100224166D02*
X130521223Y-100271785D01*
X130521223Y-100271785D02*
X130330747Y-100319404D01*
X130330747Y-100319404D02*
X130187890Y-100319404D01*
X130187890Y-100319404D02*
X129997414Y-100271785D01*
X129997414Y-100271785D02*
X129902176Y-100224166D01*
X129902176Y-100224166D02*
X129806938Y-100128928D01*
X129806938Y-100128928D02*
X129759319Y-99986071D01*
X129759319Y-99986071D02*
X129759319Y-99890833D01*
X129759319Y-99890833D02*
X129806938Y-99747976D01*
X129806938Y-99747976D02*
X129854557Y-99700357D01*
X130759319Y-98747976D02*
X130759319Y-99319404D01*
X130759319Y-99033690D02*
X129759319Y-99033690D01*
X129759319Y-99033690D02*
X129902176Y-99128928D01*
X129902176Y-99128928D02*
X129997414Y-99224166D01*
X129997414Y-99224166D02*
X130045033Y-99319404D01*
X130759319Y-98271785D02*
X130759319Y-98081309D01*
X130759319Y-98081309D02*
X130711700Y-97986071D01*
X130711700Y-97986071D02*
X130664080Y-97938452D01*
X130664080Y-97938452D02*
X130521223Y-97843214D01*
X130521223Y-97843214D02*
X130330747Y-97795595D01*
X130330747Y-97795595D02*
X129949795Y-97795595D01*
X129949795Y-97795595D02*
X129854557Y-97843214D01*
X129854557Y-97843214D02*
X129806938Y-97890833D01*
X129806938Y-97890833D02*
X129759319Y-97986071D01*
X129759319Y-97986071D02*
X129759319Y-98176547D01*
X129759319Y-98176547D02*
X129806938Y-98271785D01*
X129806938Y-98271785D02*
X129854557Y-98319404D01*
X129854557Y-98319404D02*
X129949795Y-98367023D01*
X129949795Y-98367023D02*
X130187890Y-98367023D01*
X130187890Y-98367023D02*
X130283128Y-98319404D01*
X130283128Y-98319404D02*
X130330747Y-98271785D01*
X130330747Y-98271785D02*
X130378366Y-98176547D01*
X130378366Y-98176547D02*
X130378366Y-97986071D01*
X130378366Y-97986071D02*
X130330747Y-97890833D01*
X130330747Y-97890833D02*
X130283128Y-97843214D01*
X130283128Y-97843214D02*
X130187890Y-97795595D01*
X152386595Y-110164319D02*
X152386595Y-110973842D01*
X152386595Y-110973842D02*
X152434214Y-111069080D01*
X152434214Y-111069080D02*
X152481833Y-111116700D01*
X152481833Y-111116700D02*
X152577071Y-111164319D01*
X152577071Y-111164319D02*
X152767547Y-111164319D01*
X152767547Y-111164319D02*
X152862785Y-111116700D01*
X152862785Y-111116700D02*
X152910404Y-111069080D01*
X152910404Y-111069080D02*
X152958023Y-110973842D01*
X152958023Y-110973842D02*
X152958023Y-110164319D01*
X153386595Y-110259557D02*
X153434214Y-110211938D01*
X153434214Y-110211938D02*
X153529452Y-110164319D01*
X153529452Y-110164319D02*
X153767547Y-110164319D01*
X153767547Y-110164319D02*
X153862785Y-110211938D01*
X153862785Y-110211938D02*
X153910404Y-110259557D01*
X153910404Y-110259557D02*
X153958023Y-110354795D01*
X153958023Y-110354795D02*
X153958023Y-110450033D01*
X153958023Y-110450033D02*
X153910404Y-110592890D01*
X153910404Y-110592890D02*
X153338976Y-111164319D01*
X153338976Y-111164319D02*
X153958023Y-111164319D01*
D12*
X135333072Y-86242257D02*
X135190215Y-86170828D01*
X135190215Y-86170828D02*
X134975929Y-86170828D01*
X134975929Y-86170828D02*
X134761643Y-86242257D01*
X134761643Y-86242257D02*
X134618786Y-86385114D01*
X134618786Y-86385114D02*
X134547357Y-86527971D01*
X134547357Y-86527971D02*
X134475929Y-86813685D01*
X134475929Y-86813685D02*
X134475929Y-87027971D01*
X134475929Y-87027971D02*
X134547357Y-87313685D01*
X134547357Y-87313685D02*
X134618786Y-87456542D01*
X134618786Y-87456542D02*
X134761643Y-87599400D01*
X134761643Y-87599400D02*
X134975929Y-87670828D01*
X134975929Y-87670828D02*
X135118786Y-87670828D01*
X135118786Y-87670828D02*
X135333072Y-87599400D01*
X135333072Y-87599400D02*
X135404500Y-87527971D01*
X135404500Y-87527971D02*
X135404500Y-87027971D01*
X135404500Y-87027971D02*
X135118786Y-87027971D01*
X136261643Y-86170828D02*
X136261643Y-86527971D01*
X135904500Y-86385114D02*
X136261643Y-86527971D01*
X136261643Y-86527971D02*
X136618786Y-86385114D01*
X136047357Y-86813685D02*
X136261643Y-86527971D01*
X136261643Y-86527971D02*
X136475929Y-86813685D01*
X137404500Y-86170828D02*
X137404500Y-86527971D01*
X137047357Y-86385114D02*
X137404500Y-86527971D01*
X137404500Y-86527971D02*
X137761643Y-86385114D01*
X137190214Y-86813685D02*
X137404500Y-86527971D01*
X137404500Y-86527971D02*
X137618786Y-86813685D01*
X138547357Y-86170828D02*
X138547357Y-86527971D01*
X138190214Y-86385114D02*
X138547357Y-86527971D01*
X138547357Y-86527971D02*
X138904500Y-86385114D01*
X138333071Y-86813685D02*
X138547357Y-86527971D01*
X138547357Y-86527971D02*
X138761643Y-86813685D01*
D11*
X129394080Y-99700357D02*
X129441700Y-99747976D01*
X129441700Y-99747976D02*
X129489319Y-99890833D01*
X129489319Y-99890833D02*
X129489319Y-99986071D01*
X129489319Y-99986071D02*
X129441700Y-100128928D01*
X129441700Y-100128928D02*
X129346461Y-100224166D01*
X129346461Y-100224166D02*
X129251223Y-100271785D01*
X129251223Y-100271785D02*
X129060747Y-100319404D01*
X129060747Y-100319404D02*
X128917890Y-100319404D01*
X128917890Y-100319404D02*
X128727414Y-100271785D01*
X128727414Y-100271785D02*
X128632176Y-100224166D01*
X128632176Y-100224166D02*
X128536938Y-100128928D01*
X128536938Y-100128928D02*
X128489319Y-99986071D01*
X128489319Y-99986071D02*
X128489319Y-99890833D01*
X128489319Y-99890833D02*
X128536938Y-99747976D01*
X128536938Y-99747976D02*
X128584557Y-99700357D01*
X129489319Y-98747976D02*
X129489319Y-99319404D01*
X129489319Y-99033690D02*
X128489319Y-99033690D01*
X128489319Y-99033690D02*
X128632176Y-99128928D01*
X128632176Y-99128928D02*
X128727414Y-99224166D01*
X128727414Y-99224166D02*
X128775033Y-99319404D01*
X128917890Y-98176547D02*
X128870271Y-98271785D01*
X128870271Y-98271785D02*
X128822652Y-98319404D01*
X128822652Y-98319404D02*
X128727414Y-98367023D01*
X128727414Y-98367023D02*
X128679795Y-98367023D01*
X128679795Y-98367023D02*
X128584557Y-98319404D01*
X128584557Y-98319404D02*
X128536938Y-98271785D01*
X128536938Y-98271785D02*
X128489319Y-98176547D01*
X128489319Y-98176547D02*
X128489319Y-97986071D01*
X128489319Y-97986071D02*
X128536938Y-97890833D01*
X128536938Y-97890833D02*
X128584557Y-97843214D01*
X128584557Y-97843214D02*
X128679795Y-97795595D01*
X128679795Y-97795595D02*
X128727414Y-97795595D01*
X128727414Y-97795595D02*
X128822652Y-97843214D01*
X128822652Y-97843214D02*
X128870271Y-97890833D01*
X128870271Y-97890833D02*
X128917890Y-97986071D01*
X128917890Y-97986071D02*
X128917890Y-98176547D01*
X128917890Y-98176547D02*
X128965509Y-98271785D01*
X128965509Y-98271785D02*
X129013128Y-98319404D01*
X129013128Y-98319404D02*
X129108366Y-98367023D01*
X129108366Y-98367023D02*
X129298842Y-98367023D01*
X129298842Y-98367023D02*
X129394080Y-98319404D01*
X129394080Y-98319404D02*
X129441700Y-98271785D01*
X129441700Y-98271785D02*
X129489319Y-98176547D01*
X129489319Y-98176547D02*
X129489319Y-97986071D01*
X129489319Y-97986071D02*
X129441700Y-97890833D01*
X129441700Y-97890833D02*
X129394080Y-97843214D01*
X129394080Y-97843214D02*
X129298842Y-97795595D01*
X129298842Y-97795595D02*
X129108366Y-97795595D01*
X129108366Y-97795595D02*
X129013128Y-97843214D01*
X129013128Y-97843214D02*
X128965509Y-97890833D01*
X128965509Y-97890833D02*
X128917890Y-97986071D01*
X141078080Y-112654357D02*
X141125700Y-112701976D01*
X141125700Y-112701976D02*
X141173319Y-112844833D01*
X141173319Y-112844833D02*
X141173319Y-112940071D01*
X141173319Y-112940071D02*
X141125700Y-113082928D01*
X141125700Y-113082928D02*
X141030461Y-113178166D01*
X141030461Y-113178166D02*
X140935223Y-113225785D01*
X140935223Y-113225785D02*
X140744747Y-113273404D01*
X140744747Y-113273404D02*
X140601890Y-113273404D01*
X140601890Y-113273404D02*
X140411414Y-113225785D01*
X140411414Y-113225785D02*
X140316176Y-113178166D01*
X140316176Y-113178166D02*
X140220938Y-113082928D01*
X140220938Y-113082928D02*
X140173319Y-112940071D01*
X140173319Y-112940071D02*
X140173319Y-112844833D01*
X140173319Y-112844833D02*
X140220938Y-112701976D01*
X140220938Y-112701976D02*
X140268557Y-112654357D01*
X141173319Y-111701976D02*
X141173319Y-112273404D01*
X141173319Y-111987690D02*
X140173319Y-111987690D01*
X140173319Y-111987690D02*
X140316176Y-112082928D01*
X140316176Y-112082928D02*
X140411414Y-112178166D01*
X140411414Y-112178166D02*
X140459033Y-112273404D01*
X141173319Y-110749595D02*
X141173319Y-111321023D01*
X141173319Y-111035309D02*
X140173319Y-111035309D01*
X140173319Y-111035309D02*
X140316176Y-111130547D01*
X140316176Y-111130547D02*
X140411414Y-111225785D01*
X140411414Y-111225785D02*
X140459033Y-111321023D01*
X147174080Y-99732166D02*
X147221700Y-99779785D01*
X147221700Y-99779785D02*
X147269319Y-99922642D01*
X147269319Y-99922642D02*
X147269319Y-100017880D01*
X147269319Y-100017880D02*
X147221700Y-100160737D01*
X147221700Y-100160737D02*
X147126461Y-100255975D01*
X147126461Y-100255975D02*
X147031223Y-100303594D01*
X147031223Y-100303594D02*
X146840747Y-100351213D01*
X146840747Y-100351213D02*
X146697890Y-100351213D01*
X146697890Y-100351213D02*
X146507414Y-100303594D01*
X146507414Y-100303594D02*
X146412176Y-100255975D01*
X146412176Y-100255975D02*
X146316938Y-100160737D01*
X146316938Y-100160737D02*
X146269319Y-100017880D01*
X146269319Y-100017880D02*
X146269319Y-99922642D01*
X146269319Y-99922642D02*
X146316938Y-99779785D01*
X146316938Y-99779785D02*
X146364557Y-99732166D01*
X146269319Y-99398832D02*
X146269319Y-98732166D01*
X146269319Y-98732166D02*
X147269319Y-99160737D01*
X138284080Y-110368357D02*
X138331700Y-110415976D01*
X138331700Y-110415976D02*
X138379319Y-110558833D01*
X138379319Y-110558833D02*
X138379319Y-110654071D01*
X138379319Y-110654071D02*
X138331700Y-110796928D01*
X138331700Y-110796928D02*
X138236461Y-110892166D01*
X138236461Y-110892166D02*
X138141223Y-110939785D01*
X138141223Y-110939785D02*
X137950747Y-110987404D01*
X137950747Y-110987404D02*
X137807890Y-110987404D01*
X137807890Y-110987404D02*
X137617414Y-110939785D01*
X137617414Y-110939785D02*
X137522176Y-110892166D01*
X137522176Y-110892166D02*
X137426938Y-110796928D01*
X137426938Y-110796928D02*
X137379319Y-110654071D01*
X137379319Y-110654071D02*
X137379319Y-110558833D01*
X137379319Y-110558833D02*
X137426938Y-110415976D01*
X137426938Y-110415976D02*
X137474557Y-110368357D01*
X138379319Y-109415976D02*
X138379319Y-109987404D01*
X138379319Y-109701690D02*
X137379319Y-109701690D01*
X137379319Y-109701690D02*
X137522176Y-109796928D01*
X137522176Y-109796928D02*
X137617414Y-109892166D01*
X137617414Y-109892166D02*
X137665033Y-109987404D01*
X137474557Y-109035023D02*
X137426938Y-108987404D01*
X137426938Y-108987404D02*
X137379319Y-108892166D01*
X137379319Y-108892166D02*
X137379319Y-108654071D01*
X137379319Y-108654071D02*
X137426938Y-108558833D01*
X137426938Y-108558833D02*
X137474557Y-108511214D01*
X137474557Y-108511214D02*
X137569795Y-108463595D01*
X137569795Y-108463595D02*
X137665033Y-108463595D01*
X137665033Y-108463595D02*
X137807890Y-108511214D01*
X137807890Y-108511214D02*
X138379319Y-109082642D01*
X138379319Y-109082642D02*
X138379319Y-108463595D01*
X129394080Y-103256357D02*
X129441700Y-103303976D01*
X129441700Y-103303976D02*
X129489319Y-103446833D01*
X129489319Y-103446833D02*
X129489319Y-103542071D01*
X129489319Y-103542071D02*
X129441700Y-103684928D01*
X129441700Y-103684928D02*
X129346461Y-103780166D01*
X129346461Y-103780166D02*
X129251223Y-103827785D01*
X129251223Y-103827785D02*
X129060747Y-103875404D01*
X129060747Y-103875404D02*
X128917890Y-103875404D01*
X128917890Y-103875404D02*
X128727414Y-103827785D01*
X128727414Y-103827785D02*
X128632176Y-103780166D01*
X128632176Y-103780166D02*
X128536938Y-103684928D01*
X128536938Y-103684928D02*
X128489319Y-103542071D01*
X128489319Y-103542071D02*
X128489319Y-103446833D01*
X128489319Y-103446833D02*
X128536938Y-103303976D01*
X128536938Y-103303976D02*
X128584557Y-103256357D01*
X129489319Y-102303976D02*
X129489319Y-102875404D01*
X129489319Y-102589690D02*
X128489319Y-102589690D01*
X128489319Y-102589690D02*
X128632176Y-102684928D01*
X128632176Y-102684928D02*
X128727414Y-102780166D01*
X128727414Y-102780166D02*
X128775033Y-102875404D01*
X128489319Y-101446833D02*
X128489319Y-101637309D01*
X128489319Y-101637309D02*
X128536938Y-101732547D01*
X128536938Y-101732547D02*
X128584557Y-101780166D01*
X128584557Y-101780166D02*
X128727414Y-101875404D01*
X128727414Y-101875404D02*
X128917890Y-101923023D01*
X128917890Y-101923023D02*
X129298842Y-101923023D01*
X129298842Y-101923023D02*
X129394080Y-101875404D01*
X129394080Y-101875404D02*
X129441700Y-101827785D01*
X129441700Y-101827785D02*
X129489319Y-101732547D01*
X129489319Y-101732547D02*
X129489319Y-101542071D01*
X129489319Y-101542071D02*
X129441700Y-101446833D01*
X129441700Y-101446833D02*
X129394080Y-101399214D01*
X129394080Y-101399214D02*
X129298842Y-101351595D01*
X129298842Y-101351595D02*
X129060747Y-101351595D01*
X129060747Y-101351595D02*
X128965509Y-101399214D01*
X128965509Y-101399214D02*
X128917890Y-101446833D01*
X128917890Y-101446833D02*
X128870271Y-101542071D01*
X128870271Y-101542071D02*
X128870271Y-101732547D01*
X128870271Y-101732547D02*
X128917890Y-101827785D01*
X128917890Y-101827785D02*
X128965509Y-101875404D01*
X128965509Y-101875404D02*
X129060747Y-101923023D01*
X130664080Y-107066357D02*
X130711700Y-107113976D01*
X130711700Y-107113976D02*
X130759319Y-107256833D01*
X130759319Y-107256833D02*
X130759319Y-107352071D01*
X130759319Y-107352071D02*
X130711700Y-107494928D01*
X130711700Y-107494928D02*
X130616461Y-107590166D01*
X130616461Y-107590166D02*
X130521223Y-107637785D01*
X130521223Y-107637785D02*
X130330747Y-107685404D01*
X130330747Y-107685404D02*
X130187890Y-107685404D01*
X130187890Y-107685404D02*
X129997414Y-107637785D01*
X129997414Y-107637785D02*
X129902176Y-107590166D01*
X129902176Y-107590166D02*
X129806938Y-107494928D01*
X129806938Y-107494928D02*
X129759319Y-107352071D01*
X129759319Y-107352071D02*
X129759319Y-107256833D01*
X129759319Y-107256833D02*
X129806938Y-107113976D01*
X129806938Y-107113976D02*
X129854557Y-107066357D01*
X130759319Y-106113976D02*
X130759319Y-106685404D01*
X130759319Y-106399690D02*
X129759319Y-106399690D01*
X129759319Y-106399690D02*
X129902176Y-106494928D01*
X129902176Y-106494928D02*
X129997414Y-106590166D01*
X129997414Y-106590166D02*
X130045033Y-106685404D01*
X129759319Y-105209214D02*
X129759319Y-105685404D01*
X129759319Y-105685404D02*
X130235509Y-105733023D01*
X130235509Y-105733023D02*
X130187890Y-105685404D01*
X130187890Y-105685404D02*
X130140271Y-105590166D01*
X130140271Y-105590166D02*
X130140271Y-105352071D01*
X130140271Y-105352071D02*
X130187890Y-105256833D01*
X130187890Y-105256833D02*
X130235509Y-105209214D01*
X130235509Y-105209214D02*
X130330747Y-105161595D01*
X130330747Y-105161595D02*
X130568842Y-105161595D01*
X130568842Y-105161595D02*
X130664080Y-105209214D01*
X130664080Y-105209214D02*
X130711700Y-105256833D01*
X130711700Y-105256833D02*
X130759319Y-105352071D01*
X130759319Y-105352071D02*
X130759319Y-105590166D01*
X130759319Y-105590166D02*
X130711700Y-105685404D01*
X130711700Y-105685404D02*
X130664080Y-105733023D01*
X161633833Y-104751080D02*
X161586214Y-104798700D01*
X161586214Y-104798700D02*
X161443357Y-104846319D01*
X161443357Y-104846319D02*
X161348119Y-104846319D01*
X161348119Y-104846319D02*
X161205262Y-104798700D01*
X161205262Y-104798700D02*
X161110024Y-104703461D01*
X161110024Y-104703461D02*
X161062405Y-104608223D01*
X161062405Y-104608223D02*
X161014786Y-104417747D01*
X161014786Y-104417747D02*
X161014786Y-104274890D01*
X161014786Y-104274890D02*
X161062405Y-104084414D01*
X161062405Y-104084414D02*
X161110024Y-103989176D01*
X161110024Y-103989176D02*
X161205262Y-103893938D01*
X161205262Y-103893938D02*
X161348119Y-103846319D01*
X161348119Y-103846319D02*
X161443357Y-103846319D01*
X161443357Y-103846319D02*
X161586214Y-103893938D01*
X161586214Y-103893938D02*
X161633833Y-103941557D01*
X161967167Y-103846319D02*
X162586214Y-103846319D01*
X162586214Y-103846319D02*
X162252881Y-104227271D01*
X162252881Y-104227271D02*
X162395738Y-104227271D01*
X162395738Y-104227271D02*
X162490976Y-104274890D01*
X162490976Y-104274890D02*
X162538595Y-104322509D01*
X162538595Y-104322509D02*
X162586214Y-104417747D01*
X162586214Y-104417747D02*
X162586214Y-104655842D01*
X162586214Y-104655842D02*
X162538595Y-104751080D01*
X162538595Y-104751080D02*
X162490976Y-104798700D01*
X162490976Y-104798700D02*
X162395738Y-104846319D01*
X162395738Y-104846319D02*
X162110024Y-104846319D01*
X162110024Y-104846319D02*
X162014786Y-104798700D01*
X162014786Y-104798700D02*
X161967167Y-104751080D01*
X130664080Y-103256357D02*
X130711700Y-103303976D01*
X130711700Y-103303976D02*
X130759319Y-103446833D01*
X130759319Y-103446833D02*
X130759319Y-103542071D01*
X130759319Y-103542071D02*
X130711700Y-103684928D01*
X130711700Y-103684928D02*
X130616461Y-103780166D01*
X130616461Y-103780166D02*
X130521223Y-103827785D01*
X130521223Y-103827785D02*
X130330747Y-103875404D01*
X130330747Y-103875404D02*
X130187890Y-103875404D01*
X130187890Y-103875404D02*
X129997414Y-103827785D01*
X129997414Y-103827785D02*
X129902176Y-103780166D01*
X129902176Y-103780166D02*
X129806938Y-103684928D01*
X129806938Y-103684928D02*
X129759319Y-103542071D01*
X129759319Y-103542071D02*
X129759319Y-103446833D01*
X129759319Y-103446833D02*
X129806938Y-103303976D01*
X129806938Y-103303976D02*
X129854557Y-103256357D01*
X130759319Y-102303976D02*
X130759319Y-102875404D01*
X130759319Y-102589690D02*
X129759319Y-102589690D01*
X129759319Y-102589690D02*
X129902176Y-102684928D01*
X129902176Y-102684928D02*
X129997414Y-102780166D01*
X129997414Y-102780166D02*
X130045033Y-102875404D01*
X129759319Y-101970642D02*
X129759319Y-101303976D01*
X129759319Y-101303976D02*
X130759319Y-101732547D01*
X151473833Y-96971080D02*
X151426214Y-97018700D01*
X151426214Y-97018700D02*
X151283357Y-97066319D01*
X151283357Y-97066319D02*
X151188119Y-97066319D01*
X151188119Y-97066319D02*
X151045262Y-97018700D01*
X151045262Y-97018700D02*
X150950024Y-96923461D01*
X150950024Y-96923461D02*
X150902405Y-96828223D01*
X150902405Y-96828223D02*
X150854786Y-96637747D01*
X150854786Y-96637747D02*
X150854786Y-96494890D01*
X150854786Y-96494890D02*
X150902405Y-96304414D01*
X150902405Y-96304414D02*
X150950024Y-96209176D01*
X150950024Y-96209176D02*
X151045262Y-96113938D01*
X151045262Y-96113938D02*
X151188119Y-96066319D01*
X151188119Y-96066319D02*
X151283357Y-96066319D01*
X151283357Y-96066319D02*
X151426214Y-96113938D01*
X151426214Y-96113938D02*
X151473833Y-96161557D01*
X152378595Y-96066319D02*
X151902405Y-96066319D01*
X151902405Y-96066319D02*
X151854786Y-96542509D01*
X151854786Y-96542509D02*
X151902405Y-96494890D01*
X151902405Y-96494890D02*
X151997643Y-96447271D01*
X151997643Y-96447271D02*
X152235738Y-96447271D01*
X152235738Y-96447271D02*
X152330976Y-96494890D01*
X152330976Y-96494890D02*
X152378595Y-96542509D01*
X152378595Y-96542509D02*
X152426214Y-96637747D01*
X152426214Y-96637747D02*
X152426214Y-96875842D01*
X152426214Y-96875842D02*
X152378595Y-96971080D01*
X152378595Y-96971080D02*
X152330976Y-97018700D01*
X152330976Y-97018700D02*
X152235738Y-97066319D01*
X152235738Y-97066319D02*
X151997643Y-97066319D01*
X151997643Y-97066319D02*
X151902405Y-97018700D01*
X151902405Y-97018700D02*
X151854786Y-96971080D01*
X132283319Y-99732166D02*
X131807128Y-100065499D01*
X132283319Y-100303594D02*
X131283319Y-100303594D01*
X131283319Y-100303594D02*
X131283319Y-99922642D01*
X131283319Y-99922642D02*
X131330938Y-99827404D01*
X131330938Y-99827404D02*
X131378557Y-99779785D01*
X131378557Y-99779785D02*
X131473795Y-99732166D01*
X131473795Y-99732166D02*
X131616652Y-99732166D01*
X131616652Y-99732166D02*
X131711890Y-99779785D01*
X131711890Y-99779785D02*
X131759509Y-99827404D01*
X131759509Y-99827404D02*
X131807128Y-99922642D01*
X131807128Y-99922642D02*
X131807128Y-100303594D01*
X131283319Y-98827404D02*
X131283319Y-99303594D01*
X131283319Y-99303594D02*
X131759509Y-99351213D01*
X131759509Y-99351213D02*
X131711890Y-99303594D01*
X131711890Y-99303594D02*
X131664271Y-99208356D01*
X131664271Y-99208356D02*
X131664271Y-98970261D01*
X131664271Y-98970261D02*
X131711890Y-98875023D01*
X131711890Y-98875023D02*
X131759509Y-98827404D01*
X131759509Y-98827404D02*
X131854747Y-98779785D01*
X131854747Y-98779785D02*
X132092842Y-98779785D01*
X132092842Y-98779785D02*
X132188080Y-98827404D01*
X132188080Y-98827404D02*
X132235700Y-98875023D01*
X132235700Y-98875023D02*
X132283319Y-98970261D01*
X132283319Y-98970261D02*
X132283319Y-99208356D01*
X132283319Y-99208356D02*
X132235700Y-99303594D01*
X132235700Y-99303594D02*
X132188080Y-99351213D01*
X145663642Y-107291080D02*
X145616023Y-107338700D01*
X145616023Y-107338700D02*
X145473166Y-107386319D01*
X145473166Y-107386319D02*
X145377928Y-107386319D01*
X145377928Y-107386319D02*
X145235071Y-107338700D01*
X145235071Y-107338700D02*
X145139833Y-107243461D01*
X145139833Y-107243461D02*
X145092214Y-107148223D01*
X145092214Y-107148223D02*
X145044595Y-106957747D01*
X145044595Y-106957747D02*
X145044595Y-106814890D01*
X145044595Y-106814890D02*
X145092214Y-106624414D01*
X145092214Y-106624414D02*
X145139833Y-106529176D01*
X145139833Y-106529176D02*
X145235071Y-106433938D01*
X145235071Y-106433938D02*
X145377928Y-106386319D01*
X145377928Y-106386319D02*
X145473166Y-106386319D01*
X145473166Y-106386319D02*
X145616023Y-106433938D01*
X145616023Y-106433938D02*
X145663642Y-106481557D01*
X146616023Y-107386319D02*
X146044595Y-107386319D01*
X146330309Y-107386319D02*
X146330309Y-106386319D01*
X146330309Y-106386319D02*
X146235071Y-106529176D01*
X146235071Y-106529176D02*
X146139833Y-106624414D01*
X146139833Y-106624414D02*
X146044595Y-106672033D01*
X147235071Y-106386319D02*
X147330309Y-106386319D01*
X147330309Y-106386319D02*
X147425547Y-106433938D01*
X147425547Y-106433938D02*
X147473166Y-106481557D01*
X147473166Y-106481557D02*
X147520785Y-106576795D01*
X147520785Y-106576795D02*
X147568404Y-106767271D01*
X147568404Y-106767271D02*
X147568404Y-107005366D01*
X147568404Y-107005366D02*
X147520785Y-107195842D01*
X147520785Y-107195842D02*
X147473166Y-107291080D01*
X147473166Y-107291080D02*
X147425547Y-107338700D01*
X147425547Y-107338700D02*
X147330309Y-107386319D01*
X147330309Y-107386319D02*
X147235071Y-107386319D01*
X147235071Y-107386319D02*
X147139833Y-107338700D01*
X147139833Y-107338700D02*
X147092214Y-107291080D01*
X147092214Y-107291080D02*
X147044595Y-107195842D01*
X147044595Y-107195842D02*
X146996976Y-107005366D01*
X146996976Y-107005366D02*
X146996976Y-106767271D01*
X146996976Y-106767271D02*
X147044595Y-106576795D01*
X147044595Y-106576795D02*
X147092214Y-106481557D01*
X147092214Y-106481557D02*
X147139833Y-106433938D01*
X147139833Y-106433938D02*
X147235071Y-106386319D01*
X133712080Y-110368357D02*
X133759700Y-110415976D01*
X133759700Y-110415976D02*
X133807319Y-110558833D01*
X133807319Y-110558833D02*
X133807319Y-110654071D01*
X133807319Y-110654071D02*
X133759700Y-110796928D01*
X133759700Y-110796928D02*
X133664461Y-110892166D01*
X133664461Y-110892166D02*
X133569223Y-110939785D01*
X133569223Y-110939785D02*
X133378747Y-110987404D01*
X133378747Y-110987404D02*
X133235890Y-110987404D01*
X133235890Y-110987404D02*
X133045414Y-110939785D01*
X133045414Y-110939785D02*
X132950176Y-110892166D01*
X132950176Y-110892166D02*
X132854938Y-110796928D01*
X132854938Y-110796928D02*
X132807319Y-110654071D01*
X132807319Y-110654071D02*
X132807319Y-110558833D01*
X132807319Y-110558833D02*
X132854938Y-110415976D01*
X132854938Y-110415976D02*
X132902557Y-110368357D01*
X133807319Y-109415976D02*
X133807319Y-109987404D01*
X133807319Y-109701690D02*
X132807319Y-109701690D01*
X132807319Y-109701690D02*
X132950176Y-109796928D01*
X132950176Y-109796928D02*
X133045414Y-109892166D01*
X133045414Y-109892166D02*
X133093033Y-109987404D01*
X132807319Y-109082642D02*
X132807319Y-108463595D01*
X132807319Y-108463595D02*
X133188271Y-108796928D01*
X133188271Y-108796928D02*
X133188271Y-108654071D01*
X133188271Y-108654071D02*
X133235890Y-108558833D01*
X133235890Y-108558833D02*
X133283509Y-108511214D01*
X133283509Y-108511214D02*
X133378747Y-108463595D01*
X133378747Y-108463595D02*
X133616842Y-108463595D01*
X133616842Y-108463595D02*
X133712080Y-108511214D01*
X133712080Y-108511214D02*
X133759700Y-108558833D01*
X133759700Y-108558833D02*
X133807319Y-108654071D01*
X133807319Y-108654071D02*
X133807319Y-108939785D01*
X133807319Y-108939785D02*
X133759700Y-109035023D01*
X133759700Y-109035023D02*
X133712080Y-109082642D01*
X158077833Y-97480319D02*
X157744500Y-97004128D01*
X157506405Y-97480319D02*
X157506405Y-96480319D01*
X157506405Y-96480319D02*
X157887357Y-96480319D01*
X157887357Y-96480319D02*
X157982595Y-96527938D01*
X157982595Y-96527938D02*
X158030214Y-96575557D01*
X158030214Y-96575557D02*
X158077833Y-96670795D01*
X158077833Y-96670795D02*
X158077833Y-96813652D01*
X158077833Y-96813652D02*
X158030214Y-96908890D01*
X158030214Y-96908890D02*
X157982595Y-96956509D01*
X157982595Y-96956509D02*
X157887357Y-97004128D01*
X157887357Y-97004128D02*
X157506405Y-97004128D01*
X158411167Y-96480319D02*
X159030214Y-96480319D01*
X159030214Y-96480319D02*
X158696881Y-96861271D01*
X158696881Y-96861271D02*
X158839738Y-96861271D01*
X158839738Y-96861271D02*
X158934976Y-96908890D01*
X158934976Y-96908890D02*
X158982595Y-96956509D01*
X158982595Y-96956509D02*
X159030214Y-97051747D01*
X159030214Y-97051747D02*
X159030214Y-97289842D01*
X159030214Y-97289842D02*
X158982595Y-97385080D01*
X158982595Y-97385080D02*
X158934976Y-97432700D01*
X158934976Y-97432700D02*
X158839738Y-97480319D01*
X158839738Y-97480319D02*
X158554024Y-97480319D01*
X158554024Y-97480319D02*
X158458786Y-97432700D01*
X158458786Y-97432700D02*
X158411167Y-97385080D01*
X129394080Y-107066357D02*
X129441700Y-107113976D01*
X129441700Y-107113976D02*
X129489319Y-107256833D01*
X129489319Y-107256833D02*
X129489319Y-107352071D01*
X129489319Y-107352071D02*
X129441700Y-107494928D01*
X129441700Y-107494928D02*
X129346461Y-107590166D01*
X129346461Y-107590166D02*
X129251223Y-107637785D01*
X129251223Y-107637785D02*
X129060747Y-107685404D01*
X129060747Y-107685404D02*
X128917890Y-107685404D01*
X128917890Y-107685404D02*
X128727414Y-107637785D01*
X128727414Y-107637785D02*
X128632176Y-107590166D01*
X128632176Y-107590166D02*
X128536938Y-107494928D01*
X128536938Y-107494928D02*
X128489319Y-107352071D01*
X128489319Y-107352071D02*
X128489319Y-107256833D01*
X128489319Y-107256833D02*
X128536938Y-107113976D01*
X128536938Y-107113976D02*
X128584557Y-107066357D01*
X129489319Y-106113976D02*
X129489319Y-106685404D01*
X129489319Y-106399690D02*
X128489319Y-106399690D01*
X128489319Y-106399690D02*
X128632176Y-106494928D01*
X128632176Y-106494928D02*
X128727414Y-106590166D01*
X128727414Y-106590166D02*
X128775033Y-106685404D01*
X128822652Y-105256833D02*
X129489319Y-105256833D01*
X128441700Y-105494928D02*
X129155985Y-105733023D01*
X129155985Y-105733023D02*
X129155985Y-105113976D01*
X142951319Y-112178166D02*
X142475128Y-112511499D01*
X142951319Y-112749594D02*
X141951319Y-112749594D01*
X141951319Y-112749594D02*
X141951319Y-112368642D01*
X141951319Y-112368642D02*
X141998938Y-112273404D01*
X141998938Y-112273404D02*
X142046557Y-112225785D01*
X142046557Y-112225785D02*
X142141795Y-112178166D01*
X142141795Y-112178166D02*
X142284652Y-112178166D01*
X142284652Y-112178166D02*
X142379890Y-112225785D01*
X142379890Y-112225785D02*
X142427509Y-112273404D01*
X142427509Y-112273404D02*
X142475128Y-112368642D01*
X142475128Y-112368642D02*
X142475128Y-112749594D01*
X142951319Y-111225785D02*
X142951319Y-111797213D01*
X142951319Y-111511499D02*
X141951319Y-111511499D01*
X141951319Y-111511499D02*
X142094176Y-111606737D01*
X142094176Y-111606737D02*
X142189414Y-111701975D01*
X142189414Y-111701975D02*
X142237033Y-111797213D01*
D13*
X159996501Y-107732500D02*
X159996501Y-109686500D01*
X163350499Y-109686500D02*
X163350499Y-107732500D01*
X135498800Y-102092800D02*
X135498800Y-102554760D01*
X135498800Y-105974240D02*
X135498800Y-106436200D01*
X135498800Y-106436200D02*
X135960760Y-106436200D01*
X135960760Y-102092800D02*
X135498800Y-102092800D01*
X139380240Y-106436200D02*
X139842200Y-106436200D01*
X139842200Y-102092800D02*
X139380240Y-102092800D01*
X139842200Y-102554760D02*
X139842200Y-102092800D01*
X139842200Y-106436200D02*
X139842200Y-105974240D01*
G36*
X138111000Y-107122000D02*
G01*
X137729999Y-107122000D01*
X137729999Y-106868000D01*
X138111000Y-106868000D01*
X138111000Y-107122000D01*
G37*
G36*
X138611001Y-101661000D02*
G01*
X138230001Y-101661000D01*
X138230001Y-101407000D01*
X138611001Y-101407000D01*
X138611001Y-101661000D01*
G37*
D14*
X143498000Y-109156276D02*
X143498000Y-109665724D01*
X144543000Y-109156276D02*
X144543000Y-109665724D01*
X157247767Y-111501500D02*
X156955233Y-111501500D01*
X157247767Y-112521500D02*
X156955233Y-112521500D01*
X161527233Y-113918500D02*
X161819767Y-113918500D01*
X161527233Y-112898500D02*
X161819767Y-112898500D01*
X143513224Y-103996000D02*
X143003776Y-103996000D01*
X143513224Y-105041000D02*
X143003776Y-105041000D01*
X139158700Y-98844733D02*
X139158700Y-99137267D01*
X140178700Y-98844733D02*
X140178700Y-99137267D01*
X155816967Y-98100000D02*
X155524433Y-98100000D01*
X155816967Y-99120000D02*
X155524433Y-99120000D01*
X161527233Y-112267500D02*
X161819767Y-112267500D01*
X161527233Y-111247500D02*
X161819767Y-111247500D01*
X140682700Y-98844733D02*
X140682700Y-99137267D01*
X141702700Y-98844733D02*
X141702700Y-99137267D01*
X135640500Y-99137267D02*
X135640500Y-98844733D01*
X134620500Y-99137267D02*
X134620500Y-98844733D01*
X149538500Y-101219500D02*
X149538500Y-101519500D01*
X149538500Y-108439500D02*
X149538500Y-108139500D01*
X149838500Y-101219500D02*
X149538500Y-101219500D01*
X149838500Y-108439500D02*
X149538500Y-108439500D01*
X156458500Y-101219500D02*
X156758500Y-101219500D01*
X156458500Y-108439500D02*
X156758500Y-108439500D01*
X156758500Y-101219500D02*
X156758500Y-101519500D01*
X156758500Y-108139500D02*
X158073500Y-108139500D01*
X156758500Y-108439500D02*
X156758500Y-108139500D01*
G36*
X142605148Y-87446573D02*
G01*
X142723164Y-87498608D01*
X142811145Y-87590460D01*
X142860141Y-87713342D01*
X142864584Y-87834463D01*
X142847987Y-87921083D01*
X142814314Y-87991051D01*
X142754680Y-88052855D01*
X142660202Y-88114981D01*
X142521994Y-88185916D01*
X142471828Y-88209645D01*
X142349335Y-88271380D01*
X142240925Y-88334078D01*
X142162132Y-88388371D01*
X142136573Y-88411797D01*
X142086223Y-88463295D01*
X142051140Y-88487974D01*
X142048729Y-88488343D01*
X142032985Y-88462079D01*
X142016038Y-88394914D01*
X142007317Y-88342025D01*
X141999344Y-88138853D01*
X142028792Y-87945577D01*
X142091077Y-87771179D01*
X142181616Y-87624642D01*
X142295822Y-87514950D01*
X142429112Y-87451086D01*
X142466045Y-87443143D01*
X142605148Y-87446573D01*
G37*
G36*
X141119194Y-95168385D02*
G01*
X141169836Y-95222940D01*
X141240787Y-95309270D01*
X141325511Y-95419142D01*
X141417474Y-95544327D01*
X141508544Y-95674255D01*
X141654267Y-95908540D01*
X141802298Y-96184393D01*
X141945467Y-96485492D01*
X142076605Y-96795516D01*
X142188544Y-97098142D01*
X142274114Y-97377049D01*
X142297603Y-97470733D01*
X142316356Y-97551391D01*
X141626536Y-97551391D01*
X141432433Y-97551094D01*
X141259484Y-97550259D01*
X141115782Y-97548973D01*
X141009419Y-97547321D01*
X140948485Y-97545391D01*
X140937065Y-97544059D01*
X140944453Y-97514241D01*
X140963196Y-97444737D01*
X140982343Y-97375410D01*
X141050226Y-97098836D01*
X141100475Y-96814670D01*
X141135052Y-96508049D01*
X141155921Y-96164107D01*
X141160512Y-96026218D01*
X141165337Y-95814493D01*
X141166566Y-95651755D01*
X141163800Y-95528421D01*
X141156643Y-95434903D01*
X141144697Y-95361619D01*
X141130769Y-95308995D01*
X141106980Y-95225322D01*
X141095011Y-95168197D01*
X141095394Y-95153837D01*
X141119194Y-95168385D01*
G37*
G36*
X130643975Y-82038113D02*
G01*
X130673874Y-82046337D01*
X131118696Y-82164774D01*
X131528070Y-82258473D01*
X131918131Y-82330638D01*
X132305010Y-82384470D01*
X132465250Y-82401865D01*
X132754365Y-82427665D01*
X132994266Y-82441671D01*
X133193177Y-82443995D01*
X133359324Y-82434755D01*
X133490161Y-82416166D01*
X133864531Y-82346373D01*
X134192362Y-82289373D01*
X134484123Y-82244123D01*
X134750280Y-82209579D01*
X135001301Y-82184700D01*
X135247653Y-82168441D01*
X135499804Y-82159760D01*
X135768221Y-82157614D01*
X136053229Y-82160775D01*
X136356829Y-82167846D01*
X136615149Y-82178252D01*
X136841548Y-82193650D01*
X137049384Y-82215698D01*
X137252015Y-82246054D01*
X137462797Y-82286376D01*
X137695089Y-82338322D01*
X137915700Y-82391925D01*
X138315385Y-82498913D01*
X138671617Y-82611276D01*
X138999601Y-82734458D01*
X139314544Y-82873904D01*
X139455539Y-82943144D01*
X139712870Y-83078087D01*
X139933044Y-83205929D01*
X140134361Y-83338683D01*
X140335124Y-83488367D01*
X140537978Y-83653802D01*
X140690575Y-83775977D01*
X140842511Y-83882993D01*
X141011117Y-83986045D01*
X141213722Y-84096329D01*
X141260998Y-84120831D01*
X141566687Y-84284380D01*
X141827017Y-84438015D01*
X142052740Y-84588937D01*
X142254604Y-84744345D01*
X142443361Y-84911439D01*
X142447995Y-84915818D01*
X142701604Y-85186044D01*
X142905714Y-85468387D01*
X143057532Y-85758169D01*
X143154261Y-86050712D01*
X143169453Y-86123430D01*
X143206188Y-86322801D01*
X143427977Y-86434534D01*
X143847625Y-86663818D01*
X144212343Y-86902569D01*
X144525588Y-87154624D01*
X144790820Y-87423816D01*
X145011498Y-87713983D01*
X145191080Y-88028960D01*
X145333025Y-88372582D01*
X145412717Y-88635522D01*
X145448116Y-88778805D01*
X145471593Y-88902089D01*
X145485435Y-89025322D01*
X145491931Y-89168450D01*
X145493381Y-89338920D01*
X145469930Y-89748192D01*
X145399017Y-90124647D01*
X145278805Y-90472340D01*
X145107456Y-90795324D01*
X144883133Y-91097655D01*
X144603998Y-91383386D01*
X144541800Y-91438578D01*
X144387356Y-91555962D01*
X144203046Y-91669673D01*
X144002071Y-91773819D01*
X143797629Y-91862507D01*
X143602919Y-91929845D01*
X143431140Y-91969940D01*
X143332044Y-91978643D01*
X143275736Y-91973791D01*
X143268711Y-91954556D01*
X143280384Y-91937965D01*
X143319410Y-91870506D01*
X143364557Y-91761403D01*
X143410807Y-91626605D01*
X143453140Y-91482060D01*
X143486537Y-91343718D01*
X143505981Y-91227527D01*
X143506940Y-91217999D01*
X143525771Y-91015390D01*
X143367791Y-90968201D01*
X143168035Y-90918814D01*
X142936011Y-90878129D01*
X142687235Y-90847448D01*
X142437222Y-90828077D01*
X142201489Y-90821317D01*
X141995550Y-90828472D01*
X141875285Y-90842825D01*
X141750903Y-90889029D01*
X141661831Y-90979722D01*
X141606860Y-91116610D01*
X141587385Y-91249209D01*
X141590300Y-91469210D01*
X141632380Y-91690102D01*
X141715728Y-91915359D01*
X141842450Y-92148455D01*
X142014650Y-92392864D01*
X142234432Y-92652060D01*
X142503902Y-92929517D01*
X142740064Y-93151853D01*
X142951231Y-93340120D01*
X143181802Y-93537116D01*
X143435486Y-93745703D01*
X143715988Y-93968743D01*
X144027016Y-94209100D01*
X144372276Y-94469634D01*
X144755476Y-94753208D01*
X145180323Y-95062685D01*
X145650522Y-95400927D01*
X145681276Y-95422928D01*
X145793394Y-95505386D01*
X145863620Y-95564089D01*
X145899475Y-95606894D01*
X145908483Y-95641656D01*
X145905640Y-95657253D01*
X145871144Y-95742406D01*
X145807979Y-95867231D01*
X145721246Y-96023436D01*
X145616047Y-96202731D01*
X145497485Y-96396822D01*
X145370661Y-96597419D01*
X145240676Y-96796230D01*
X145112633Y-96984962D01*
X144991634Y-97155324D01*
X144945903Y-97217062D01*
X144705654Y-97536726D01*
X143627767Y-97544420D01*
X142549881Y-97552114D01*
X142549708Y-97075136D01*
X142527702Y-96541646D01*
X142460569Y-96041698D01*
X142346032Y-95568904D01*
X142181817Y-95116873D01*
X141965649Y-94679215D01*
X141695253Y-94249541D01*
X141408593Y-93870444D01*
X141336319Y-93779578D01*
X141287450Y-93713867D01*
X141266974Y-93680354D01*
X141275111Y-93682031D01*
X141328007Y-93724985D01*
X141407317Y-93789905D01*
X141480764Y-93850301D01*
X141663143Y-93979722D01*
X141889865Y-94107453D01*
X142146801Y-94227129D01*
X142419820Y-94332387D01*
X142694792Y-94416863D01*
X142792991Y-94441298D01*
X142908565Y-94467728D01*
X143000897Y-94488172D01*
X143056269Y-94499624D01*
X143065614Y-94501045D01*
X143048144Y-94485743D01*
X142990044Y-94443675D01*
X142899506Y-94380596D01*
X142784721Y-94302262D01*
X142734513Y-94268391D01*
X142316335Y-93960644D01*
X141930615Y-93620137D01*
X141571100Y-93240337D01*
X141231536Y-92814709D01*
X140945773Y-92399408D01*
X140934729Y-92390487D01*
X140943430Y-92426139D01*
X140968246Y-92497135D01*
X141005549Y-92594244D01*
X141051709Y-92708238D01*
X141103098Y-92829886D01*
X141156086Y-92949960D01*
X141196914Y-93038107D01*
X141268971Y-93177848D01*
X141352983Y-93323349D01*
X141433482Y-93448164D01*
X141451832Y-93473835D01*
X141507852Y-93550928D01*
X141540641Y-93600633D01*
X141546601Y-93621331D01*
X141522135Y-93611406D01*
X141463644Y-93569240D01*
X141367531Y-93493214D01*
X141230197Y-93381712D01*
X141209624Y-93364931D01*
X140923415Y-93111736D01*
X140695005Y-92866235D01*
X140524087Y-92628065D01*
X140422458Y-92427867D01*
X140384891Y-92337885D01*
X140362300Y-92296279D01*
X140348132Y-92296856D01*
X140335829Y-92333425D01*
X140333244Y-92343604D01*
X140325450Y-92413933D01*
X140323471Y-92528134D01*
X140326594Y-92671784D01*
X140334107Y-92830458D01*
X140345298Y-92989732D01*
X140359454Y-93135183D01*
X140375862Y-93252387D01*
X140378962Y-93269174D01*
X140399778Y-93377889D01*
X140418331Y-93477245D01*
X140425782Y-93518481D01*
X140446612Y-93619005D01*
X140480278Y-93761661D01*
X140523057Y-93932309D01*
X140571229Y-94116805D01*
X140621069Y-94301007D01*
X140668855Y-94470775D01*
X140710865Y-94611965D01*
X140726878Y-94662361D01*
X140763349Y-94777040D01*
X140790430Y-94868488D01*
X140804494Y-94924097D01*
X140805304Y-94934916D01*
X140786611Y-94922900D01*
X140737723Y-94876634D01*
X140656892Y-94794300D01*
X140542371Y-94674084D01*
X140392413Y-94514168D01*
X140205269Y-94312736D01*
X140171407Y-94276153D01*
X140067591Y-94166142D01*
X139943667Y-94038383D01*
X139805034Y-93898096D01*
X139657091Y-93750501D01*
X139505238Y-93600818D01*
X139354872Y-93454266D01*
X139211393Y-93316067D01*
X139080200Y-93191439D01*
X138966691Y-93085604D01*
X138876265Y-93003781D01*
X138814322Y-92951190D01*
X138786260Y-92933051D01*
X138785586Y-92936232D01*
X138808943Y-92982871D01*
X138856367Y-93065802D01*
X138920224Y-93171957D01*
X138971510Y-93254509D01*
X139064180Y-93401798D01*
X139167575Y-93566251D01*
X139263963Y-93719665D01*
X139294180Y-93767788D01*
X139377144Y-93899324D01*
X139463716Y-94035556D01*
X139539355Y-94153635D01*
X139562407Y-94189300D01*
X139611665Y-94269820D01*
X139672691Y-94376369D01*
X139740146Y-94498755D01*
X139808690Y-94626786D01*
X139872985Y-94750270D01*
X139927690Y-94859016D01*
X139967467Y-94942832D01*
X139986976Y-94991525D01*
X139986941Y-94999659D01*
X139964547Y-94978017D01*
X139913753Y-94919137D01*
X139842171Y-94832089D01*
X139759959Y-94729174D01*
X139500759Y-94415994D01*
X139233221Y-94125265D01*
X138947480Y-93847778D01*
X138633674Y-93574325D01*
X138281935Y-93295696D01*
X138003691Y-93089623D01*
X137862902Y-92988391D01*
X137755586Y-92913219D01*
X137682685Y-92865797D01*
X137645138Y-92847815D01*
X137643887Y-92860962D01*
X137679871Y-92906930D01*
X137754032Y-92987408D01*
X137867310Y-93104086D01*
X138020646Y-93258654D01*
X138194396Y-93432277D01*
X138372128Y-93611445D01*
X138548222Y-93792495D01*
X138715100Y-93967376D01*
X138865185Y-94128040D01*
X138990901Y-94266436D01*
X139084668Y-94374517D01*
X139106935Y-94401691D01*
X139432875Y-94840961D01*
X139716079Y-95291116D01*
X139954202Y-95746860D01*
X140144902Y-96202898D01*
X140285834Y-96653934D01*
X140374654Y-97094673D01*
X140399818Y-97322534D01*
X140417467Y-97551391D01*
X138385715Y-97551391D01*
X136353964Y-97551391D01*
X136716876Y-97175540D01*
X136998846Y-96867799D01*
X137235341Y-96573393D01*
X137434054Y-96280875D01*
X137602680Y-95978795D01*
X137748910Y-95655705D01*
X137765073Y-95615594D01*
X137826242Y-95456454D01*
X137862626Y-95348713D01*
X137874200Y-95292732D01*
X137860938Y-95288875D01*
X137822813Y-95337505D01*
X137780150Y-95404900D01*
X137630377Y-95633420D01*
X137451644Y-95876035D01*
X137258809Y-96114066D01*
X137066724Y-96328841D01*
X136956978Y-96439770D01*
X136864877Y-96523284D01*
X136750993Y-96618735D01*
X136623737Y-96719962D01*
X136491519Y-96820804D01*
X136362747Y-96915101D01*
X136245832Y-96996692D01*
X136149182Y-97059416D01*
X136081208Y-97097113D01*
X136050510Y-97103830D01*
X136058866Y-97075928D01*
X136095901Y-97025008D01*
X136099050Y-97021342D01*
X136261150Y-96795699D01*
X136399978Y-96522449D01*
X136513283Y-96208748D01*
X136598813Y-95861755D01*
X136654316Y-95488626D01*
X136675093Y-95190306D01*
X136681756Y-94988700D01*
X136684372Y-94841110D01*
X136681995Y-94742974D01*
X136673678Y-94689729D01*
X136658477Y-94676812D01*
X136635446Y-94699661D01*
X136603638Y-94753714D01*
X136589987Y-94779682D01*
X136543321Y-94862886D01*
X136473504Y-94978881D01*
X136390239Y-95111864D01*
X136309069Y-95237193D01*
X136012611Y-95644195D01*
X135661079Y-96050888D01*
X135257978Y-96453829D01*
X134806809Y-96849574D01*
X134311076Y-97234681D01*
X134182272Y-97327694D01*
X133868027Y-97551391D01*
X131920752Y-97551391D01*
X131531014Y-97551267D01*
X131195887Y-97550833D01*
X130911325Y-97550000D01*
X130673277Y-97548675D01*
X130477698Y-97546768D01*
X130320537Y-97544187D01*
X130197747Y-97540843D01*
X130105280Y-97536643D01*
X130039088Y-97531497D01*
X129995122Y-97525314D01*
X129969335Y-97518002D01*
X129957677Y-97509471D01*
X129956533Y-97507234D01*
X129963729Y-97485025D01*
X130002048Y-97451838D01*
X130076249Y-97404826D01*
X130191088Y-97341143D01*
X130351324Y-97257941D01*
X130488672Y-97188747D01*
X131125154Y-96851961D01*
X131735447Y-96491516D01*
X132313409Y-96111737D01*
X132852894Y-95716949D01*
X133347757Y-95311476D01*
X133791854Y-94899644D01*
X133907777Y-94782219D01*
X134273338Y-94366844D01*
X134600875Y-93918412D01*
X134881853Y-93449066D01*
X134979898Y-93256950D01*
X135071778Y-93065231D01*
X135136410Y-92925116D01*
X135173914Y-92836327D01*
X135184411Y-92798584D01*
X135176987Y-92801113D01*
X135155609Y-92830460D01*
X135110366Y-92897016D01*
X135049353Y-92988800D01*
X135019091Y-93034861D01*
X134705593Y-93461917D01*
X134352976Y-93845666D01*
X133962538Y-94184964D01*
X133535580Y-94478667D01*
X133127651Y-94699959D01*
X132999489Y-94760365D01*
X132884220Y-94812484D01*
X132795938Y-94850072D01*
X132753576Y-94865671D01*
X132714601Y-94874173D01*
X132715913Y-94862120D01*
X132760528Y-94823323D01*
X132782906Y-94805466D01*
X133024718Y-94578718D01*
X133241337Y-94301144D01*
X133433312Y-93971869D01*
X133601195Y-93590022D01*
X133668778Y-93401549D01*
X133702672Y-93293005D01*
X133738976Y-93163810D01*
X133775345Y-93024147D01*
X133809433Y-92884201D01*
X133838896Y-92754152D01*
X133861389Y-92644186D01*
X133874567Y-92564484D01*
X133876084Y-92525229D01*
X133870602Y-92525117D01*
X133845334Y-92556876D01*
X133791854Y-92625698D01*
X133717551Y-92722023D01*
X133629818Y-92836295D01*
X133612773Y-92858551D01*
X133399985Y-93114818D01*
X133139650Y-93391589D01*
X132837262Y-93684318D01*
X132498319Y-93988456D01*
X132128314Y-94299458D01*
X131732744Y-94612776D01*
X131317104Y-94923863D01*
X130886889Y-95228173D01*
X130447594Y-95521160D01*
X130218979Y-95666539D01*
X130052715Y-95768731D01*
X129881068Y-95871157D01*
X129711636Y-95969608D01*
X129552016Y-96059872D01*
X129409805Y-96137738D01*
X129292599Y-96198996D01*
X129207995Y-96239435D01*
X129163589Y-96254845D01*
X129159221Y-96253934D01*
X129145225Y-96225081D01*
X129115093Y-96156464D01*
X129075150Y-96062507D01*
X129072232Y-96055548D01*
X128825968Y-95395885D01*
X128635446Y-94724455D01*
X128520663Y-94142117D01*
X129328261Y-94142117D01*
X129335070Y-94177718D01*
X129336887Y-94178412D01*
X129363971Y-94160976D01*
X129427497Y-94113266D01*
X129518525Y-94042177D01*
X129628114Y-93954606D01*
X129650587Y-93936437D01*
X129783197Y-93825189D01*
X129933113Y-93692927D01*
X130094811Y-93545153D01*
X130262765Y-93387367D01*
X130431447Y-93225074D01*
X130595333Y-93063774D01*
X130748896Y-92908969D01*
X130886610Y-92766161D01*
X131002949Y-92640853D01*
X131092387Y-92538545D01*
X131149399Y-92464741D01*
X131168474Y-92425176D01*
X131144174Y-92402380D01*
X131103791Y-92374601D01*
X137006463Y-92374601D01*
X137021128Y-92389266D01*
X137035793Y-92374601D01*
X137021128Y-92359936D01*
X137006463Y-92374601D01*
X131103791Y-92374601D01*
X131079731Y-92358050D01*
X130986109Y-92299450D01*
X130915029Y-92257280D01*
X130719190Y-92126751D01*
X130519529Y-91964429D01*
X130332174Y-91785258D01*
X130173256Y-91604185D01*
X130097620Y-91499866D01*
X129985358Y-91329056D01*
X129929662Y-91437619D01*
X129854602Y-91603803D01*
X129774748Y-91815800D01*
X129693835Y-92061387D01*
X129615604Y-92328341D01*
X129543791Y-92604438D01*
X129482135Y-92877455D01*
X129468207Y-92946541D01*
X129441133Y-93097096D01*
X129414799Y-93266071D01*
X129390203Y-93444098D01*
X129368345Y-93621809D01*
X129350223Y-93789835D01*
X129336836Y-93938807D01*
X129329182Y-94059358D01*
X129328261Y-94142117D01*
X128520663Y-94142117D01*
X128500412Y-94039375D01*
X128420610Y-93338763D01*
X128395786Y-92620736D01*
X128425685Y-91883413D01*
X128459187Y-91524024D01*
X128474902Y-91388170D01*
X128491710Y-91261655D01*
X128511462Y-91134452D01*
X128536004Y-90996535D01*
X128567186Y-90837877D01*
X128606856Y-90648453D01*
X128656863Y-90418235D01*
X128694415Y-90248158D01*
X128719205Y-90151661D01*
X128758772Y-90015331D01*
X128808408Y-89854663D01*
X128822724Y-89810535D01*
X130349694Y-89810535D01*
X130388564Y-90147997D01*
X130476075Y-90480799D01*
X130563136Y-90699363D01*
X130604320Y-90785397D01*
X130636288Y-90845007D01*
X130650671Y-90864093D01*
X130670856Y-90841087D01*
X130712544Y-90780563D01*
X130766990Y-90695263D01*
X130770932Y-90688890D01*
X130831173Y-90594725D01*
X130884573Y-90517208D01*
X130919123Y-90473637D01*
X130938164Y-90443724D01*
X130941112Y-90398030D01*
X130927025Y-90322296D01*
X130903141Y-90231519D01*
X130872935Y-90078910D01*
X130854042Y-89892597D01*
X130848501Y-89734878D01*
X131448379Y-89734878D01*
X131451929Y-89883079D01*
X131464674Y-89992629D01*
X131489757Y-90083225D01*
X131512723Y-90138169D01*
X131550375Y-90216301D01*
X131577717Y-90266793D01*
X131586049Y-90277357D01*
X131593407Y-90251532D01*
X131599442Y-90188640D01*
X131599924Y-90179785D01*
X131613243Y-90114511D01*
X131644234Y-90023653D01*
X131686689Y-89920448D01*
X131734403Y-89818130D01*
X131781168Y-89729934D01*
X131820777Y-89669096D01*
X131847024Y-89648851D01*
X131848600Y-89649522D01*
X131870470Y-89688802D01*
X131873668Y-89715262D01*
X131894959Y-89778533D01*
X131950693Y-89855497D01*
X132028663Y-89935757D01*
X132116663Y-90008917D01*
X132202486Y-90064580D01*
X132273924Y-90092351D01*
X132311498Y-90088154D01*
X132324398Y-90053863D01*
X132338028Y-89974867D01*
X132347375Y-89891000D01*
X132879179Y-89891000D01*
X132882108Y-89960989D01*
X132890367Y-89985542D01*
X132924944Y-89994589D01*
X133010154Y-90008110D01*
X133138214Y-90025255D01*
X133301339Y-90045170D01*
X133491743Y-90067005D01*
X133701644Y-90089907D01*
X133923256Y-90113025D01*
X134148795Y-90135506D01*
X134370476Y-90156498D01*
X134580516Y-90175151D01*
X134748033Y-90188836D01*
X134857189Y-90194467D01*
X135013089Y-90198566D01*
X135206948Y-90201212D01*
X135429978Y-90202486D01*
X135673391Y-90202469D01*
X135928401Y-90201239D01*
X136186221Y-90198879D01*
X136438063Y-90195468D01*
X136675141Y-90191087D01*
X136888667Y-90185815D01*
X137069855Y-90179734D01*
X137209916Y-90172924D01*
X137299765Y-90165502D01*
X137461082Y-90145502D01*
X137467927Y-89992223D01*
X137974361Y-89992223D01*
X138245666Y-89974023D01*
X138391233Y-89964695D01*
X138569498Y-89953917D01*
X138754573Y-89943228D01*
X138876266Y-89936519D01*
X139235562Y-89917215D01*
X139234918Y-89840712D01*
X139207198Y-89704767D01*
X139133362Y-89567999D01*
X139024090Y-89444256D01*
X138890063Y-89347388D01*
X138833213Y-89319810D01*
X138665871Y-89278831D01*
X138497249Y-89288644D01*
X138337047Y-89342871D01*
X138194963Y-89435133D01*
X138080699Y-89559052D01*
X138003953Y-89708249D01*
X137974424Y-89876346D01*
X137974361Y-89884606D01*
X137974361Y-89992223D01*
X137467927Y-89992223D01*
X137469596Y-89954855D01*
X137478110Y-89764209D01*
X136179065Y-89773474D01*
X135740472Y-89775359D01*
X135351157Y-89774138D01*
X135001803Y-89769472D01*
X134683093Y-89761024D01*
X134385708Y-89748456D01*
X134100333Y-89731428D01*
X133817649Y-89709604D01*
X133528340Y-89682646D01*
X133447037Y-89674355D01*
X133257272Y-89654402D01*
X133117898Y-89640848D01*
X133020824Y-89635460D01*
X132957965Y-89640006D01*
X132921231Y-89656254D01*
X132902535Y-89685972D01*
X132893790Y-89730926D01*
X132886906Y-89792885D01*
X132886414Y-89796877D01*
X132879179Y-89891000D01*
X132347375Y-89891000D01*
X132350267Y-89865054D01*
X132355330Y-89801075D01*
X132365949Y-89655153D01*
X132377660Y-89507857D01*
X132388351Y-89385437D01*
X132390894Y-89358990D01*
X132407820Y-89188413D01*
X132749347Y-89206639D01*
X132891224Y-89215052D01*
X133016685Y-89224033D01*
X133111088Y-89232438D01*
X133156867Y-89238455D01*
X133209409Y-89239476D01*
X133215926Y-89210601D01*
X133175859Y-89150491D01*
X133088649Y-89057805D01*
X133076547Y-89045947D01*
X132910522Y-88912194D01*
X132733045Y-88828182D01*
X132531992Y-88789568D01*
X132356405Y-88787888D01*
X132112134Y-88825584D01*
X131898816Y-88911174D01*
X131719650Y-89042660D01*
X131577838Y-89218046D01*
X131530825Y-89303013D01*
X131489455Y-89395110D01*
X131464620Y-89477815D01*
X131452302Y-89572182D01*
X131448479Y-89699265D01*
X131448379Y-89734878D01*
X130848501Y-89734878D01*
X130847066Y-89694038D01*
X130852609Y-89504691D01*
X130871276Y-89346013D01*
X130877405Y-89316475D01*
X130966595Y-89055792D01*
X131104759Y-88818766D01*
X131285214Y-88610523D01*
X131501277Y-88436188D01*
X131746265Y-88300888D01*
X131831555Y-88271800D01*
X133105539Y-88271800D01*
X133285320Y-88387404D01*
X133485938Y-88548144D01*
X133670221Y-88759957D01*
X133812192Y-88979779D01*
X133861968Y-89067462D01*
X133899767Y-89132663D01*
X133916873Y-89160456D01*
X133948189Y-89170980D01*
X134020278Y-89187466D01*
X134115984Y-89206640D01*
X134218151Y-89225233D01*
X134309624Y-89239972D01*
X134373245Y-89247586D01*
X134374072Y-89247641D01*
X134417470Y-89237017D01*
X134425400Y-89222269D01*
X134415673Y-89182029D01*
X134390158Y-89103953D01*
X134388274Y-89098738D01*
X139514199Y-89098738D01*
X139851497Y-89082826D01*
X140093643Y-89078254D01*
X140375484Y-89084571D01*
X140688955Y-89100748D01*
X141025991Y-89125755D01*
X141378526Y-89158562D01*
X141738496Y-89198139D01*
X142097834Y-89243458D01*
X142448476Y-89293487D01*
X142782356Y-89347198D01*
X143091409Y-89403560D01*
X143367570Y-89461545D01*
X143602772Y-89520121D01*
X143788952Y-89578260D01*
X143818414Y-89589287D01*
X143856592Y-89584680D01*
X143870903Y-89539084D01*
X143863708Y-89463979D01*
X143837370Y-89370845D01*
X143794251Y-89271162D01*
X143736711Y-89176411D01*
X143732213Y-89170271D01*
X143692903Y-89111395D01*
X143679059Y-89077886D01*
X143681915Y-89074948D01*
X143716749Y-89093404D01*
X143784746Y-89143331D01*
X143875825Y-89216563D01*
X143979902Y-89304936D01*
X144086897Y-89400287D01*
X144110448Y-89421966D01*
X144248499Y-89549886D01*
X144267801Y-89472979D01*
X144276189Y-89403021D01*
X144278371Y-89299474D01*
X144275012Y-89206180D01*
X144269910Y-89109400D01*
X144268328Y-89040994D01*
X144270465Y-89016287D01*
X144282147Y-89041992D01*
X144305716Y-89109559D01*
X144336190Y-89204667D01*
X144337848Y-89210023D01*
X144387107Y-89455531D01*
X144394918Y-89724445D01*
X144362910Y-90000351D01*
X144292710Y-90266835D01*
X144214561Y-90453470D01*
X144166121Y-90551070D01*
X144128191Y-90629175D01*
X144108432Y-90671996D01*
X144107857Y-90673447D01*
X144112410Y-90684596D01*
X144144793Y-90659710D01*
X144196022Y-90608425D01*
X144257114Y-90540375D01*
X144319086Y-90465198D01*
X144372953Y-90392528D01*
X144381303Y-90380144D01*
X144441164Y-90276553D01*
X144505255Y-90145355D01*
X144559799Y-90014770D01*
X144560267Y-90013516D01*
X144593661Y-89919069D01*
X144616663Y-89836419D01*
X144631262Y-89750634D01*
X144639449Y-89646785D01*
X144643212Y-89509941D01*
X144644298Y-89382915D01*
X144643257Y-89194661D01*
X144637159Y-89051074D01*
X144624756Y-88938284D01*
X144604800Y-88842423D01*
X144591540Y-88796310D01*
X144465048Y-88478357D01*
X144291154Y-88187452D01*
X144067837Y-87921295D01*
X143793075Y-87677587D01*
X143464847Y-87454028D01*
X143355773Y-87390615D01*
X143249598Y-87328649D01*
X143166033Y-87275370D01*
X143116216Y-87238130D01*
X143107155Y-87226478D01*
X143131884Y-87202861D01*
X143167712Y-87192519D01*
X143196534Y-87182965D01*
X143195779Y-87160850D01*
X143160787Y-87116465D01*
X143101719Y-87055066D01*
X142969439Y-86935721D01*
X142816779Y-86821308D01*
X142655863Y-86718827D01*
X142498814Y-86635278D01*
X142357755Y-86577660D01*
X142244810Y-86552976D01*
X142231440Y-86552546D01*
X142148628Y-86572574D01*
X142044340Y-86625155D01*
X141936116Y-86699036D01*
X141841492Y-86782964D01*
X141803029Y-86827439D01*
X141718821Y-86967940D01*
X141649780Y-87150394D01*
X141593780Y-87381115D01*
X141569308Y-87520983D01*
X141543237Y-87664771D01*
X141505414Y-87844422D01*
X141460419Y-88039458D01*
X141412832Y-88229401D01*
X141400525Y-88275698D01*
X141279959Y-88722985D01*
X141079552Y-88722985D01*
X140875339Y-88733356D01*
X140641486Y-88762150D01*
X140394559Y-88805889D01*
X140151124Y-88861094D01*
X139927746Y-88924286D01*
X139740991Y-88991986D01*
X139690181Y-89014743D01*
X139514199Y-89098738D01*
X134388274Y-89098738D01*
X134354357Y-89004865D01*
X134353980Y-89003861D01*
X134214931Y-88710798D01*
X134028933Y-88436575D01*
X133804947Y-88191291D01*
X133551934Y-87985043D01*
X133334255Y-87854739D01*
X133230383Y-87804814D01*
X133163929Y-87786308D01*
X133126551Y-87805545D01*
X133109905Y-87868850D01*
X133105648Y-87982547D01*
X133105539Y-88028109D01*
X133105539Y-88271800D01*
X131831555Y-88271800D01*
X132013495Y-88209750D01*
X132296284Y-88167898D01*
X132377669Y-88165710D01*
X132518934Y-88165710D01*
X132518934Y-87671251D01*
X132537050Y-87174215D01*
X132537779Y-87167726D01*
X137569958Y-87167726D01*
X137578372Y-87224691D01*
X137646113Y-87437626D01*
X137762386Y-87629201D01*
X137918891Y-87792592D01*
X138107327Y-87920972D01*
X138319396Y-88007518D01*
X138546797Y-88045404D01*
X138577640Y-88046409D01*
X138678903Y-88038699D01*
X138797284Y-88016918D01*
X138847029Y-88003826D01*
X139015277Y-87928777D01*
X139177931Y-87811565D01*
X139316397Y-87667232D01*
X139381566Y-87571384D01*
X139441411Y-87457553D01*
X139465445Y-87381361D01*
X139453697Y-87334006D01*
X139406192Y-87306687D01*
X139382388Y-87300506D01*
X139311593Y-87273003D01*
X139269735Y-87236836D01*
X139248404Y-87217374D01*
X139224715Y-87244863D01*
X139206924Y-87284130D01*
X139142556Y-87384703D01*
X139039830Y-87487194D01*
X138916636Y-87576867D01*
X138790863Y-87638987D01*
X138766434Y-87646966D01*
X138609341Y-87671394D01*
X138447296Y-87660241D01*
X138302580Y-87616297D01*
X138241347Y-87581250D01*
X138122260Y-87477989D01*
X138017922Y-87353554D01*
X137938204Y-87222855D01*
X137892980Y-87100801D01*
X137886370Y-87045134D01*
X137877224Y-87002669D01*
X137864235Y-86997388D01*
X137826174Y-87013067D01*
X137753111Y-87042441D01*
X137700570Y-87063374D01*
X137618246Y-87098222D01*
X137578695Y-87127744D01*
X137569958Y-87167726D01*
X132537779Y-87167726D01*
X132592858Y-86677466D01*
X132688548Y-86163124D01*
X132721233Y-86020073D01*
X132802189Y-85678246D01*
X132565238Y-85641259D01*
X132411152Y-85622181D01*
X132236682Y-85607974D01*
X132082620Y-85601792D01*
X131836954Y-85599313D01*
X131796938Y-85731299D01*
X131764344Y-85851125D01*
X131724322Y-86020628D01*
X131676095Y-86243169D01*
X131651431Y-86361899D01*
X131635183Y-86455374D01*
X131614934Y-86593361D01*
X131592368Y-86761988D01*
X131569168Y-86947383D01*
X131547017Y-87135673D01*
X131527601Y-87312987D01*
X131512601Y-87465451D01*
X131503707Y-87579105D01*
X131487278Y-87857742D01*
X131325999Y-87956418D01*
X131168855Y-88067283D01*
X131002399Y-88209256D01*
X130844659Y-88365265D01*
X130713662Y-88518238D01*
X130672340Y-88575418D01*
X130520790Y-88850855D01*
X130416222Y-89153898D01*
X130359052Y-89476480D01*
X130349694Y-89810535D01*
X128822724Y-89810535D01*
X128863400Y-89685153D01*
X128886109Y-89617557D01*
X129139451Y-88946509D01*
X129431185Y-88315683D01*
X129765722Y-87717486D01*
X130147472Y-87144325D01*
X130580846Y-86588607D01*
X130778613Y-86359375D01*
X130963014Y-86151539D01*
X130720962Y-85987119D01*
X130345172Y-85698866D01*
X129984342Y-85355286D01*
X129712736Y-85042038D01*
X132077357Y-85042038D01*
X132452129Y-85078040D01*
X132597425Y-85092574D01*
X132723741Y-85106284D01*
X132818386Y-85117717D01*
X132868667Y-85125421D01*
X132870897Y-85125965D01*
X132934659Y-85136862D01*
X132980602Y-85121092D01*
X133022785Y-85068862D01*
X133065061Y-84990710D01*
X133133617Y-84865899D01*
X134226420Y-84865899D01*
X134256877Y-84863945D01*
X134332806Y-84853423D01*
X134441942Y-84836146D01*
X134542721Y-84819065D01*
X134847668Y-84781543D01*
X135191030Y-84767313D01*
X135246647Y-84767267D01*
X135642606Y-84769037D01*
X135393299Y-84822890D01*
X135265302Y-84851586D01*
X135147102Y-84879898D01*
X135059710Y-84902748D01*
X135044246Y-84907283D01*
X134983381Y-84931577D01*
X134896773Y-84973002D01*
X134797144Y-85024565D01*
X134697217Y-85079270D01*
X134609712Y-85130122D01*
X134547352Y-85170127D01*
X134522859Y-85192291D01*
X134523297Y-85193706D01*
X134554124Y-85194305D01*
X134633778Y-85190099D01*
X134752678Y-85181753D01*
X134901245Y-85169931D01*
X135043691Y-85157645D01*
X135386011Y-85133414D01*
X135704262Y-85125239D01*
X136030555Y-85132298D01*
X136032158Y-85132366D01*
X136190896Y-85139838D01*
X136325787Y-85147608D01*
X136427440Y-85155017D01*
X136486466Y-85161409D01*
X136497379Y-85164940D01*
X136465024Y-85175927D01*
X136388762Y-85194981D01*
X136282232Y-85218802D01*
X136225147Y-85230797D01*
X135901848Y-85317915D01*
X135564466Y-85445911D01*
X135230894Y-85606482D01*
X134919026Y-85791329D01*
X134733583Y-85922740D01*
X134613163Y-86016981D01*
X134540279Y-86078953D01*
X134514055Y-86109514D01*
X134533617Y-86109525D01*
X134550054Y-86102934D01*
X134592389Y-86084473D01*
X134673628Y-86049000D01*
X134778924Y-86002998D01*
X134821359Y-85984455D01*
X135106108Y-85877569D01*
X135434451Y-85785141D01*
X135792307Y-85710919D01*
X135935908Y-85687852D01*
X136080764Y-85665437D01*
X136216500Y-85642646D01*
X136325059Y-85622603D01*
X136375862Y-85611723D01*
X136486428Y-85593382D01*
X136642918Y-85579002D01*
X136832712Y-85568842D01*
X137043190Y-85563160D01*
X137261732Y-85562216D01*
X137475719Y-85566270D01*
X137672531Y-85575580D01*
X137769528Y-85583094D01*
X138046204Y-85613260D01*
X138375382Y-85657838D01*
X138752874Y-85716168D01*
X139174492Y-85787589D01*
X139636047Y-85871442D01*
X139822167Y-85906644D01*
X140015524Y-85942925D01*
X140201164Y-85976539D01*
X140367035Y-86005395D01*
X140501084Y-86027403D01*
X140591255Y-86040472D01*
X140599419Y-86041438D01*
X140701971Y-86053531D01*
X140785193Y-86064227D01*
X140822200Y-86069743D01*
X140871002Y-86075655D01*
X140962359Y-86084424D01*
X141080327Y-86094565D01*
X141141305Y-86099452D01*
X141270377Y-86108226D01*
X141350558Y-86109573D01*
X141391229Y-86102786D01*
X141401775Y-86087162D01*
X141400263Y-86080010D01*
X141364508Y-86032668D01*
X141285935Y-85964340D01*
X141173518Y-85881583D01*
X141036230Y-85790954D01*
X140883046Y-85699011D01*
X140864228Y-85688317D01*
X140764303Y-85630758D01*
X140689937Y-85585744D01*
X140651213Y-85559498D01*
X140648792Y-85555319D01*
X140697447Y-85565254D01*
X140790732Y-85592724D01*
X140918521Y-85634224D01*
X141070686Y-85686247D01*
X141237103Y-85745285D01*
X141407643Y-85807833D01*
X141572181Y-85870384D01*
X141669973Y-85908926D01*
X141880793Y-85992191D01*
X142041370Y-86052682D01*
X142155037Y-86091509D01*
X142225127Y-86109785D01*
X142254973Y-86108622D01*
X142256578Y-86104689D01*
X142236985Y-86029528D01*
X142183647Y-85925140D01*
X142104724Y-85803348D01*
X142008376Y-85675971D01*
X141902765Y-85554832D01*
X141821374Y-85474254D01*
X141635611Y-85327805D01*
X141398019Y-85178502D01*
X141115183Y-85028847D01*
X140793690Y-84881342D01*
X140440125Y-84738487D01*
X140061075Y-84602784D01*
X139663126Y-84476735D01*
X139252863Y-84362841D01*
X138836872Y-84263603D01*
X138421740Y-84181524D01*
X138414315Y-84180219D01*
X138047482Y-84120980D01*
X137710284Y-84078453D01*
X137383182Y-84051213D01*
X137046632Y-84037839D01*
X136681093Y-84036909D01*
X136493183Y-84040378D01*
X136150764Y-84052498D01*
X135858235Y-84072427D01*
X135607118Y-84102102D01*
X135388936Y-84143460D01*
X135195214Y-84198439D01*
X135017475Y-84268976D01*
X134847241Y-84357008D01*
X134695940Y-84451133D01*
X134609067Y-84513286D01*
X134512520Y-84589166D01*
X134416263Y-84669970D01*
X134330257Y-84746899D01*
X134264467Y-84811151D01*
X134228855Y-84853924D01*
X134226420Y-84865899D01*
X133133617Y-84865899D01*
X133175568Y-84789525D01*
X133298824Y-84602826D01*
X133448223Y-84411328D01*
X133549168Y-84293820D01*
X133842450Y-84005018D01*
X134179120Y-83752819D01*
X134284830Y-83692846D01*
X139059580Y-83692846D01*
X139074246Y-83707511D01*
X139088911Y-83692846D01*
X139074246Y-83678181D01*
X139059580Y-83692846D01*
X134284830Y-83692846D01*
X134554906Y-83539622D01*
X134965539Y-83367826D01*
X135406747Y-83239833D01*
X135437072Y-83232932D01*
X135596296Y-83205722D01*
X135799875Y-83183617D01*
X136033688Y-83167066D01*
X136283616Y-83156522D01*
X136535536Y-83152435D01*
X136775328Y-83155256D01*
X136988873Y-83165436D01*
X137129125Y-83178901D01*
X137355550Y-83215094D01*
X137625856Y-83270815D01*
X137929608Y-83343428D01*
X138256374Y-83430298D01*
X138595721Y-83528791D01*
X138927594Y-83633122D01*
X138970948Y-83644999D01*
X138967950Y-83637821D01*
X138926372Y-83615151D01*
X138853988Y-83580552D01*
X138758570Y-83537590D01*
X138647891Y-83489827D01*
X138529721Y-83440827D01*
X138411835Y-83394155D01*
X138379706Y-83381902D01*
X138016780Y-83254823D01*
X137664391Y-83153409D01*
X137310534Y-83075680D01*
X136943205Y-83019651D01*
X136550399Y-82983339D01*
X136120111Y-82964763D01*
X135833252Y-82961291D01*
X135590907Y-82961314D01*
X135396309Y-82963036D01*
X135238557Y-82967096D01*
X135106748Y-82974132D01*
X134989978Y-82984783D01*
X134877346Y-82999686D01*
X134757948Y-83019481D01*
X134718703Y-83026555D01*
X134281149Y-83124343D01*
X133890180Y-83250619D01*
X133539529Y-83408423D01*
X133222930Y-83600793D01*
X132934115Y-83830767D01*
X132803846Y-83955069D01*
X132600995Y-84177240D01*
X132428456Y-84408066D01*
X132271189Y-84668497D01*
X132213084Y-84778066D01*
X132077357Y-85042038D01*
X129712736Y-85042038D01*
X129640004Y-84958155D01*
X129313694Y-84509248D01*
X129006943Y-84010343D01*
X128993288Y-83986149D01*
X128932135Y-83873822D01*
X128897698Y-83807774D01*
X130150464Y-83807774D01*
X130166754Y-83826464D01*
X130227978Y-83860269D01*
X130323793Y-83904667D01*
X130443858Y-83955135D01*
X130577831Y-84007148D01*
X130715370Y-84056184D01*
X130728653Y-84060660D01*
X131071427Y-84153987D01*
X131430691Y-84213062D01*
X131732489Y-84232615D01*
X131957938Y-84235456D01*
X132096083Y-84029554D01*
X132157059Y-83934402D01*
X132200322Y-83858533D01*
X132219163Y-83814081D01*
X132218585Y-83808009D01*
X132184733Y-83806233D01*
X132107265Y-83814636D01*
X132000006Y-83831516D01*
X131942982Y-83841943D01*
X131763892Y-83866655D01*
X131542973Y-83882511D01*
X131296383Y-83889508D01*
X131040281Y-83887641D01*
X130790825Y-83876903D01*
X130564176Y-83857292D01*
X130452972Y-83842389D01*
X130329527Y-83824246D01*
X130229669Y-83811809D01*
X130166225Y-83806545D01*
X130150464Y-83807774D01*
X128897698Y-83807774D01*
X128862096Y-83739491D01*
X128788100Y-83593297D01*
X128715074Y-83445384D01*
X128647945Y-83305895D01*
X128591640Y-83184973D01*
X128551087Y-83092761D01*
X128531212Y-83039402D01*
X128530019Y-83032493D01*
X128531510Y-83015131D01*
X128542332Y-83008183D01*
X128572009Y-83014477D01*
X128630064Y-83036841D01*
X128726021Y-83078103D01*
X128814674Y-83117033D01*
X129340513Y-83322253D01*
X129862543Y-83472302D01*
X130390110Y-83569175D01*
X130932560Y-83614870D01*
X131166418Y-83619280D01*
X131324969Y-83616773D01*
X131490980Y-83609711D01*
X131654173Y-83599060D01*
X131804272Y-83585785D01*
X131930999Y-83570852D01*
X132024078Y-83555228D01*
X132073231Y-83539878D01*
X132078301Y-83533581D01*
X132054160Y-83512659D01*
X131990505Y-83471618D01*
X131899478Y-83418137D01*
X131866360Y-83399544D01*
X131719578Y-83302895D01*
X131551761Y-83167353D01*
X131373535Y-83003409D01*
X131195525Y-82821552D01*
X131028354Y-82632274D01*
X130882649Y-82446063D01*
X130841481Y-82387650D01*
X130745848Y-82247593D01*
X130679752Y-82149320D01*
X130639855Y-82086034D01*
X130622819Y-82050936D01*
X130625305Y-82037228D01*
X130643975Y-82038113D01*
G37*
X133989500Y-99137267D02*
X133989500Y-98844733D01*
X132969500Y-99137267D02*
X132969500Y-98844733D01*
X161127500Y-86584500D02*
X163587500Y-86584500D01*
X163587500Y-85114500D02*
X161127500Y-85114500D01*
X163587500Y-86584500D02*
X163587500Y-85114500D01*
X140149100Y-109264733D02*
X140149100Y-109557267D01*
X141169100Y-109264733D02*
X141169100Y-109557267D01*
X148762500Y-99784767D02*
X148762500Y-99492233D01*
X147742500Y-99784767D02*
X147742500Y-99492233D01*
X136110700Y-109258733D02*
X136110700Y-109551267D01*
X137130700Y-109258733D02*
X137130700Y-109551267D01*
X132592500Y-102566267D02*
X132592500Y-102273733D01*
X131572500Y-102566267D02*
X131572500Y-102273733D01*
X133189700Y-105869733D02*
X133189700Y-106162267D01*
X134209700Y-105869733D02*
X134209700Y-106162267D01*
G36*
X161951944Y-90047262D02*
G01*
X161996652Y-90051787D01*
X162040719Y-90060823D01*
X162083708Y-90074375D01*
X162117455Y-90088671D01*
X162120872Y-90090506D01*
X162128383Y-90094696D01*
X162139832Y-90101153D01*
X162155063Y-90109787D01*
X162173921Y-90120509D01*
X162196252Y-90133230D01*
X162221898Y-90147860D01*
X162250705Y-90164310D01*
X162282518Y-90182491D01*
X162317181Y-90202313D01*
X162354538Y-90223688D01*
X162394435Y-90246526D01*
X162436715Y-90270737D01*
X162481224Y-90296234D01*
X162527806Y-90322925D01*
X162576305Y-90350722D01*
X162626566Y-90379536D01*
X162678434Y-90409278D01*
X162731753Y-90439858D01*
X162786368Y-90471187D01*
X162842123Y-90503175D01*
X162898864Y-90535734D01*
X162956434Y-90568775D01*
X163014678Y-90602207D01*
X163073440Y-90635941D01*
X163132566Y-90669890D01*
X163191900Y-90703962D01*
X163251286Y-90738069D01*
X163310570Y-90772122D01*
X163369595Y-90806031D01*
X163428206Y-90839707D01*
X163486248Y-90873062D01*
X163543565Y-90906004D01*
X163600002Y-90938446D01*
X163655404Y-90970299D01*
X163709614Y-91001471D01*
X163762479Y-91031876D01*
X163813841Y-91061423D01*
X163863547Y-91090022D01*
X163911439Y-91117586D01*
X163957364Y-91144024D01*
X164001165Y-91169247D01*
X164042688Y-91193167D01*
X164081776Y-91215693D01*
X164118274Y-91236736D01*
X164152027Y-91256208D01*
X164182880Y-91274018D01*
X164210676Y-91290079D01*
X164235262Y-91304299D01*
X164256480Y-91316591D01*
X164274176Y-91326865D01*
X164288194Y-91335032D01*
X164298380Y-91341001D01*
X164304577Y-91344685D01*
X164306223Y-91345701D01*
X164323438Y-91357277D01*
X164339108Y-91368975D01*
X164354591Y-91381893D01*
X164371248Y-91397128D01*
X164378214Y-91403799D01*
X164410760Y-91438645D01*
X164439550Y-91476474D01*
X164464402Y-91516918D01*
X164485137Y-91559608D01*
X164501573Y-91604174D01*
X164513531Y-91650247D01*
X164520552Y-91694835D01*
X164520747Y-91699089D01*
X164520936Y-91708066D01*
X164521117Y-91721586D01*
X164521290Y-91739468D01*
X164521457Y-91761535D01*
X164521616Y-91787606D01*
X164521768Y-91817502D01*
X164521912Y-91851043D01*
X164522049Y-91888049D01*
X164522179Y-91928341D01*
X164522302Y-91971740D01*
X164522417Y-92018066D01*
X164522525Y-92067139D01*
X164522626Y-92118780D01*
X164522719Y-92172809D01*
X164522805Y-92229047D01*
X164522884Y-92287313D01*
X164522956Y-92347430D01*
X164523020Y-92409216D01*
X164523077Y-92472493D01*
X164523127Y-92537080D01*
X164523169Y-92602799D01*
X164523204Y-92669470D01*
X164523232Y-92736912D01*
X164523252Y-92804948D01*
X164523265Y-92873396D01*
X164523271Y-92942078D01*
X164523270Y-93010814D01*
X164523261Y-93079424D01*
X164523245Y-93147729D01*
X164523221Y-93215549D01*
X164523191Y-93282705D01*
X164523153Y-93349017D01*
X164523108Y-93414306D01*
X164523055Y-93478392D01*
X164522995Y-93541095D01*
X164522928Y-93602236D01*
X164522854Y-93661635D01*
X164522772Y-93719113D01*
X164522683Y-93774491D01*
X164522587Y-93827588D01*
X164522483Y-93878225D01*
X164522372Y-93926223D01*
X164522254Y-93971401D01*
X164522128Y-94013581D01*
X164521995Y-94052583D01*
X164521855Y-94088227D01*
X164521708Y-94120334D01*
X164521553Y-94148724D01*
X164521391Y-94173218D01*
X164521222Y-94193636D01*
X164521045Y-94209798D01*
X164520861Y-94221525D01*
X164520670Y-94228637D01*
X164520552Y-94230617D01*
X164517227Y-94254010D01*
X164512238Y-94279727D01*
X164506044Y-94305676D01*
X164499103Y-94329761D01*
X164498357Y-94332073D01*
X164492727Y-94347486D01*
X164485167Y-94365570D01*
X164476357Y-94384895D01*
X164466975Y-94404033D01*
X164457700Y-94421554D01*
X164449210Y-94436030D01*
X164448247Y-94437540D01*
X164422911Y-94473012D01*
X164394128Y-94506492D01*
X164362660Y-94537225D01*
X164329267Y-94564455D01*
X164301225Y-94583490D01*
X164296405Y-94586381D01*
X164287556Y-94591587D01*
X164274834Y-94599020D01*
X164258394Y-94608590D01*
X164238390Y-94620208D01*
X164214979Y-94633784D01*
X164188315Y-94649228D01*
X164158555Y-94666452D01*
X164125852Y-94685366D01*
X164090363Y-94705881D01*
X164052243Y-94727906D01*
X164011648Y-94751353D01*
X163968731Y-94776132D01*
X163923649Y-94802154D01*
X163876558Y-94829329D01*
X163827611Y-94857567D01*
X163776966Y-94886781D01*
X163724776Y-94916879D01*
X163671198Y-94947772D01*
X163616386Y-94979372D01*
X163560496Y-95011588D01*
X163503683Y-95044331D01*
X163446102Y-95077513D01*
X163387910Y-95111042D01*
X163329260Y-95144830D01*
X163270309Y-95178788D01*
X163211211Y-95212826D01*
X163152122Y-95246854D01*
X163093198Y-95280783D01*
X163034593Y-95314524D01*
X162976463Y-95347987D01*
X162918964Y-95381083D01*
X162862249Y-95413722D01*
X162806476Y-95445815D01*
X162751798Y-95477273D01*
X162698372Y-95508006D01*
X162646353Y-95537924D01*
X162595896Y-95566938D01*
X162547155Y-95594959D01*
X162500288Y-95621898D01*
X162455448Y-95647664D01*
X162412792Y-95672168D01*
X162372474Y-95695322D01*
X162334650Y-95717034D01*
X162299475Y-95737217D01*
X162267104Y-95755781D01*
X162237693Y-95772636D01*
X162211397Y-95787692D01*
X162188371Y-95800861D01*
X162168771Y-95812053D01*
X162152752Y-95821178D01*
X162140469Y-95828147D01*
X162132077Y-95832870D01*
X162127733Y-95835259D01*
X162127259Y-95835499D01*
X162098471Y-95847525D01*
X162067618Y-95857875D01*
X162036213Y-95866139D01*
X162005775Y-95871907D01*
X161983275Y-95874439D01*
X161966585Y-95875605D01*
X161953612Y-95876388D01*
X161943187Y-95876806D01*
X161934139Y-95876877D01*
X161925301Y-95876619D01*
X161915504Y-95876050D01*
X161908976Y-95875589D01*
X161868994Y-95870585D01*
X161828321Y-95861571D01*
X161788397Y-95848947D01*
X161750667Y-95833116D01*
X161743081Y-95829383D01*
X161739136Y-95827251D01*
X161731112Y-95822790D01*
X161719163Y-95816087D01*
X161703446Y-95807233D01*
X161684115Y-95796315D01*
X161661326Y-95783421D01*
X161635234Y-95768641D01*
X161605995Y-95752063D01*
X161573764Y-95733776D01*
X161538696Y-95713867D01*
X161500947Y-95692426D01*
X161460672Y-95669541D01*
X161418027Y-95645300D01*
X161373166Y-95619793D01*
X161326246Y-95593108D01*
X161277421Y-95565332D01*
X161226847Y-95536556D01*
X161174679Y-95506867D01*
X161121073Y-95476354D01*
X161066183Y-95445105D01*
X161010167Y-95413209D01*
X160953177Y-95380755D01*
X160895371Y-95347831D01*
X160836903Y-95314525D01*
X160777930Y-95280927D01*
X160718605Y-95247124D01*
X160659085Y-95213206D01*
X160599524Y-95179260D01*
X160540079Y-95145376D01*
X160480904Y-95111641D01*
X160422156Y-95078146D01*
X160363989Y-95044977D01*
X160306558Y-95012223D01*
X160250019Y-94979974D01*
X160194528Y-94948317D01*
X160140240Y-94917341D01*
X160087310Y-94887135D01*
X160035893Y-94857788D01*
X159986145Y-94829387D01*
X159938221Y-94802021D01*
X159892277Y-94775780D01*
X159848468Y-94750751D01*
X159806949Y-94727022D01*
X159767876Y-94704684D01*
X159731404Y-94683823D01*
X159697688Y-94664529D01*
X159666885Y-94646890D01*
X159639148Y-94630995D01*
X159614633Y-94616932D01*
X159593497Y-94604789D01*
X159575893Y-94594656D01*
X159561979Y-94586621D01*
X159551908Y-94580773D01*
X159545836Y-94577199D01*
X159544068Y-94576111D01*
X159505181Y-94547041D01*
X159469695Y-94514569D01*
X159437805Y-94478946D01*
X159409705Y-94440427D01*
X159385591Y-94399262D01*
X159365658Y-94355705D01*
X159357974Y-94335015D01*
X159350139Y-94309563D01*
X159343225Y-94281775D01*
X159337743Y-94253927D01*
X159334449Y-94230617D01*
X159334228Y-94226517D01*
X159334018Y-94218348D01*
X159333818Y-94206074D01*
X159333628Y-94189658D01*
X159333449Y-94169063D01*
X159333279Y-94144251D01*
X159333120Y-94115187D01*
X159332970Y-94081834D01*
X159332830Y-94044154D01*
X159332700Y-94002111D01*
X159332580Y-93955668D01*
X159332469Y-93904789D01*
X159332368Y-93849436D01*
X159332276Y-93789573D01*
X159332194Y-93725163D01*
X159332121Y-93656169D01*
X159332088Y-93618376D01*
X159454250Y-93618376D01*
X159455066Y-93924141D01*
X159455191Y-93969449D01*
X159455313Y-94010123D01*
X159455437Y-94046430D01*
X159455567Y-94078638D01*
X159455707Y-94107014D01*
X159455862Y-94131826D01*
X159456035Y-94153343D01*
X159456231Y-94171831D01*
X159456455Y-94187558D01*
X159456710Y-94200792D01*
X159457001Y-94211801D01*
X159457332Y-94220851D01*
X159457707Y-94228212D01*
X159458131Y-94234150D01*
X159458607Y-94238933D01*
X159459141Y-94242829D01*
X159459736Y-94246105D01*
X159460218Y-94248290D01*
X159470930Y-94285868D01*
X159484844Y-94321921D01*
X159501533Y-94355499D01*
X159520572Y-94385655D01*
X159524161Y-94390572D01*
X159536479Y-94405727D01*
X159551348Y-94421896D01*
X159567616Y-94437970D01*
X159584130Y-94452840D01*
X159599737Y-94465398D01*
X159607978Y-94471223D01*
X159611901Y-94473625D01*
X159619883Y-94478339D01*
X159631724Y-94485250D01*
X159647224Y-94494243D01*
X159666183Y-94505204D01*
X159688401Y-94518016D01*
X159713678Y-94532566D01*
X159741813Y-94548739D01*
X159772607Y-94566419D01*
X159805859Y-94585492D01*
X159841369Y-94605844D01*
X159878937Y-94627358D01*
X159918364Y-94649921D01*
X159959449Y-94673417D01*
X160001991Y-94697731D01*
X160045791Y-94722749D01*
X160090649Y-94748356D01*
X160107612Y-94758036D01*
X160588014Y-95032128D01*
X160877848Y-95032373D01*
X161167682Y-95032619D01*
X161167682Y-94325497D01*
X161167682Y-93618376D01*
X160310966Y-93618376D01*
X159454250Y-93618376D01*
X159332088Y-93618376D01*
X159332057Y-93582555D01*
X159332002Y-93504283D01*
X159331957Y-93421317D01*
X159331920Y-93333620D01*
X159331893Y-93241155D01*
X159331874Y-93143886D01*
X159331864Y-93041776D01*
X159331862Y-92972752D01*
X159331863Y-92878960D01*
X159331867Y-92789945D01*
X159331874Y-92705580D01*
X159331876Y-92689436D01*
X159454413Y-92689436D01*
X159454413Y-93038708D01*
X159454413Y-93387979D01*
X159846578Y-93387979D01*
X160238742Y-93387979D01*
X160238742Y-93038708D01*
X160238742Y-92689436D01*
X160469139Y-92689436D01*
X160469139Y-93038708D01*
X160469139Y-93387979D01*
X160884073Y-93387979D01*
X160937998Y-93387976D01*
X160987244Y-93387970D01*
X161032036Y-93387970D01*
X161072597Y-93387984D01*
X161109152Y-93388018D01*
X161141923Y-93388080D01*
X161171135Y-93388178D01*
X161197011Y-93388319D01*
X161219775Y-93388511D01*
X161239652Y-93388762D01*
X161256864Y-93389078D01*
X161271636Y-93389468D01*
X161284191Y-93389939D01*
X161294754Y-93390499D01*
X161303547Y-93391155D01*
X161310795Y-93391915D01*
X161316722Y-93392786D01*
X161321550Y-93393776D01*
X161325505Y-93394892D01*
X161328810Y-93396142D01*
X161331688Y-93397533D01*
X161334364Y-93399074D01*
X161337061Y-93400771D01*
X161340003Y-93402632D01*
X161341261Y-93403402D01*
X161360416Y-93417747D01*
X161376498Y-93435582D01*
X161387829Y-93454157D01*
X161396853Y-93472540D01*
X161397480Y-94320018D01*
X161398106Y-95167497D01*
X161393099Y-95182360D01*
X161383220Y-95204525D01*
X161369615Y-95223516D01*
X161352351Y-95239265D01*
X161331496Y-95251703D01*
X161320499Y-95256376D01*
X161317493Y-95257474D01*
X161314467Y-95258416D01*
X161311030Y-95259218D01*
X161306795Y-95259894D01*
X161301370Y-95260461D01*
X161294366Y-95260934D01*
X161285393Y-95261327D01*
X161274062Y-95261656D01*
X161259982Y-95261937D01*
X161242765Y-95262184D01*
X161222020Y-95262414D01*
X161197357Y-95262640D01*
X161168387Y-95262879D01*
X161151288Y-95263015D01*
X160996411Y-95264241D01*
X161395860Y-95491886D01*
X161437124Y-95515386D01*
X161477446Y-95538318D01*
X161516604Y-95560555D01*
X161554372Y-95581973D01*
X161590528Y-95602445D01*
X161624848Y-95621846D01*
X161657109Y-95640050D01*
X161687086Y-95656930D01*
X161714556Y-95672362D01*
X161739295Y-95686219D01*
X161761081Y-95698375D01*
X161779688Y-95708705D01*
X161794894Y-95717083D01*
X161806475Y-95723384D01*
X161814208Y-95727480D01*
X161817521Y-95729107D01*
X161853509Y-95741984D01*
X161890977Y-95750340D01*
X161929363Y-95754114D01*
X161968107Y-95753242D01*
X161998186Y-95749302D01*
X162016700Y-95745180D01*
X162036853Y-95739367D01*
X162056656Y-95732511D01*
X162074115Y-95725260D01*
X162078239Y-95723283D01*
X162081869Y-95721311D01*
X162089524Y-95717016D01*
X162100987Y-95710522D01*
X162116035Y-95701956D01*
X162134451Y-95691445D01*
X162156013Y-95679113D01*
X162180502Y-95665088D01*
X162207699Y-95649496D01*
X162237383Y-95632461D01*
X162269335Y-95614111D01*
X162303335Y-95594572D01*
X162339163Y-95573969D01*
X162376599Y-95552428D01*
X162415424Y-95530077D01*
X162455417Y-95507040D01*
X162484803Y-95490105D01*
X162876662Y-95264241D01*
X162759318Y-95262911D01*
X162730853Y-95262583D01*
X162706821Y-95262260D01*
X162686751Y-95261884D01*
X162670175Y-95261399D01*
X162656623Y-95260748D01*
X162645626Y-95259874D01*
X162636715Y-95258720D01*
X162629420Y-95257228D01*
X162623272Y-95255342D01*
X162617801Y-95253005D01*
X162612538Y-95250160D01*
X162607014Y-95246749D01*
X162602557Y-95243877D01*
X162584059Y-95229160D01*
X162569094Y-95211437D01*
X162558041Y-95191296D01*
X162551278Y-95169328D01*
X162550091Y-95162075D01*
X162549881Y-95158008D01*
X162549681Y-95149260D01*
X162549491Y-95136053D01*
X162549310Y-95118609D01*
X162549139Y-95097149D01*
X162548978Y-95071894D01*
X162548827Y-95043066D01*
X162548685Y-95010887D01*
X162548554Y-94975577D01*
X162548432Y-94937360D01*
X162548319Y-94896455D01*
X162548217Y-94853085D01*
X162548124Y-94807471D01*
X162548041Y-94759835D01*
X162547967Y-94710398D01*
X162547904Y-94659382D01*
X162547850Y-94607008D01*
X162547805Y-94553497D01*
X162547771Y-94499072D01*
X162547746Y-94443953D01*
X162547731Y-94388363D01*
X162547726Y-94332522D01*
X162547730Y-94276653D01*
X162547744Y-94220976D01*
X162547768Y-94165714D01*
X162547801Y-94111087D01*
X162547844Y-94057318D01*
X162547897Y-94004628D01*
X162547959Y-93953237D01*
X162548031Y-93903369D01*
X162548113Y-93855244D01*
X162548205Y-93809084D01*
X162548306Y-93765111D01*
X162548417Y-93723545D01*
X162548537Y-93684609D01*
X162548668Y-93648523D01*
X162548795Y-93618376D01*
X162780458Y-93618376D01*
X162780458Y-94325497D01*
X162780458Y-95032619D01*
X163029376Y-95032619D01*
X163278294Y-95032619D01*
X163753042Y-94758938D01*
X163797946Y-94733042D01*
X163841884Y-94707685D01*
X163884653Y-94682983D01*
X163926053Y-94659053D01*
X163965881Y-94636014D01*
X164003936Y-94613981D01*
X164040017Y-94593072D01*
X164073922Y-94573404D01*
X164105449Y-94555094D01*
X164134397Y-94538259D01*
X164160564Y-94523016D01*
X164183749Y-94509482D01*
X164203750Y-94497775D01*
X164220366Y-94488011D01*
X164233396Y-94480307D01*
X164242636Y-94474781D01*
X164247887Y-94471549D01*
X164248624Y-94471066D01*
X164280685Y-94446305D01*
X164309403Y-94418098D01*
X164334587Y-94386752D01*
X164356048Y-94352573D01*
X164373597Y-94315867D01*
X164387044Y-94276940D01*
X164396199Y-94236100D01*
X164396993Y-94231133D01*
X164397544Y-94226868D01*
X164398038Y-94221482D01*
X164398476Y-94214710D01*
X164398864Y-94206290D01*
X164399202Y-94195957D01*
X164399496Y-94183449D01*
X164399746Y-94168502D01*
X164399957Y-94150852D01*
X164400131Y-94130236D01*
X164400271Y-94106390D01*
X164400381Y-94079052D01*
X164400463Y-94047957D01*
X164400520Y-94012841D01*
X164400555Y-93973443D01*
X164400571Y-93929497D01*
X164400573Y-93913112D01*
X164400587Y-93618376D01*
X163590523Y-93618376D01*
X162780458Y-93618376D01*
X162548795Y-93618376D01*
X162548807Y-93615511D01*
X162548957Y-93585792D01*
X162549116Y-93559588D01*
X162549285Y-93537122D01*
X162549463Y-93518614D01*
X162549652Y-93504286D01*
X162549849Y-93494359D01*
X162550057Y-93489056D01*
X162550111Y-93488471D01*
X162555288Y-93466575D01*
X162564759Y-93445900D01*
X162577950Y-93427304D01*
X162594288Y-93411648D01*
X162607089Y-93403013D01*
X162610307Y-93401117D01*
X162613187Y-93399387D01*
X162615957Y-93397816D01*
X162618841Y-93396395D01*
X162622068Y-93395118D01*
X162625862Y-93393976D01*
X162630452Y-93392962D01*
X162636064Y-93392069D01*
X162642924Y-93391289D01*
X162651258Y-93390614D01*
X162661294Y-93390036D01*
X162673257Y-93389549D01*
X162687375Y-93389145D01*
X162703875Y-93388815D01*
X162722981Y-93388553D01*
X162744922Y-93388351D01*
X162769924Y-93388201D01*
X162798212Y-93388096D01*
X162830015Y-93388027D01*
X162865558Y-93387989D01*
X162905068Y-93387972D01*
X162948772Y-93387970D01*
X162996896Y-93387975D01*
X163049666Y-93387979D01*
X163056714Y-93387979D01*
X163464295Y-93387979D01*
X163464295Y-93038708D01*
X163464295Y-92689436D01*
X163694691Y-92689436D01*
X163694691Y-93038708D01*
X163694691Y-93387979D01*
X164047639Y-93387979D01*
X164400587Y-93387979D01*
X164400587Y-93038708D01*
X164400587Y-92689436D01*
X164047639Y-92689436D01*
X163694691Y-92689436D01*
X163464295Y-92689436D01*
X162823351Y-92689436D01*
X162182407Y-92689436D01*
X162182407Y-93972549D01*
X162182407Y-95255662D01*
X161936079Y-95255662D01*
X161689751Y-95255662D01*
X161689751Y-93972549D01*
X161689751Y-92689436D01*
X161079445Y-92689436D01*
X160469139Y-92689436D01*
X160238742Y-92689436D01*
X159846578Y-92689436D01*
X159454413Y-92689436D01*
X159331876Y-92689436D01*
X159331884Y-92625739D01*
X159331897Y-92550297D01*
X159331915Y-92479127D01*
X159331922Y-92456589D01*
X159454291Y-92456589D01*
X160572021Y-92456589D01*
X161689751Y-92456589D01*
X162182407Y-92456589D01*
X163291497Y-92456589D01*
X164400587Y-92456589D01*
X164400587Y-92089483D01*
X164400569Y-92031373D01*
X164400515Y-91977862D01*
X164400424Y-91928977D01*
X164400298Y-91884745D01*
X164400136Y-91845194D01*
X164399939Y-91810351D01*
X164399706Y-91780245D01*
X164399438Y-91754902D01*
X164399136Y-91734350D01*
X164398798Y-91718616D01*
X164398426Y-91707729D01*
X164398020Y-91701715D01*
X164398007Y-91701608D01*
X164390649Y-91661803D01*
X164378756Y-91623196D01*
X164362595Y-91586225D01*
X164342433Y-91551326D01*
X164318538Y-91518936D01*
X164291176Y-91489492D01*
X164260614Y-91463431D01*
X164246064Y-91453042D01*
X164243019Y-91451195D01*
X164235971Y-91447048D01*
X164225122Y-91440717D01*
X164210678Y-91432320D01*
X164192841Y-91421975D01*
X164171815Y-91409798D01*
X164147805Y-91395908D01*
X164121013Y-91380420D01*
X164091643Y-91363453D01*
X164059900Y-91345124D01*
X164025986Y-91325549D01*
X163990106Y-91304848D01*
X163952463Y-91283135D01*
X163913261Y-91260530D01*
X163872704Y-91237149D01*
X163830995Y-91213109D01*
X163788338Y-91188528D01*
X163744936Y-91163524D01*
X163700995Y-91138212D01*
X163656716Y-91112712D01*
X163612304Y-91087139D01*
X163567962Y-91061611D01*
X163523895Y-91036246D01*
X163480306Y-91011161D01*
X163437398Y-90986473D01*
X163395375Y-90962299D01*
X163354442Y-90938757D01*
X163314801Y-90915964D01*
X163276657Y-90894037D01*
X163240213Y-90873093D01*
X163205673Y-90853251D01*
X163173240Y-90834626D01*
X163143118Y-90817337D01*
X163115512Y-90801500D01*
X163090624Y-90787234D01*
X163068658Y-90774655D01*
X163049818Y-90763880D01*
X163034308Y-90755027D01*
X163022332Y-90748213D01*
X163014092Y-90743556D01*
X163009794Y-90741172D01*
X163009186Y-90740869D01*
X163009104Y-90743279D01*
X163009024Y-90750346D01*
X163008947Y-90761824D01*
X163008874Y-90777468D01*
X163008804Y-90797033D01*
X163008738Y-90820272D01*
X163008677Y-90846941D01*
X163008621Y-90876795D01*
X163008570Y-90909587D01*
X163008525Y-90945073D01*
X163008487Y-90983007D01*
X163008455Y-91023144D01*
X163008431Y-91065238D01*
X163008414Y-91109044D01*
X163008405Y-91154317D01*
X163008404Y-91179153D01*
X163008392Y-91240803D01*
X163008355Y-91297628D01*
X163008293Y-91349705D01*
X163008206Y-91397113D01*
X163008094Y-91439928D01*
X163007954Y-91478228D01*
X163007789Y-91512090D01*
X163007595Y-91541591D01*
X163007375Y-91566810D01*
X163007126Y-91587822D01*
X163006848Y-91604706D01*
X163006542Y-91617539D01*
X163006205Y-91626398D01*
X163005839Y-91631361D01*
X163005747Y-91631980D01*
X162999259Y-91654235D01*
X162988490Y-91674535D01*
X162973848Y-91692358D01*
X162955739Y-91707179D01*
X162940531Y-91715818D01*
X162921392Y-91724957D01*
X162551900Y-91725608D01*
X162182407Y-91726260D01*
X162182407Y-92091424D01*
X162182407Y-92456589D01*
X161689751Y-92456589D01*
X161689751Y-92091386D01*
X161689751Y-91726182D01*
X161346865Y-91726182D01*
X161299012Y-91726181D01*
X161255811Y-91726174D01*
X161217011Y-91726159D01*
X161182362Y-91726131D01*
X161151614Y-91726088D01*
X161124516Y-91726027D01*
X161100819Y-91725943D01*
X161080271Y-91725834D01*
X161062622Y-91725697D01*
X161047622Y-91725527D01*
X161035020Y-91725321D01*
X161024567Y-91725077D01*
X161016012Y-91724790D01*
X161009104Y-91724458D01*
X161003594Y-91724076D01*
X160999230Y-91723643D01*
X160995763Y-91723153D01*
X160992942Y-91722605D01*
X160990517Y-91721994D01*
X160988402Y-91721368D01*
X160966575Y-91712173D01*
X160947586Y-91699005D01*
X160931569Y-91681981D01*
X160918660Y-91661219D01*
X160918336Y-91660568D01*
X160909098Y-91641877D01*
X160908897Y-91495786D01*
X161138269Y-91495786D01*
X161414010Y-91495786D01*
X161689751Y-91495786D01*
X161689751Y-91120779D01*
X161689751Y-90745771D01*
X161936079Y-90745771D01*
X162182407Y-90745771D01*
X162182407Y-91120779D01*
X162182407Y-91495786D01*
X162480207Y-91495786D01*
X162778007Y-91495786D01*
X162777970Y-91051537D01*
X162777933Y-90607288D01*
X162436919Y-90411206D01*
X162398782Y-90389287D01*
X162361555Y-90367910D01*
X162325484Y-90347214D01*
X162290813Y-90327340D01*
X162257788Y-90308428D01*
X162226654Y-90290617D01*
X162197657Y-90274048D01*
X162171041Y-90258861D01*
X162147051Y-90245194D01*
X162125934Y-90233190D01*
X162107933Y-90222987D01*
X162093295Y-90214725D01*
X162082264Y-90208544D01*
X162075086Y-90204585D01*
X162072702Y-90203319D01*
X162038520Y-90188156D01*
X162004213Y-90177556D01*
X161968832Y-90171292D01*
X161931431Y-90169137D01*
X161929951Y-90169133D01*
X161891911Y-90171301D01*
X161854702Y-90177740D01*
X161819114Y-90188267D01*
X161786427Y-90202446D01*
X161782580Y-90204568D01*
X161774751Y-90209024D01*
X161763184Y-90215671D01*
X161748126Y-90224364D01*
X161729825Y-90234961D01*
X161708526Y-90247319D01*
X161684476Y-90261293D01*
X161657922Y-90276741D01*
X161629111Y-90293519D01*
X161598288Y-90311484D01*
X161565700Y-90330493D01*
X161531595Y-90350402D01*
X161496217Y-90371067D01*
X161459815Y-90392346D01*
X161454807Y-90395274D01*
X161138372Y-90580327D01*
X161138321Y-91038056D01*
X161138269Y-91495786D01*
X160908897Y-91495786D01*
X160908461Y-91179118D01*
X160908391Y-91131876D01*
X160908316Y-91085962D01*
X160908235Y-91041615D01*
X160908150Y-90999074D01*
X160908061Y-90958578D01*
X160907968Y-90920365D01*
X160907873Y-90884674D01*
X160907777Y-90851744D01*
X160907679Y-90821814D01*
X160907581Y-90795123D01*
X160907484Y-90771909D01*
X160907388Y-90752412D01*
X160907294Y-90736870D01*
X160907203Y-90725521D01*
X160907115Y-90718606D01*
X160907034Y-90716359D01*
X160904788Y-90717580D01*
X160898512Y-90721167D01*
X160888402Y-90727003D01*
X160874656Y-90734974D01*
X160857472Y-90744964D01*
X160837047Y-90756856D01*
X160813578Y-90770536D01*
X160787262Y-90785888D01*
X160758298Y-90802796D01*
X160726881Y-90821145D01*
X160693210Y-90840819D01*
X160657482Y-90861703D01*
X160619894Y-90883681D01*
X160580643Y-90906636D01*
X160539928Y-90930455D01*
X160497944Y-90955021D01*
X160454890Y-90980218D01*
X160410963Y-91005932D01*
X160366361Y-91032045D01*
X160321279Y-91058444D01*
X160275917Y-91085012D01*
X160230471Y-91111633D01*
X160185138Y-91138193D01*
X160140116Y-91164575D01*
X160095602Y-91190663D01*
X160051794Y-91216343D01*
X160008889Y-91241499D01*
X159967084Y-91266015D01*
X159926577Y-91289775D01*
X159887564Y-91312664D01*
X159850244Y-91334567D01*
X159814813Y-91355367D01*
X159781469Y-91374949D01*
X159750409Y-91393198D01*
X159721831Y-91409998D01*
X159695932Y-91425233D01*
X159672909Y-91438788D01*
X159652960Y-91450547D01*
X159636281Y-91460395D01*
X159623071Y-91468215D01*
X159613526Y-91473893D01*
X159607845Y-91477313D01*
X159606377Y-91478229D01*
X159596425Y-91485500D01*
X159584466Y-91495258D01*
X159571812Y-91506386D01*
X159559776Y-91517764D01*
X159558479Y-91519050D01*
X159530544Y-91550116D01*
X159506919Y-91583383D01*
X159487490Y-91619059D01*
X159472141Y-91657356D01*
X159461398Y-91695626D01*
X159455811Y-91720055D01*
X159455051Y-92088322D01*
X159454291Y-92456589D01*
X159331922Y-92456589D01*
X159331937Y-92412104D01*
X159331965Y-92349102D01*
X159331997Y-92289995D01*
X159332035Y-92234657D01*
X159332078Y-92182963D01*
X159332128Y-92134785D01*
X159332185Y-92089999D01*
X159332249Y-92048479D01*
X159332320Y-92010098D01*
X159332399Y-91974731D01*
X159332487Y-91942252D01*
X159332583Y-91912535D01*
X159332687Y-91885454D01*
X159332801Y-91860884D01*
X159332925Y-91838698D01*
X159333059Y-91818770D01*
X159333203Y-91800975D01*
X159333358Y-91785186D01*
X159333525Y-91771279D01*
X159333702Y-91759126D01*
X159333892Y-91748602D01*
X159334094Y-91739582D01*
X159334309Y-91731939D01*
X159334536Y-91725547D01*
X159334778Y-91720281D01*
X159335032Y-91716015D01*
X159335302Y-91712622D01*
X159335585Y-91709977D01*
X159335612Y-91709764D01*
X159344094Y-91662644D01*
X159357027Y-91616992D01*
X159374214Y-91573127D01*
X159395459Y-91531371D01*
X159420564Y-91492045D01*
X159449332Y-91455468D01*
X159481568Y-91421962D01*
X159517073Y-91391847D01*
X159541425Y-91374499D01*
X159545494Y-91371967D01*
X159553631Y-91367061D01*
X159565680Y-91359873D01*
X159581487Y-91350492D01*
X159600897Y-91339011D01*
X159623754Y-91325519D01*
X159649903Y-91310107D01*
X159679188Y-91292867D01*
X159711455Y-91273889D01*
X159746549Y-91253263D01*
X159784313Y-91231081D01*
X159824594Y-91207433D01*
X159867235Y-91182410D01*
X159912082Y-91156103D01*
X159958979Y-91128603D01*
X160007771Y-91100000D01*
X160058303Y-91070385D01*
X160110420Y-91039849D01*
X160163967Y-91008483D01*
X160218787Y-90976377D01*
X160274727Y-90943622D01*
X160331631Y-90910310D01*
X160389343Y-90876530D01*
X160447709Y-90842373D01*
X160506574Y-90807931D01*
X160565781Y-90773294D01*
X160625176Y-90738553D01*
X160684604Y-90703798D01*
X160743909Y-90669121D01*
X160802937Y-90634612D01*
X160861532Y-90600362D01*
X160919538Y-90566461D01*
X160976802Y-90533001D01*
X161033166Y-90500072D01*
X161088477Y-90467765D01*
X161142579Y-90436171D01*
X161195317Y-90405381D01*
X161246535Y-90375485D01*
X161296079Y-90346573D01*
X161343794Y-90318738D01*
X161389523Y-90292069D01*
X161433112Y-90266658D01*
X161474405Y-90242595D01*
X161513248Y-90219971D01*
X161549485Y-90198876D01*
X161582962Y-90179402D01*
X161613522Y-90161640D01*
X161641010Y-90145679D01*
X161665272Y-90131611D01*
X161686152Y-90119526D01*
X161703496Y-90109516D01*
X161717147Y-90101671D01*
X161726950Y-90096082D01*
X161732751Y-90092840D01*
X161734030Y-90092162D01*
X161775409Y-90074192D01*
X161818326Y-90060713D01*
X161862345Y-90051729D01*
X161907029Y-90047244D01*
X161951944Y-90047262D01*
G37*
X161819767Y-105151500D02*
X161527233Y-105151500D01*
X161819767Y-106171500D02*
X161527233Y-106171500D01*
X134209700Y-102566267D02*
X134209700Y-102273733D01*
X133189700Y-102566267D02*
X133189700Y-102273733D01*
X151494233Y-98551500D02*
X151786767Y-98551500D01*
X151494233Y-97531500D02*
X151786767Y-97531500D01*
X137304000Y-99245724D02*
X137304000Y-98736276D01*
X136259000Y-99245724D02*
X136259000Y-98736276D01*
X143112233Y-107314500D02*
X143404767Y-107314500D01*
X143112233Y-106294500D02*
X143404767Y-106294500D01*
X134459700Y-109258733D02*
X134459700Y-109551267D01*
X135479700Y-109258733D02*
X135479700Y-109551267D01*
X155415976Y-97481500D02*
X155925424Y-97481500D01*
X155415976Y-96436500D02*
X155925424Y-96436500D01*
X131572500Y-105869733D02*
X131572500Y-106162267D01*
X132592500Y-105869733D02*
X132592500Y-106162267D01*
X141847000Y-109156276D02*
X141847000Y-109665724D01*
X142892000Y-109156276D02*
X142892000Y-109665724D01*
G36*
X163013539Y-82975185D02*
G01*
X163059294Y-83027989D01*
X163070500Y-83079500D01*
X163070500Y-84863500D01*
X163050815Y-84930539D01*
X162998011Y-84976294D01*
X162946500Y-84987500D01*
X162051500Y-84987500D01*
X161984461Y-84967815D01*
X161938706Y-84915011D01*
X161927500Y-84863500D01*
X161927500Y-83079500D01*
X161947185Y-83012461D01*
X161999989Y-82966706D01*
X162051500Y-82955500D01*
X162946500Y-82955500D01*
X163013539Y-82975185D01*
G37*
G36*
X164283539Y-82467185D02*
G01*
X164329294Y-82519989D01*
X164340500Y-82571500D01*
X164340500Y-84863500D01*
X164320815Y-84930539D01*
X164268011Y-84976294D01*
X164216500Y-84987500D01*
X163321500Y-84987500D01*
X163254461Y-84967815D01*
X163208706Y-84915011D01*
X163197500Y-84863500D01*
X163197500Y-82571500D01*
X163217185Y-82504461D01*
X163269989Y-82458706D01*
X163321500Y-82447500D01*
X164216500Y-82447500D01*
X164283539Y-82467185D01*
G37*
G36*
X161743539Y-83610185D02*
G01*
X161789294Y-83662989D01*
X161800500Y-83714500D01*
X161800500Y-84863500D01*
X161780815Y-84930539D01*
X161728011Y-84976294D01*
X161676500Y-84987500D01*
X160781500Y-84987500D01*
X160714461Y-84967815D01*
X160668706Y-84915011D01*
X160657500Y-84863500D01*
X160657500Y-83714500D01*
X160677185Y-83647461D01*
X160729989Y-83601706D01*
X160781500Y-83590500D01*
X161676500Y-83590500D01*
X161743539Y-83610185D01*
G37*
G36*
X160473539Y-84118185D02*
G01*
X160519294Y-84170989D01*
X160530500Y-84222500D01*
X160530500Y-84863500D01*
X160510815Y-84930539D01*
X160458011Y-84976294D01*
X160406500Y-84987500D01*
X159511500Y-84987500D01*
X159444461Y-84967815D01*
X159398706Y-84915011D01*
X159387500Y-84863500D01*
X159387500Y-84222500D01*
X159407185Y-84155461D01*
X159459989Y-84109706D01*
X159511500Y-84098500D01*
X160406500Y-84098500D01*
X160473539Y-84118185D01*
G37*
%LPC*%
D15*
X162623501Y-107509500D03*
D16*
X161673500Y-107509500D03*
X160723499Y-107509500D03*
X160723499Y-109909500D03*
X161673500Y-109909500D03*
X162623501Y-109909500D03*
D17*
X135727400Y-103014500D03*
X135727400Y-103514499D03*
X135727400Y-104014500D03*
X135727400Y-104514500D03*
X135727400Y-105014501D03*
X135727400Y-105514500D03*
D18*
X136420500Y-106207600D03*
X136920499Y-106207600D03*
X137420500Y-106207600D03*
X137920500Y-106207600D03*
X138420501Y-106207600D03*
X138920500Y-106207600D03*
D17*
X139613600Y-105514500D03*
X139613600Y-105014501D03*
X139613600Y-104514500D03*
X139613600Y-104014500D03*
X139613600Y-103514499D03*
X139613600Y-103014500D03*
D18*
X138920500Y-102321400D03*
X138420501Y-102321400D03*
X137920500Y-102321400D03*
X137420500Y-102321400D03*
X136920499Y-102321400D03*
X136420500Y-102321400D03*
D19*
X137670500Y-104264500D03*
D20*
X144020500Y-110323500D03*
X144020500Y-108498500D03*
D21*
X156239000Y-112011500D03*
X157964000Y-112011500D03*
D22*
X162536000Y-113408500D03*
X160811000Y-113408500D03*
D23*
X142346000Y-104518500D03*
X144171000Y-104518500D03*
D24*
X139668700Y-99853500D03*
X139668700Y-98128500D03*
D25*
X151141155Y-117923795D03*
D21*
X154808200Y-98610000D03*
X156533200Y-98610000D03*
D22*
X162536000Y-111757500D03*
X160811000Y-111757500D03*
D24*
X141192700Y-99853500D03*
X141192700Y-98128500D03*
D26*
X135130500Y-98128500D03*
X135130500Y-99853500D03*
D27*
X155948500Y-109004500D03*
X155148500Y-109004500D03*
X154348500Y-109004500D03*
X153548500Y-109004500D03*
X152748500Y-109004500D03*
X151948500Y-109004500D03*
X151148500Y-109004500D03*
X150348500Y-109004500D03*
D28*
X148973500Y-107629500D03*
X148973500Y-106829500D03*
X148973500Y-106029500D03*
X148973500Y-105229500D03*
X148973500Y-104429500D03*
X148973500Y-103629500D03*
X148973500Y-102829500D03*
X148973500Y-102029500D03*
D27*
X150348500Y-100654500D03*
X151148500Y-100654500D03*
X151948500Y-100654500D03*
X152748500Y-100654500D03*
X153548500Y-100654500D03*
X154348500Y-100654500D03*
X155148500Y-100654500D03*
X155948500Y-100654500D03*
D28*
X157323500Y-102029500D03*
X157323500Y-102829500D03*
X157323500Y-103629500D03*
X157323500Y-104429500D03*
X157323500Y-105229500D03*
X157323500Y-106029500D03*
X157323500Y-106829500D03*
X157323500Y-107629500D03*
D26*
X133479500Y-98128500D03*
X133479500Y-99853500D03*
D29*
X161052500Y-85849500D03*
X162802500Y-85849500D03*
D24*
X140659100Y-110273500D03*
X140659100Y-108548500D03*
D26*
X148252500Y-98776000D03*
X148252500Y-100501000D03*
D24*
X136620700Y-110267500D03*
X136620700Y-108542500D03*
D26*
X132082500Y-101557500D03*
X132082500Y-103282500D03*
D24*
X133699700Y-106878500D03*
X133699700Y-105153500D03*
D21*
X160811000Y-105661500D03*
X162536000Y-105661500D03*
D26*
X133699700Y-101557500D03*
X133699700Y-103282500D03*
D22*
X152503000Y-98041500D03*
X150778000Y-98041500D03*
D25*
X148890614Y-117929844D03*
D30*
X136781500Y-98078500D03*
X136781500Y-99903500D03*
D22*
X144121000Y-106804500D03*
X142396000Y-106804500D03*
D31*
X153878516Y-118421729D03*
X143574057Y-118421729D03*
D24*
X134969700Y-110267500D03*
X134969700Y-108542500D03*
D32*
X156583200Y-96959000D03*
X154758200Y-96959000D03*
D24*
X132082500Y-106878500D03*
X132082500Y-105153500D03*
D20*
X142369500Y-110323500D03*
X142369500Y-108498500D03*
D33*
X162020700Y-100012000D03*
D34*
X162020700Y-102552000D03*
D33*
X165991500Y-100068500D03*
X165991500Y-102608500D03*
X165991500Y-105148500D03*
X165991500Y-107688500D03*
D34*
X165991500Y-110228500D03*
D35*
X151243300Y-92986900D03*
X146843301Y-93986901D03*
X146043300Y-91786900D03*
X151243300Y-87986900D03*
D36*
X146343299Y-85365251D03*
D35*
X151543299Y-85365251D03*
D37*
X148643300Y-92986900D03*
%LPD*%
M02*
