G04 #@! TF.GenerationSoftware,KiCad,Pcbnew,7.0.7*
G04 #@! TF.CreationDate,2024-03-29T16:46:10+10:30*
G04 #@! TF.ProjectId,hawk,6861776b-2e6b-4696-9361-645f70636258,1*
G04 #@! TF.SameCoordinates,Original*
G04 #@! TF.FileFunction,Copper,L2,Bot*
G04 #@! TF.FilePolarity,Positive*
%FSLAX46Y46*%
G04 Gerber Fmt 4.6, Leading zero omitted, Abs format (unit mm)*
G04 Created by KiCad (PCBNEW 7.0.7) date 2024-03-29 16:46:10*
%MOMM*%
%LPD*%
G01*
G04 APERTURE LIST*
G04 #@! TA.AperFunction,SMDPad,CuDef*
%ADD10R,1.244600X0.660400*%
G04 #@! TD*
G04 #@! TA.AperFunction,ComponentPad*
%ADD11C,1.300000*%
G04 #@! TD*
G04 #@! TA.AperFunction,ComponentPad*
%ADD12O,1.700000X1.700000*%
G04 #@! TD*
G04 #@! TA.AperFunction,ComponentPad*
%ADD13R,1.700000X1.700000*%
G04 #@! TD*
G04 #@! TA.AperFunction,ComponentPad*
%ADD14O,1.371600X2.006600*%
G04 #@! TD*
G04 #@! TA.AperFunction,ComponentPad*
%ADD15O,1.100000X2.000000*%
G04 #@! TD*
G04 #@! TA.AperFunction,ViaPad*
%ADD16C,0.800000*%
G04 #@! TD*
G04 #@! TA.AperFunction,ViaPad*
%ADD17C,0.500000*%
G04 #@! TD*
G04 #@! TA.AperFunction,Conductor*
%ADD18C,0.250000*%
G04 #@! TD*
G04 #@! TA.AperFunction,Conductor*
%ADD19C,0.500000*%
G04 #@! TD*
G04 #@! TA.AperFunction,Conductor*
%ADD20C,1.000000*%
G04 #@! TD*
G04 APERTURE END LIST*
G04 #@! TA.AperFunction,EtchedComponent*
G36*
X139224500Y-113931500D02*
G01*
X136624500Y-113931500D01*
X136624500Y-112631500D01*
X139224500Y-112631500D01*
X139224500Y-113931500D01*
G37*
G04 #@! TD.AperFunction*
D10*
X135892500Y-84281502D03*
X139956500Y-84281502D03*
X135892500Y-82801500D03*
X139956500Y-82801500D03*
D11*
X136624500Y-113281500D03*
X139224500Y-113281500D03*
D12*
X162020700Y-100012000D03*
D13*
X162020700Y-102552000D03*
D12*
X165991500Y-100068500D03*
X165991500Y-102608500D03*
X165991500Y-105148500D03*
X165991500Y-107688500D03*
D13*
X165991500Y-110228500D03*
D14*
X151243300Y-92986900D03*
X146843301Y-93986901D03*
X146043300Y-91786900D03*
X151243300Y-87986900D03*
D15*
X146343299Y-85365251D03*
D14*
X151543299Y-85365251D03*
D16*
X144020500Y-108498500D03*
X157964000Y-112011500D03*
X146179500Y-112265500D03*
X152503000Y-98622500D03*
X145290500Y-112265500D03*
X159006500Y-106423500D03*
X154688500Y-110741500D03*
X147068500Y-114932500D03*
X154808200Y-98610000D03*
X164086500Y-104518500D03*
X145290500Y-113154500D03*
X145290500Y-114043500D03*
X140659100Y-110273500D03*
X146179500Y-113154500D03*
X146179500Y-114932500D03*
X146179500Y-114043500D03*
X140587201Y-106554799D03*
X155196500Y-83563500D03*
X145290500Y-114932500D03*
X157736500Y-100073500D03*
X148252500Y-98776000D03*
X147068500Y-113154500D03*
X147068500Y-114043500D03*
X164086500Y-101343500D03*
X145290500Y-111376500D03*
X160811000Y-105661500D03*
X144121000Y-106804500D03*
X142369500Y-106804500D03*
X134969700Y-108542500D03*
X160811000Y-111757500D03*
D17*
X159581000Y-98803500D03*
X159731836Y-103592836D03*
X160619676Y-103404500D03*
X159615036Y-98017497D03*
X151767500Y-107629500D03*
X145036500Y-107439500D03*
X154688500Y-107185500D03*
X145651000Y-106709934D03*
X153832399Y-107011887D03*
X144401500Y-105788500D03*
X155831500Y-102029500D03*
X153553132Y-101927040D03*
X147322500Y-102105500D03*
X145671500Y-105788500D03*
X147607895Y-106830818D03*
X152250500Y-106829500D03*
X158893750Y-103516750D03*
X159006500Y-96263500D03*
D16*
X129545000Y-108707000D03*
X132082500Y-101557500D03*
X130434000Y-108707000D03*
X133479500Y-98128500D03*
X136620700Y-110267500D03*
X132222000Y-109728000D03*
X138178500Y-104772500D03*
X133699700Y-106878500D03*
X137162500Y-104772500D03*
X132212000Y-110739000D03*
X131323000Y-110739000D03*
X132082500Y-106878500D03*
X138178500Y-103756500D03*
X137162500Y-103756500D03*
X139702500Y-96517500D03*
X131323000Y-108707000D03*
X130434000Y-110739000D03*
X131333000Y-109728000D03*
X135130500Y-98128500D03*
X130444000Y-109728000D03*
X129545000Y-110739000D03*
X134969700Y-110267500D03*
X129555000Y-109728000D03*
X132212000Y-108707000D03*
X133699700Y-101557500D03*
D17*
X141988500Y-94739500D03*
X136019500Y-107185500D03*
D16*
X153654995Y-91183500D03*
D18*
X164627750Y-102547000D02*
X165737500Y-102547000D01*
X163006914Y-104167836D02*
X164627750Y-102547000D01*
X159465827Y-104140000D02*
X159493663Y-104167836D01*
X159493663Y-104167836D02*
X163006914Y-104167836D01*
X154940000Y-104140000D02*
X159465827Y-104140000D01*
X152250500Y-106829500D02*
X154940000Y-104140000D01*
X163016500Y-104718500D02*
X165737500Y-107439500D01*
X155217100Y-104718500D02*
X163016500Y-104718500D01*
X165737500Y-107439500D02*
X165737500Y-107627000D01*
X152306100Y-107629500D02*
X155217100Y-104718500D01*
X151767500Y-107629500D02*
X152306100Y-107629500D01*
D19*
X157964000Y-112011500D02*
X157864000Y-111911500D01*
D20*
X158959944Y-111911500D02*
X160704444Y-110167000D01*
D19*
X157864000Y-111911500D02*
X156974500Y-111911500D01*
D20*
X144020500Y-108498500D02*
X146127135Y-108498500D01*
X156974500Y-111911500D02*
X158959944Y-111911500D01*
X160704444Y-110167000D02*
X165737500Y-110167000D01*
X146127135Y-108498500D02*
X149540135Y-111911500D01*
X149540135Y-111911500D02*
X156974500Y-111911500D01*
D18*
X150562841Y-83563500D02*
X150452341Y-83674000D01*
X155196500Y-83563500D02*
X150562841Y-83563500D01*
X140829000Y-83674000D02*
X139956500Y-82801500D01*
X150452341Y-83674000D02*
X140829000Y-83674000D01*
D20*
X141861500Y-82801500D02*
X134114500Y-82801500D01*
D18*
X140439341Y-82547500D02*
X139956500Y-82547500D01*
D20*
X140805500Y-108542500D02*
X141961500Y-109698500D01*
X141961500Y-109698500D02*
X142242500Y-109979500D01*
X142369500Y-106804500D02*
X142369500Y-109290500D01*
X142242500Y-109979500D02*
X145727790Y-109979500D01*
X145727790Y-109979500D02*
X148859790Y-113111500D01*
X134969700Y-108542500D02*
X140805500Y-108542500D01*
X142369500Y-109290500D02*
X141961500Y-109698500D01*
X148859790Y-113111500D02*
X159457000Y-113111500D01*
X159457000Y-113111500D02*
X160811000Y-111757500D01*
D18*
X159481000Y-98903500D02*
X159581000Y-98803500D01*
X159481000Y-103065327D02*
X159481000Y-98903500D01*
X159731836Y-103316163D02*
X159481000Y-103065327D01*
X159731836Y-103592836D02*
X159731836Y-103316163D01*
X160619676Y-103248403D02*
X160186000Y-102814727D01*
X160186000Y-102814727D02*
X160186000Y-98552900D01*
X160619676Y-103404500D02*
X160619676Y-103248403D01*
X159650597Y-98017497D02*
X159615036Y-98017497D01*
X160186000Y-98552900D02*
X159650597Y-98017497D01*
X147633627Y-108778500D02*
X153095500Y-108778500D01*
X145036500Y-107439500D02*
X146294627Y-107439500D01*
X146294627Y-107439500D02*
X147633627Y-108778500D01*
X153095500Y-108778500D02*
X154688500Y-107185500D01*
X152515786Y-108328500D02*
X153832399Y-107011887D01*
X146338934Y-106709934D02*
X147957500Y-108328500D01*
X147957500Y-108328500D02*
X152515786Y-108328500D01*
X145651000Y-106709934D02*
X146338934Y-106709934D01*
X155780500Y-102029500D02*
X155831500Y-102029500D01*
X145036500Y-105153500D02*
X152656500Y-105153500D01*
X152656500Y-105153500D02*
X155780500Y-102029500D01*
X144401500Y-105788500D02*
X145036500Y-105153500D01*
X147561000Y-102344000D02*
X153136172Y-102344000D01*
X147322500Y-102105500D02*
X147561000Y-102344000D01*
X153136172Y-102344000D02*
X153553132Y-101927040D01*
X145671500Y-105788500D02*
X146941500Y-105788500D01*
X147607895Y-106454895D02*
X147607895Y-106830818D01*
X146941500Y-105788500D02*
X147607895Y-106454895D01*
X158893750Y-98635150D02*
X159006500Y-98522400D01*
X159006500Y-98522400D02*
X159006500Y-96263500D01*
X158893750Y-103516750D02*
X158893750Y-98635150D01*
X136019500Y-107185500D02*
X136019500Y-103874195D01*
X135130500Y-102985195D02*
X135130500Y-99819500D01*
X140210500Y-94739500D02*
X141988500Y-94739500D01*
X136019500Y-103874195D02*
X135130500Y-102985195D01*
X135130500Y-99819500D02*
X140210500Y-94739500D01*
D20*
X135892500Y-84281502D02*
X139956500Y-84281502D01*
D18*
X153654995Y-91183500D02*
X150116500Y-91183500D01*
X150116500Y-91183500D02*
X143214502Y-84281502D01*
X143214502Y-84281502D02*
X139956500Y-84281502D01*
G04 #@! TA.AperFunction,Conductor*
G36*
X133387655Y-81896685D02*
G01*
X133433410Y-81949489D01*
X133443354Y-82018647D01*
X133414329Y-82082203D01*
X133401386Y-82095086D01*
X133385605Y-82108632D01*
X133385604Y-82108634D01*
X133261054Y-82269537D01*
X133261053Y-82269540D01*
X133171440Y-82452228D01*
X133120437Y-82649214D01*
X133110131Y-82852436D01*
X133140942Y-83053563D01*
X133140945Y-83053575D01*
X133211611Y-83244381D01*
X133211615Y-83244388D01*
X133319245Y-83417067D01*
X133319247Y-83417069D01*
X133319248Y-83417071D01*
X133459441Y-83564553D01*
X133587844Y-83653924D01*
X133626449Y-83680794D01*
X133626450Y-83680794D01*
X133626451Y-83680795D01*
X133813442Y-83761040D01*
X134012759Y-83802000D01*
X134645700Y-83802000D01*
X134712739Y-83821685D01*
X134758494Y-83874489D01*
X134769700Y-83926000D01*
X134769700Y-84659572D01*
X134769701Y-84659578D01*
X134776108Y-84719185D01*
X134826402Y-84854030D01*
X134826406Y-84854037D01*
X134912652Y-84969246D01*
X134912655Y-84969249D01*
X135027864Y-85055495D01*
X135027871Y-85055499D01*
X135162716Y-85105793D01*
X135188619Y-85108577D01*
X135222327Y-85112202D01*
X135295726Y-85112201D01*
X135362765Y-85131885D01*
X135366554Y-85134420D01*
X135404451Y-85160797D01*
X135404452Y-85160797D01*
X135404452Y-85160798D01*
X135497946Y-85200919D01*
X135591442Y-85241042D01*
X135790759Y-85282002D01*
X140007243Y-85282002D01*
X140158939Y-85266576D01*
X140353079Y-85205664D01*
X140353079Y-85205663D01*
X140353088Y-85205661D01*
X140493400Y-85127781D01*
X140553576Y-85112201D01*
X140626671Y-85112201D01*
X140626672Y-85112201D01*
X140686283Y-85105793D01*
X140821131Y-85055498D01*
X140936346Y-84969248D01*
X140945747Y-84956689D01*
X141001682Y-84914819D01*
X141045013Y-84907002D01*
X142904050Y-84907002D01*
X142971089Y-84926687D01*
X142991731Y-84943321D01*
X149615697Y-91567288D01*
X149625522Y-91579551D01*
X149625743Y-91579369D01*
X149630714Y-91585378D01*
X149656717Y-91609795D01*
X149681135Y-91632726D01*
X149702029Y-91653620D01*
X149707511Y-91657873D01*
X149711943Y-91661657D01*
X149745918Y-91693562D01*
X149763476Y-91703214D01*
X149779735Y-91713895D01*
X149795564Y-91726173D01*
X149838338Y-91744682D01*
X149843556Y-91747238D01*
X149884408Y-91769697D01*
X149903816Y-91774680D01*
X149922217Y-91780980D01*
X149940604Y-91788937D01*
X149983988Y-91795808D01*
X149986619Y-91796225D01*
X149992339Y-91797409D01*
X150037481Y-91809000D01*
X150057516Y-91809000D01*
X150076914Y-91810526D01*
X150096694Y-91813659D01*
X150096695Y-91813660D01*
X150096695Y-91813659D01*
X150096696Y-91813660D01*
X150143083Y-91809275D01*
X150148922Y-91809000D01*
X150157459Y-91809000D01*
X150224498Y-91828685D01*
X150270253Y-91881489D01*
X150280197Y-91950647D01*
X150256413Y-92007726D01*
X150230372Y-92042209D01*
X150230363Y-92042223D01*
X150132369Y-92239020D01*
X150072203Y-92450486D01*
X150064353Y-92535203D01*
X150058079Y-92602920D01*
X150057000Y-92614560D01*
X150057000Y-93359239D01*
X150072203Y-93523313D01*
X150132369Y-93734779D01*
X150230363Y-93931576D01*
X150230368Y-93931584D01*
X150284439Y-94003185D01*
X150362858Y-94107029D01*
X150525332Y-94255143D01*
X150712255Y-94370881D01*
X150917263Y-94450302D01*
X151133373Y-94490700D01*
X151133375Y-94490700D01*
X151353225Y-94490700D01*
X151353227Y-94490700D01*
X151569337Y-94450302D01*
X151774345Y-94370881D01*
X151961268Y-94255143D01*
X152123742Y-94107029D01*
X152256233Y-93931582D01*
X152354231Y-93734777D01*
X152413234Y-93527398D01*
X152450512Y-93468307D01*
X152513822Y-93438749D01*
X152583061Y-93448111D01*
X152636248Y-93493420D01*
X152656496Y-93560291D01*
X152656500Y-93561334D01*
X152656500Y-96774500D01*
X152636815Y-96841539D01*
X152584011Y-96887294D01*
X152532500Y-96898500D01*
X139702500Y-96898500D01*
X139702500Y-106354030D01*
X139702160Y-106360515D01*
X139681741Y-106554798D01*
X139681741Y-106554799D01*
X139693223Y-106664050D01*
X139702160Y-106749076D01*
X139702500Y-106755561D01*
X139702500Y-107418000D01*
X139682815Y-107485039D01*
X139630011Y-107530794D01*
X139578500Y-107542000D01*
X136864637Y-107542000D01*
X136797598Y-107522315D01*
X136751843Y-107469511D01*
X136741899Y-107400353D01*
X136747595Y-107377046D01*
X136750641Y-107368339D01*
X136755813Y-107353559D01*
X136774749Y-107185500D01*
X136774749Y-107185497D01*
X136755814Y-107017443D01*
X136723762Y-106925845D01*
X136699956Y-106857810D01*
X136682168Y-106829500D01*
X136664006Y-106800595D01*
X136645000Y-106734623D01*
X136645000Y-103956937D01*
X136646724Y-103941317D01*
X136646439Y-103941291D01*
X136647171Y-103933535D01*
X136647173Y-103933528D01*
X136645000Y-103864380D01*
X136645000Y-103834845D01*
X136644131Y-103827967D01*
X136643672Y-103822138D01*
X136642209Y-103775567D01*
X136636622Y-103756339D01*
X136632674Y-103737279D01*
X136630164Y-103717403D01*
X136630163Y-103717401D01*
X136630163Y-103717399D01*
X136613012Y-103674082D01*
X136611119Y-103668553D01*
X136598118Y-103623804D01*
X136598116Y-103623801D01*
X136587923Y-103606566D01*
X136579361Y-103589089D01*
X136571987Y-103570465D01*
X136571986Y-103570463D01*
X136544579Y-103532740D01*
X136541388Y-103527881D01*
X136517672Y-103487778D01*
X136517665Y-103487769D01*
X136503506Y-103473610D01*
X136490868Y-103458814D01*
X136479094Y-103442608D01*
X136447874Y-103416781D01*
X136443188Y-103412904D01*
X136438876Y-103408981D01*
X135792319Y-102762423D01*
X135758834Y-102701100D01*
X135756000Y-102674742D01*
X135756000Y-100129952D01*
X135775685Y-100062913D01*
X135792319Y-100042271D01*
X140433272Y-95401319D01*
X140494595Y-95367834D01*
X140520953Y-95365000D01*
X141537624Y-95365000D01*
X141603595Y-95384005D01*
X141660810Y-95419956D01*
X141782121Y-95462404D01*
X141820443Y-95475814D01*
X141988497Y-95494749D01*
X141988500Y-95494749D01*
X141988503Y-95494749D01*
X142156556Y-95475814D01*
X142156559Y-95475813D01*
X142316190Y-95419956D01*
X142316192Y-95419954D01*
X142316194Y-95419954D01*
X142316197Y-95419952D01*
X142459384Y-95329981D01*
X142459385Y-95329980D01*
X142459390Y-95329977D01*
X142578977Y-95210390D01*
X142668952Y-95067197D01*
X142668954Y-95067194D01*
X142668954Y-95067192D01*
X142668956Y-95067190D01*
X142724813Y-94907559D01*
X142724813Y-94907558D01*
X142724814Y-94907556D01*
X142743749Y-94739502D01*
X142743749Y-94739497D01*
X142724814Y-94571443D01*
X142682425Y-94450302D01*
X142668956Y-94411810D01*
X142668955Y-94411809D01*
X142668954Y-94411805D01*
X142668952Y-94411802D01*
X142578981Y-94268615D01*
X142578976Y-94268609D01*
X142459390Y-94149023D01*
X142459384Y-94149018D01*
X142316197Y-94059047D01*
X142316194Y-94059045D01*
X142156556Y-94003185D01*
X141988503Y-93984251D01*
X141988497Y-93984251D01*
X141820443Y-94003185D01*
X141660807Y-94059045D01*
X141603596Y-94094994D01*
X141537624Y-94114000D01*
X140293243Y-94114000D01*
X140277622Y-94112275D01*
X140277596Y-94112561D01*
X140269834Y-94111827D01*
X140269833Y-94111827D01*
X140200686Y-94114000D01*
X140171149Y-94114000D01*
X140164266Y-94114869D01*
X140158449Y-94115326D01*
X140111873Y-94116790D01*
X140092629Y-94122381D01*
X140073579Y-94126325D01*
X140053711Y-94128834D01*
X140010384Y-94145988D01*
X140004858Y-94147879D01*
X139960114Y-94160879D01*
X139960110Y-94160881D01*
X139942866Y-94171079D01*
X139925405Y-94179633D01*
X139906774Y-94187010D01*
X139906762Y-94187017D01*
X139869070Y-94214402D01*
X139864187Y-94217609D01*
X139824080Y-94241329D01*
X139809914Y-94255495D01*
X139795124Y-94268127D01*
X139778914Y-94279904D01*
X139778911Y-94279907D01*
X139749210Y-94315809D01*
X139745277Y-94320131D01*
X134746708Y-99318699D01*
X134734451Y-99328520D01*
X134734634Y-99328741D01*
X134728623Y-99333713D01*
X134681272Y-99384136D01*
X134660389Y-99405019D01*
X134660377Y-99405032D01*
X134656121Y-99410517D01*
X134652337Y-99414947D01*
X134620437Y-99448918D01*
X134620436Y-99448920D01*
X134610784Y-99466476D01*
X134600110Y-99482726D01*
X134587829Y-99498561D01*
X134587824Y-99498568D01*
X134569315Y-99541338D01*
X134566745Y-99546584D01*
X134544303Y-99587406D01*
X134539322Y-99606807D01*
X134533021Y-99625210D01*
X134525062Y-99643602D01*
X134525061Y-99643605D01*
X134517771Y-99689627D01*
X134516587Y-99695346D01*
X134505001Y-99740472D01*
X134505000Y-99740482D01*
X134505000Y-99760516D01*
X134503473Y-99779915D01*
X134500340Y-99799694D01*
X134500340Y-99799695D01*
X134504725Y-99846083D01*
X134505000Y-99851921D01*
X134505000Y-102902450D01*
X134503275Y-102918067D01*
X134503561Y-102918094D01*
X134502826Y-102925860D01*
X134505000Y-102995009D01*
X134505000Y-103024538D01*
X134505001Y-103024555D01*
X134505868Y-103031426D01*
X134506326Y-103037245D01*
X134507790Y-103083819D01*
X134507791Y-103083822D01*
X134513380Y-103103062D01*
X134517324Y-103122106D01*
X134519836Y-103141986D01*
X134536990Y-103185314D01*
X134538882Y-103190842D01*
X134551881Y-103235583D01*
X134562080Y-103252829D01*
X134570638Y-103270298D01*
X134578014Y-103288927D01*
X134605398Y-103326618D01*
X134608606Y-103331502D01*
X134632327Y-103371611D01*
X134632333Y-103371619D01*
X134646490Y-103385775D01*
X134659128Y-103400571D01*
X134670905Y-103416781D01*
X134670906Y-103416782D01*
X134706809Y-103446483D01*
X134711120Y-103450405D01*
X135036282Y-103775567D01*
X135357681Y-104096966D01*
X135391166Y-104158289D01*
X135394000Y-104184647D01*
X135394000Y-106734623D01*
X135374994Y-106800595D01*
X135339045Y-106857807D01*
X135283185Y-107017443D01*
X135264251Y-107185497D01*
X135264251Y-107185502D01*
X135283186Y-107353557D01*
X135291405Y-107377046D01*
X135294966Y-107446825D01*
X135260237Y-107507452D01*
X135198244Y-107539679D01*
X135174363Y-107542000D01*
X134918957Y-107542000D01*
X134767260Y-107557425D01*
X134573120Y-107618337D01*
X134573105Y-107618344D01*
X134395200Y-107717089D01*
X134395195Y-107717092D01*
X134240806Y-107849632D01*
X134240804Y-107849634D01*
X134116254Y-108010537D01*
X134116253Y-108010540D01*
X134026640Y-108193228D01*
X133975637Y-108390214D01*
X133965331Y-108593436D01*
X133996142Y-108794563D01*
X133996145Y-108794575D01*
X134066811Y-108985381D01*
X134066815Y-108985388D01*
X134174445Y-109158067D01*
X134174449Y-109158072D01*
X134267161Y-109255605D01*
X134314641Y-109305553D01*
X134434769Y-109389164D01*
X134481649Y-109421794D01*
X134481650Y-109421794D01*
X134481651Y-109421795D01*
X134668642Y-109502040D01*
X134867959Y-109543000D01*
X139578500Y-109543000D01*
X139645539Y-109562685D01*
X139691294Y-109615489D01*
X139702500Y-109667000D01*
X139702500Y-111633500D01*
X139682815Y-111700539D01*
X139630011Y-111746294D01*
X139578500Y-111757500D01*
X128270000Y-111757500D01*
X128202961Y-111737815D01*
X128157206Y-111685011D01*
X128146000Y-111633500D01*
X128146000Y-97722000D01*
X128146000Y-92159239D01*
X144857000Y-92159239D01*
X144872203Y-92323313D01*
X144932369Y-92534779D01*
X145030363Y-92731576D01*
X145030368Y-92731584D01*
X145096612Y-92819305D01*
X145162858Y-92907029D01*
X145325332Y-93055143D01*
X145512255Y-93170881D01*
X145622572Y-93213618D01*
X145677973Y-93256191D01*
X145701564Y-93321958D01*
X145697045Y-93363177D01*
X145672204Y-93450486D01*
X145662030Y-93560291D01*
X145657001Y-93614559D01*
X145657001Y-94359243D01*
X145661227Y-94404852D01*
X145672204Y-94523314D01*
X145732370Y-94734780D01*
X145830364Y-94931577D01*
X145830369Y-94931585D01*
X145896613Y-95019306D01*
X145962859Y-95107030D01*
X146125333Y-95255144D01*
X146312256Y-95370882D01*
X146517264Y-95450303D01*
X146733374Y-95490701D01*
X146733376Y-95490701D01*
X146953226Y-95490701D01*
X146953228Y-95490701D01*
X147169338Y-95450303D01*
X147374346Y-95370882D01*
X147561269Y-95255144D01*
X147723743Y-95107030D01*
X147856234Y-94931583D01*
X147954232Y-94734778D01*
X148014397Y-94523317D01*
X148029601Y-94359243D01*
X148029601Y-93944380D01*
X148049286Y-93877341D01*
X148102090Y-93831586D01*
X148171248Y-93821642D01*
X148202499Y-93830429D01*
X148279531Y-93863486D01*
X148357736Y-93897047D01*
X148357737Y-93897047D01*
X148357739Y-93897048D01*
X148546796Y-93935900D01*
X148691428Y-93935900D01*
X148835318Y-93921268D01*
X149019465Y-93863491D01*
X149019465Y-93863490D01*
X149019474Y-93863488D01*
X149188229Y-93769821D01*
X149334675Y-93644101D01*
X149452817Y-93491476D01*
X149537816Y-93318192D01*
X149554848Y-93252413D01*
X149586192Y-93131354D01*
X149586193Y-93131348D01*
X149586194Y-93131346D01*
X149595970Y-92938586D01*
X149566743Y-92747804D01*
X149499710Y-92566811D01*
X149480009Y-92535203D01*
X149397619Y-92403020D01*
X149397618Y-92403019D01*
X149397617Y-92403018D01*
X149397616Y-92403016D01*
X149264640Y-92263125D01*
X149230008Y-92239020D01*
X149106226Y-92152865D01*
X148928861Y-92076752D01*
X148739804Y-92037900D01*
X148595173Y-92037900D01*
X148595172Y-92037900D01*
X148451281Y-92052531D01*
X148267134Y-92110308D01*
X148267124Y-92110313D01*
X148098369Y-92203980D01*
X148098368Y-92203980D01*
X147951927Y-92329696D01*
X147833782Y-92482325D01*
X147748782Y-92655611D01*
X147747463Y-92659173D01*
X147746211Y-92660853D01*
X147746015Y-92661253D01*
X147745940Y-92661216D01*
X147705718Y-92715201D01*
X147640309Y-92739766D01*
X147572003Y-92725068D01*
X147565906Y-92721529D01*
X147374347Y-92602920D01*
X147374345Y-92602919D01*
X147264027Y-92560182D01*
X147208625Y-92517609D01*
X147185035Y-92451842D01*
X147189554Y-92410625D01*
X147214396Y-92323316D01*
X147229600Y-92159242D01*
X147229600Y-91414558D01*
X147214396Y-91250484D01*
X147154231Y-91039023D01*
X147092504Y-90915059D01*
X147056236Y-90842223D01*
X147056231Y-90842215D01*
X147010474Y-90781623D01*
X146923742Y-90666771D01*
X146761268Y-90518657D01*
X146732814Y-90501039D01*
X146574346Y-90402919D01*
X146574344Y-90402918D01*
X146503582Y-90375505D01*
X146369337Y-90323498D01*
X146153227Y-90283100D01*
X145933373Y-90283100D01*
X145717263Y-90323498D01*
X145660019Y-90345674D01*
X145512255Y-90402918D01*
X145512253Y-90402919D01*
X145325336Y-90518654D01*
X145325334Y-90518655D01*
X145325332Y-90518657D01*
X145282175Y-90558000D01*
X145162857Y-90666772D01*
X145030368Y-90842215D01*
X145030363Y-90842223D01*
X144932369Y-91039020D01*
X144872203Y-91250486D01*
X144857000Y-91414560D01*
X144857000Y-92159239D01*
X128146000Y-92159239D01*
X128145999Y-82880584D01*
X128146529Y-82872513D01*
X128177956Y-82633998D01*
X128186325Y-82602766D01*
X128273694Y-82391822D01*
X128289867Y-82363807D01*
X128428819Y-82182706D01*
X128451706Y-82159819D01*
X128632807Y-82020867D01*
X128660822Y-82004694D01*
X128871766Y-81917325D01*
X128902992Y-81908957D01*
X129141499Y-81877531D01*
X129149602Y-81877000D01*
X133320616Y-81877000D01*
X133387655Y-81896685D01*
G37*
G04 #@! TD.AperFunction*
G04 #@! TA.AperFunction,Conductor*
G36*
X150385218Y-84301224D02*
G01*
X150385245Y-84300939D01*
X150400779Y-84302408D01*
X150400443Y-84305960D01*
X150452308Y-84319106D01*
X150500003Y-84370164D01*
X150512523Y-84438903D01*
X150500212Y-84481125D01*
X150432368Y-84617371D01*
X150372202Y-84828837D01*
X150364235Y-84914819D01*
X150359192Y-84969249D01*
X150356999Y-84992911D01*
X150356999Y-85737590D01*
X150372202Y-85901664D01*
X150432368Y-86113130D01*
X150530362Y-86309927D01*
X150530367Y-86309935D01*
X150618066Y-86426067D01*
X150653053Y-86472398D01*
X150657105Y-86477763D01*
X150681797Y-86543125D01*
X150667232Y-86611459D01*
X150623429Y-86657916D01*
X150525343Y-86718648D01*
X150525337Y-86718653D01*
X150525333Y-86718655D01*
X150525332Y-86718657D01*
X150426203Y-86809025D01*
X150362857Y-86866772D01*
X150230368Y-87042215D01*
X150230363Y-87042223D01*
X150132369Y-87239020D01*
X150072203Y-87450486D01*
X150057000Y-87614560D01*
X150057000Y-88359239D01*
X150072203Y-88523313D01*
X150132369Y-88734779D01*
X150230363Y-88931576D01*
X150230368Y-88931584D01*
X150296612Y-89019305D01*
X150362858Y-89107029D01*
X150525332Y-89255143D01*
X150712255Y-89370881D01*
X150917263Y-89450302D01*
X151133373Y-89490700D01*
X151133375Y-89490700D01*
X151353225Y-89490700D01*
X151353227Y-89490700D01*
X151569337Y-89450302D01*
X151774345Y-89370881D01*
X151961268Y-89255143D01*
X152123742Y-89107029D01*
X152256233Y-88931582D01*
X152354231Y-88734777D01*
X152413234Y-88527398D01*
X152450512Y-88468307D01*
X152513822Y-88438749D01*
X152583061Y-88448111D01*
X152636248Y-88493420D01*
X152656496Y-88560291D01*
X152656500Y-88561334D01*
X152656500Y-90434000D01*
X152636815Y-90501039D01*
X152584011Y-90546794D01*
X152532500Y-90558000D01*
X150426953Y-90558000D01*
X150359914Y-90538315D01*
X150339272Y-90521681D01*
X146774409Y-86956818D01*
X146740924Y-86895495D01*
X146745908Y-86825803D01*
X146787780Y-86769870D01*
X146803637Y-86759779D01*
X146929465Y-86692522D01*
X146929472Y-86692518D01*
X147089354Y-86561306D01*
X147220566Y-86401424D01*
X147220570Y-86401417D01*
X147318065Y-86219017D01*
X147378107Y-86021085D01*
X147393299Y-85866835D01*
X147393299Y-85615251D01*
X146872099Y-85615251D01*
X146805060Y-85595566D01*
X146759305Y-85542762D01*
X146748099Y-85491251D01*
X146748099Y-85239251D01*
X146767784Y-85172212D01*
X146820588Y-85126457D01*
X146872099Y-85115251D01*
X147393299Y-85115251D01*
X147393299Y-84863666D01*
X147378107Y-84709416D01*
X147318065Y-84511486D01*
X147302280Y-84481954D01*
X147288038Y-84413551D01*
X147313038Y-84348307D01*
X147369342Y-84306936D01*
X147411638Y-84299500D01*
X150369598Y-84299500D01*
X150385218Y-84301224D01*
G37*
G04 #@! TD.AperFunction*
G04 #@! TA.AperFunction,Conductor*
G36*
X168149501Y-81877531D02*
G01*
X168387996Y-81908956D01*
X168419234Y-81917326D01*
X168630173Y-82004692D01*
X168658194Y-82020869D01*
X168839287Y-82159815D01*
X168862183Y-82182711D01*
X169001127Y-82363801D01*
X169017307Y-82391828D01*
X169104670Y-82602759D01*
X169113043Y-82634004D01*
X169144468Y-82872493D01*
X169145000Y-82880601D01*
X169145000Y-114352000D01*
X169125315Y-114419039D01*
X169072511Y-114464794D01*
X169021000Y-114476000D01*
X168270260Y-114476000D01*
X168270054Y-114475959D01*
X168245500Y-114475959D01*
X168245401Y-114476000D01*
X168245117Y-114476116D01*
X168245115Y-114476118D01*
X168244959Y-114476499D01*
X168244976Y-114501116D01*
X168244971Y-114501116D01*
X168245000Y-114501259D01*
X168245000Y-115697500D01*
X168225315Y-115764539D01*
X168172511Y-115810294D01*
X168121000Y-115821500D01*
X159170000Y-115821500D01*
X159102961Y-115801815D01*
X159057206Y-115749011D01*
X159046000Y-115697500D01*
X159046000Y-114651259D01*
X159046028Y-114651116D01*
X159046024Y-114651116D01*
X159046039Y-114626502D01*
X159046041Y-114626500D01*
X159045962Y-114626308D01*
X159045884Y-114626118D01*
X159045882Y-114626116D01*
X159045599Y-114626000D01*
X159045500Y-114625959D01*
X159020946Y-114625959D01*
X159020740Y-114626000D01*
X156780260Y-114626000D01*
X156780054Y-114625959D01*
X156755500Y-114625959D01*
X156755401Y-114626000D01*
X156755117Y-114626116D01*
X156755115Y-114626118D01*
X156754959Y-114626499D01*
X156754976Y-114651116D01*
X156754971Y-114651116D01*
X156755000Y-114651259D01*
X156755000Y-115697500D01*
X156735315Y-115764539D01*
X156682511Y-115810294D01*
X156631000Y-115821500D01*
X140660000Y-115821500D01*
X140592961Y-115801815D01*
X140547206Y-115749011D01*
X140536000Y-115697500D01*
X140536000Y-114651259D01*
X140536028Y-114651116D01*
X140536024Y-114651116D01*
X140536039Y-114626502D01*
X140536041Y-114626500D01*
X140535962Y-114626308D01*
X140535884Y-114626118D01*
X140525195Y-114615435D01*
X140486778Y-114584596D01*
X140464588Y-114518344D01*
X140464500Y-114513683D01*
X140464500Y-109915782D01*
X140484185Y-109848743D01*
X140536989Y-109802988D01*
X140606147Y-109793044D01*
X140669703Y-109822069D01*
X140676171Y-109828092D01*
X141179755Y-110331675D01*
X141179776Y-110331698D01*
X141234993Y-110386914D01*
X141237158Y-110389191D01*
X141287318Y-110444711D01*
X141287321Y-110444713D01*
X141300306Y-110454247D01*
X141314594Y-110466514D01*
X141526049Y-110677969D01*
X141587440Y-110742552D01*
X141587447Y-110742558D01*
X141621553Y-110766295D01*
X141637803Y-110777606D01*
X141641544Y-110780426D01*
X141689093Y-110819198D01*
X141719545Y-110835104D01*
X141726258Y-110839172D01*
X141754451Y-110858795D01*
X141810829Y-110882989D01*
X141815078Y-110885007D01*
X141869451Y-110913409D01*
X141896989Y-110921288D01*
X141902474Y-110922858D01*
X141909868Y-110925490D01*
X141941442Y-110939040D01*
X141941445Y-110939040D01*
X141941446Y-110939041D01*
X142001522Y-110951387D01*
X142006100Y-110952510D01*
X142020001Y-110956487D01*
X142065082Y-110969387D01*
X142099339Y-110971995D01*
X142107114Y-110973086D01*
X142140755Y-110980000D01*
X142140759Y-110980000D01*
X142202098Y-110980000D01*
X142206804Y-110980178D01*
X142241562Y-110982825D01*
X142267975Y-110984837D01*
X142267975Y-110984836D01*
X142267976Y-110984837D01*
X142302059Y-110980496D01*
X142309889Y-110980000D01*
X145262007Y-110980000D01*
X145329046Y-110999685D01*
X145349688Y-111016319D01*
X148143337Y-113809967D01*
X148204731Y-113874553D01*
X148204734Y-113874555D01*
X148204737Y-113874558D01*
X148238843Y-113898295D01*
X148255093Y-113909606D01*
X148258834Y-113912426D01*
X148306383Y-113951198D01*
X148336835Y-113967104D01*
X148343548Y-113971172D01*
X148371741Y-113990795D01*
X148428119Y-114014989D01*
X148432368Y-114017007D01*
X148486741Y-114045409D01*
X148514279Y-114053288D01*
X148519764Y-114054858D01*
X148527158Y-114057490D01*
X148558732Y-114071040D01*
X148558735Y-114071040D01*
X148558736Y-114071041D01*
X148618812Y-114083387D01*
X148623390Y-114084510D01*
X148625494Y-114085112D01*
X148682372Y-114101387D01*
X148716629Y-114103995D01*
X148724404Y-114105086D01*
X148758045Y-114112000D01*
X148758049Y-114112000D01*
X148819388Y-114112000D01*
X148824094Y-114112178D01*
X148851385Y-114114257D01*
X148885265Y-114116837D01*
X148885265Y-114116836D01*
X148885266Y-114116837D01*
X148919349Y-114112496D01*
X148927179Y-114112000D01*
X159444284Y-114112000D01*
X159533358Y-114114257D01*
X159533358Y-114114256D01*
X159533363Y-114114257D01*
X159593753Y-114103432D01*
X159598412Y-114102780D01*
X159640607Y-114098488D01*
X159659438Y-114096574D01*
X159692227Y-114086286D01*
X159699840Y-114084418D01*
X159733653Y-114078358D01*
X159790621Y-114055601D01*
X159795053Y-114054024D01*
X159853588Y-114035659D01*
X159883627Y-114018984D01*
X159890708Y-114015622D01*
X159922617Y-114002877D01*
X159973854Y-113969108D01*
X159977851Y-113966687D01*
X160031502Y-113936909D01*
X160057568Y-113914530D01*
X160063843Y-113909800D01*
X160064145Y-113909601D01*
X160092519Y-113890902D01*
X160135892Y-113847527D01*
X160139350Y-113844323D01*
X160142613Y-113841520D01*
X160185895Y-113804366D01*
X160206928Y-113777191D01*
X160212098Y-113771321D01*
X161554340Y-112429080D01*
X161650698Y-112310907D01*
X161744909Y-112130549D01*
X161800886Y-111934918D01*
X161816337Y-111732024D01*
X161796849Y-111579000D01*
X161790631Y-111530178D01*
X161790630Y-111530176D01*
X161790630Y-111530172D01*
X161724816Y-111337628D01*
X161724815Y-111337627D01*
X161722782Y-111331678D01*
X161725668Y-111330691D01*
X161717231Y-111274674D01*
X161745830Y-111210926D01*
X161804355Y-111172759D01*
X161840084Y-111167500D01*
X164554420Y-111167500D01*
X164621459Y-111187185D01*
X164667214Y-111239989D01*
X164670602Y-111248167D01*
X164697702Y-111320828D01*
X164697706Y-111320835D01*
X164783952Y-111436044D01*
X164783955Y-111436047D01*
X164899164Y-111522293D01*
X164899171Y-111522297D01*
X165034017Y-111572591D01*
X165034016Y-111572591D01*
X165040944Y-111573335D01*
X165093627Y-111579000D01*
X166889372Y-111578999D01*
X166948983Y-111572591D01*
X167083831Y-111522296D01*
X167199046Y-111436046D01*
X167285296Y-111320831D01*
X167335591Y-111185983D01*
X167342000Y-111126373D01*
X167341999Y-109330628D01*
X167335591Y-109271017D01*
X167332554Y-109262875D01*
X167285297Y-109136171D01*
X167285293Y-109136164D01*
X167199047Y-109020955D01*
X167199044Y-109020952D01*
X167083835Y-108934706D01*
X167083828Y-108934702D01*
X166952417Y-108885689D01*
X166896483Y-108843818D01*
X166872066Y-108778353D01*
X166886918Y-108710080D01*
X166908063Y-108681832D01*
X167029995Y-108559901D01*
X167165535Y-108366330D01*
X167265403Y-108152163D01*
X167326563Y-107923908D01*
X167347159Y-107688500D01*
X167326563Y-107453092D01*
X167265403Y-107224837D01*
X167165535Y-107010671D01*
X167136088Y-106968615D01*
X167029994Y-106817097D01*
X166862902Y-106650006D01*
X166862901Y-106650005D01*
X166684110Y-106524814D01*
X166676905Y-106519769D01*
X166633281Y-106465192D01*
X166626088Y-106395693D01*
X166657610Y-106333339D01*
X166676905Y-106316619D01*
X166862582Y-106186605D01*
X167029605Y-106019582D01*
X167165100Y-105826078D01*
X167264929Y-105611992D01*
X167264932Y-105611986D01*
X167322136Y-105398500D01*
X166604847Y-105398500D01*
X166537808Y-105378815D01*
X166492053Y-105326011D01*
X166482109Y-105256853D01*
X166485869Y-105239567D01*
X166491500Y-105220388D01*
X166491500Y-105076611D01*
X166485869Y-105057433D01*
X166485870Y-104987564D01*
X166523645Y-104928786D01*
X166587201Y-104899762D01*
X166604847Y-104898500D01*
X167322136Y-104898500D01*
X167322135Y-104898499D01*
X167264932Y-104685013D01*
X167264929Y-104685007D01*
X167165100Y-104470922D01*
X167165099Y-104470920D01*
X167029613Y-104277426D01*
X167029608Y-104277420D01*
X166862578Y-104110390D01*
X166676905Y-103980379D01*
X166633280Y-103925802D01*
X166626088Y-103856304D01*
X166657610Y-103793949D01*
X166676906Y-103777230D01*
X166862901Y-103646995D01*
X167029995Y-103479901D01*
X167165535Y-103286330D01*
X167265403Y-103072163D01*
X167326563Y-102843908D01*
X167347159Y-102608500D01*
X167326563Y-102373092D01*
X167265403Y-102144837D01*
X167165535Y-101930671D01*
X167162991Y-101927037D01*
X167029994Y-101737097D01*
X166862902Y-101570006D01*
X166862896Y-101570001D01*
X166677342Y-101440075D01*
X166633717Y-101385498D01*
X166626523Y-101316000D01*
X166658046Y-101253645D01*
X166677342Y-101236925D01*
X166718781Y-101207909D01*
X166862901Y-101106995D01*
X167029995Y-100939901D01*
X167165535Y-100746330D01*
X167265403Y-100532163D01*
X167326563Y-100303908D01*
X167347159Y-100068500D01*
X167326563Y-99833092D01*
X167265403Y-99604837D01*
X167165535Y-99390671D01*
X167126150Y-99334422D01*
X167029994Y-99197097D01*
X166862902Y-99030006D01*
X166862895Y-99030001D01*
X166838115Y-99012650D01*
X166824021Y-99002781D01*
X166669334Y-98894467D01*
X166669330Y-98894465D01*
X166669328Y-98894464D01*
X166455163Y-98794597D01*
X166455159Y-98794596D01*
X166455155Y-98794594D01*
X166226913Y-98733438D01*
X166226903Y-98733436D01*
X165991501Y-98712841D01*
X165991499Y-98712841D01*
X165756096Y-98733436D01*
X165756086Y-98733438D01*
X165527844Y-98794594D01*
X165527835Y-98794598D01*
X165313671Y-98894464D01*
X165313669Y-98894465D01*
X165120097Y-99030005D01*
X164953005Y-99197097D01*
X164817465Y-99390669D01*
X164817464Y-99390671D01*
X164717598Y-99604835D01*
X164717594Y-99604844D01*
X164656438Y-99833086D01*
X164656436Y-99833096D01*
X164635841Y-100068499D01*
X164635841Y-100068500D01*
X164656436Y-100303903D01*
X164656438Y-100303913D01*
X164717594Y-100532155D01*
X164717596Y-100532159D01*
X164717597Y-100532163D01*
X164791001Y-100689578D01*
X164817465Y-100746330D01*
X164817467Y-100746334D01*
X164953001Y-100939895D01*
X164953006Y-100939902D01*
X165120097Y-101106993D01*
X165120103Y-101106998D01*
X165305658Y-101236925D01*
X165349283Y-101291502D01*
X165356477Y-101361000D01*
X165324954Y-101423355D01*
X165305658Y-101440075D01*
X165120097Y-101570005D01*
X164953005Y-101737097D01*
X164860911Y-101868623D01*
X164806334Y-101912248D01*
X164759336Y-101921500D01*
X164710487Y-101921500D01*
X164694870Y-101919776D01*
X164694843Y-101920062D01*
X164687081Y-101919327D01*
X164617953Y-101921500D01*
X164588400Y-101921500D01*
X164587679Y-101921590D01*
X164581507Y-101922369D01*
X164575695Y-101922826D01*
X164529123Y-101924290D01*
X164529122Y-101924290D01*
X164509879Y-101929881D01*
X164490829Y-101933825D01*
X164470961Y-101936334D01*
X164470959Y-101936335D01*
X164427634Y-101953488D01*
X164422107Y-101955380D01*
X164377360Y-101968381D01*
X164377359Y-101968382D01*
X164360117Y-101978579D01*
X164342649Y-101987137D01*
X164324019Y-101994513D01*
X164324017Y-101994514D01*
X164286326Y-102021898D01*
X164281444Y-102025105D01*
X164241329Y-102048830D01*
X164227158Y-102063000D01*
X164212373Y-102075628D01*
X164196162Y-102087407D01*
X164166459Y-102123310D01*
X164162527Y-102127631D01*
X163582880Y-102707278D01*
X163521557Y-102740763D01*
X163451866Y-102735779D01*
X163395932Y-102693908D01*
X163371515Y-102628443D01*
X163371199Y-102619597D01*
X163371199Y-101654129D01*
X163371198Y-101654123D01*
X163369191Y-101635454D01*
X163364791Y-101594517D01*
X163351400Y-101558615D01*
X163314497Y-101459671D01*
X163314493Y-101459664D01*
X163228247Y-101344455D01*
X163228244Y-101344452D01*
X163113035Y-101258206D01*
X163113028Y-101258202D01*
X162981101Y-101208997D01*
X162925167Y-101167126D01*
X162900750Y-101101662D01*
X162915602Y-101033389D01*
X162936753Y-101005133D01*
X163058808Y-100883078D01*
X163194300Y-100689578D01*
X163294129Y-100475492D01*
X163294132Y-100475486D01*
X163351336Y-100262000D01*
X162634047Y-100262000D01*
X162567008Y-100242315D01*
X162521253Y-100189511D01*
X162511309Y-100120353D01*
X162515069Y-100103067D01*
X162520700Y-100083888D01*
X162520700Y-99940111D01*
X162515069Y-99920933D01*
X162515070Y-99851064D01*
X162552845Y-99792286D01*
X162616401Y-99763262D01*
X162634047Y-99762000D01*
X163351336Y-99762000D01*
X163351335Y-99761999D01*
X163294132Y-99548513D01*
X163294129Y-99548507D01*
X163194300Y-99334422D01*
X163194299Y-99334420D01*
X163058813Y-99140926D01*
X163058808Y-99140920D01*
X162891782Y-98973894D01*
X162698278Y-98838399D01*
X162484192Y-98738570D01*
X162484186Y-98738567D01*
X162270700Y-98681364D01*
X162270700Y-99399698D01*
X162251015Y-99466737D01*
X162198211Y-99512492D01*
X162129055Y-99522436D01*
X162056466Y-99512000D01*
X162056463Y-99512000D01*
X161984937Y-99512000D01*
X161984933Y-99512000D01*
X161912345Y-99522436D01*
X161843187Y-99512492D01*
X161790384Y-99466736D01*
X161770700Y-99399698D01*
X161770700Y-98681364D01*
X161770699Y-98681364D01*
X161557213Y-98738567D01*
X161557207Y-98738570D01*
X161343122Y-98838399D01*
X161343120Y-98838400D01*
X161149626Y-98973886D01*
X161149620Y-98973891D01*
X161023181Y-99100331D01*
X160961858Y-99133816D01*
X160892166Y-99128832D01*
X160836233Y-99086960D01*
X160811816Y-99021496D01*
X160811500Y-99012650D01*
X160811500Y-98635637D01*
X160813223Y-98620020D01*
X160812938Y-98619993D01*
X160813672Y-98612231D01*
X160811500Y-98543103D01*
X160811500Y-98513551D01*
X160811500Y-98513550D01*
X160810629Y-98506659D01*
X160810172Y-98500845D01*
X160808709Y-98454272D01*
X160803122Y-98435044D01*
X160799174Y-98415984D01*
X160796664Y-98396108D01*
X160779507Y-98352775D01*
X160777619Y-98347259D01*
X160764619Y-98302512D01*
X160754418Y-98285263D01*
X160745860Y-98267794D01*
X160738486Y-98249168D01*
X160738483Y-98249164D01*
X160738483Y-98249163D01*
X160711098Y-98211471D01*
X160707890Y-98206587D01*
X160684172Y-98166482D01*
X160684163Y-98166471D01*
X160670005Y-98152313D01*
X160657370Y-98137520D01*
X160645593Y-98121312D01*
X160609693Y-98091613D01*
X160605381Y-98087690D01*
X160362867Y-97845177D01*
X160333507Y-97798450D01*
X160295491Y-97689804D01*
X160295488Y-97689799D01*
X160205517Y-97546612D01*
X160205512Y-97546606D01*
X160085926Y-97427020D01*
X160085920Y-97427015D01*
X159942733Y-97337044D01*
X159942728Y-97337041D01*
X159783089Y-97281182D01*
X159742116Y-97276566D01*
X159677702Y-97249499D01*
X159638147Y-97191904D01*
X159632000Y-97153346D01*
X159632000Y-96714375D01*
X159651007Y-96648402D01*
X159686956Y-96591190D01*
X159712741Y-96517500D01*
X159742813Y-96431559D01*
X159761749Y-96263500D01*
X159761749Y-96263497D01*
X159742814Y-96095443D01*
X159686954Y-95935805D01*
X159686952Y-95935802D01*
X159596981Y-95792615D01*
X159596976Y-95792609D01*
X159477390Y-95673023D01*
X159477384Y-95673018D01*
X159334197Y-95583047D01*
X159334194Y-95583045D01*
X159174556Y-95527185D01*
X159006503Y-95508251D01*
X159006497Y-95508251D01*
X158838443Y-95527185D01*
X158678805Y-95583045D01*
X158678802Y-95583047D01*
X158535615Y-95673018D01*
X158535609Y-95673023D01*
X158416023Y-95792609D01*
X158416018Y-95792615D01*
X158326047Y-95935802D01*
X158326045Y-95935805D01*
X158270185Y-96095443D01*
X158251251Y-96263497D01*
X158251251Y-96263502D01*
X158270186Y-96431557D01*
X158326043Y-96591190D01*
X158361993Y-96648402D01*
X158381000Y-96714375D01*
X158381000Y-98233182D01*
X158361315Y-98300221D01*
X158354985Y-98309175D01*
X158351078Y-98314211D01*
X158351074Y-98314218D01*
X158332565Y-98356988D01*
X158329995Y-98362234D01*
X158307553Y-98403056D01*
X158302572Y-98422457D01*
X158296271Y-98440860D01*
X158288312Y-98459252D01*
X158288311Y-98459255D01*
X158281021Y-98505277D01*
X158279837Y-98510996D01*
X158268251Y-98556122D01*
X158268250Y-98556132D01*
X158268250Y-98576166D01*
X158266723Y-98595565D01*
X158263590Y-98615344D01*
X158263590Y-98615345D01*
X158267975Y-98661733D01*
X158268250Y-98667571D01*
X158268250Y-103065873D01*
X158249244Y-103131845D01*
X158213295Y-103189057D01*
X158157436Y-103348691D01*
X158157435Y-103348696D01*
X158151162Y-103404382D01*
X158124096Y-103468797D01*
X158066502Y-103508352D01*
X158027942Y-103514500D01*
X155479452Y-103514500D01*
X155412413Y-103494815D01*
X155366658Y-103442011D01*
X155356714Y-103372853D01*
X155385739Y-103309297D01*
X155391771Y-103302819D01*
X155505533Y-103189057D01*
X155889109Y-102805479D01*
X155950430Y-102771996D01*
X155962888Y-102769944D01*
X155999559Y-102765813D01*
X156159190Y-102709956D01*
X156159193Y-102709953D01*
X156159197Y-102709952D01*
X156302384Y-102619981D01*
X156302385Y-102619980D01*
X156302390Y-102619977D01*
X156421977Y-102500390D01*
X156421981Y-102500384D01*
X156511952Y-102357197D01*
X156511954Y-102357194D01*
X156511954Y-102357192D01*
X156511956Y-102357190D01*
X156567813Y-102197559D01*
X156567813Y-102197558D01*
X156567814Y-102197556D01*
X156586749Y-102029502D01*
X156586749Y-102029497D01*
X156567814Y-101861443D01*
X156511954Y-101701805D01*
X156511952Y-101701802D01*
X156421981Y-101558615D01*
X156421976Y-101558609D01*
X156302390Y-101439023D01*
X156302384Y-101439018D01*
X156159197Y-101349047D01*
X156159194Y-101349045D01*
X155999556Y-101293185D01*
X155831503Y-101274251D01*
X155831497Y-101274251D01*
X155663443Y-101293185D01*
X155503805Y-101349045D01*
X155503802Y-101349047D01*
X155360615Y-101439018D01*
X155360609Y-101439023D01*
X155241023Y-101558609D01*
X155241018Y-101558615D01*
X155151048Y-101701800D01*
X155151044Y-101701808D01*
X155121337Y-101786705D01*
X155091977Y-101833430D01*
X152433728Y-104491681D01*
X152372405Y-104525166D01*
X152346047Y-104528000D01*
X145119243Y-104528000D01*
X145103622Y-104526275D01*
X145103595Y-104526561D01*
X145095833Y-104525826D01*
X145026672Y-104528000D01*
X144997149Y-104528000D01*
X144990278Y-104528867D01*
X144984459Y-104529325D01*
X144937874Y-104530789D01*
X144937868Y-104530790D01*
X144918626Y-104536380D01*
X144899587Y-104540323D01*
X144879717Y-104542834D01*
X144879703Y-104542837D01*
X144836383Y-104559988D01*
X144830858Y-104561880D01*
X144786113Y-104574880D01*
X144786110Y-104574881D01*
X144768866Y-104585079D01*
X144751405Y-104593633D01*
X144732774Y-104601010D01*
X144732762Y-104601017D01*
X144695070Y-104628402D01*
X144690187Y-104631609D01*
X144650080Y-104655329D01*
X144635914Y-104669495D01*
X144621124Y-104682127D01*
X144604914Y-104693904D01*
X144604911Y-104693907D01*
X144575210Y-104729809D01*
X144571277Y-104734131D01*
X144283881Y-105021527D01*
X144237154Y-105050888D01*
X144233441Y-105052186D01*
X144233441Y-105052187D01*
X144218449Y-105057433D01*
X144073808Y-105108044D01*
X144073802Y-105108047D01*
X143930615Y-105198018D01*
X143930609Y-105198023D01*
X143811023Y-105317609D01*
X143811018Y-105317615D01*
X143721047Y-105460802D01*
X143721045Y-105460805D01*
X143665185Y-105620443D01*
X143646251Y-105788497D01*
X143646251Y-105788502D01*
X143665185Y-105956556D01*
X143721045Y-106116194D01*
X143721047Y-106116197D01*
X143811018Y-106259384D01*
X143811023Y-106259390D01*
X143930609Y-106378976D01*
X143930615Y-106378981D01*
X144073802Y-106468952D01*
X144073805Y-106468954D01*
X144073809Y-106468955D01*
X144073810Y-106468956D01*
X144074379Y-106469155D01*
X144233443Y-106524814D01*
X144401497Y-106543749D01*
X144401500Y-106543749D01*
X144401503Y-106543749D01*
X144569556Y-106524814D01*
X144583974Y-106519769D01*
X144729190Y-106468956D01*
X144729200Y-106468949D01*
X144731863Y-106467668D01*
X144733765Y-106467354D01*
X144735762Y-106466656D01*
X144735884Y-106467005D01*
X144800803Y-106456309D01*
X144864940Y-106484026D01*
X144903911Y-106542017D01*
X144908895Y-106593265D01*
X144906386Y-106615535D01*
X144879320Y-106679950D01*
X144824121Y-106718694D01*
X144708813Y-106759042D01*
X144708802Y-106759047D01*
X144565615Y-106849018D01*
X144565609Y-106849023D01*
X144446023Y-106968609D01*
X144446018Y-106968615D01*
X144356047Y-107111802D01*
X144356045Y-107111805D01*
X144300185Y-107271443D01*
X144287066Y-107387884D01*
X144259999Y-107452298D01*
X144202404Y-107491853D01*
X144163846Y-107498000D01*
X143969757Y-107498000D01*
X143818060Y-107513425D01*
X143623920Y-107574337D01*
X143623905Y-107574344D01*
X143554177Y-107613046D01*
X143486008Y-107628369D01*
X143420377Y-107604405D01*
X143378120Y-107548761D01*
X143370000Y-107504627D01*
X143370000Y-106753756D01*
X143354574Y-106602060D01*
X143293662Y-106407920D01*
X143293660Y-106407916D01*
X143293659Y-106407912D01*
X143194909Y-106229998D01*
X143194908Y-106229997D01*
X143194907Y-106229995D01*
X143062367Y-106075606D01*
X143062365Y-106075604D01*
X142901462Y-105951054D01*
X142901459Y-105951053D01*
X142901458Y-105951052D01*
X142718771Y-105861440D01*
X142521785Y-105810437D01*
X142521787Y-105810437D01*
X142386304Y-105803566D01*
X142318564Y-105800131D01*
X142318563Y-105800131D01*
X142318561Y-105800131D01*
X142117436Y-105830942D01*
X142117424Y-105830945D01*
X141926618Y-105901611D01*
X141926611Y-105901615D01*
X141753932Y-106009245D01*
X141753927Y-106009249D01*
X141606449Y-106149438D01*
X141606447Y-106149440D01*
X141606447Y-106149441D01*
X141585969Y-106178862D01*
X141490205Y-106316449D01*
X141409959Y-106503443D01*
X141369000Y-106702758D01*
X141369000Y-107503404D01*
X141349315Y-107570443D01*
X141296511Y-107616198D01*
X141227353Y-107626142D01*
X141187590Y-107613313D01*
X141178557Y-107608594D01*
X141178550Y-107608591D01*
X141178549Y-107608591D01*
X141172508Y-107606862D01*
X141145530Y-107599142D01*
X141138130Y-107596508D01*
X141106557Y-107582959D01*
X141106558Y-107582959D01*
X141046466Y-107570609D01*
X141041891Y-107569486D01*
X140982920Y-107552613D01*
X140982925Y-107552613D01*
X140948658Y-107550003D01*
X140940880Y-107548912D01*
X140907242Y-107542000D01*
X140907241Y-107542000D01*
X140845902Y-107542000D01*
X140841195Y-107541821D01*
X140835621Y-107541396D01*
X140780024Y-107537162D01*
X140760089Y-107539701D01*
X140745940Y-107541503D01*
X140738111Y-107542000D01*
X140588500Y-107542000D01*
X140521461Y-107522315D01*
X140475706Y-107469511D01*
X140464500Y-107418000D01*
X140464500Y-102105502D01*
X146567251Y-102105502D01*
X146586185Y-102273556D01*
X146642045Y-102433194D01*
X146642047Y-102433197D01*
X146732018Y-102576384D01*
X146732023Y-102576390D01*
X146851609Y-102695976D01*
X146851615Y-102695981D01*
X146994802Y-102785952D01*
X146994808Y-102785955D01*
X146994810Y-102785956D01*
X147154441Y-102841813D01*
X147154442Y-102841813D01*
X147154445Y-102841814D01*
X147160932Y-102843295D01*
X147193073Y-102855521D01*
X147207973Y-102863712D01*
X147224233Y-102874393D01*
X147240064Y-102886673D01*
X147259737Y-102895186D01*
X147282833Y-102905182D01*
X147288077Y-102907750D01*
X147328908Y-102930197D01*
X147341523Y-102933435D01*
X147348305Y-102935177D01*
X147366719Y-102941481D01*
X147385104Y-102949438D01*
X147431157Y-102956732D01*
X147436826Y-102957906D01*
X147481981Y-102969500D01*
X147502016Y-102969500D01*
X147521413Y-102971026D01*
X147541196Y-102974160D01*
X147587583Y-102969775D01*
X147593422Y-102969500D01*
X153053429Y-102969500D01*
X153069049Y-102971224D01*
X153069076Y-102970939D01*
X153076832Y-102971671D01*
X153076839Y-102971673D01*
X153145986Y-102969500D01*
X153175522Y-102969500D01*
X153182400Y-102968630D01*
X153188213Y-102968172D01*
X153234799Y-102966709D01*
X153254041Y-102961117D01*
X153273084Y-102957174D01*
X153292964Y-102954664D01*
X153336294Y-102937507D01*
X153341818Y-102935617D01*
X153345568Y-102934527D01*
X153386562Y-102922618D01*
X153403801Y-102912422D01*
X153421275Y-102903862D01*
X153439899Y-102896488D01*
X153439899Y-102896487D01*
X153439904Y-102896486D01*
X153477621Y-102869082D01*
X153482477Y-102865892D01*
X153522592Y-102842170D01*
X153536761Y-102827999D01*
X153551551Y-102815368D01*
X153567759Y-102803594D01*
X153597471Y-102767676D01*
X153601384Y-102763376D01*
X153670748Y-102694012D01*
X153717473Y-102664653D01*
X153721186Y-102663353D01*
X153721191Y-102663353D01*
X153880822Y-102607496D01*
X153880824Y-102607495D01*
X153880829Y-102607492D01*
X154024016Y-102517521D01*
X154024017Y-102517520D01*
X154024022Y-102517517D01*
X154143609Y-102397930D01*
X154143613Y-102397924D01*
X154233584Y-102254737D01*
X154233586Y-102254734D01*
X154233586Y-102254732D01*
X154233588Y-102254730D01*
X154289445Y-102095099D01*
X154289445Y-102095098D01*
X154289446Y-102095096D01*
X154308381Y-101927042D01*
X154308381Y-101927037D01*
X154289446Y-101758983D01*
X154252756Y-101654129D01*
X154233588Y-101599350D01*
X154233587Y-101599349D01*
X154233586Y-101599345D01*
X154233584Y-101599342D01*
X154143613Y-101456155D01*
X154143608Y-101456149D01*
X154024022Y-101336563D01*
X154024016Y-101336558D01*
X153880829Y-101246587D01*
X153880826Y-101246585D01*
X153721188Y-101190725D01*
X153553135Y-101171791D01*
X153553129Y-101171791D01*
X153385075Y-101190725D01*
X153225437Y-101246585D01*
X153225434Y-101246587D01*
X153082247Y-101336558D01*
X153082241Y-101336563D01*
X152962655Y-101456149D01*
X152962650Y-101456155D01*
X152872679Y-101599342D01*
X152872676Y-101599347D01*
X152862218Y-101629236D01*
X152860337Y-101634615D01*
X152860043Y-101635454D01*
X152819322Y-101692230D01*
X152754369Y-101717978D01*
X152743001Y-101718500D01*
X148034222Y-101718500D01*
X147967183Y-101698815D01*
X147929229Y-101660473D01*
X147912979Y-101634613D01*
X147912978Y-101634611D01*
X147793390Y-101515023D01*
X147793384Y-101515018D01*
X147650197Y-101425047D01*
X147650194Y-101425045D01*
X147490556Y-101369185D01*
X147322503Y-101350251D01*
X147322497Y-101350251D01*
X147154443Y-101369185D01*
X146994805Y-101425045D01*
X146994802Y-101425047D01*
X146851615Y-101515018D01*
X146851609Y-101515023D01*
X146732023Y-101634609D01*
X146732018Y-101634615D01*
X146642047Y-101777802D01*
X146642045Y-101777805D01*
X146586185Y-101937443D01*
X146567251Y-102105497D01*
X146567251Y-102105502D01*
X140464500Y-102105502D01*
X140464500Y-97657500D01*
X140484185Y-97590461D01*
X140536989Y-97544706D01*
X140588500Y-97533500D01*
X153926500Y-97533500D01*
X153926500Y-92128864D01*
X153946185Y-92061825D01*
X153998989Y-92016070D01*
X153999867Y-92015672D01*
X154107725Y-91967651D01*
X154260866Y-91856388D01*
X154387528Y-91715716D01*
X154482174Y-91551784D01*
X154540669Y-91371756D01*
X154560455Y-91183500D01*
X154540669Y-90995244D01*
X154482174Y-90815216D01*
X154387528Y-90651284D01*
X154260866Y-90510612D01*
X154260865Y-90510611D01*
X154107729Y-90399351D01*
X154107724Y-90399348D01*
X154000064Y-90351414D01*
X153946827Y-90306163D01*
X153926506Y-90239314D01*
X153926500Y-90238135D01*
X153926500Y-82001000D01*
X153946185Y-81933961D01*
X153998989Y-81888206D01*
X154050500Y-81877000D01*
X168141399Y-81877000D01*
X168149501Y-81877531D01*
G37*
G04 #@! TD.AperFunction*
G04 #@! TA.AperFunction,Conductor*
G36*
X162773087Y-105363685D02*
G01*
X162793729Y-105380319D01*
X164650205Y-107236796D01*
X164683690Y-107298119D01*
X164682299Y-107356569D01*
X164656439Y-107453083D01*
X164656436Y-107453096D01*
X164635841Y-107688499D01*
X164635841Y-107688500D01*
X164656436Y-107923903D01*
X164656438Y-107923913D01*
X164717594Y-108152155D01*
X164717596Y-108152159D01*
X164717597Y-108152163D01*
X164817464Y-108366330D01*
X164817465Y-108366330D01*
X164817467Y-108366334D01*
X164834189Y-108390215D01*
X164953001Y-108559896D01*
X164953006Y-108559902D01*
X165074930Y-108681826D01*
X165108415Y-108743149D01*
X165103431Y-108812841D01*
X165061559Y-108868774D01*
X165030583Y-108885689D01*
X164899169Y-108934703D01*
X164899164Y-108934706D01*
X164783956Y-109020952D01*
X164783955Y-109020953D01*
X164783954Y-109020954D01*
X164712194Y-109116812D01*
X164656262Y-109158682D01*
X164612929Y-109166500D01*
X160717161Y-109166500D01*
X160672620Y-109165371D01*
X160628081Y-109164243D01*
X160628080Y-109164243D01*
X160628071Y-109164243D01*
X160567697Y-109175065D01*
X160563031Y-109175719D01*
X160502007Y-109181925D01*
X160502006Y-109181925D01*
X160469230Y-109192208D01*
X160461603Y-109194080D01*
X160427794Y-109200140D01*
X160427791Y-109200141D01*
X160370812Y-109222899D01*
X160366375Y-109224478D01*
X160307861Y-109242838D01*
X160307850Y-109242843D01*
X160277826Y-109259507D01*
X160270734Y-109262875D01*
X160244706Y-109273273D01*
X160238827Y-109275622D01*
X160238826Y-109275622D01*
X160238825Y-109275623D01*
X160238817Y-109275627D01*
X160187599Y-109309383D01*
X160183570Y-109311824D01*
X160129946Y-109341588D01*
X160129943Y-109341590D01*
X160103871Y-109363970D01*
X160097604Y-109368695D01*
X160068926Y-109387598D01*
X160068919Y-109387603D01*
X160025560Y-109430962D01*
X160022105Y-109434164D01*
X159975550Y-109474132D01*
X159975549Y-109474133D01*
X159954520Y-109501300D01*
X159949328Y-109507194D01*
X158581843Y-110874681D01*
X158520520Y-110908166D01*
X158494162Y-110911000D01*
X150005918Y-110911000D01*
X149938879Y-110891315D01*
X149918237Y-110874681D01*
X148659236Y-109615681D01*
X148625751Y-109554358D01*
X148630735Y-109484666D01*
X148672607Y-109428733D01*
X148738071Y-109404316D01*
X148746917Y-109404000D01*
X153012757Y-109404000D01*
X153028377Y-109405724D01*
X153028404Y-109405439D01*
X153036160Y-109406171D01*
X153036167Y-109406173D01*
X153105314Y-109404000D01*
X153134850Y-109404000D01*
X153141728Y-109403130D01*
X153147541Y-109402672D01*
X153194127Y-109401209D01*
X153213369Y-109395617D01*
X153232412Y-109391674D01*
X153252292Y-109389164D01*
X153295622Y-109372007D01*
X153301146Y-109370117D01*
X153313489Y-109366531D01*
X153345890Y-109357118D01*
X153363129Y-109346922D01*
X153380603Y-109338362D01*
X153399227Y-109330988D01*
X153399227Y-109330987D01*
X153399232Y-109330986D01*
X153436949Y-109303582D01*
X153441805Y-109300392D01*
X153481920Y-109276670D01*
X153496089Y-109262499D01*
X153510879Y-109249868D01*
X153527087Y-109238094D01*
X153556799Y-109202176D01*
X153560712Y-109197876D01*
X154806116Y-107952472D01*
X154852841Y-107923113D01*
X154856554Y-107921813D01*
X154856559Y-107921813D01*
X155016190Y-107865956D01*
X155016192Y-107865955D01*
X155016197Y-107865952D01*
X155159384Y-107775981D01*
X155159385Y-107775980D01*
X155159390Y-107775977D01*
X155278977Y-107656390D01*
X155302885Y-107618341D01*
X155368952Y-107513197D01*
X155368954Y-107513194D01*
X155368954Y-107513192D01*
X155368956Y-107513190D01*
X155424813Y-107353559D01*
X155424813Y-107353558D01*
X155424814Y-107353556D01*
X155443749Y-107185502D01*
X155443749Y-107185497D01*
X155424814Y-107017443D01*
X155368954Y-106857805D01*
X155368952Y-106857802D01*
X155278981Y-106714615D01*
X155278976Y-106714609D01*
X155159390Y-106595023D01*
X155159384Y-106595018D01*
X155016197Y-106505047D01*
X155016194Y-106505045D01*
X154856556Y-106449185D01*
X154681580Y-106429471D01*
X154681742Y-106428031D01*
X154622261Y-106410566D01*
X154576506Y-106357762D01*
X154566562Y-106288604D01*
X154595587Y-106225048D01*
X154601619Y-106218570D01*
X154918575Y-105901615D01*
X155439870Y-105380319D01*
X155501194Y-105346834D01*
X155527552Y-105344000D01*
X162706048Y-105344000D01*
X162773087Y-105363685D01*
G37*
G04 #@! TD.AperFunction*
G04 #@! TA.AperFunction,Conductor*
G36*
X164825676Y-103336176D02*
G01*
X164881609Y-103378048D01*
X164883916Y-103381234D01*
X164952999Y-103479893D01*
X164953006Y-103479902D01*
X165120097Y-103646993D01*
X165120103Y-103646998D01*
X165306094Y-103777230D01*
X165349719Y-103831807D01*
X165356913Y-103901305D01*
X165325390Y-103963660D01*
X165306095Y-103980380D01*
X165120422Y-104110390D01*
X165120420Y-104110391D01*
X164953391Y-104277420D01*
X164953386Y-104277426D01*
X164817900Y-104470920D01*
X164817899Y-104470922D01*
X164718070Y-104685007D01*
X164718067Y-104685013D01*
X164660864Y-104898499D01*
X164660864Y-104898500D01*
X165378153Y-104898500D01*
X165445192Y-104918185D01*
X165490947Y-104970989D01*
X165500891Y-105040147D01*
X165497131Y-105057433D01*
X165491500Y-105076611D01*
X165491500Y-105220388D01*
X165497131Y-105239567D01*
X165497130Y-105309436D01*
X165459355Y-105368214D01*
X165395799Y-105397238D01*
X165378153Y-105398500D01*
X164632452Y-105398500D01*
X164565413Y-105378815D01*
X164544773Y-105362183D01*
X163708643Y-104526052D01*
X163675160Y-104464732D01*
X163680144Y-104395040D01*
X163708643Y-104350695D01*
X164694663Y-103364675D01*
X164755984Y-103331192D01*
X164825676Y-103336176D01*
G37*
G04 #@! TD.AperFunction*
M02*
