M48
; DRILL file {KiCad 7.0.7} date Fri Mar 29 16:46:13 2024
; FORMAT={-:-/ absolute / metric / decimal}
; #@! TF.CreationDate,2024-03-29T16:46:13+10:30
; #@! TF.GenerationSoftware,Kicad,Pcbnew,7.0.7
; #@! TF.FileFunction,Plated,1,2,PTH
FMAT,2
METRIC
; #@! TA.AperFunction,Plated,PTH,ViaDrill
T1C0.300
; #@! TA.AperFunction,Plated,PTH,ViaDrill
T2C0.400
; #@! TA.AperFunction,Plated,PTH,ComponentDrill
T3C0.610
; #@! TA.AperFunction,Plated,PTH,ComponentDrill
T4C0.800
; #@! TA.AperFunction,Plated,PTH,ComponentDrill
T5C1.000
%
G90
G05
T1
X136.019Y-107.185
X141.988Y-94.739
X144.401Y-105.788
X145.036Y-107.439
X145.651Y-106.71
X145.671Y-105.788
X147.322Y-102.105
X147.608Y-106.831
X151.767Y-107.629
X152.25Y-106.829
X153.553Y-101.927
X153.832Y-107.012
X154.689Y-107.185
X155.832Y-102.029
X158.894Y-103.517
X159.006Y-96.263
X159.581Y-98.803
X159.615Y-98.017
X159.732Y-103.593
X160.62Y-103.404
T2
X129.545Y-108.707
X129.545Y-110.739
X129.555Y-109.728
X130.434Y-108.707
X130.434Y-110.739
X130.444Y-109.728
X131.323Y-108.707
X131.323Y-110.739
X131.333Y-109.728
X132.082Y-101.557
X132.082Y-106.878
X132.212Y-108.707
X132.212Y-110.739
X132.222Y-109.728
X133.48Y-98.129
X133.7Y-101.557
X133.7Y-106.878
X134.97Y-108.542
X134.97Y-110.267
X135.13Y-98.129
X136.621Y-110.267
X137.162Y-103.756
X137.162Y-104.772
X138.178Y-103.756
X138.178Y-104.772
X139.702Y-96.517
X140.587Y-106.555
X140.659Y-110.273
X142.369Y-106.804
X144.02Y-108.498
X144.121Y-106.804
X145.29Y-111.376
X145.29Y-112.265
X145.29Y-113.154
X145.29Y-114.043
X145.29Y-114.932
X146.179Y-112.265
X146.179Y-113.154
X146.179Y-114.043
X146.179Y-114.932
X147.069Y-113.154
X147.069Y-114.043
X147.069Y-114.932
X148.252Y-98.776
X152.503Y-98.623
X153.655Y-91.183
X154.689Y-110.742
X154.808Y-98.61
X155.196Y-83.563
X157.737Y-100.073
X157.964Y-112.011
X159.006Y-106.423
X160.811Y-105.661
X160.811Y-111.757
X164.087Y-101.343
X164.087Y-104.518
T4
X136.624Y-113.281
X139.225Y-113.281
T5
X162.021Y-100.012
X162.021Y-102.552
X165.992Y-100.069
X165.992Y-102.608
X165.992Y-105.148
X165.992Y-107.688
X165.992Y-110.228
T3
X146.043Y-92.244G85X146.043Y-91.33
G05
X146.443Y-85.822G85X146.443Y-84.908
G05
X146.843Y-94.444G85X146.843Y-93.53
G05
X151.243Y-88.444G85X151.243Y-87.53
G05
X151.243Y-93.444G85X151.243Y-92.53
G05
X151.543Y-85.822G85X151.543Y-84.908
G05
T0
M30
